<svg fill="none" height="48" viewBox="0 0 48 48" width="48" xmlns="http://www.w3.org/2000/svg" xmlns:xlink="http://www.w3.org/1999/xlink"><linearGradient id="a" gradientUnits="userSpaceOnUse" x1="24" x2="24" y1="6" y2="42"><stop offset="0" stop-color="#888d95"/><stop offset="1" stop-color="#6e747d"/></linearGradient><g fill="url(#a)"><path d="m24 29c.5523 0 1-.4477 1-1s-.4477-1-1-1-1 .4477-1 1 .4477 1 1 1z"/><path clip-rule="evenodd" d="m11 6h26c1.6569 0 3 1.34315 3 3v30c0 1.6569-1.3431 3-3 3h-26c-1.65685 0-3-1.3431-3-3v-30c0-1.65685 1.34315-3 3-3zm11 2.5c0-.27614.2239-.5.5-.5h3c.2761 0 .5.22386.5.5s-.2239.5-.5.5h-3c-.2761 0-.5-.22386-.5-.5zm0 2c0-.2761.2239-.5.5-.5h3c.2761 0 .5.2239.5.5s-.2239.5-.5.5h-3c-.2761 0-.5-.2239-.5-.5zm.5 1.5c-.2761 0-.5.2239-.5.5s.2239.5.5.5h3c.2761 0 .5-.2239.5-.5s-.2239-.5-.5-.5zm-.5 2.5c0-.2761.2239-.5.5-.5h3c.2761 0 .5.2239.5.5s-.2239.5-.5.5h-3c-.2761 0-.5-.2239-.5-.5zm.5 1.5c-.2761 0-.5.2239-.5.5s.2239.5.5.5h3c.2761 0 .5-.2239.5-.5s-.2239-.5-.5-.5zm-.5 2.5c0-.2761.2239-.5.5-.5h3c.2761 0 .5.2239.5.5s-.2239.5-.5.5h-3c-.2761 0-.5-.2239-.5-.5zm.5 1.5c-.2761 0-.5.2239-.5.5s.2239.5.5.5h3c.2761 0 .5-.2239.5-.5s-.2239-.5-.5-.5zm-.5 2.5c0-.2761.2239-.5.5-.5h3c.2761 0 .5.2239.5.5s-.2239.5-.5.5h-3c-.2761 0-.5-.2239-.5-.5zm.5 1.5c-.2761 0-.5.2239-.5.5s.2239.5.5.5h3c.2761 0 .5-.2239.5-.5s-.2239-.5-.5-.5zm.5 2c-.5523 0-1 .4477-1 1v4c0 1.1046.8954 2 2 2s2-.8954 2-2v-4c0-.5523-.4477-1-1-1z" fill-rule="evenodd"/></g></svg>