<svg width="24" height="24" viewBox="0 0 24 24" fill="none" xmlns="http://www.w3.org/2000/svg">
<path fill-rule="evenodd" clip-rule="evenodd" d="M13.7465 0.791691C14.0479 0.896586 14.25 1.18082 14.25 1.50004V9.75004H20C20.2876 9.75004 20.5499 9.91452 20.6752 10.1734C20.8004 10.4323 20.7666 10.7401 20.588 10.9656L11.088 22.9656C10.8899 23.2159 10.5551 23.3133 10.2536 23.2084C9.95206 23.1035 9.75001 22.8193 9.75001 22.5V14.25H4.00001C3.71239 14.25 3.45011 14.0856 3.32486 13.8267C3.19961 13.5677 3.23345 13.26 3.41197 13.0345L12.912 1.03452C13.1101 0.784234 13.445 0.686796 13.7465 0.791691ZM5.55033 12.75H10.5C10.9142 12.75 11.25 13.0858 11.25 13.5V20.3444L18.4497 11.25H13.5C13.0858 11.25 12.75 10.9143 12.75 10.5V3.65572L5.55033 12.75Z" fill="#303233"/>
</svg>
