<svg fill="none" height="48" viewBox="0 0 48 48" width="48" xmlns="http://www.w3.org/2000/svg" xmlns:xlink="http://www.w3.org/1999/xlink"><linearGradient id="a" gradientUnits="userSpaceOnUse" x1="24" x2="24" y1="6" y2="42"><stop offset="0" stop-color="#888d95"/><stop offset="1" stop-color="#6e747d"/></linearGradient><g clip-rule="evenodd" fill="url(#a)" fill-rule="evenodd"><path d="m20 24c0-2.2091 1.7909-4 4-4s4 1.7909 4 4-1.7909 4-4 4-4-1.7909-4-4zm4-2c-1.1046 0-2 .8954-2 2s.8954 2 2 2 2-.8954 2-2-.8954-2-2-2z"/><path d="m11 6h26c1.6569 0 3 1.34315 3 3v30c0 1.6569-1.3431 3-3 3h-26c-1.65685 0-3-1.3431-3-3v-30c0-1.65685 1.34315-3 3-3zm20.4 21c-.1331.3016-.1728.6362-.114.9606s.2135.6237.444.8594l.06.06c.186.1857.3335.4063.4341.6491.1007.2428.1525.5031.1525.7659s-.0518.5231-.1525.7659c-.1006.2428-.2481.4634-.4341.6491-.1857.186-.4063.3335-.6491.4341-.2428.1007-.5031.1525-.7659.1525s-.5231-.0518-.7659-.1525c-.2428-.1006-.4634-.2481-.6491-.4341l-.06-.06c-.2357-.2305-.535-.3852-.8594-.444s-.659-.0191-.9606.114c-.2958.1268-.548.3372-.7257.6055s-.273.5827-.2743.9045v.17c0 .5304-.2107 1.0391-.5858 1.4142s-.8838.5858-1.4142.5858-1.0391-.2107-1.4142-.5858-.5858-.8838-.5858-1.4142v-.09c-.0077-.331-.1149-.652-.3075-.9213s-.4618-.4744-.7725-.5887c-.3016-.1331-.6362-.1728-.9606-.114s-.6237.2135-.8594.444l-.06.06c-.1857.186-.4063.3335-.6491.4341-.2428.1007-.5031.1525-.7659.1525s-.5231-.0518-.7659-.1525c-.2428-.1006-.4634-.2481-.6491-.4341-.186-.1857-.3335-.4063-.4341-.6491-.1007-.2428-.1525-.5031-.1525-.7659s.0518-.5231.1525-.7659c.1006-.2428.2481-.4634.4341-.6491l.06-.06c.2305-.2357.3852-.535.444-.8594s.0191-.659-.114-.9606c-.1268-.2958-.3372-.548-.6055-.7257s-.5827-.273-.9045-.2743h-.17c-.5304 0-1.0391-.2107-1.4142-.5858s-.5858-.8838-.5858-1.4142.2107-1.0391.5858-1.4142.8838-.5858 1.4142-.5858h.09c.331-.0077.652-.1149.9213-.3075s.4744-.4618.5887-.7725c.1331-.3016.1728-.6362.114-.9606s-.2135-.6237-.444-.8594l-.06-.06c-.186-.1857-.3335-.4063-.4341-.6491-.1007-.2428-.1525-.5031-.1525-.7659s.0518-.5231.1525-.7659c.1006-.2428.2481-.4634.4341-.6491.1857-.186.4063-.3335.6491-.4341.2428-.1007.5031-.1525.7659-.1525s.5231.0518.7659.1525c.2428.1006.4634.2481.6491.4341l.06.06c.2357.2305.535.3852.8594.444s.659.0191.9606-.114h.08c.2958-.1268.548-.3372.7257-.6055s.273-.5827.2743-.9045v-.17c0-.5304.2107-1.0391.5858-1.4142s.8838-.5858 1.4142-.5858 1.0391.2107 1.4142.5858.5858.8838.5858 1.4142v.09c.0013.3218.0966.6362.2743.9045s.4299.4787.7257.6055c.3016.1331.6362.1728.9606.114s.6237-.2135.8594-.444l.06-.06c.1857-.186.4063-.3335.6491-.4341.2428-.1007.5031-.1525.7659-.1525s.5231.0518.7659.1525c.2428.1006.4634.2481.6491.4341.186.1857.3335.4063.4341.6491.1007.2428.1525.5031.1525.7659s-.0518.5231-.1525.7659c-.1006.2428-.2481.4634-.4341.6491l-.06.06c-.2305.2357-.3852.535-.444.8594s-.0191.659.114.9606v.08c.1268.2958.3372.548.6055.7257s.5827.273.9045.2743h.17c.5304 0 1.0391.2107 1.4142.5858s.5858.8838.5858 1.4142-.2107 1.0391-.5858 1.4142-.8838.5858-1.4142.5858h-.09c-.3218.0013-.6362.0966-.9045.2743s-.4787.4299-.6055.7257z"/></g></svg>