<svg width="128" height="128" viewBox="0 0 128 128" fill="none" xmlns="http://www.w3.org/2000/svg">
<g clip-path="url(#clip0_3441_22175)">
<g filter="url(#filter0_dii_3441_22175)">
<path fill-rule="evenodd" clip-rule="evenodd" d="M40.6458 17H87.3542C89.4628 16.9999 91.2818 16.9999 92.7801 17.1223C94.3615 17.2515 95.9344 17.5368 97.4479 18.3079C99.7058 19.4584 101.542 21.2942 102.692 23.5521C103.463 25.0656 103.749 26.6385 103.878 28.2199C104 29.7182 104 31.5372 104 33.6457V75.3543C104 77.4628 104 79.2819 103.878 80.7801C103.749 82.3615 103.463 83.9344 102.692 85.4479C101.542 87.7058 99.7058 89.5416 97.4479 90.6921C95.9344 91.4633 94.3615 91.7485 92.7801 91.8777C91.2819 92.0001 89.4628 92.0001 87.3543 92H40.6457C38.5372 92.0001 36.7182 92.0001 35.2199 91.8777C33.6385 91.7485 32.0656 91.4633 30.5521 90.6921C28.2942 89.5416 26.4584 87.7058 25.3079 85.4479C24.5368 83.9344 24.2515 82.3615 24.1223 80.7801C23.9999 79.2818 23.9999 77.4628 24 75.3542V33.6458C23.9999 31.5372 23.9999 29.7182 24.1223 28.2199C24.2515 26.6385 24.5368 25.0656 25.3079 23.5521C26.4584 21.2942 28.2942 19.4584 30.5521 18.3079C32.0656 17.5368 33.6385 17.2515 35.2199 17.1223C36.7182 16.9999 38.5372 16.9999 40.6458 17Z" fill="url(#paint0_linear_3441_22175)"/>
</g>
<g filter="url(#filter1_dii_3441_22175)">
<path fill-rule="evenodd" clip-rule="evenodd" d="M32.6458 22H95.3542C97.4628 21.9999 99.2818 21.9999 100.78 22.1223C102.361 22.2515 103.934 22.5368 105.448 23.3079C107.706 24.4584 109.542 26.2942 110.692 28.5521C111.463 30.0656 111.749 31.6385 111.878 33.2199C112 34.7182 112 36.5372 112 38.6457V85.3543C112 87.4628 112 89.2819 111.878 90.7801C111.749 92.3615 111.463 93.9344 110.692 95.4479C109.542 97.7058 107.706 99.5416 105.448 100.692C103.934 101.463 102.362 101.749 100.78 101.878C99.2819 102 97.4628 102 95.3543 102H32.6457C30.5372 102 28.7182 102 27.2199 101.878C25.6385 101.749 24.0656 101.463 22.5521 100.692C20.2942 99.5416 18.4584 97.7058 17.3079 95.4479C16.5368 93.9344 16.2515 92.3615 16.1223 90.7801C15.9999 89.2818 15.9999 87.4628 16 85.3542V38.6458C15.9999 36.5372 15.9999 34.7182 16.1223 33.2199C16.2515 31.6385 16.5368 30.0656 17.3079 28.5521C18.4584 26.2942 20.2942 24.4584 22.5521 23.3079C24.0656 22.5368 25.6385 22.2515 27.2199 22.1223C28.7182 21.9999 30.5372 21.9999 32.6458 22Z" fill="url(#paint1_linear_3441_22175)"/>
</g>
<g filter="url(#filter2_bii_3441_22175)">
<path fill-rule="evenodd" clip-rule="evenodd" d="M24.6458 30H103.354C105.463 29.9999 107.282 29.9999 108.78 30.1223C110.361 30.2515 111.934 30.5368 113.448 31.3079C115.706 32.4584 117.542 34.2942 118.692 36.5521C119.463 38.0656 119.749 39.6385 119.878 41.2199C120 42.7182 120 44.5372 120 46.6457V93.3543C120 95.4628 120 97.2819 119.878 98.7801C119.749 100.361 119.463 101.934 118.692 103.448C117.542 105.706 115.706 107.542 113.448 108.692C111.934 109.463 110.362 109.749 108.78 109.878C107.282 110 105.463 110 103.354 110H24.6457C22.5372 110 20.7182 110 19.2199 109.878C17.6385 109.749 16.0656 109.463 14.5521 108.692C12.2942 107.542 10.4584 105.706 9.30793 103.448C8.53675 101.934 8.25149 100.361 8.12228 98.7801C7.99987 97.2818 7.99993 95.4628 8 93.3542V46.6458C7.99993 44.5372 7.99987 42.7182 8.12228 41.2199C8.25149 39.6385 8.53675 38.0656 9.30793 36.5521C10.4584 34.2942 12.2942 32.4584 14.5521 31.3079C16.0656 30.5368 17.6385 30.2515 19.2199 30.1223C20.7182 29.9999 22.5372 29.9999 24.6458 30Z" fill="url(#paint2_linear_3441_22175)"/>
</g>
</g>
<defs>
<filter id="filter0_dii_3441_22175" x="4" y="-3" width="120" height="115" filterUnits="userSpaceOnUse" color-interpolation-filters="sRGB">
<feFlood flood-opacity="0" result="BackgroundImageFix"/>
<feColorMatrix in="SourceAlpha" type="matrix" values="0 0 0 0 0 0 0 0 0 0 0 0 0 0 0 0 0 0 127 0" result="hardAlpha"/>
<feMorphology radius="4" operator="dilate" in="SourceAlpha" result="effect1_dropShadow_3441_22175"/>
<feOffset/>
<feGaussianBlur stdDeviation="8"/>
<feComposite in2="hardAlpha" operator="out"/>
<feColorMatrix type="matrix" values="0 0 0 0 0.964706 0 0 0 0 0.294118 0 0 0 0 0.286275 0 0 0 0.5 0"/>
<feBlend mode="normal" in2="BackgroundImageFix" result="effect1_dropShadow_3441_22175"/>
<feBlend mode="normal" in="SourceGraphic" in2="effect1_dropShadow_3441_22175" result="shape"/>
<feColorMatrix in="SourceAlpha" type="matrix" values="0 0 0 0 0 0 0 0 0 0 0 0 0 0 0 0 0 0 127 0" result="hardAlpha"/>
<feOffset dy="4"/>
<feGaussianBlur stdDeviation="4"/>
<feComposite in2="hardAlpha" operator="arithmetic" k2="-1" k3="1"/>
<feColorMatrix type="matrix" values="0 0 0 0 1 0 0 0 0 1 0 0 0 0 1 0 0 0 0.2 0"/>
<feBlend mode="normal" in2="shape" result="effect2_innerShadow_3441_22175"/>
<feColorMatrix in="SourceAlpha" type="matrix" values="0 0 0 0 0 0 0 0 0 0 0 0 0 0 0 0 0 0 127 0" result="hardAlpha"/>
<feOffset dy="2"/>
<feGaussianBlur stdDeviation="2"/>
<feComposite in2="hardAlpha" operator="arithmetic" k2="-1" k3="1"/>
<feColorMatrix type="matrix" values="0 0 0 0 1 0 0 0 0 1 0 0 0 0 1 0 0 0 0.2 0"/>
<feBlend mode="normal" in2="effect2_innerShadow_3441_22175" result="effect3_innerShadow_3441_22175"/>
</filter>
<filter id="filter1_dii_3441_22175" x="-4" y="2" width="136" height="120" filterUnits="userSpaceOnUse" color-interpolation-filters="sRGB">
<feFlood flood-opacity="0" result="BackgroundImageFix"/>
<feColorMatrix in="SourceAlpha" type="matrix" values="0 0 0 0 0 0 0 0 0 0 0 0 0 0 0 0 0 0 127 0" result="hardAlpha"/>
<feMorphology radius="4" operator="dilate" in="SourceAlpha" result="effect1_dropShadow_3441_22175"/>
<feOffset/>
<feGaussianBlur stdDeviation="8"/>
<feComposite in2="hardAlpha" operator="out"/>
<feColorMatrix type="matrix" values="0 0 0 0 0.964706 0 0 0 0 0.294118 0 0 0 0 0.286275 0 0 0 0.5 0"/>
<feBlend mode="normal" in2="BackgroundImageFix" result="effect1_dropShadow_3441_22175"/>
<feBlend mode="normal" in="SourceGraphic" in2="effect1_dropShadow_3441_22175" result="shape"/>
<feColorMatrix in="SourceAlpha" type="matrix" values="0 0 0 0 0 0 0 0 0 0 0 0 0 0 0 0 0 0 127 0" result="hardAlpha"/>
<feOffset dy="4"/>
<feGaussianBlur stdDeviation="4"/>
<feComposite in2="hardAlpha" operator="arithmetic" k2="-1" k3="1"/>
<feColorMatrix type="matrix" values="0 0 0 0 1 0 0 0 0 1 0 0 0 0 1 0 0 0 0.2 0"/>
<feBlend mode="normal" in2="shape" result="effect2_innerShadow_3441_22175"/>
<feColorMatrix in="SourceAlpha" type="matrix" values="0 0 0 0 0 0 0 0 0 0 0 0 0 0 0 0 0 0 127 0" result="hardAlpha"/>
<feOffset dy="2"/>
<feGaussianBlur stdDeviation="2"/>
<feComposite in2="hardAlpha" operator="arithmetic" k2="-1" k3="1"/>
<feColorMatrix type="matrix" values="0 0 0 0 1 0 0 0 0 1 0 0 0 0 1 0 0 0 0.2 0"/>
<feBlend mode="normal" in2="effect2_innerShadow_3441_22175" result="effect3_innerShadow_3441_22175"/>
</filter>
<filter id="filter2_bii_3441_22175" x="-8" y="14" width="144" height="112" filterUnits="userSpaceOnUse" color-interpolation-filters="sRGB">
<feFlood flood-opacity="0" result="BackgroundImageFix"/>
<feGaussianBlur in="BackgroundImageFix" stdDeviation="8"/>
<feComposite in2="SourceAlpha" operator="in" result="effect1_backgroundBlur_3441_22175"/>
<feBlend mode="normal" in="SourceGraphic" in2="effect1_backgroundBlur_3441_22175" result="shape"/>
<feColorMatrix in="SourceAlpha" type="matrix" values="0 0 0 0 0 0 0 0 0 0 0 0 0 0 0 0 0 0 127 0" result="hardAlpha"/>
<feOffset dy="4"/>
<feGaussianBlur stdDeviation="8"/>
<feComposite in2="hardAlpha" operator="arithmetic" k2="-1" k3="1"/>
<feColorMatrix type="matrix" values="0 0 0 0 1 0 0 0 0 1 0 0 0 0 1 0 0 0 0.1 0"/>
<feBlend mode="normal" in2="shape" result="effect2_innerShadow_3441_22175"/>
<feColorMatrix in="SourceAlpha" type="matrix" values="0 0 0 0 0 0 0 0 0 0 0 0 0 0 0 0 0 0 127 0" result="hardAlpha"/>
<feOffset dy="2"/>
<feGaussianBlur stdDeviation="4"/>
<feComposite in2="hardAlpha" operator="arithmetic" k2="-1" k3="1"/>
<feColorMatrix type="matrix" values="0 0 0 0 1 0 0 0 0 1 0 0 0 0 1 0 0 0 0.1 0"/>
<feBlend mode="normal" in2="effect2_innerShadow_3441_22175" result="effect3_innerShadow_3441_22175"/>
</filter>
<linearGradient id="paint0_linear_3441_22175" x1="104" y1="17" x2="29.1559" y2="96.8337" gradientUnits="userSpaceOnUse">
<stop stop-color="#FB6361"/>
<stop offset="1" stop-color="#F23433"/>
</linearGradient>
<linearGradient id="paint1_linear_3441_22175" x1="112" y1="22" x2="33.3115" y2="116.426" gradientUnits="userSpaceOnUse">
<stop stop-color="#FB6361"/>
<stop offset="1" stop-color="#F23433"/>
</linearGradient>
<linearGradient id="paint2_linear_3441_22175" x1="120" y1="30" x2="4.75064" y2="105.007" gradientUnits="userSpaceOnUse">
<stop stop-color="#BFBBBB" stop-opacity="0.3"/>
<stop offset="1" stop-color="#999291" stop-opacity="0.4"/>
</linearGradient>
<clipPath id="clip0_3441_22175">
<rect width="128" height="128" fill="white"/>
</clipPath>
</defs>
</svg>
