<svg width="28" height="29" viewBox="0 0 28 29" fill="none" xmlns="http://www.w3.org/2000/svg">
<path d="M14 26.25C7.51421 26.25 2.25 20.9858 2.25 14.5C2.25 8.01421 7.51421 2.75 14 2.75C20.4858 2.75 25.75 8.01421 25.75 14.5C25.75 20.9858 20.4858 26.25 14 26.25Z" stroke="#303233" stroke-width="1.5"/>
<path fill-rule="evenodd" clip-rule="evenodd" d="M20.25 18.5C20.25 18.7109 20.0859 18.875 19.8828 18.875H18.3047C18.1016 18.875 17.9375 18.7109 17.9375 18.5V13.6016C17.9375 13.5547 17.8828 13.5391 17.8594 13.5625L14.5234 16.9375C14.2344 17.2344 13.7656 17.2344 13.4766 16.9375L10.1406 13.5625C10.1172 13.5391 10.0625 13.5547 10.0625 13.6016V18.5C10.0625 18.7109 9.89844 18.875 9.69531 18.875H8.11719C7.91406 18.875 7.75 18.7109 7.75 18.5V9.875C7.75 9.66406 7.91406 9.5 8.11719 9.5H9.20312C9.39844 9.5 9.58594 9.57812 9.72656 9.71875L13.8672 13.9141C13.9375 13.9844 14.0625 13.9844 14.1328 13.9141L18.2734 9.71875C18.4141 9.57812 18.6016 9.5 18.7969 9.5H19.8828C20.0859 9.5 20.25 9.66406 20.25 9.875V18.5Z" fill="#303233"/>
</svg>
