<svg width="22" height="22" viewBox="0 0 22 22" fill="none" xmlns="http://www.w3.org/2000/svg">
<path d="M7.57507 0.0297399C7.9393 -1.90772e-05 8.38515 -1.02549e-05 8.9193 4.01286e-07H12.5802C13.1143 -1.02549e-05 13.5602 -1.90772e-05 13.9244 0.0297399C14.3043 0.0607776 14.6609 0.127889 14.9982 0.299732C15.5151 0.563122 15.9355 0.983246 16.1992 1.49999H5.30026C5.56396 0.983246 5.98433 0.563122 6.50127 0.299732C6.83853 0.127889 7.19519 0.0607776 7.57507 0.0297399Z" fill="#616366"/>
<path d="M5.91955 2.99999C5.38541 2.99998 4.93956 2.99997 4.57533 3.02973C4.19545 3.06077 3.83879 3.12788 3.50153 3.29972C2.98459 3.56312 2.56421 3.98324 2.30051 4.49999H19.1995C18.9358 3.98324 18.5154 3.56312 17.9985 3.29972C17.6612 3.12788 17.3046 3.06077 16.9247 3.02973C16.5604 2.99997 16.1146 2.99998 15.5805 2.99999H5.91955Z" fill="#616366"/>
<path d="M11.5 10.75C11.5 10.3358 11.1642 10 10.75 10C10.3358 10 10 10.3358 10 10.75V13H7.75C7.33579 13 7 13.3358 7 13.75C7 14.1642 7.33579 14.5 7.75 14.5H10V16.75C10 17.1642 10.3358 17.5 10.75 17.5C11.1642 17.5 11.5 17.1642 11.5 16.75V14.5H13.75C14.1642 14.5 14.5 14.1642 14.5 13.75C14.5 13.3358 14.1642 13 13.75 13H11.5V10.75Z" fill="#616366"/>
<path fill-rule="evenodd" clip-rule="evenodd" d="M3.91957 5.99999H17.5804C18.1146 5.99998 18.5604 5.99997 18.9247 6.02973C19.3046 6.06077 19.6612 6.12788 19.9985 6.29972C20.5159 6.56338 20.9366 6.98407 21.2003 7.50152C21.3721 7.83878 21.4392 8.19544 21.4703 8.57532C21.5 8.93955 21.5 9.38539 21.5 9.91954V17.5804C21.5 18.1146 21.5 18.5604 21.4703 18.9247C21.4392 19.3045 21.3721 19.6612 21.2003 19.9985C20.9366 20.5159 20.5159 20.9366 19.9985 21.2003C19.6612 21.3721 19.3046 21.4392 18.9247 21.4703C18.5605 21.5 18.1146 21.5 17.5805 21.5H3.91955C3.38544 21.5 2.93954 21.5 2.57533 21.4703C2.19545 21.4392 1.83879 21.3721 1.50153 21.2003C0.984082 20.9366 0.563385 20.5159 0.299733 19.9985C0.127889 19.6612 0.0607782 19.3045 0.0297404 18.9247C-1.83843e-05 18.5604 -9.84895e-06 18.1146 3.77364e-07 17.5804V9.91956C-9.84895e-06 9.38541 -1.83843e-05 8.93955 0.0297404 8.57532C0.0607782 8.19544 0.127889 7.83878 0.299733 7.50152C0.563385 6.98407 0.984082 6.56338 1.50153 6.29972C1.83879 6.12788 2.19545 6.06077 2.57533 6.02973C2.93956 5.99997 3.38541 5.99998 3.91957 5.99999ZM2.69748 7.52475C2.41036 7.54821 2.27307 7.59009 2.18251 7.63623C1.94731 7.75607 1.75608 7.9473 1.63624 8.1825C1.5901 8.27306 1.54822 8.41035 1.52476 8.69747C1.50058 8.99335 1.5 9.37756 1.5 9.94999V17.55C1.5 18.1224 1.50058 18.5066 1.52476 18.8025C1.54822 19.0896 1.5901 19.2269 1.63624 19.3175C1.75608 19.5527 1.94731 19.7439 2.18251 19.8637C2.27307 19.9099 2.41036 19.9518 2.69748 19.9752C2.99336 19.9994 3.37757 20 3.95 20H17.55C18.1224 20 18.5066 19.9994 18.8025 19.9752C19.0896 19.9518 19.2269 19.9099 19.3175 19.8637C19.5527 19.7439 19.7439 19.5527 19.8638 19.3175C19.9099 19.2269 19.9518 19.0896 19.9752 18.8025C19.9994 18.5066 20 18.1224 20 17.55V9.94999C20 9.37756 19.9994 8.99335 19.9752 8.69747C19.9518 8.41035 19.9099 8.27306 19.8638 8.1825C19.7439 7.9473 19.5527 7.75607 19.3175 7.63623C19.2269 7.59009 19.0896 7.54821 18.8025 7.52475C18.5066 7.50058 18.1224 7.49999 17.55 7.49999H3.95C3.37757 7.49999 2.99336 7.50058 2.69748 7.52475Z" fill="#616366"/>
</svg>
