<svg width="24" height="24" viewBox="0 0 24 24" fill="none" xmlns="http://www.w3.org/2000/svg">
<path d="M11.9998 7.99996C12.414 7.99996 12.7498 8.33575 12.7498 8.74996V13.25C12.7498 13.6642 12.414 14 11.9998 14C11.5856 14 11.2498 13.6642 11.2498 13.25V8.74996C11.2498 8.33575 11.5856 7.99996 11.9998 7.99996Z" fill="#FD6F90"/>
<path d="M11.9998 16.5C11.5856 16.5 11.2498 16.8357 11.2498 17.25C11.2498 17.6642 11.5856 18 11.9998 18H12.0098C12.424 18 12.7598 17.6642 12.7598 17.25C12.7598 16.8357 12.424 16.5 12.0098 16.5H11.9998Z" fill="#FD6F90"/>
<path fill-rule="evenodd" clip-rule="evenodd" d="M10.6506 2.5009C11.0625 2.26903 11.5271 2.14722 11.9998 2.14722C12.4724 2.14722 12.9371 2.26903 13.3489 2.5009C13.7608 2.73278 14.1059 3.06689 14.351 3.47099L14.3532 3.47455L22.8294 17.6249C23.0695 18.0407 23.1964 18.5122 23.1978 18.9924C23.1991 19.4726 23.0747 19.9447 22.8369 20.3619C22.5991 20.7791 22.2563 21.1267 21.8424 21.3702C21.4286 21.6137 20.9582 21.7446 20.478 21.7499L20.4698 21.75L3.52153 21.75C3.04138 21.7447 2.57098 21.6137 2.15713 21.3702C1.74328 21.1267 1.40041 20.7791 1.16262 20.3619C0.924834 19.9447 0.800424 19.4726 0.801769 18.9924C0.803113 18.5122 0.930165 18.0407 1.17028 17.6249L1.17629 17.6145L9.64638 3.47456L10.2898 3.85996L9.64853 3.47099C9.89365 3.06689 10.2388 2.73278 10.6506 2.5009ZM10.932 4.24736L10.931 4.24893L2.46662 18.3796C2.35919 18.5675 2.30237 18.7801 2.30176 18.9966C2.30115 19.2148 2.3577 19.4295 2.46579 19.6191C2.57387 19.8087 2.72972 19.9667 2.91784 20.0774C3.1049 20.1875 3.31737 20.2469 3.53435 20.25H20.4652C20.6822 20.2469 20.8947 20.1875 21.0817 20.0774C21.2698 19.9667 21.4257 19.8087 21.5338 19.6191C21.6419 19.4295 21.6984 19.2148 21.6978 18.9966C21.6972 18.7801 21.6404 18.5675 21.5329 18.3796L13.0685 4.24893L13.0676 4.24736C12.9562 4.06438 12.7997 3.91308 12.613 3.80798C12.4258 3.70259 12.2146 3.64722 11.9998 3.64722C11.7849 3.64722 11.5737 3.70259 11.3865 3.80798C11.1999 3.91308 11.0433 4.06438 10.932 4.24736Z" fill="#FD6F90"/>
</svg>
