<svg width="16" height="10" viewBox="0 0 16 10" fill="none" xmlns="http://www.w3.org/2000/svg">
<path d="M3.75 0C4.16421 0 4.5 0.335786 4.5 0.75V7.18934L6.21967 5.46967C6.51256 5.17678 6.98744 5.17678 7.28033 5.46967C7.57322 5.76256 7.57322 6.23744 7.28033 6.53033L4.28033 9.53033C3.98744 9.82322 3.51256 9.82322 3.21967 9.53033L0.21967 6.53033C-0.0732233 6.23744 -0.0732233 5.76256 0.21967 5.46967C0.512563 5.17678 0.987437 5.17678 1.28033 5.46967L3 7.18934V0.75C3 0.335786 3.33579 0 3.75 0Z" fill="#303233"/>
<path d="M12.2803 0.46967C12.2084 0.397762 12.1255 0.343509 12.0371 0.306909C11.9487 0.270239 11.8517 0.25 11.75 0.25C11.6483 0.25 11.5513 0.270239 11.4629 0.306909C11.3745 0.343509 11.2916 0.397762 11.2197 0.46967L8.21967 3.46967C7.92678 3.76256 7.92678 4.23744 8.21967 4.53033C8.51256 4.82322 8.98744 4.82322 9.28033 4.53033L11 2.81066V9C11 9.41421 11.3358 9.75 11.75 9.75C12.1642 9.75 12.5 9.41421 12.5 9V2.81066L14.2197 4.53033C14.5126 4.82322 14.9874 4.82322 15.2803 4.53033C15.5732 4.23744 15.5732 3.76256 15.2803 3.46967L12.2803 0.46967Z" fill="#303233"/>
</svg>
