<svg width="40" height="40" viewBox="0 0 40 40" fill="none" xmlns="http://www.w3.org/2000/svg">
<circle cx="20" cy="20" r="20" fill="#FAFAFB"/>
<path fill-rule="evenodd" clip-rule="evenodd" d="M12.25 16C12.25 13.3766 14.3766 11.25 17 11.25C19.6234 11.25 21.75 13.3766 21.75 16C21.75 18.6234 19.6234 20.75 17 20.75C14.3766 20.75 12.25 18.6234 12.25 16ZM8.52563 28.8131C9.49693 25.0393 12.9217 22.25 16.9999 22.25C21.0781 22.25 24.5029 25.0393 25.4742 28.8131C25.532 29.0376 25.4827 29.2763 25.3406 29.4595C25.1986 29.6428 24.9798 29.75 24.7479 29.75H9.25196C9.0201 29.75 8.80127 29.6428 8.65921 29.4595C8.51715 29.2763 8.46784 29.0376 8.52563 28.8131ZM28 16.25C28.4142 16.25 28.75 16.5858 28.75 17V19.25H31C31.4142 19.25 31.75 19.5858 31.75 20C31.75 20.4142 31.4142 20.75 31 20.75H28.75V23C28.75 23.4142 28.4142 23.75 28 23.75C27.5858 23.75 27.25 23.4142 27.25 23V20.75H25C24.5858 20.75 24.25 20.4142 24.25 20C24.25 19.5858 24.5858 19.25 25 19.25H27.25V17C27.25 16.5858 27.5858 16.25 28 16.25Z" fill="#04101E"/>
</svg>
