<svg fill="none" height="48" viewBox="0 0 48 48" width="48" xmlns="http://www.w3.org/2000/svg" xmlns:xlink="http://www.w3.org/1999/xlink"><linearGradient id="a" gradientUnits="userSpaceOnUse" x1="24" x2="24" y1="6" y2="42"><stop offset="0" stop-color="#888d95"/><stop offset="1" stop-color="#6e747d"/></linearGradient><path clip-rule="evenodd" d="m11 6h26c1.6569 0 3 1.34315 3 3v30c0 1.6569-1.3431 3-3 3h-26c-1.65685 0-3-1.3431-3-3v-30c0-1.65685 1.34315-3 3-3zm5 6h1v2h18v1h-18v3h18v1h-18v3h18v1h-18v3h18v1h-18v3h18v1h-18v3h18v1h-18v2h-1v-2h-3v-1h3v-3h-3v-1h3v-3h-3v-1h3v-3h-3v-1h3v-3h-3v-1h3v-3h-3v-1h3z" fill="url(#a)" fill-rule="evenodd"/></svg>