<svg width="24" height="20" viewBox="0 0 24 20" fill="none" xmlns="http://www.w3.org/2000/svg">
<path d="M10.229 2.19956C11.547 1.90133 12.9192 1.94185 14.2173 2.31735C15.5155 2.69284 16.6974 3.39107 17.6527 4.34688C17.6601 4.35427 17.6676 4.36155 17.6752 4.36871L20.4755 6.99995H17C16.4477 6.99995 16 7.44767 16 7.99995C16 8.55224 16.4477 8.99995 17 8.99995H23C23.1407 8.99995 23.2747 8.97088 23.3962 8.91842C23.5172 8.86628 23.6299 8.78922 23.7262 8.68749C23.7347 8.67845 23.7431 8.66925 23.7513 8.6599C23.9176 8.47079 24 8.23513 24 7.99997L24 7.99648V1.99995C24 1.44767 23.5523 0.999954 23 0.999954C22.4477 0.999954 22 1.44767 22 1.99995V5.68809L19.0559 2.92164C17.8637 1.73272 16.3906 0.863984 14.7731 0.396106C13.1503 -0.0732636 11.4352 -0.123919 9.78761 0.248866C8.14003 0.621652 6.61373 1.40573 5.35114 2.52793C4.08855 3.65014 3.13081 5.0739 2.56729 6.66636C2.38305 7.187 2.65576 7.75843 3.17641 7.94267C3.69705 8.12691 4.26848 7.8542 4.45272 7.33355C4.90353 6.05958 5.66973 4.92057 6.6798 4.02281C7.68987 3.12505 8.91091 2.49779 10.229 2.19956Z" fill="#1C1C1E"/>
<path d="M0.602897 11.0819C0.485759 11.1325 0.376517 11.2065 0.282369 11.3035C0.267214 11.3191 0.252565 11.3352 0.238447 11.3518C0.166575 11.4361 0.111043 11.5293 0.0717263 11.6273C0.0287631 11.7343 0.00374138 11.8504 0.000387539 11.9718C0.000127427 11.9812 -1.73085e-06 11.9906 1.75132e-08 12V18C1.75132e-08 18.5522 0.447715 19 1 19C1.55228 19 2 18.5522 2 18V14.3118L4.94411 17.0783C6.13627 18.2672 7.6094 19.1359 9.22695 19.6038C10.8497 20.0732 12.5648 20.1238 14.2124 19.751C15.86 19.3783 17.3863 18.5942 18.6489 17.472C19.9115 16.3498 20.8692 14.926 21.4327 13.3335C21.617 12.8129 21.3442 12.2415 20.8236 12.0572C20.303 11.873 19.7315 12.1457 19.5473 12.6664C19.0965 13.9403 18.3303 15.0793 17.3202 15.9771C16.3101 16.8749 15.0891 17.5021 13.771 17.8004C12.453 18.0986 11.0808 18.0581 9.78267 17.6826C8.48451 17.3071 7.30262 16.6088 6.34729 15.653C6.3399 15.6456 6.3324 15.6384 6.32478 15.6312L3.52455 13H7C7.55228 13 8 12.5522 8 12C8 11.4477 7.55228 11 7 11H1C0.858899 11 0.724625 11.0292 0.602897 11.0819Z" fill="#1C1C1E"/>
</svg>
