<svg fill="none" height="48" viewBox="0 0 48 48" width="48" xmlns="http://www.w3.org/2000/svg" xmlns:xlink="http://www.w3.org/1999/xlink"><linearGradient id="a" gradientUnits="userSpaceOnUse" x1="24" x2="24" y1="6" y2="42"><stop offset="0" stop-color="#888d95"/><stop offset="1" stop-color="#6e747d"/></linearGradient><path clip-rule="evenodd" d="m11 6c-1.65685 0-3 1.34315-3 3v30c0 1.6569 1.34315 3 3 3h26c1.6569 0 3-1.3431 3-3v-20.5147c0-1.5913-.6321-3.1174-1.7574-4.2427l-6.4852-6.48524c-1.1253-1.12522-2.6514-1.75736-4.2427-1.75736zm19.8536 2.35355c-.315-.31498-.8536-.0919-.8536.35356v6.29289c0 .5523.4477 1 1 1h6.2929c.4454 0 .6685-.5386.3535-.8536z" fill="url(#a)" fill-rule="evenodd"/></svg>