<svg width="22" height="22" viewBox="0 0 22 22" fill="none" xmlns="http://www.w3.org/2000/svg">
<path d="M7.82507 0.27974C8.1893 0.249981 8.63515 0.24999 9.1693 0.25H12.8302C13.3643 0.24999 13.8102 0.249981 14.1744 0.27974C14.5543 0.310778 14.9109 0.377889 15.2482 0.549732C15.7651 0.813122 16.1855 1.23325 16.4492 1.74999H5.55026C5.81396 1.23325 6.23433 0.813122 6.75127 0.549732C7.08853 0.377889 7.44519 0.310778 7.82507 0.27974Z" fill="#303233"/>
<path d="M6.16955 3.24999C5.63541 3.24998 5.18956 3.24997 4.82533 3.27973C4.44545 3.31077 4.08879 3.37788 3.75153 3.54972C3.23459 3.81312 2.81421 4.23324 2.55051 4.74999H19.4495C19.1858 4.23324 18.7654 3.81312 18.2485 3.54972C17.9112 3.37788 17.5546 3.31077 17.1747 3.27973C16.8104 3.24997 16.3646 3.24998 15.8305 3.24999H6.16955Z" fill="#303233"/>
<path d="M11.75 11C11.75 10.5858 11.4142 10.25 11 10.25C10.5858 10.25 10.25 10.5858 10.25 11V13.25H8C7.58579 13.25 7.25 13.5858 7.25 14C7.25 14.4142 7.58579 14.75 8 14.75H10.25V17C10.25 17.4142 10.5858 17.75 11 17.75C11.4142 17.75 11.75 17.4142 11.75 17V14.75H14C14.4142 14.75 14.75 14.4142 14.75 14C14.75 13.5858 14.4142 13.25 14 13.25H11.75V11Z" fill="#303233"/>
<path fill-rule="evenodd" clip-rule="evenodd" d="M4.16957 6.24999H17.8304C18.3646 6.24998 18.8104 6.24997 19.1747 6.27973C19.5546 6.31077 19.9112 6.37788 20.2485 6.54972C20.7659 6.81338 21.1866 7.23407 21.4503 7.75152C21.6221 8.08878 21.6892 8.44544 21.7203 8.82532C21.75 9.18955 21.75 9.63539 21.75 10.1695V17.8304C21.75 18.3646 21.75 18.8104 21.7203 19.1747C21.6892 19.5545 21.6221 19.9112 21.4503 20.2485C21.1866 20.7659 20.7659 21.1866 20.2485 21.4503C19.9112 21.6221 19.5546 21.6892 19.1747 21.7203C18.8105 21.75 18.3646 21.75 17.8305 21.75H4.16955C3.63544 21.75 3.18954 21.75 2.82533 21.7203C2.44545 21.6892 2.08879 21.6221 1.75153 21.4503C1.23408 21.1866 0.813385 20.7659 0.549733 20.2485C0.377889 19.9112 0.310778 19.5545 0.27974 19.1747C0.249982 18.8104 0.24999 18.3646 0.25 17.8304V10.1696C0.24999 9.63541 0.249982 9.18955 0.27974 8.82532C0.310778 8.44544 0.377889 8.08878 0.549733 7.75152C0.813385 7.23407 1.23408 6.81338 1.75153 6.54972C2.08879 6.37788 2.44545 6.31077 2.82533 6.27973C3.18956 6.24997 3.63541 6.24998 4.16957 6.24999ZM2.94748 7.77475C2.66036 7.79821 2.52307 7.84009 2.43251 7.88623C2.19731 8.00607 2.00608 8.1973 1.88624 8.4325C1.8401 8.52306 1.79822 8.66035 1.77476 8.94747C1.75058 9.24335 1.75 9.62756 1.75 10.2V17.8C1.75 18.3724 1.75058 18.7566 1.77476 19.0525C1.79822 19.3396 1.8401 19.4769 1.88624 19.5675C2.00608 19.8027 2.19731 19.9939 2.43251 20.1137C2.52307 20.1599 2.66036 20.2018 2.94748 20.2252C3.24336 20.2494 3.62757 20.25 4.2 20.25H17.8C18.3724 20.25 18.7566 20.2494 19.0525 20.2252C19.3396 20.2018 19.4769 20.1599 19.5675 20.1137C19.8027 19.9939 19.9939 19.8027 20.1138 19.5675C20.1599 19.4769 20.2018 19.3396 20.2252 19.0525C20.2494 18.7566 20.25 18.3724 20.25 17.8V10.2C20.25 9.62756 20.2494 9.24335 20.2252 8.94747C20.2018 8.66035 20.1599 8.52306 20.1138 8.4325C19.9939 8.1973 19.8027 8.00607 19.5675 7.88623C19.4769 7.84009 19.3396 7.79821 19.0525 7.77475C18.7566 7.75058 18.3724 7.74999 17.8 7.74999H4.2C3.62757 7.74999 3.24336 7.75058 2.94748 7.77475Z" fill="#303233"/>
</svg>
