<svg width="22" height="22" viewBox="0 0 22 22" fill="none" xmlns="http://www.w3.org/2000/svg">
<path d="M11.3004 6.77792C10.7767 6.68809 10.2381 6.7865 9.78001 7.05573C9.32191 7.32496 8.97388 7.74763 8.79755 8.24888C8.6601 8.63962 8.23191 8.84495 7.84117 8.7075C7.45042 8.57005 7.24509 8.14186 7.38255 7.75112C7.67643 6.9157 8.25649 6.21125 9.01999 5.76253C9.78349 5.31382 10.6812 5.14979 11.554 5.29951C12.4269 5.44922 13.2186 5.90302 13.7889 6.58053C14.3591 7.25786 14.6712 8.1151 14.67 9.00046C14.6698 10.3984 13.6313 11.3439 12.8361 11.874C12.4156 12.1544 12.0005 12.3614 11.6934 12.4979C11.5388 12.5666 11.4089 12.6186 11.316 12.654C11.2694 12.6717 11.2319 12.6854 11.205 12.6949L11.1727 12.7063L11.1628 12.7096L11.1594 12.7108L11.1582 12.7112C11.1582 12.7112 11.0524 12.3969 11.0045 12.2534L11.1572 12.7115C10.7643 12.8425 10.3395 12.6301 10.2085 12.2372C10.0777 11.8446 10.2895 11.4203 10.6817 11.2889L10.6846 11.2879L10.7025 11.2816C10.7195 11.2756 10.7465 11.2658 10.782 11.2523C10.853 11.2252 10.9575 11.1834 11.0842 11.1271C11.3396 11.0136 11.6745 10.8456 12.004 10.626C12.7087 10.1562 13.17 9.60185 13.17 9L13.17 8.99888C13.1708 8.46752 12.9836 7.95303 12.6414 7.54653C12.2992 7.14002 11.8241 6.86775 11.3004 6.77792Z" fill="#616366"/>
<path d="M11 15.25C10.5858 15.25 10.25 15.5858 10.25 16C10.25 16.4142 10.5858 16.75 11 16.75H11.01C11.4242 16.75 11.76 16.4142 11.76 16C11.76 15.5858 11.4242 15.25 11.01 15.25H11Z" fill="#616366"/>
<path fill-rule="evenodd" clip-rule="evenodd" d="M0.25 11C0.25 5.06294 5.06294 0.25 11 0.25C16.9371 0.25 21.75 5.06294 21.75 11C21.75 16.9371 16.9371 21.75 11 21.75C5.06294 21.75 0.25 16.9371 0.25 11ZM11 1.75C5.89137 1.75 1.75 5.89137 1.75 11C1.75 16.1086 5.89137 20.25 11 20.25C16.1086 20.25 20.25 16.1086 20.25 11C20.25 5.89137 16.1086 1.75 11 1.75Z" fill="#616366"/>
</svg>
