<svg width="24" height="23" viewBox="0 0 24 23" fill="none" xmlns="http://www.w3.org/2000/svg">
<path d="M5 7.5C5 4.18629 7.68629 1.5 11 1.5C13.4422 1.5 15.5452 2.95919 16.4817 5.05642C16.604 5.33032 16.8778 5.505 17.1777 5.50054C17.2018 5.50018 17.2259 5.5 17.25 5.5C19.8734 5.5 22 7.62665 22 10.25C22 12.8734 19.8734 15 17.25 15C16.8358 15 16.5 15.3358 16.5 15.75C16.5 16.1642 16.8358 16.5 17.25 16.5C20.7018 16.5 23.5 13.7018 23.5 10.25C23.5 6.92958 20.9107 4.21392 17.6411 4.01204C16.3864 1.62776 13.884 0 11 0C6.97034 0 3.68294 3.17798 3.50738 7.16436C1.48647 7.71081 0 9.55635 0 11.75C0 14.3734 2.12665 16.5 4.75 16.5H6.25C6.66421 16.5 7 16.1642 7 15.75C7 15.3358 6.66421 15 6.25 15H4.75C2.95507 15 1.5 13.5449 1.5 11.75C1.5 10.0916 2.74278 8.72236 4.34745 8.52461C4.73497 8.47685 5.02102 8.13976 5.00509 7.74963C5.00171 7.66689 5 7.58367 5 7.5Z" fill="#616366"/>
<path d="M11.75 11C12.1642 11 12.5 11.3358 12.5 11.75V19.9393L14.2197 18.2197C14.5126 17.9268 14.9874 17.9268 15.2803 18.2197C15.5732 18.5126 15.5732 18.9874 15.2803 19.2803L12.2803 22.2803C12.2084 22.3522 12.1255 22.4065 12.0371 22.4431C11.9487 22.4798 11.8517 22.5 11.75 22.5C11.7371 22.5 11.7242 22.4997 11.7114 22.499C11.6238 22.4946 11.5401 22.4751 11.4629 22.4431C11.3745 22.4065 11.2916 22.3522 11.2197 22.2803L8.21967 19.2803C7.92678 18.9874 7.92678 18.5126 8.21967 18.2197C8.51256 17.9268 8.98744 17.9268 9.28033 18.2197L11 19.9393V11.75C11 11.3358 11.3358 11 11.75 11Z" fill="#616366"/>
</svg>
