<svg width="14" height="8" viewBox="0 0 14 8" fill="none" xmlns="http://www.w3.org/2000/svg">
<path d="M6.64307 7.72559C6.39893 7.72559 6.17676 7.62793 5.97656 7.43262L0.402832 1.72705C0.319824 1.64893 0.256348 1.56104 0.212402 1.46338C0.17334 1.36084 0.153809 1.25098 0.153809 1.13379C0.153809 0.972656 0.19043 0.826172 0.263672 0.694336C0.341797 0.5625 0.444336 0.459961 0.571289 0.386719C0.698242 0.308594 0.842285 0.269531 1.00342 0.269531C1.23779 0.269531 1.44287 0.357422 1.61865 0.533203L7.00195 6.04834H6.2915L11.6675 0.533203C11.8433 0.357422 12.0483 0.269531 12.2827 0.269531C12.4438 0.269531 12.5879 0.308594 12.7148 0.386719C12.8418 0.459961 12.9419 0.5625 13.0151 0.694336C13.0933 0.826172 13.1323 0.972656 13.1323 1.13379C13.1323 1.36328 13.0493 1.56104 12.8833 1.72705L7.30957 7.43262C7.2168 7.53027 7.11426 7.60352 7.00195 7.65234C6.88965 7.70117 6.77002 7.72559 6.64307 7.72559Z" fill="#D1D1D1"/>
</svg>
