<svg width="20" height="22" viewBox="0 0 20 22" fill="none" xmlns="http://www.w3.org/2000/svg">
<path fill-rule="evenodd" clip-rule="evenodd" d="M10.7674 2.547C10.316 2.19592 9.68396 2.19592 9.23258 2.547L2.23257 7.99145C1.92809 8.22827 1.75 8.5924 1.75 8.97814V19C1.75 19.3315 1.8817 19.6494 2.11612 19.8839C2.35054 20.1183 2.66848 20.25 3 20.25H6.25V15C6.25 13.4812 7.48122 12.25 9 12.25H11C12.5188 12.25 13.75 13.4812 13.75 15V20.25H17C17.3315 20.25 17.6495 20.1183 17.8839 19.8839C18.1183 19.6494 18.25 19.3315 18.25 19V8.97814C18.25 8.5924 18.0719 8.22827 17.7674 7.99145L10.7674 2.547ZM8.31166 1.36297C9.30472 0.590597 10.6953 0.590599 11.6883 1.36297L18.6883 6.80742C19.3582 7.32842 19.75 8.12951 19.75 8.97814V19C19.75 19.7293 19.4603 20.4288 18.9445 20.9445C18.4288 21.4602 17.7293 21.75 17 21.75H13C12.5858 21.75 12.25 21.4142 12.25 21V15C12.25 14.3096 11.6904 13.75 11 13.75H9C8.30964 13.75 7.75 14.3096 7.75 15V21C7.75 21.4142 7.41421 21.75 7 21.75H3C2.27065 21.75 1.57118 21.4602 1.05546 20.9445C0.539731 20.4288 0.25 19.7293 0.25 19V8.97814C0.25 8.12951 0.6418 7.32842 1.31166 6.80742L8.31166 1.36297Z" fill="#616366"/>
</svg>
