<svg fill="none" height="48" viewBox="0 0 48 48" width="48" xmlns="http://www.w3.org/2000/svg" xmlns:xlink="http://www.w3.org/1999/xlink"><linearGradient id="a" gradientUnits="userSpaceOnUse" x1="24" x2="24" y1="6" y2="42"><stop offset="0" stop-color="#69a3fb"/><stop offset="1" stop-color="#477ef7"/></linearGradient><path clip-rule="evenodd" d="m11 6h26c1.6569 0 3 1.34315 3 3v30c0 1.6569-1.3431 3-3 3h-26c-1.65685 0-3-1.3431-3-3v-30c0-1.65685 1.34315-3 3-3zm18.1573 24 3.0927-12h-2.6602l-1.6158 8.0084c-.0924.4519-.1496.8982-.1713 1.3389h-.0327c-.0544-.5635-.1169-.993-.1877-1.2887l-1.9176-8.0586h-2.8235l-2.1216 7.9582c-.136.5076-.2149.9762-.2367 1.4058h-.0489c-.0327-.5746-.0843-1.0321-.1551-1.3724l-1.6483-7.9916h-2.8806l3.0764 12h3.0438l1.9911-7.6987c.0925-.3515.1632-.8006.2121-1.3473h.0327c.0217.4965.0843.9456.1877 1.3473l1.9421 7.6987z" fill="url(#a)" fill-rule="evenodd"/></svg>