<svg width="24" height="24" viewBox="0 0 24 24" fill="none" xmlns="http://www.w3.org/2000/svg">
<path fill-rule="evenodd" clip-rule="evenodd" d="M19.3099 4.39116C19.6462 4.14928 20.1149 4.22577 20.3567 4.56202C21.8628 6.6556 22.75 9.2253 22.75 12C22.75 14.7747 21.8628 17.3444 20.3567 19.438C20.1149 19.7742 19.6462 19.8507 19.3099 19.6088C18.9737 19.3669 18.8972 18.8983 19.1391 18.562C20.4677 16.7151 21.25 14.45 21.25 12C21.25 9.54996 20.4677 7.28486 19.1391 5.43797C18.8972 5.10172 18.9737 4.63305 19.3099 4.39116ZM15.3162 7.38486C15.656 7.14789 16.1235 7.23119 16.3605 7.57092C17.2363 8.82654 17.75 10.3544 17.75 12C17.75 13.6456 17.2363 15.1735 16.3605 16.4291C16.1235 16.7688 15.656 16.8521 15.3162 16.6151C14.9765 16.3782 14.8932 15.9107 15.1302 15.5709C15.8361 14.5589 16.25 13.3289 16.25 12C16.25 10.6711 15.8361 9.44112 15.1302 8.42907C14.8932 8.08934 14.9765 7.62183 15.3162 7.38486Z" fill="#F3F4F4"/>
<path fill-rule="evenodd" clip-rule="evenodd" d="M10.2499 4.8108C10.2231 4.83762 10.1947 4.86598 10.1646 4.89601L6.99896 8.06169C6.98769 8.07296 6.97637 8.08432 6.96499 8.09575C6.8271 8.23412 6.67955 8.38218 6.50016 8.49211C6.34359 8.58806 6.17288 8.65877 5.99432 8.70164C5.78974 8.75076 5.58071 8.75039 5.38537 8.75005C5.36924 8.75002 5.3532 8.74999 5.33726 8.74999H3.6C3.3076 8.74999 3.13341 8.75058 3.00428 8.76113C2.92547 8.76756 2.89234 8.77606 2.88347 8.77882C2.83883 8.80234 2.80235 8.83882 2.77883 8.88346C2.77607 8.89233 2.76757 8.92546 2.76114 9.00427C2.75059 9.1334 2.75 9.30759 2.75 9.59999V14.4C2.75 14.6924 2.75059 14.8666 2.76114 14.9957C2.76757 15.0745 2.77607 15.1077 2.77883 15.1165C2.80235 15.1612 2.83883 15.1977 2.88347 15.2212C2.89235 15.2239 2.92548 15.2324 3.00428 15.2389C3.13341 15.2494 3.3076 15.25 3.6 15.25H5.33726C5.3532 15.25 5.36924 15.25 5.38537 15.2499C5.58071 15.2496 5.78973 15.2492 5.99432 15.2983C6.17288 15.3412 6.34359 15.4119 6.50016 15.5079C6.67955 15.6178 6.8271 15.7659 6.96498 15.9042C6.97637 15.9157 6.98769 15.927 6.99896 15.9383L10.1646 19.104C10.1947 19.134 10.2231 19.1624 10.2499 19.1892C10.25 19.1512 10.25 19.1111 10.25 19.0686V4.93136C10.25 4.8889 10.25 4.84877 10.2499 4.8108ZM2.88088 15.2203L2.88237 15.2208ZM2.77973 15.1191L2.77918 15.1176ZM2.77973 8.88087L2.77918 8.88235ZM2.88236 8.77917L2.88088 8.77972ZM10.4019 2.96095C10.8008 2.92956 11.1906 3.09103 11.4505 3.39529C11.6749 3.65803 11.7157 3.98067 11.7321 4.16609C11.7501 4.36867 11.75 4.62428 11.75 4.90056V19.0994C11.75 19.3757 11.7501 19.6313 11.7321 19.8339C11.7157 20.0193 11.6749 20.342 11.4505 20.6047C11.1906 20.909 10.8008 21.0704 10.4019 21.039C10.0575 21.0119 9.80051 20.8126 9.65778 20.6931C9.50184 20.5626 9.32112 20.3818 9.12578 20.1864L5.9383 16.999C5.84721 16.9079 5.79619 16.8571 5.7559 16.8203C5.72069 16.7882 5.71253 16.7845 5.71641 16.7868C5.69404 16.7731 5.66966 16.763 5.64415 16.7569C5.64859 16.758 5.64017 16.7548 5.59255 16.7527C5.53805 16.7502 5.46608 16.75 5.33726 16.75L3.57377 16.75C3.31629 16.75 3.07981 16.75 2.88213 16.7339C2.669 16.7165 2.43583 16.6766 2.20552 16.5593C1.87623 16.3915 1.60852 16.1238 1.44074 15.7945C1.32339 15.5642 1.28353 15.331 1.26612 15.1179C1.24997 14.9202 1.24998 14.6837 1.25 14.4262V9.57378C1.24998 9.31629 1.24997 9.07981 1.26612 8.88212C1.28353 8.66899 1.32339 8.43582 1.44074 8.20551C1.60852 7.87623 1.87624 7.60851 2.20552 7.44073C2.43583 7.32338 2.669 7.28352 2.88213 7.26611C3.07982 7.24996 3.3163 7.24997 3.57379 7.24999C3.5825 7.24999 3.59124 7.24999 3.6 7.24999H5.33726C5.46608 7.24999 5.53805 7.24981 5.59255 7.24732C5.62644 7.24577 5.64047 7.24374 5.64415 7.24309L5.64519 7.24287M10.4019 2.96095C10.0575 2.98806 9.8005 3.18738 9.65778 3.30687ZM9.65778 3.30687C9.50184 3.43742 9.32112 3.61818 9.12578 3.81355ZM5.9383 7.00103C5.84721 7.09213 5.79619 7.14289 5.75589 7.17966ZM5.75589 7.17966C5.73083 7.20253 5.71948 7.21102 5.71641 7.21315ZM5.71553 7.21373L5.71641 7.21315Z" fill="#F3F4F4"/>
</svg>
