<svg fill="none" height="48" viewBox="0 0 48 48" width="48" xmlns="http://www.w3.org/2000/svg" xmlns:xlink="http://www.w3.org/1999/xlink"><linearGradient id="a" gradientUnits="userSpaceOnUse" x1="24" x2="24" y1="8" y2="40"><stop offset="0" stop-color="#fdc121"/><stop offset="1" stop-color="#f7a308"/></linearGradient><path clip-rule="evenodd" d="m8 8c-1.10457 0-2 .89543-2 2v27c0 1.6569 1.34315 3 3 3h30c1.6569 0 3-1.3431 3-3v-23c0-1.6569-1.3431-3-3-3h-11.3431c-1.0609 0-2.0783-.4214-2.8285-1.17157l-.6568-.65686c-.7502-.75014-1.7676-1.17157-2.8285-1.17157zm14 18c2.2091 0 4-1.7909 4-4s-1.7909-4-4-4c-2.2092 0-4 1.7909-4 4s1.7908 4 4 4zm6.8056 8c.6013 0 1.0713-.53.9131-1.1102-.9258-3.3944-4.0309-5.8898-7.7187-5.8898-3.6879 0-6.793 2.4954-7.7188 5.8898-.1582.5802.3117 1.1102.9131 1.1102zm-3.0443-8.7056c.7712-.8798 1.2387-2.0325 1.2387-3.2944s-.4675-2.4146-1.2387-3.2944c-.2344-.2674-.1168-.7056.2387-.7056 2.2091 0 4 1.7909 4 4s-1.7909 4-4 4c-.3555 0-.4731-.4382-.2387-.7056zm6.0703 8.7056c-.5056 0-.9259-.3791-1.0326-.8734-.4863-2.2536-1.7485-4.122-3.4768-5.3869-.2812-.2059-.1396-.6606.2027-.5945 2.9975.5785 5.399 2.8302 6.1938 5.7446.1583.5802-.3116 1.1102-.9131 1.1102z" fill="url(#a)" fill-rule="evenodd"/></svg>