<svg width="10" height="16" viewBox="0 0 10 16" fill="none" xmlns="http://www.w3.org/2000/svg">
<path d="M5 0.5C4.33696 0.5 3.70107 0.763392 3.23223 1.23223C2.76339 1.70107 2.5 2.33696 2.5 3V8C2.5 8.66304 2.76339 9.29892 3.23223 9.76777C3.70107 10.2366 4.33696 10.5 5 10.5C5.66304 10.5 6.29893 10.2366 6.76777 9.76777C7.23661 9.29892 7.5 8.66304 7.5 8V3C7.5 2.33696 7.23661 1.70107 6.76777 1.23223C6.29893 0.763392 5.66304 0.5 5 0.5Z" fill="#00C29A"/>
<path d="M1 6.5C1 6.22386 0.776142 6 0.5 6C0.223858 6 0 6.22386 0 6.5V7.95238C0 9.27846 0.526784 10.5502 1.46447 11.4879C2.28355 12.307 3.35755 12.8125 4.5 12.9273V14.5H2.5C2.22386 14.5 2 14.7239 2 15C2 15.2761 2.22386 15.5 2.5 15.5H7.5C7.77614 15.5 8 15.2761 8 15C8 14.7239 7.77614 14.5 7.5 14.5H5.5V12.9273C6.64245 12.8125 7.71645 12.307 8.53553 11.4879C9.47322 10.5502 10 9.27846 10 7.95238V6.5C10 6.22386 9.77614 6 9.5 6C9.22386 6 9 6.22386 9 6.5V7.95238C9 9.01324 8.57857 10.0307 7.82843 10.7808C7.07828 11.531 6.06087 11.9524 5 11.9524C3.93913 11.9524 2.92172 11.531 2.17157 10.7808C1.42143 10.0307 1 9.01324 1 7.95238V6.5Z" fill="#00C29A"/>
</svg>
