<svg width="22" height="22" viewBox="0 0 22 22" fill="none" xmlns="http://www.w3.org/2000/svg">
<path fill-rule="evenodd" clip-rule="evenodd" d="M19 0.128677C18.2385 0.128677 17.5082 0.431191 16.9697 0.969668L7.46969 10.4697C7.37357 10.5658 7.30538 10.6862 7.27241 10.8181L6.27241 14.8181C6.20851 15.0737 6.2834 15.344 6.46969 15.5303C6.65597 15.7166 6.92634 15.7915 7.18192 15.7276L11.1819 14.7276C11.3138 14.6946 11.4342 14.6264 11.5303 14.5303L21.0303 5.03033C21.5688 4.49185 21.8713 3.76152 21.8713 3C21.8713 2.23848 21.5688 1.50814 21.0303 0.969668C20.4919 0.431191 19.7615 0.128677 19 0.128677ZM18.0303 2.03033C18.2875 1.77316 18.6363 1.62868 19 1.62868C19.3637 1.62868 19.7125 1.77316 19.9697 2.03033C20.2269 2.2875 20.3713 2.6363 20.3713 3C20.3713 3.36369 20.2269 3.71249 19.9697 3.96967L10.6166 13.3228L8.03079 13.9692L8.67724 11.3834L18.0303 2.03033Z" fill="#303233"/>
<path d="M3 2.25C2.27065 2.25 1.57118 2.53973 1.05546 3.05546C0.539731 3.57118 0.25 4.27065 0.25 5V19C0.25 19.7293 0.539731 20.4288 1.05546 20.9445C1.57118 21.4603 2.27065 21.75 3 21.75H17C17.7293 21.75 18.4288 21.4603 18.9445 20.9445C19.4603 20.4288 19.75 19.7293 19.75 19V12C19.75 11.5858 19.4142 11.25 19 11.25C18.5858 11.25 18.25 11.5858 18.25 12V19C18.25 19.3315 18.1183 19.6495 17.8839 19.8839C17.6495 20.1183 17.3315 20.25 17 20.25H3C2.66848 20.25 2.35054 20.1183 2.11612 19.8839C1.8817 19.6495 1.75 19.3315 1.75 19V5C1.75 4.66848 1.8817 4.35054 2.11612 4.11612C2.35054 3.8817 2.66848 3.75 3 3.75H10C10.4142 3.75 10.75 3.41421 10.75 3C10.75 2.58579 10.4142 2.25 10 2.25H3Z" fill="#303233"/>
</svg>
