<svg width="20" height="18" viewBox="0 0 20 18" fill="none" xmlns="http://www.w3.org/2000/svg">
<path d="M10 4.25C10.4142 4.25 10.75 4.58579 10.75 5V8.25H14C14.4142 8.25 14.75 8.58579 14.75 9C14.75 9.41421 14.4142 9.75 14 9.75H10.75V13C10.75 13.4142 10.4142 13.75 10 13.75C9.58579 13.75 9.25 13.4142 9.25 13V9.75H6C5.58579 9.75 5.25 9.41421 5.25 9C5.25 8.58579 5.58579 8.25 6 8.25H9.25V5C9.25 4.58579 9.58579 4.25 10 4.25Z" fill="#303233"/>
<path fill-rule="evenodd" clip-rule="evenodd" d="M19.75 8.99998C19.75 4.19299 15.407 0.25 10 0.25C4.59303 0.25 0.25004 4.19299 0.25004 8.99998C0.25004 10.33 0.58104 11.591 1.17304 12.722C1.38304 13.123 1.47804 13.59 1.31904 14.013L0.29804 16.737C0.20204 16.992 0.25204 17.278 0.42904 17.486C0.60504 17.693 0.880039 17.789 1.14704 17.735L5.24203 16.916C5.52303 16.86 5.81203 16.907 6.07803 17.012C7.32503 17.503 8.65702 17.754 10.001 17.75C15.408 17.749 19.75 13.806 19.75 8.99998ZM18.25 8.99998C18.25 13.03 14.533 16.25 10 16.25H9.99702C8.84202 16.254 7.69902 16.038 6.62803 15.616C6.09303 15.406 5.51103 15.333 4.94803 15.445L2.17604 16L2.72304 14.54C3.03203 13.717 2.91003 12.804 2.50204 12.026C2.02004 11.106 1.75004 10.081 1.75004 8.99998C1.75004 4.96999 5.46703 1.75 10 1.75C14.533 1.75 18.25 4.96999 18.25 8.99998Z" fill="#303233"/>
</svg>
