<svg width="18" height="18" viewBox="0 0 18 18" fill="none" xmlns="http://www.w3.org/2000/svg">
<path fill-rule="evenodd" clip-rule="evenodd" d="M6.53033 0.46967C6.82322 0.762563 6.82322 1.23744 6.53033 1.53033L2.81066 5.25H7.43393C9.08537 5.25 10.3708 5.24999 11.4019 5.33424C12.4488 5.41977 13.2993 5.59587 14.0644 5.98571C15.3345 6.63285 16.3671 7.66547 17.0143 8.93556C17.4041 9.70065 17.5802 10.5512 17.6658 11.5981C17.75 12.6292 17.75 13.9146 17.75 15.566V17C17.75 17.4142 17.4142 17.75 17 17.75C16.5858 17.75 16.25 17.4142 16.25 17V15.6C16.25 13.9075 16.2494 12.6832 16.1707 11.7203C16.0928 10.7662 15.9419 10.1349 15.6778 9.61655C15.1744 8.6287 14.3713 7.82555 13.3834 7.32222C12.8651 7.05809 12.2338 6.90721 11.2797 6.82925C10.3168 6.75058 9.09253 6.75 7.4 6.75H2.81066L6.53033 10.4697C6.82322 10.7626 6.82322 11.2374 6.53033 11.5303C6.23744 11.8232 5.76256 11.8232 5.46967 11.5303L0.46967 6.53033C0.176777 6.23744 0.176777 5.76256 0.46967 5.46967L5.46967 0.46967C5.76256 0.176777 6.23744 0.176777 6.53033 0.46967Z" fill="#303233"/>
</svg>
