<svg fill="none" height="48" viewBox="0 0 48 48" width="48" xmlns="http://www.w3.org/2000/svg" xmlns:xlink="http://www.w3.org/1999/xlink"><linearGradient id="a" gradientUnits="userSpaceOnUse" x1="24" x2="24" y1="6" y2="42"><stop offset="0" stop-color="#fd853a"/><stop offset="1" stop-color="#fb6514"/></linearGradient><path clip-rule="evenodd" d="m37 6h-26c-1.65685 0-3 1.34315-3 3v30c0 1.6569 1.34315 3 3 3h26c1.6569 0 3-1.3431 3-3v-30c0-1.65685-1.3431-3-3-3zm-17.293 13.2929c.3905.3905.3905 1.0237 0 1.4142l-3.2929 3.2929 3.2929 3.2929c.3905.3905.3905 1.0237 0 1.4142s-1.0237.3905-1.4142 0l-4.7071-4.7071 4.7071-4.7071c.3905-.3905 1.0237-.3905 1.4142 0zm8.586 1.4142c-.3905-.3905-.3905-1.0237 0-1.4142s1.0237-.3905 1.4142 0l4.7071 4.7071-4.7071 4.7071c-.3905.3905-1.0237.3905-1.4142 0s-.3905-1.0237 0-1.4142l3.2929-3.2929z" fill="url(#a)" fill-rule="evenodd"/></svg>