<svg width="12" height="12" viewBox="0 0 12 12" fill="none" xmlns="http://www.w3.org/2000/svg">
<path fill-rule="evenodd" clip-rule="evenodd" d="M0 4.564C0 2.65318 1.4472 0.5 3.73889 0.5C4.75064 0.5 5.49244 0.901617 6 1.34711C6.50756 0.901617 7.24936 0.5 8.26111 0.5C10.5528 0.5 12 2.65318 12 4.564C12 5.56589 11.612 6.4936 11.0696 7.30216C10.5268 8.11132 9.81149 8.82851 9.10889 9.42066C8.40442 10.0144 7.69903 10.4939 7.16369 10.8251C6.89569 10.9909 6.66813 11.1209 6.50193 11.2106C6.41923 11.2553 6.34928 11.2913 6.29565 11.3172C6.2695 11.3299 6.24275 11.3423 6.21818 11.3526C6.20652 11.3575 6.18907 11.3646 6.16919 11.3714C6.15942 11.3747 6.14314 11.38 6.12308 11.3849C6.11031 11.3881 6.06197 11.4 6 11.4C5.93803 11.4 5.89003 11.3881 5.87725 11.385C5.85719 11.38 5.84058 11.3747 5.83081 11.3714C5.81093 11.3646 5.79348 11.3575 5.78182 11.3526C5.75725 11.3423 5.7305 11.3299 5.70435 11.3172C5.65072 11.2913 5.58077 11.2553 5.49807 11.2106C5.33187 11.1209 5.10431 10.9909 4.83631 10.8251C4.30097 10.4939 3.59559 10.0144 2.89111 9.42066C2.18851 8.82851 1.47317 8.11132 0.930392 7.30216C0.388015 6.4936 0 5.56589 0 4.564Z" fill="#616366"/>
</svg>
