<svg width="57" height="56" viewBox="0 0 57 56" fill="none" xmlns="http://www.w3.org/2000/svg">
<path d="M28.5 0C43.964 0 56.5 12.536 56.5 28C56.5 43.464 43.964 56 28.5 56C13.036 56 0.5 43.464 0.5 28C0.5 12.536 13.036 0 28.5 0ZM24.5 20C23.3954 20 22.5 20.8954 22.5 22V34C22.5 35.1046 23.3954 36 24.5 36C25.6046 36 26.5 35.1046 26.5 34V22C26.5 20.8954 25.6046 20 24.5 20ZM32.5 20C31.3954 20 30.5 20.8954 30.5 22V34C30.5 35.1046 31.3954 36 32.5 36C33.6046 36 34.5 35.1046 34.5 34V22C34.5 20.8954 33.6046 20 32.5 20Z" fill="#F4F4F5"/>
</svg>
