<svg width="24" height="18" viewBox="0 0 24 18" fill="none" xmlns="http://www.w3.org/2000/svg">
<path fill-rule="evenodd" clip-rule="evenodd" d="M5.75 0C6.16421 0 6.5 0.335786 6.5 0.75L6.5 14.9393L10.2197 11.2197C10.5126 10.9268 10.9874 10.9268 11.2803 11.2197C11.5732 11.5126 11.5732 11.9874 11.2803 12.2803L6.28033 17.2803C5.98744 17.5732 5.51256 17.5732 5.21967 17.2803L0.21967 12.2803C-0.0732233 11.9874 -0.0732233 11.5126 0.21967 11.2197C0.512563 10.9268 0.987437 10.9268 1.28033 11.2197L5 14.9393L5 0.75C5 0.335786 5.33579 0 5.75 0ZM17.2197 0.21967C17.5126 -0.0732233 17.9874 -0.0732233 18.2803 0.21967L23.2803 5.21967C23.5732 5.51256 23.5732 5.98744 23.2803 6.28033C22.9874 6.57322 22.5126 6.57322 22.2197 6.28033L18.5 2.56066L18.5 16.75C18.5 17.1642 18.1642 17.5 17.75 17.5C17.3358 17.5 17 17.1642 17 16.75L17 2.56066L13.2803 6.28033C12.9874 6.57322 12.5126 6.57322 12.2197 6.28033C11.9268 5.98744 11.9268 5.51256 12.2197 5.21967L17.2197 0.21967Z" fill="#303233"/>
</svg>
