<svg width="25" height="24" viewBox="0 0 25 24" fill="none" xmlns="http://www.w3.org/2000/svg">
<path d="M8.13672 13.5C8.96515 13.5 9.63672 12.8284 9.63672 12C9.63672 11.1716 8.96515 10.5 8.13672 10.5C7.30829 10.5 6.63672 11.1716 6.63672 12C6.63672 12.8284 7.30829 13.5 8.13672 13.5Z" fill="#FAFAFA"/>
<path d="M12.6367 13.5C13.4651 13.5 14.1367 12.8284 14.1367 12C14.1367 11.1716 13.4651 10.5 12.6367 10.5C11.8083 10.5 11.1367 11.1716 11.1367 12C11.1367 12.8284 11.8083 13.5 12.6367 13.5Z" fill="#FAFAFA"/>
<path d="M18.6367 12C18.6367 12.8284 17.9651 13.5 17.1367 13.5C16.3083 13.5 15.6367 12.8284 15.6367 12C15.6367 11.1716 16.3083 10.5 17.1367 10.5C17.9651 10.5 18.6367 11.1716 18.6367 12Z" fill="#FAFAFA"/>
<path fill-rule="evenodd" clip-rule="evenodd" d="M12.6367 1C6.56159 1 1.63672 5.92487 1.63672 12C1.63672 18.0751 6.56159 23 12.6367 23C18.7119 23 23.6367 18.0751 23.6367 12C23.6367 5.92487 18.7119 1 12.6367 1ZM3.63672 12C3.63672 7.02944 7.66616 3 12.6367 3C17.6073 3 21.6367 7.02944 21.6367 12C21.6367 16.9706 17.6073 21 12.6367 21C7.66616 21 3.63672 16.9706 3.63672 12Z" fill="#FAFAFA"/>
</svg>
