<svg width="30" height="30" viewBox="0 0 30 30" fill="none" xmlns="http://www.w3.org/2000/svg">
<path fill-rule="evenodd" clip-rule="evenodd" d="M8.01177 0.333344H21.9886C23.0619 0.333327 23.9477 0.333313 24.6693 0.39227C25.4187 0.453503 26.1077 0.584922 26.7548 0.914643C27.7583 1.42597 28.5742 2.24186 29.0855 3.2454C29.4153 3.89251 29.5467 4.58145 29.6079 5.33091C29.6669 6.0525 29.6668 6.9383 29.6668 8.01158V21.9884C29.6668 23.0617 29.6669 23.9475 29.6079 24.6691C29.5467 25.4186 29.4153 26.1075 29.0855 26.7546C28.5742 27.7582 27.7583 28.5741 26.7548 29.0854C26.1077 29.4151 25.4187 29.5465 24.6693 29.6078C23.9477 29.6667 23.0619 29.6667 21.9886 29.6667H8.01173C6.93845 29.6667 6.05265 29.6667 5.33106 29.6078C4.5816 29.5465 3.89266 29.4151 3.24555 29.0854C2.24202 28.5741 1.42612 27.7582 0.914796 26.7546C0.585075 26.1075 0.453656 25.4186 0.392422 24.6691C0.333466 23.9475 0.33348 23.0617 0.333497 21.9884V8.01161C0.33348 6.93832 0.333466 6.0525 0.392422 5.33091C0.453656 4.58145 0.585075 3.89251 0.914796 3.2454C1.42612 2.24186 2.24202 1.42597 3.24555 0.914643C3.89266 0.584922 4.5816 0.453503 5.33106 0.39227C6.05266 0.333313 6.93847 0.333327 8.01177 0.333344ZM3.00016 9.66668V13.6667H7.00016V9.66668H3.00016ZM7.00016 7.00001H3.00251C3.00669 6.40597 3.01825 5.93952 3.05023 5.54806C3.09799 4.96351 3.18456 4.66457 3.29081 4.45604C3.54648 3.95427 3.95442 3.54632 4.45619 3.29066C4.66472 3.18441 4.96366 3.09784 5.54821 3.05008C5.93967 3.0181 6.40613 3.00654 7.00016 3.00236V7.00001ZM23.0002 3.00236V7.00001H26.9978C26.9936 6.40597 26.9821 5.93952 26.9501 5.54806C26.9023 4.96351 26.8158 4.66457 26.7095 4.45604C26.4539 3.95427 26.0459 3.54632 25.5441 3.29066C25.3356 3.18441 25.0367 3.09784 24.4521 3.05008C24.0607 3.0181 23.5942 3.00654 23.0002 3.00236ZM27.0002 9.66668H23.0002V13.6667H27.0002V9.66668ZM27.0002 16.3333H23.0002V20.3333H27.0002V16.3333ZM26.9978 23H23.0002V26.9977C23.5942 26.9935 24.0607 26.9819 24.4521 26.9499C25.0367 26.9022 25.3356 26.8156 25.5441 26.7094C26.0459 26.4537 26.4538 26.0457 26.7095 25.544C26.8158 25.3355 26.9023 25.0365 26.9501 24.452C26.9821 24.0605 26.9936 23.594 26.9978 23ZM7.00016 26.9977V23H3.00251C3.00669 23.594 3.01825 24.0605 3.05023 24.452C3.09799 25.0365 3.18456 25.3355 3.29081 25.544C3.54648 26.0458 3.95442 26.4537 4.45619 26.7094C4.66472 26.8156 4.96366 26.9022 5.54821 26.9499C5.93967 26.9819 6.40613 26.9935 7.00016 26.9977ZM3.00016 20.3333H7.00016V16.3333H3.00016V20.3333Z" fill="#A9ABAD"/>
</svg>
