<svg width="30" height="30" viewBox="0 0 30 30" fill="none" xmlns="http://www.w3.org/2000/svg">
<path fill-rule="evenodd" clip-rule="evenodd" d="M8.01177 0.333314H21.9886C23.0619 0.333297 23.9477 0.333283 24.6693 0.392239C25.4187 0.453473 26.1077 0.584892 26.7548 0.914613C27.7583 1.42594 28.5742 2.24183 29.0855 3.24536C29.4153 3.89248 29.5467 4.58142 29.6079 5.33088C29.6669 6.05247 29.6668 6.93827 29.6668 8.01155V21.9884C29.6668 23.0617 29.6669 23.9475 29.6079 24.6691C29.5467 25.4185 29.4153 26.1075 29.0855 26.7546C28.5742 27.7581 27.7583 28.574 26.7548 29.0853C26.1077 29.4151 25.4187 29.5465 24.6693 29.6077C23.9477 29.6667 23.0619 29.6667 21.9886 29.6666H8.01173C6.93845 29.6667 6.05265 29.6667 5.33106 29.6077C4.5816 29.5465 3.89266 29.4151 3.24555 29.0853C2.24202 28.574 1.42612 27.7581 0.914796 26.7546C0.585075 26.1075 0.453656 25.4185 0.392422 24.6691C0.333466 23.9475 0.33348 23.0617 0.333497 21.9884V8.01158C0.33348 6.93829 0.333466 6.05247 0.392422 5.33088C0.453656 4.58142 0.585075 3.89248 0.914796 3.24536C1.42612 2.24183 2.24202 1.42594 3.24555 0.914613C3.89266 0.584892 4.5816 0.453473 5.33106 0.392239C6.05266 0.333283 6.93847 0.333297 8.01177 0.333314ZM3.00016 9.66665V13.6666H7.00016V9.66665H3.00016ZM7.00016 6.99998H3.00251C3.00669 6.40594 3.01825 5.93949 3.05023 5.54803C3.09799 4.96348 3.18456 4.66454 3.29081 4.45601C3.54648 3.95424 3.95442 3.54629 4.45619 3.29063C4.66472 3.18438 4.96366 3.09781 5.54821 3.05005C5.93967 3.01807 6.40613 3.0065 7.00016 3.00233V6.99998ZM23.0002 3.00233V6.99998H26.9978C26.9936 6.40594 26.9821 5.93949 26.9501 5.54803C26.9023 4.96348 26.8158 4.66454 26.7095 4.45601C26.4539 3.95424 26.0459 3.54629 25.5441 3.29063C25.3356 3.18438 25.0367 3.09781 24.4521 3.05005C24.0607 3.01807 23.5942 3.0065 23.0002 3.00233ZM27.0002 9.66665H23.0002V13.6666H27.0002V9.66665ZM27.0002 16.3333H23.0002V20.3333H27.0002V16.3333ZM26.9978 23H23.0002V26.9976C23.5942 26.9935 24.0607 26.9819 24.4521 26.9499C25.0367 26.9022 25.3356 26.8156 25.5441 26.7093C26.0459 26.4537 26.4538 26.0457 26.7095 25.544C26.8158 25.3354 26.9023 25.0365 26.9501 24.4519C26.9821 24.0605 26.9936 23.594 26.9978 23ZM7.00016 26.9976V23H3.00251C3.00669 23.594 3.01825 24.0605 3.05023 24.4519C3.09799 25.0365 3.18456 25.3354 3.29081 25.544C3.54648 26.0457 3.95442 26.4537 4.45619 26.7093C4.66472 26.8156 4.96366 26.9022 5.54821 26.9499C5.93967 26.9819 6.40613 26.9935 7.00016 26.9976ZM3.00016 20.3333H7.00016V16.3333H3.00016V20.3333Z" fill="#616366"/>
</svg>
