<svg width="20" height="19" viewBox="0 0 20 19" fill="none" xmlns="http://www.w3.org/2000/svg">
<path fill-rule="evenodd" clip-rule="evenodd" d="M16 0.128677C15.2385 0.128677 14.5082 0.43119 13.9697 0.969668L1.46969 13.4697C1.37357 13.5658 1.30538 13.6862 1.27241 13.8181L0.272409 17.8181C0.208514 18.0737 0.283401 18.344 0.469686 18.5303C0.655971 18.7166 0.926336 18.7915 1.18192 18.7276L5.18192 17.7276C5.31379 17.6946 5.43423 17.6264 5.53035 17.5303L18.0303 5.03033C18.297 4.7637 18.5085 4.44717 18.6528 4.0988C18.7971 3.75044 18.8713 3.37707 18.8713 3C18.8713 2.62293 18.7971 2.24956 18.6528 1.90119C18.5085 1.55283 18.297 1.23629 18.0303 0.969668C17.7637 0.703041 17.4472 0.491541 17.0988 0.347244C16.7505 0.202946 16.3771 0.128677 16 0.128677ZM15.0303 2.03033C15.2875 1.77316 15.6363 1.62868 16 1.62868C16.1801 1.62868 16.3584 1.66415 16.5248 1.73306C16.6912 1.80198 16.8423 1.90299 16.9697 2.03033C17.097 2.15767 17.198 2.30884 17.267 2.47522C17.3359 2.64159 17.3713 2.81991 17.3713 3C17.3713 3.18008 17.3359 3.3584 17.267 3.52478C17.198 3.69116 17.097 3.84233 16.9697 3.96967L4.61658 16.3228L2.03079 16.9692L2.67724 14.3834L15.0303 2.03033Z" fill="#303233"/>
<path d="M10 17.25C9.58579 17.25 9.25 17.5858 9.25 18C9.25 18.4142 9.58579 18.75 10 18.75H19C19.4142 18.75 19.75 18.4142 19.75 18C19.75 17.5858 19.4142 17.25 19 17.25H10Z" fill="#303233"/>
</svg>
