<svg width="41" height="40" viewBox="0 0 41 40" fill="none" xmlns="http://www.w3.org/2000/svg">
<circle cx="20.5" cy="20" r="20" fill="#04101E"/>
<path opacity="0.7" fill-rule="evenodd" clip-rule="evenodd" d="M29 21.5C30.9328 21.5 32.5 19.9328 32.5 18C32.5 16.0672 30.9328 14.5 29 14.5C27.0672 14.5 25.5 16.0672 25.5 18C25.5 19.9328 27.0672 21.5 29 21.5ZM34.4816 26.0619C34.5883 26.5435 34.2165 27 33.7433 27H24.2567C23.7835 27 23.4117 26.5435 23.5184 26.0619C24.0945 23.4486 26.3274 21.5 29.0004 21.5C31.6726 21.5 33.9055 23.4486 34.4816 26.0619Z" fill="#FAFAFB"/>
<path opacity="0.7" fill-rule="evenodd" clip-rule="evenodd" d="M12 21.5C13.9328 21.5 15.5 19.9328 15.5 18C15.5 16.0672 13.9328 14.5 12 14.5C10.0672 14.5 8.5 16.0672 8.5 18C8.5 19.9328 10.0672 21.5 12 21.5ZM17.4816 26.0619C17.5883 26.5435 17.2165 27 16.7433 27H7.25668C6.78351 27 6.41174 26.5435 6.51839 26.0619C7.09445 23.4486 9.32735 21.5 12.0004 21.5C14.6726 21.5 16.9055 23.4486 17.4816 26.0619Z" fill="#FAFAFB"/>
<path fill-rule="evenodd" clip-rule="evenodd" d="M20.5 21C23.2608 21 25.5 18.7608 25.5 16C25.5 13.2392 23.2608 11 20.5 11C17.7392 11 15.5 13.2392 15.5 16C15.5 18.7608 17.7392 21 20.5 21ZM12.505 28.1016C12.4519 28.5784 12.826 29 13.3096 29H27.6904C28.174 29 28.5481 28.5784 28.495 28.1016C28.0452 24.1064 24.6381 21 20.5004 21C16.3619 21 12.9548 24.1064 12.505 28.1016Z" fill="#FAFAFB"/>
</svg>
