<svg width="25" height="24" viewBox="0 0 25 24" fill="none" xmlns="http://www.w3.org/2000/svg">
<path fill-rule="evenodd" clip-rule="evenodd" d="M8.70514 5.28348C8.71687 5.29287 8.72865 5.30229 8.74046 5.31174L14.5822 9.98511C14.8286 10.1822 15.0625 10.3693 15.243 10.5422C15.4366 10.7276 15.6541 10.9742 15.7783 11.3152C15.9395 11.7575 15.9395 12.2425 15.7783 12.6848C15.6541 13.0258 15.4366 13.2724 15.243 13.4578C15.0625 13.6307 14.8286 13.8178 14.5822 14.0149L8.70511 18.7165C8.31231 19.0308 7.9645 19.3091 7.66942 19.5036C7.3811 19.6936 6.97265 19.9243 6.47971 19.9193C5.88639 19.9133 5.32637 19.6441 4.95102 19.1845C4.63918 18.8028 4.56416 18.3397 4.53242 17.9959C4.49995 17.6439 4.49997 17.1985 4.5 16.6954L4.5 7.34981C4.5 7.33468 4.5 7.3196 4.5 7.30457C4.49997 6.80151 4.49995 6.35606 4.53242 6.00415C4.56416 5.6603 4.63918 5.19725 4.95102 4.81545C5.32637 4.35591 5.88639 4.08675 6.47971 4.08073C6.97265 4.07573 7.3811 4.3064 7.66942 4.49643C7.96451 4.69091 8.31233 4.9692 8.70514 5.28348ZM6.52881 6.14057C6.52717 6.15509 6.52554 6.17086 6.52396 6.18793C6.50103 6.43642 6.5 6.78763 6.5 7.34981V16.6502C6.5 17.2124 6.50103 17.5636 6.52396 17.8121C6.52554 17.8291 6.52717 17.8449 6.52881 17.8594C6.54118 17.8516 6.55451 17.8431 6.56883 17.8336C6.77719 17.6963 7.05208 17.4777 7.49107 17.1265L13.3038 12.4763C13.5897 12.2476 13.7516 12.1169 13.8595 12.0136C13.8645 12.0088 13.8691 12.0043 13.8735 12C13.8691 11.9957 13.8645 11.9912 13.8595 11.9864C13.7516 11.8831 13.5897 11.7524 13.3038 11.5237L7.49107 6.87348C7.05208 6.52229 6.77719 6.30369 6.56883 6.16637C6.55451 6.15693 6.54118 6.14835 6.52881 6.14057Z" fill="white"/>
<path fill-rule="evenodd" clip-rule="evenodd" d="M19.5 4C20.0523 4 20.5 4.44772 20.5 5V19C20.5 19.5523 20.0523 20 19.5 20C18.9477 20 18.5 19.5523 18.5 19V5C18.5 4.44772 18.9477 4 19.5 4Z" fill="white"/>
</svg>
