<svg width="25" height="24" viewBox="0 0 25 24" fill="none" xmlns="http://www.w3.org/2000/svg">
<path d="M0.732422 12.8135C1.05238 12.8208 1.30686 13.0863 1.2998 13.4062C1.25717 15.3015 2.18062 19.4737 6.15234 21.9717L5.59375 19.418C5.52561 19.1052 5.72447 18.7959 6.03711 18.7275C6.34975 18.6597 6.65831 18.8583 6.72656 19.1709L7.56055 22.9932C7.59709 23.1612 7.55678 23.3379 7.45117 23.4736C7.34542 23.609 7.18438 23.6906 7.0127 23.6963L2.19922 23.8535C1.87943 23.8638 1.61126 23.6127 1.60059 23.293C1.59043 22.9733 1.84151 22.7061 2.16113 22.6953L5.00586 22.6025C1.03885 19.8051 0.0928328 15.4591 0.139648 13.3799C0.147125 13.0601 0.412694 12.8066 0.732422 12.8135ZM9.26855 2.5127C9.63381 2.15338 10.2208 2.15818 10.5801 2.52344L21.7188 13.8457C22.0774 14.2109 22.0729 14.7981 21.708 15.1572L14.9932 21.7627C14.628 22.1218 14.04 22.1168 13.6807 21.752L2.54297 10.4297C2.18368 10.0645 2.18854 9.47749 2.55371 9.11816L9.26855 2.5127ZM10.6953 4.14355C10.6234 4.07061 10.5056 4.06977 10.4326 4.1416L4.31152 10.1631C4.23864 10.235 4.23777 10.3528 4.30957 10.4258L13.5889 19.8584C13.6608 19.9308 13.7787 19.9319 13.8516 19.8604L19.9727 13.8389C20.0455 13.7672 20.0459 13.6492 19.9746 13.5762L10.6953 4.14355ZM22.0762 0.146484C22.3961 0.136049 22.6641 0.387214 22.6748 0.707031C22.685 1.02677 22.434 1.29409 22.1143 1.30469L19.2686 1.39746C23.2368 4.19504 24.1827 8.54186 24.1357 10.6211C24.1282 10.9408 23.8628 11.1945 23.543 11.1875C23.2233 11.1799 22.9686 10.9144 22.9756 10.5947C23.0184 8.69976 22.0955 4.52752 18.124 2.0293L18.6816 4.58203C18.7499 4.89489 18.5511 5.20422 18.2383 5.27246C17.9257 5.34009 17.617 5.14164 17.5488 4.8291L16.7148 1.00684C16.6784 0.838909 16.7187 0.662017 16.8242 0.526367C16.9299 0.39105 17.0911 0.309516 17.2627 0.303711L22.0762 0.146484Z" fill="#F3F4F4"/>
</svg>
