<svg width="16" height="16" viewBox="0 0 16 16" fill="none" xmlns="http://www.w3.org/2000/svg">
<path d="M10.1338 0.833374C10.3079 0.833374 10.4713 0.83511 10.6247 0.835978C10.6386 0.834805 10.6527 0.833374 10.667 0.833374C10.6837 0.833374 10.7002 0.834378 10.7165 0.835978C11.0101 0.838482 11.2655 0.843842 11.488 0.86202C11.8524 0.891793 12.1723 0.955283 12.4684 1.10616C12.9388 1.34584 13.3212 1.7282 13.5609 2.19861C13.7118 2.49474 13.7752 2.81467 13.805 3.17908C13.8343 3.53763 13.8337 3.98152 13.8337 4.53324V11.4668C13.8337 12.0186 13.8343 12.4625 13.805 12.821C13.7752 13.1854 13.7118 13.5053 13.5609 13.8015C13.3212 14.2719 12.9388 14.6542 12.4684 14.8939C12.1723 15.0448 11.8524 15.1083 11.488 15.1381C11.2655 15.1562 11.0101 15.1616 10.7165 15.1641C10.7002 15.1657 10.6837 15.1667 10.667 15.1667C10.6527 15.1667 10.6386 15.1653 10.6247 15.1641C10.4713 15.165 10.3079 15.1667 10.1338 15.1667H5.86686C5.69248 15.1667 5.52887 15.165 5.37533 15.1641C5.36156 15.1652 5.34772 15.1667 5.33366 15.1667C5.31674 15.1667 5.30002 15.1657 5.28353 15.1641C4.99021 15.1616 4.73503 15.1562 4.5127 15.1381C4.14829 15.1083 3.82836 15.0448 3.53223 14.8939C3.06182 14.6542 2.67946 14.2719 2.43978 13.8015C2.2889 13.5053 2.22541 13.1854 2.19564 12.821C2.16635 12.4625 2.16699 12.0186 2.16699 11.4668V4.53324C2.16699 3.98152 2.16635 3.53763 2.19564 3.17908C2.22541 2.81467 2.2889 2.49474 2.43978 2.19861C2.67946 1.7282 3.06182 1.34584 3.53223 1.10616C3.82836 0.955283 4.14829 0.891793 4.5127 0.86202C4.73503 0.843856 4.99021 0.838487 5.28353 0.835978C5.30002 0.834336 5.31674 0.833374 5.33366 0.833374C5.34772 0.833374 5.36156 0.834841 5.37533 0.835978C5.52887 0.835106 5.69248 0.833374 5.86686 0.833374H10.1338ZM5.83366 14.1661C5.84466 14.1661 5.85573 14.1667 5.86686 14.1667H10.1338C10.1449 14.1667 10.156 14.1661 10.167 14.1661V8.50004H5.83366V14.1661ZM3.1683 11.8334C3.16943 12.213 3.17299 12.5023 3.19238 12.7396C3.2171 13.0422 3.26332 13.216 3.3304 13.3477C3.47421 13.6299 3.70376 13.8595 3.986 14.0033C4.11768 14.0704 4.29153 14.1166 4.59408 14.1413C4.66843 14.1474 4.74793 14.1515 4.83366 14.155V11.8334H3.1683ZM11.167 14.155C11.2527 14.1515 11.3322 14.1474 11.4066 14.1413C11.7091 14.1166 11.883 14.0704 12.0146 14.0033C12.2969 13.8595 12.5264 13.6299 12.6702 13.3477C12.7373 13.216 12.7835 13.0422 12.8083 12.7396C12.8277 12.5023 12.8312 12.213 12.8324 11.8334H11.167V14.155ZM11.167 10.8334H12.8337V8.50004H11.167V10.8334ZM3.16699 10.8334H4.83366V8.50004H3.16699V10.8334ZM5.83366 1.83337V7.50004H10.167V1.83337H5.83366ZM11.167 7.50004H12.8337V5.16671H11.167V7.50004ZM3.16699 7.50004H4.83366V5.16671H3.16699V7.50004ZM11.167 4.16671H12.8324C12.8312 3.78706 12.8277 3.49777 12.8083 3.26046C12.7835 2.95791 12.7373 2.78406 12.6702 2.65238C12.5264 2.37014 12.2969 2.1406 12.0146 1.99679C11.883 1.9297 11.7091 1.88349 11.4066 1.85876C11.3322 1.85269 11.2527 1.84797 11.167 1.84444V4.16671ZM4.59408 1.85876C4.29153 1.88349 4.11768 1.9297 3.986 1.99679C3.70376 2.1406 3.47421 2.37014 3.3304 2.65238C3.26332 2.78406 3.2171 2.95791 3.19238 3.26046C3.17299 3.49777 3.16943 3.78706 3.1683 4.16671H4.83366V1.84444C4.74792 1.84797 4.66844 1.85269 4.59408 1.85876Z" fill="#303233"/>
</svg>
