<svg width="13" height="12" viewBox="0 0 13 12" fill="none" xmlns="http://www.w3.org/2000/svg">
<path d="M1 0.5C1 0.223858 0.776142 0 0.5 0C0.223858 0 0 0.223858 0 0.5V4.5C0 4.77614 0.223858 5 0.5 5H4.5C4.77614 5 5 4.77614 5 4.5C5 4.22386 4.77614 4 4.5 4H1.78761L3.45306 2.47656C3.45843 2.47165 3.46369 2.46662 3.46884 2.46148C4.23601 1.69561 5.23131 1.1998 6.30477 1.04877C7.37822 0.897743 8.47169 1.09967 9.42041 1.62413C10.3691 2.14859 11.1217 2.96717 11.5647 3.95654C12.0078 4.9459 12.1173 6.05245 11.8767 7.10946C11.6362 8.16646 11.0587 9.11667 10.2311 9.8169C9.4036 10.5171 8.37091 10.9294 7.28868 10.9917C6.20644 11.054 5.13327 10.7629 4.23087 10.1622C3.32847 9.56158 2.64572 8.68391 2.28551 7.66148C2.19374 7.40103 1.90822 7.26428 1.64777 7.35604C1.38732 7.4478 1.25057 7.73332 1.34233 7.99377C1.77459 9.22069 2.59389 10.2739 3.67677 10.9947C4.75964 11.7155 6.04745 12.0648 7.34614 11.9901C8.64482 11.9153 9.88404 11.4206 10.8771 10.5803C11.8701 9.74 12.5632 8.59976 12.8518 7.33135C13.1404 6.06294 13.009 4.73508 12.4774 3.54784C11.9458 2.36061 11.0427 1.37831 9.90421 0.748957C8.76575 0.119604 7.45359 -0.12271 6.16544 0.0585252C4.88098 0.239243 3.68976 0.83133 2.77023 1.74591L1 3.36519V0.5Z" fill="#616366"/>
<path d="M7 2.5C7.27614 2.5 7.5 2.72386 7.5 3V5.69098L9.22361 6.55279C9.4706 6.67628 9.57071 6.97662 9.44721 7.22361C9.32372 7.4706 9.02338 7.57071 8.77639 7.44721L6.77639 6.44721C6.607 6.36252 6.5 6.18939 6.5 6V3C6.5 2.72386 6.72386 2.5 7 2.5Z" fill="#616366"/>
</svg>
