<svg fill="none" height="48" viewBox="0 0 48 48" width="48" xmlns="http://www.w3.org/2000/svg" xmlns:xlink="http://www.w3.org/1999/xlink"><linearGradient id="a" gradientUnits="userSpaceOnUse" x1="24" x2="24" y1="6" y2="42"><stop offset="0" stop-color="#29dd74"/><stop offset="1" stop-color="#09bf5b"/></linearGradient><path clip-rule="evenodd" d="m11 6h26c1.6569 0 3 1.34315 3 3v30c0 1.6569-1.3431 3-3 3h-26c-1.65685 0-3-1.3431-3-3v-30c0-1.65685 1.34315-3 3-3zm7 6h-4v4h4zm8 0h-7v4h7zm1 0h7v4h-7zm-1 5h-7v4h7zm-12 0h4v4h-4zm12 5h-7v4h7zm1-5h7v4h-7zm-1 10h-7v4h7zm-12-5h4v4h-4zm12 10h-7v4h7zm1-10h7v4h-7zm-9 5h-4v4h4zm9 0h7v4h-7zm-9 5h-4v4h4zm9 0h7v4h-7z" fill="url(#a)" fill-rule="evenodd"/></svg>