<svg width="22" height="22" viewBox="0 0 22 22" fill="none" xmlns="http://www.w3.org/2000/svg">
<path d="M11.75 5C11.75 4.58579 11.4142 4.25 11 4.25C10.5858 4.25 10.25 4.58579 10.25 5V11C10.25 11.2841 10.4105 11.5438 10.6646 11.6708L14.6646 13.6708C15.0351 13.8561 15.4856 13.7059 15.6708 13.3354C15.8561 12.9649 15.7059 12.5144 15.3354 12.3292L11.75 10.5365V5Z" fill="#303233"/>
<path fill-rule="evenodd" clip-rule="evenodd" d="M11 0.25C5.06294 0.25 0.25 5.06294 0.25 11C0.25 16.9371 5.06294 21.75 11 21.75C16.9371 21.75 21.75 16.9371 21.75 11C21.75 5.06294 16.9371 0.25 11 0.25ZM1.75 11C1.75 5.89137 5.89137 1.75 11 1.75C16.1086 1.75 20.25 5.89137 20.25 11C20.25 16.1086 16.1086 20.25 11 20.25C5.89137 20.25 1.75 16.1086 1.75 11Z" fill="#303233"/>
</svg>
