<svg width="24" height="20" viewBox="0 0 24 20" fill="none" xmlns="http://www.w3.org/2000/svg">
<path d="M5.788 4.08398e-07H16.212C17.0305 -1.20235e-05 17.7061 -2.2281e-05 18.2561 0.0456522C18.8274 0.0931004 19.3523 0.194964 19.8439 0.450348C20.5745 0.82985 21.1702 1.42553 21.5497 2.1561C21.8326 2.70071 21.9281 3.28898 21.9684 3.93808C22.0026 4.48931 21.5834 4.96389 21.0322 4.99808C20.481 5.03228 20.0064 4.61315 19.9722 4.06192C19.9383 3.51493 19.867 3.25544 19.7748 3.07805C19.5851 2.71277 19.2872 2.41493 18.9219 2.22517C18.7634 2.1428 18.536 2.07578 18.0905 2.03879C17.6331 2.00081 17.041 2 16.17 2H5.83C4.95898 2 4.36686 2.00081 3.90946 2.03879C3.46402 2.07578 3.23663 2.1428 3.07805 2.22517C2.71277 2.41493 2.41493 2.71277 2.22518 3.07805C2.1428 3.23663 2.07578 3.46402 2.03879 3.90945C2.00081 4.36686 2 4.95898 2 5.83V12.17C2 13.041 2.00081 13.6331 2.03879 14.0905C2.07578 14.536 2.1428 14.7634 2.22518 14.9219C2.41493 15.2872 2.71277 15.5851 3.07805 15.7748C3.23663 15.8572 3.46402 15.9242 3.90946 15.9612C4.36687 15.9992 4.95898 16 5.83 16H6C6.55229 16 7 16.4477 7 17C7 17.5523 6.55229 18 6 18H5.788C4.96951 18 4.29392 18 3.74393 17.9543C3.17258 17.9069 2.64774 17.805 2.15611 17.5497C1.42553 17.1702 0.829851 16.5745 0.450349 15.8439C0.194964 15.3523 0.0931012 14.8274 0.045653 14.2561C-2.07499e-05 13.7061 -1.12021e-05 13.0305 3.66677e-07 12.212V5.78796C-1.12021e-05 4.96947 -2.07499e-05 4.29392 0.045653 3.74393C0.0931012 3.17258 0.194964 2.64774 0.450349 2.1561C0.829851 1.42553 1.42553 0.82985 2.15611 0.450348C2.64774 0.194964 3.17258 0.0931003 3.74393 0.0456522C4.29393 -2.2281e-05 4.96949 -1.20235e-05 5.788 4.08398e-07Z" fill="#1C1C1E"/>
<path fill-rule="evenodd" clip-rule="evenodd" d="M14.788 7H18.212C19.0305 6.99999 19.7061 6.99998 20.2561 7.04565C20.8274 7.0931 21.3523 7.19496 21.8439 7.45035C22.5745 7.82985 23.1702 8.42553 23.5497 9.1561C23.805 9.64774 23.9069 10.1726 23.9543 10.7439C24 11.2939 24 11.9695 24 12.788V14.212C24 15.0305 24 15.7061 23.9543 16.2561C23.9069 16.8274 23.805 17.3523 23.5497 17.8439C23.1702 18.5745 22.5745 19.1702 21.8439 19.5497C21.3523 19.805 20.8274 19.9069 20.2561 19.9543C19.7061 20 19.0305 20 18.212 20H14.788C13.9695 20 13.2939 20 12.7439 19.9543C12.1726 19.9069 11.6477 19.805 11.1561 19.5497C10.4255 19.1702 9.82985 18.5745 9.45035 17.8439C9.19496 17.3523 9.0931 16.8274 9.04565 16.2561C8.99998 15.7061 8.99999 15.0305 9 14.2121V12.7879C8.99999 11.9695 8.99998 11.2939 9.04565 10.7439C9.0931 10.1726 9.19496 9.64774 9.45035 9.1561C9.82985 8.42553 10.4255 7.82985 11.1561 7.45035C11.6477 7.19496 12.1726 7.0931 12.7439 7.04565C13.2939 6.99998 13.9695 6.99999 14.788 7ZM16.5 13.5C17.7828 13.5 18.8227 12.4926 18.8227 11.25C18.8227 10.0074 17.7828 9 16.5 9C15.2172 9 14.1773 10.0074 14.1773 11.25C14.1773 12.4926 15.2172 13.5 16.5 13.5ZM20.4518 18C20.801 18 21.0739 17.7019 20.982 17.3755C20.4445 15.4662 18.6414 14.0625 16.5 14.0625C14.3586 14.0625 12.5555 15.4662 12.018 17.3755C11.9261 17.7019 12.1989 18 12.5482 18H20.4518Z" fill="#1C1C1E"/>
</svg>
