<svg width="32" height="32" viewBox="0 0 32 32" fill="none" xmlns="http://www.w3.org/2000/svg">
<path d="M22.4476 8.22452C20.4557 6.23123 17.706 5 14.6667 5C8.59162 5 3.66675 9.92487 3.66675 16C3.66675 21.2337 7.32288 25.6159 12.2214 26.7274C12.76 26.8496 13.0975 27.3853 12.9753 27.9239C12.8531 28.4625 12.3174 28.8001 11.7788 28.6779C5.98934 27.3642 1.66675 22.1881 1.66675 16C1.66675 8.8203 7.48705 3 14.6667 3C18.2579 3 21.5106 4.45748 23.8623 6.81079C24.9214 7.8706 26.0798 9.24993 27.0001 10.3993V5.33333C27.0001 4.78105 27.4478 4.33333 28.0001 4.33333C28.5524 4.33333 29.0001 4.78105 29.0001 5.33333V13.3333C29.0001 13.8856 28.5524 14.3333 28.0001 14.3333L20.0001 14.3333C19.4478 14.3333 19.0001 13.8856 19.0001 13.3333C19.0001 12.781 19.4478 12.3333 20.0001 12.3333L25.9803 12.3333C25.8625 12.1828 25.7384 12.0254 25.6091 11.8628C24.675 10.6876 23.4922 9.2698 22.4476 8.22452Z" fill="#F3F4F4"/>
<path d="M23.7174 20.0712H28.6057V18.612L22.1853 18.612V24.7552H23.7612C23.9071 24.3466 24.1406 24.0256 24.4616 23.7921C24.7923 23.5489 25.1961 23.4273 25.6727 23.4273C26.3537 23.4273 26.8693 23.617 27.2195 23.9964C27.5697 24.3661 27.7448 24.9011 27.7448 25.6015C27.7448 26.2922 27.5697 26.8467 27.2195 27.265C26.879 27.6833 26.3634 27.8924 25.6727 27.8924C25.1182 27.8924 24.6562 27.7611 24.2865 27.4985C23.9168 27.2261 23.6785 26.8613 23.5715 26.4041H21.9518C22.0783 27.2698 22.4625 27.9654 23.1045 28.4907C23.7466 29.016 24.5978 29.2787 25.6581 29.2787C26.4558 29.2787 27.127 29.1182 27.6718 28.7971C28.2263 28.4761 28.6397 28.0384 28.9121 27.4839C29.1942 26.9196 29.3353 26.2776 29.3353 25.5577C29.3353 24.9643 29.2234 24.4001 28.9997 23.8651C28.7857 23.33 28.4209 22.8874 27.9053 22.5372C27.3994 22.187 26.7379 22.0119 25.9208 22.0119C25.4636 22.0119 25.0307 22.1043 24.6221 22.2892C24.2233 22.474 23.9217 22.7026 23.7174 22.975V20.0712Z" fill="#F3F4F4"/>
<path d="M16.4272 18.6412V20.1587H17.7842V29.2787H19.4623V18.6412H16.4272Z" fill="#F3F4F4"/>
</svg>
