<svg fill="none" height="48" viewBox="0 0 48 48" width="48" xmlns="http://www.w3.org/2000/svg" xmlns:xlink="http://www.w3.org/1999/xlink"><linearGradient id="a" gradientUnits="userSpaceOnUse" x1="24" x2="24" y1="6" y2="42"><stop offset="0" stop-color="#69a3fb"/><stop offset="1" stop-color="#477ef7"/></linearGradient><path clip-rule="evenodd" d="m11 6h26c1.6569 0 3 1.34315 3 3v30c0 1.6569-1.3431 3-3 3h-26c-1.65685 0-3-1.3431-3-3v-30c0-1.65685 1.34315-3 3-3zm11 15c.5523 0 1-.4477 1-1s-.4477-1-1-1h-2c-2.7614 0-5 2.2386-5 5s2.2386 5 5 5h2c.5523 0 1-.4477 1-1s-.4477-1-1-1h-2c-1.6569 0-3-1.3431-3-3s1.3431-3 3-3zm3-1c0 .5523.4477 1 1 1h2c1.6569 0 3 1.3431 3 3s-1.3431 3-3 3h-2c-.5523 0-1 .4477-1 1s.4477 1 1 1h2c2.7614 0 5-2.2386 5-5s-2.2386-5-5-5h-2c-.5523 0-1 .4477-1 1zm-4 3c-.5523 0-1 .4477-1 1s.4477 1 1 1h6c.5523 0 1-.4477 1-1s-.4477-1-1-1z" fill="url(#a)" fill-rule="evenodd"/></svg>