<svg width="24" height="15" viewBox="0 0 24 15" fill="none" xmlns="http://www.w3.org/2000/svg">
<path fill-rule="evenodd" clip-rule="evenodd" d="M19.583 7C19.7542 7.00003 19.9219 7.0493 20.0654 7.14258C20.2089 7.23584 20.3221 7.36904 20.3916 7.52539L20.627 8.05176C20.7098 8.2391 20.8502 8.39514 21.0273 8.49805C21.2052 8.60065 21.411 8.6445 21.6152 8.62305L22.1875 8.5625C22.3576 8.54457 22.5292 8.57577 22.6816 8.65332C22.8342 8.73102 22.9613 8.85169 23.0469 9C23.1325 9.1482 23.1731 9.31833 23.1641 9.48926C23.155 9.66008 23.0967 9.82457 22.9961 9.96289L22.6572 10.4287C22.5366 10.5948 22.4716 10.7947 22.4717 11C22.4707 11.2059 22.5347 11.4073 22.6553 11.5742L22.9941 12.0391C23.0948 12.1773 23.153 12.3419 23.1621 12.5127C23.1711 12.6836 23.1305 12.8538 23.0449 13.002C22.9594 13.1503 22.8323 13.2709 22.6797 13.3486C22.5273 13.4262 22.3556 13.4584 22.1855 13.4404L21.6133 13.3789C21.4091 13.3575 21.2033 13.4013 21.0254 13.5039C20.8486 13.6062 20.7082 13.7617 20.625 13.9482L20.3916 14.4746C20.3221 14.631 20.2089 14.7642 20.0654 14.8574C19.9219 14.9507 19.7542 15 19.583 15C19.4119 15 19.2441 14.9506 19.1006 14.8574C18.9571 14.7641 18.8429 14.631 18.7734 14.4746L18.54 13.9482C18.4568 13.7608 18.3163 13.6046 18.1387 13.502C17.9608 13.3993 17.7541 13.3555 17.5498 13.377L16.9785 13.4375C16.8083 13.4554 16.6359 13.4234 16.4834 13.3457C16.3311 13.268 16.2047 13.148 16.1191 13C16.0335 12.8518 15.992 12.6817 16.001 12.5107C16.01 12.34 16.0684 12.1754 16.1689 12.0371L16.5078 11.5713C16.6286 11.4052 16.6934 11.2053 16.6934 11C16.6934 10.7947 16.6286 10.5948 16.5078 10.4287L16.1689 9.96289C16.0684 9.8246 16.01 9.66001 16.001 9.48926C15.992 9.3183 16.0335 9.14822 16.1191 9C16.2047 8.85178 16.3309 8.73099 16.4834 8.65332C16.636 8.57561 16.8082 8.54449 16.9785 8.5625L17.5518 8.62305C17.7559 8.64449 17.9618 8.60058 18.1396 8.49805C18.3167 8.39516 18.4572 8.23907 18.54 8.05176L18.7734 7.52539C18.8429 7.36896 18.9571 7.23587 19.1006 7.14258C19.2441 7.0494 19.4119 6.99997 19.583 7ZM19.5869 9.66699C18.8505 9.66699 18.2529 10.2636 18.2529 11C18.2529 11.7364 18.8505 12.333 19.5869 12.333C20.3232 12.3329 20.9199 11.7363 20.9199 11C20.9199 10.2637 20.3232 9.66713 19.5869 9.66699Z" fill="#303233"/>
<path d="M8.93164 0C9.34585 0 9.68164 0.335786 9.68164 0.75C9.68164 1.16421 9.34585 1.5 8.93164 1.5H5.86328C4.7127 1.5001 3.605 1.96901 2.78516 2.81055C1.96455 3.65304 1.5 4.80025 1.5 6C1.5 7.19975 1.96455 8.34696 2.78516 9.18945C3.19122 9.60626 3.67232 9.93567 4.2002 10.1602C4.72806 10.3846 5.29314 10.5 5.86328 10.5H8.93164C9.34585 10.5 9.68164 10.8358 9.68164 11.25C9.68164 11.6642 9.34585 12 8.93164 12H5.86328C5.09068 12 4.32597 11.8441 3.61328 11.541C2.90051 11.2379 2.25448 10.7934 1.71094 10.2354C0.613558 9.10871 0 7.58502 0 6C0 4.41498 0.613558 2.89129 1.71094 1.76465C2.80888 0.637475 4.30185 9.64767e-05 5.86328 0H8.93164Z" fill="#303233"/>
<path d="M16.0908 5.25C16.505 5.25 16.8408 5.58579 16.8408 6C16.8408 6.41421 16.505 6.75 16.0908 6.75H7.90918C7.49497 6.75 7.15918 6.41421 7.15918 6C7.15918 5.58579 7.49497 5.25 7.90918 5.25H16.0908Z" fill="#303233"/>
<path d="M18.1367 0C18.9093 4.78224e-05 19.674 0.155942 20.3867 0.458984C21.0995 0.762097 21.7455 1.20664 22.2891 1.76465C22.8325 2.32262 23.2635 2.98351 23.5566 3.70996C23.8497 4.43645 24 5.21477 24 6C24 6.41421 23.6642 6.75 23.25 6.75C22.8358 6.75 22.5 6.41421 22.5 6C22.5 5.40635 22.3859 4.81892 22.165 4.27148C21.9442 3.72412 21.621 3.22753 21.2148 2.81055C20.8088 2.39374 20.3277 2.06433 19.7998 1.83984C19.2719 1.61536 18.7069 1.50005 18.1367 1.5H15.0684C14.6541 1.5 14.3184 1.16421 14.3184 0.75C14.3184 0.335786 14.6541 0 15.0684 0H18.1367Z" fill="#303233"/>
</svg>
