<svg width="24" height="24" viewBox="0 0 24 24" fill="none" xmlns="http://www.w3.org/2000/svg">
<path d="M8.75 7.99991C8.75 7.58569 8.41421 7.24991 8 7.24991C7.58579 7.24991 7.25 7.58569 7.25 7.99991V12.9999C7.25 13.4141 7.58579 13.7499 8 13.7499C8.41421 13.7499 8.75 13.4141 8.75 12.9999V7.99991Z" fill="#303233"/>
<path d="M16 7.24991C16.4142 7.24991 16.75 7.58569 16.75 7.99991V12.9999C16.75 13.4141 16.4142 13.7499 16 13.7499C15.5858 13.7499 15.25 13.4141 15.25 12.9999V7.99991C15.25 7.58569 15.5858 7.24991 16 7.24991Z" fill="#303233"/>
<path d="M12.75 6.99991C12.75 6.58569 12.4142 6.24991 12 6.24991C11.5858 6.24991 11.25 6.58569 11.25 6.99991V15.4999C11.25 15.9141 11.5858 16.2499 12 16.2499C12.4142 16.2499 12.75 15.9141 12.75 15.4999V6.99991Z" fill="#303233"/>
<path fill-rule="evenodd" clip-rule="evenodd" d="M17.4249 3.23323C13.9272 1.92161 10.0728 1.92161 6.57514 3.23323L5.03441 3.811C3.96107 4.2135 3.25 5.23958 3.25 6.38591V11.9999C3.25 14.8672 4.88625 17.2552 6.62617 18.9929C8.37744 20.7419 10.3348 21.9345 11.1969 22.4189C11.6995 22.7012 12.3005 22.7012 12.8031 22.4189C13.6652 21.9345 15.6226 20.7419 17.3738 18.9929C19.1138 17.2552 20.75 14.8672 20.75 11.9999V6.38591C20.75 5.23958 20.0389 4.2135 18.9656 3.811L17.4249 3.23323ZM7.10183 4.63772C10.2599 3.45344 13.7401 3.45344 16.8982 4.63772L18.4389 5.21549C18.9268 5.39845 19.25 5.86485 19.25 6.38591V11.9999C19.25 14.2831 17.9387 16.3087 16.3139 17.9315C14.7003 19.543 12.8755 20.6576 12.0683 21.1112C12.0221 21.1372 11.9779 21.1372 11.9317 21.1112C11.1245 20.6576 9.2997 19.543 7.68615 17.9315C6.06125 16.3087 4.75 14.2831 4.75 11.9999V6.38591C4.75 5.86485 5.07322 5.39845 5.5611 5.21549L7.10183 4.63772Z" fill="#303233"/>
</svg>
