<svg width="25" height="24" viewBox="0 0 25 24" fill="none" xmlns="http://www.w3.org/2000/svg">
<path fill-rule="evenodd" clip-rule="evenodd" d="M6.63672 8C6.63672 4.82436 9.21108 2.25 12.3867 2.25C15.5624 2.25 18.1367 4.82436 18.1367 8V10.3564C18.4766 10.4143 18.791 10.5068 19.0892 10.6587C19.7948 11.0183 20.3685 11.5919 20.728 12.2975C20.9543 12.7418 21.0487 13.2219 21.0934 13.7685C21.1367 14.2994 21.1367 14.955 21.1367 15.7679V16.2321C21.1367 17.045 21.1367 17.7006 21.0934 18.2315C21.0487 18.7781 20.9543 19.2582 20.728 19.7025C20.3685 20.4081 19.7948 20.9817 19.0892 21.3413C18.645 21.5676 18.1648 21.662 17.6182 21.7066C17.0873 21.75 16.4317 21.75 15.6188 21.75H9.1546C8.34176 21.75 7.68616 21.75 7.15525 21.7066C6.60861 21.662 6.12847 21.5676 5.68425 21.3413C4.97865 20.9817 4.40497 20.4081 4.04544 19.7025C3.8191 19.2582 3.72474 18.7781 3.68008 18.2315C3.63671 17.7006 3.63671 17.0449 3.63672 16.2321V15.7679C3.63671 14.9551 3.63671 14.2994 3.68008 13.7685C3.72474 13.2219 3.8191 12.7418 4.04544 12.2975C4.40497 11.5919 4.97865 11.0183 5.68425 10.6587C5.98247 10.5068 6.29688 10.4143 6.63672 10.3564V8ZM8.13672 10.2541C8.44532 10.25 8.78359 10.25 9.15462 10.25H15.6188C15.9898 10.25 16.3281 10.25 16.6367 10.2541V8C16.6367 5.65279 14.7339 3.75 12.3867 3.75C10.0395 3.75 8.13672 5.65279 8.13672 8V10.2541ZM7.2774 11.7884C6.82352 11.8255 6.56276 11.8946 6.36524 11.9952C5.94188 12.211 5.59767 12.5552 5.38195 12.9785C5.28131 13.176 5.21218 13.4368 5.1751 13.8907C5.1373 14.3533 5.13672 14.9475 5.13672 15.8V16.2C5.13672 17.0525 5.1373 17.6467 5.1751 18.1093C5.21218 18.5632 5.28131 18.824 5.38195 19.0215C5.59767 19.4448 5.94188 19.789 6.36524 20.0048C6.56276 20.1054 6.82352 20.1745 7.2774 20.2116C7.74003 20.2494 8.33426 20.25 9.18672 20.25H15.5867C16.4392 20.25 17.0334 20.2494 17.496 20.2116C17.9499 20.1745 18.2107 20.1054 18.4082 20.0048C18.8316 19.789 19.1758 19.4448 19.3915 19.0215C19.4921 18.824 19.5613 18.5632 19.5983 18.1093C19.6361 17.6467 19.6367 17.0525 19.6367 16.2V15.8C19.6367 14.9475 19.6361 14.3533 19.5983 13.8907C19.5613 13.4368 19.4921 13.176 19.3915 12.9785C19.1758 12.5552 18.8316 12.211 18.4082 11.9952C18.2107 11.8946 17.9499 11.8255 17.496 11.7884C17.0334 11.7506 16.4392 11.75 15.5867 11.75H9.18672C8.33426 11.75 7.74003 11.7506 7.2774 11.7884Z" fill="#F3F4F4"/>
</svg>
