<svg fill="none" height="48" viewBox="0 0 48 48" width="48" xmlns="http://www.w3.org/2000/svg" xmlns:xlink="http://www.w3.org/1999/xlink"><linearGradient id="a" gradientUnits="userSpaceOnUse" x1="24" x2="24" y1="6" y2="42"><stop offset="0" stop-color="#fd6f90"/><stop offset="1" stop-color="#f63d6b"/></linearGradient><path clip-rule="evenodd" d="m37 6h-26c-1.65685 0-3 1.34315-3 3v30c0 1.6569 1.34315 3 3 3h26c1.6569 0 3-1.3431 3-3v-30c0-1.65685-1.3431-3-3-3zm-26 4c0-.55228.4477-1 1-1h3c.5523 0 1 .44772 1 1 0 .5523-.4477 1-1 1h-3c-.5523 0-1-.4477-1-1zm1 2c-.5523 0-1 .4477-1 1v2c0 .5523.4477 1 1 1h3c.5523 0 1-.4477 1-1v-2c0-.5523-.4477-1-1-1zm21 0c-.5523 0-1 .4477-1 1v2c0 .5523.4477 1 1 1h3c.5523 0 1-.4477 1-1v-2c0-.5523-.4477-1-1-1zm0-3c-.5523 0-1 .44772-1 1 0 .5523.4477 1 1 1h3c.5523 0 1-.4477 1-1 0-.55228-.4477-1-1-1zm-22 29c0-.5523.4477-1 1-1h3c.5523 0 1 .4477 1 1s-.4477 1-1 1h-3c-.5523 0-1-.4477-1-1zm22-1c-.5523 0-1 .4477-1 1s.4477 1 1 1h3c.5523 0 1-.4477 1-1s-.4477-1-1-1zm-22-19c0-.5523.4477-1 1-1h3c.5523 0 1 .4477 1 1v2c0 .5523-.4477 1-1 1h-3c-.5523 0-1-.4477-1-1zm22-1c-.5523 0-1 .4477-1 1v2c0 .5523.4477 1 1 1h3c.5523 0 1-.4477 1-1v-2c0-.5523-.4477-1-1-1zm-22 6c0-.5523.4477-1 1-1h3c.5523 0 1 .4477 1 1v2c0 .5523-.4477 1-1 1h-3c-.5523 0-1-.4477-1-1zm22-1c-.5523 0-1 .4477-1 1v2c0 .5523.4477 1 1 1h3c.5523 0 1-.4477 1-1v-2c0-.5523-.4477-1-1-1zm-22 6c0-.5523.4477-1 1-1h3c.5523 0 1 .4477 1 1v2c0 .5523-.4477 1-1 1h-3c-.5523 0-1-.4477-1-1zm22-1c-.5523 0-1 .4477-1 1v2c0 .5523.4477 1 1 1h3c.5523 0 1-.4477 1-1v-2c0-.5523-.4477-1-1-1zm-22 6c0-.5523.4477-1 1-1h3c.5523 0 1 .4477 1 1v2c0 .5523-.4477 1-1 1h-3c-.5523 0-1-.4477-1-1zm22-1c-.5523 0-1 .4477-1 1v2c0 .5523.4477 1 1 1h3c.5523 0 1-.4477 1-1v-2c0-.5523-.4477-1-1-1zm-11.3861-13.7447c-.6568-.5109-1.6139-.0428-1.6139.7893v9.9108c0 .8321.9571 1.3002 1.6139.7893l6.3712-4.9553c.5148-.4004.5148-1.1784 0-1.5788z" fill="url(#a)" fill-rule="evenodd"/></svg>