<svg fill="none" height="48" viewBox="0 0 48 48" width="48" xmlns="http://www.w3.org/2000/svg" xmlns:xlink="http://www.w3.org/1999/xlink"><linearGradient id="a" gradientUnits="userSpaceOnUse" x1="24" x2="24" y1="8" y2="40"><stop offset="0" stop-color="#fdc121"/><stop offset="1" stop-color="#f7a308"/></linearGradient><g clip-rule="evenodd" fill="url(#a)" fill-rule="evenodd"><path d="m24 31c2.7614 0 5-2.2386 5-5s-2.2386-5-5-5-5 2.2386-5 5 2.2386 5 5 5zm0-1c2.2091 0 4-1.7909 4-4s-1.7909-4-4-4-4 1.7909-4 4 1.7909 4 4 4z"/><path d="m8 8c-1.10457 0-2 .89543-2 2v27c0 1.6569 1.34315 3 3 3h30c1.6569 0 3-1.3431 3-3v-23c0-1.6569-1.3431-3-3-3h-11.3431c-1.0609 0-2.0783-.4214-2.8285-1.17157l-.6568-.65686c-.7502-.75014-1.7676-1.17157-2.8285-1.17157zm6 12c0-1.1046.8954-2 2-2h16c1.1046 0 2 .8954 2 2v12c0 1.1046-.8954 2-2 2h-16c-1.1046 0-2-.8954-2-2z"/></g></svg>