<svg fill="none" height="48" viewBox="0 0 48 48" width="48" xmlns="http://www.w3.org/2000/svg" xmlns:xlink="http://www.w3.org/1999/xlink"><linearGradient id="a" gradientUnits="userSpaceOnUse" x1="24" x2="24" y1="9" y2="39"><stop offset="0" stop-color="#888d95"/><stop offset="1" stop-color="#6e747d"/></linearGradient><g fill="url(#a)"><path d="m28 34c0-.5523.4477-1 1-1h2c.5523 0 1 .4477 1 1s-.4477 1-1 1h-2c-.5523 0-1-.4477-1-1z"/><path d="m35 33c-.5523 0-1 .4477-1 1s.4477 1 1 1 1-.4477 1-1-.4477-1-1-1z"/><path clip-rule="evenodd" d="m31.7364 9c2.4565 0 4.5491 1.7844 4.9372 4.21l3.0755 19.2215c.1628.4933.2509 1.0206.2509 1.5685 0 2.7614-2.2386 5-5 5h-22c-2.7614 0-5-2.2386-5-5 0-.5479.08813-1.0753.251-1.5686l3.0754-19.2214c.3881-2.4256 2.4807-4.21 4.9372-4.21zm3.2636 22h-22c-1.6569 0-3 1.3431-3 3 0 1.5594 1.1898 2.8409 2.7111 2.9863l.2889.0137h22c1.6569 0 3-1.3431 3-3 0-1.5594-1.1898-2.8409-2.7111-2.9863z" fill-rule="evenodd"/></g></svg>