<svg width="20" height="22" viewBox="0 0 20 22" fill="none" xmlns="http://www.w3.org/2000/svg">
<path d="M7.75 9.25C8.16421 9.25 8.5 9.58579 8.5 10V16C8.5 16.4142 8.16421 16.75 7.75 16.75C7.33579 16.75 7 16.4142 7 16V10C7 9.58579 7.33579 9.25 7.75 9.25Z" fill="#616366"/>
<path d="M12.5 10C12.5 9.58579 12.1642 9.25 11.75 9.25C11.3358 9.25 11 9.58579 11 10V16C11 16.4142 11.3358 16.75 11.75 16.75C12.1642 16.75 12.5 16.4142 12.5 16V10Z" fill="#616366"/>
<path fill-rule="evenodd" clip-rule="evenodd" d="M5 4.25V3C5 2.27065 5.28973 1.57118 5.80546 1.05546C6.32118 0.539731 7.02065 0.25 7.75 0.25H11.75C12.4793 0.25 13.1788 0.539731 13.6945 1.05546C14.2103 1.57118 14.5 2.27065 14.5 3V4.25H18.75C19.1642 4.25 19.5 4.58579 19.5 5C19.5 5.41421 19.1642 5.75 18.75 5.75H17.5V19C17.5 19.7293 17.2103 20.4288 16.6945 20.9445C16.1788 21.4603 15.4793 21.75 14.75 21.75H4.75C4.02065 21.75 3.32118 21.4603 2.80546 20.9445C2.28973 20.4288 2 19.7293 2 19V5.75H0.75C0.335786 5.75 0 5.41421 0 5C0 4.58579 0.335786 4.25 0.75 4.25H5ZM6.86612 2.11612C7.10054 1.8817 7.41848 1.75 7.75 1.75H11.75C12.0815 1.75 12.3995 1.8817 12.6339 2.11612C12.8683 2.35054 13 2.66848 13 3V4.25H6.5V3C6.5 2.66848 6.6317 2.35054 6.86612 2.11612ZM3.5 5.75V19C3.5 19.3315 3.6317 19.6495 3.86612 19.8839C4.10054 20.1183 4.41848 20.25 4.75 20.25H14.75C15.0815 20.25 15.3995 20.1183 15.6339 19.8839C15.8683 19.6495 16 19.3315 16 19V5.75H3.5Z" fill="#616366"/>
</svg>
