<svg width="41" height="40" viewBox="0 0 41 40" fill="none" xmlns="http://www.w3.org/2000/svg">
<circle cx="20.5" cy="20" r="20" fill="#FAFAFB"/>
<path fill-rule="evenodd" clip-rule="evenodd" d="M16.5 10H13.5C11.8431 10 10.5 11.3431 10.5 13V16C10.5 17.6569 11.8431 19 13.5 19H16.5C18.1569 19 19.5 17.6569 19.5 16V13C19.5 11.3431 18.1569 10 16.5 10ZM11.5 13C11.5 11.8954 12.3954 11 13.5 11H16.5C17.6046 11 18.5 11.8954 18.5 13V16C18.5 17.1046 17.6046 18 16.5 18H13.5C12.3954 18 11.5 17.1046 11.5 16V13ZM16.5 21H13.5C11.8431 21 10.5 22.3431 10.5 24V27C10.5 28.6569 11.8431 30 13.5 30H16.5C18.1569 30 19.5 28.6569 19.5 27V24C19.5 22.3431 18.1569 21 16.5 21ZM11.5 24C11.5 22.8954 12.3954 22 13.5 22H16.5C17.6046 22 18.5 22.8954 18.5 24V27C18.5 28.1046 17.6046 29 16.5 29H13.5C12.3954 29 11.5 28.1046 11.5 27V24ZM24.5 10H27.5C29.1569 10 30.5 11.3431 30.5 13V16C30.5 17.6569 29.1569 19 27.5 19H24.5C22.8431 19 21.5 17.6569 21.5 16V13C21.5 11.3431 22.8431 10 24.5 10ZM24.5 11C23.3954 11 22.5 11.8954 22.5 13V16C22.5 17.1046 23.3954 18 24.5 18H27.5C28.6046 18 29.5 17.1046 29.5 16V13C29.5 11.8954 28.6046 11 27.5 11H24.5Z" fill="#04101E"/>
<path opacity="0.7" fill-rule="evenodd" clip-rule="evenodd" d="M12.5 13C12.5 12.4477 12.9477 12 13.5 12H16.5C17.0523 12 17.5 12.4477 17.5 13V16C17.5 16.5523 17.0523 17 16.5 17H13.5C12.9477 17 12.5 16.5523 12.5 16V13ZM12.5 24C12.5 23.4477 12.9477 23 13.5 23H16.5C17.0523 23 17.5 23.4477 17.5 24V27C17.5 27.5523 17.0523 28 16.5 28H13.5C12.9477 28 12.5 27.5523 12.5 27V24ZM24.5 12C23.9477 12 23.5 12.4477 23.5 13V16C23.5 16.5523 23.9477 17 24.5 17H27.5C28.0523 17 28.5 16.5523 28.5 16V13C28.5 12.4477 28.0523 12 27.5 12H24.5Z" fill="#04101E"/>
<path fill-rule="evenodd" clip-rule="evenodd" d="M29.75 22.5C29.3358 22.5 29 22.1642 29 21.75C29 21.3358 29.3358 21 29.75 21C30.1642 21 30.5 21.3358 30.5 21.75C30.5 22.1642 30.1642 22.5 29.75 22.5ZM29.75 25.5C29.3358 25.5 29 25.1642 29 24.75C29 24.3358 29.3358 24 29.75 24C30.1642 24 30.5 24.3358 30.5 24.75C30.5 25.1642 30.1642 25.5 29.75 25.5ZM29 27.75C29 28.1642 29.3358 28.5 29.75 28.5C30.1642 28.5 30.5 28.1642 30.5 27.75C30.5 27.3358 30.1642 27 29.75 27C29.3358 27 29 27.3358 29 27.75ZM28.25 24C27.8358 24 27.5 23.6642 27.5 23.25C27.5 22.8358 27.8358 22.5 28.25 22.5C28.6642 22.5 29 22.8358 29 23.25C29 23.6642 28.6642 24 28.25 24ZM27.5 26.25C27.5 26.6642 27.8358 27 28.25 27C28.6642 27 29 26.6642 29 26.25C29 25.8358 28.6642 25.5 28.25 25.5C27.8358 25.5 27.5 25.8358 27.5 26.25ZM28.25 30C27.8358 30 27.5 29.6642 27.5 29.25C27.5 28.8358 27.8358 28.5 28.25 28.5C28.6642 28.5 29 28.8358 29 29.25C29 29.6642 28.6642 30 28.25 30ZM26 21.75C26 22.1642 26.3358 22.5 26.75 22.5C27.1642 22.5 27.5 22.1642 27.5 21.75C27.5 21.3358 27.1642 21 26.75 21C26.3358 21 26 21.3358 26 21.75ZM26.75 25.5C26.3358 25.5 26 25.1642 26 24.75C26 24.3358 26.3358 24 26.75 24C27.1642 24 27.5 24.3358 27.5 24.75C27.5 25.1642 27.1642 25.5 26.75 25.5ZM26 27.75C26 28.1642 26.3358 28.5 26.75 28.5C27.1642 28.5 27.5 28.1642 27.5 27.75C27.5 27.3358 27.1642 27 26.75 27C26.3358 27 26 27.3358 26 27.75ZM25.25 24C24.8358 24 24.5 23.6642 24.5 23.25C24.5 22.8358 24.8358 22.5 25.25 22.5C25.6642 22.5 26 22.8358 26 23.25C26 23.6642 25.6642 24 25.25 24ZM24.5 26.25C24.5 26.6642 24.8358 27 25.25 27C25.6642 27 26 26.6642 26 26.25C26 25.8358 25.6642 25.5 25.25 25.5C24.8358 25.5 24.5 25.8358 24.5 26.25ZM25.25 30C24.8358 30 24.5 29.6642 24.5 29.25C24.5 28.8358 24.8358 28.5 25.25 28.5C25.6642 28.5 26 28.8358 26 29.25C26 29.6642 25.6642 30 25.25 30ZM23 21.75C23 22.1642 23.3358 22.5 23.75 22.5C24.1642 22.5 24.5 22.1642 24.5 21.75C24.5 21.3358 24.1642 21 23.75 21C23.3358 21 23 21.3358 23 21.75ZM23.75 25.5C23.3358 25.5 23 25.1642 23 24.75C23 24.3358 23.3358 24 23.75 24C24.1642 24 24.5 24.3358 24.5 24.75C24.5 25.1642 24.1642 25.5 23.75 25.5ZM23 27.75C23 28.1642 23.3358 28.5 23.75 28.5C24.1642 28.5 24.5 28.1642 24.5 27.75C24.5 27.3358 24.1642 27 23.75 27C23.3358 27 23 27.3358 23 27.75ZM22.25 24C21.8358 24 21.5 23.6642 21.5 23.25C21.5 22.8358 21.8358 22.5 22.25 22.5C22.6642 22.5 23 22.8358 23 23.25C23 23.6642 22.6642 24 22.25 24ZM21.5 26.25C21.5 26.6642 21.8358 27 22.25 27C22.6642 27 23 26.6642 23 26.25C23 25.8358 22.6642 25.5 22.25 25.5C21.8358 25.5 21.5 25.8358 21.5 26.25ZM22.25 30C21.8358 30 21.5 29.6642 21.5 29.25C21.5 28.8358 21.8358 28.5 22.25 28.5C22.6642 28.5 23 28.8358 23 29.25C23 29.6642 22.6642 30 22.25 30Z" fill="#04101E"/>
</svg>
