<svg width="40" height="40" viewBox="0 0 40 40" fill="none" xmlns="http://www.w3.org/2000/svg">
<circle cx="20" cy="20" r="20" fill="url(#paint0_linear_2984_3608)"/>
<path d="M16 20C15.4477 20 15 20.4477 15 21C15 21.5523 15.4477 22 16 22H24C24.5523 22 25 21.5523 25 21C25 20.4477 24.5523 20 24 20H16Z" fill="#FAFAFA"/>
<path d="M15 25C15 24.4477 15.4477 24 16 24H24C24.5523 24 25 24.4477 25 25C25 25.5523 24.5523 26 24 26H16C15.4477 26 15 25.5523 15 25Z" fill="#FAFAFA"/>
<path d="M16 16C15.4477 16 15 16.4477 15 17C15 17.5523 15.4477 18 16 18H19C19.5523 18 20 17.5523 20 17C20 16.4477 19.5523 16 19 16H16Z" fill="#FAFAFA"/>
<path fill-rule="evenodd" clip-rule="evenodd" d="M23.2413 9H16.7587C15.9537 8.99999 15.2894 8.99998 14.7482 9.04419C14.1861 9.09012 13.6694 9.18868 13.184 9.43598C12.4314 9.81947 11.8195 10.4314 11.436 11.184C11.1887 11.6694 11.0901 12.1861 11.0442 12.7482C11 13.2894 11 13.9537 11 14.7587V25.2413C11 26.0463 11 26.7106 11.0442 27.2518C11.0901 27.8139 11.1887 28.3306 11.436 28.816C11.8195 29.5686 12.4314 30.1805 13.184 30.564C13.6694 30.8113 14.1861 30.9099 14.7482 30.9558C15.2894 31 15.9537 31 16.7587 31H23.2413C24.0463 31 24.7106 31 25.2518 30.9558C25.8139 30.9099 26.3306 30.8113 26.816 30.564C27.5686 30.1805 28.1805 29.5686 28.564 28.816C28.8113 28.3306 28.9099 27.8139 28.9558 27.2518C29 26.7106 29 26.0463 29 25.2413V14.7587C29 13.9537 29 13.2894 28.9558 12.7482C28.9099 12.1861 28.8113 11.6694 28.564 11.184C28.1805 10.4314 27.5686 9.81947 26.816 9.43598C26.3306 9.18868 25.8139 9.09012 25.2518 9.04419C24.7106 8.99998 24.0463 8.99999 23.2413 9ZM14.092 11.218C14.2484 11.1383 14.4726 11.0734 14.911 11.0376C15.3611 11.0008 15.9434 11 16.8 11H23.2C24.0566 11 24.6389 11.0008 25.089 11.0376C25.5274 11.0734 25.7516 11.1383 25.908 11.218C26.2843 11.4097 26.5903 11.7157 26.782 12.092C26.8617 12.2484 26.9266 12.4726 26.9624 12.911C26.9992 13.3611 27 13.9434 27 14.8V25.2C27 26.0566 26.9992 26.6389 26.9624 27.089C26.9266 27.5274 26.8617 27.7516 26.782 27.908C26.5903 28.2843 26.2843 28.5903 25.908 28.782C25.7516 28.8617 25.5274 28.9266 25.089 28.9624C24.6389 28.9992 24.0566 29 23.2 29H16.8C15.9434 29 15.3611 28.9992 14.911 28.9624C14.4726 28.9266 14.2484 28.8617 14.092 28.782C13.7157 28.5903 13.4097 28.2843 13.218 27.908C13.1383 27.7516 13.0734 27.5274 13.0376 27.089C13.0008 26.6389 13 26.0566 13 25.2V14.8C13 13.9434 13.0008 13.3611 13.0376 12.911C13.0734 12.4726 13.1383 12.2484 13.218 12.092C13.4097 11.7157 13.7157 11.4097 14.092 11.218Z" fill="#FAFAFA"/>
<defs>
<linearGradient id="paint0_linear_2984_3608" x1="34.1421" y1="5.85787" x2="5.85787" y2="34.1421" gradientUnits="userSpaceOnUse">
<stop stop-color="#55D2F0"/>
<stop offset="1" stop-color="#2BA6DE"/>
</linearGradient>
</defs>
</svg>
