<svg width="41" height="40" viewBox="0 0 41 40" fill="none" xmlns="http://www.w3.org/2000/svg">
<circle cx="20.5" cy="20" r="20" fill="#04101E"/>
<path opacity="0.7" d="M27.5 9C28.6046 9 29.5 9.89543 29.5 11V29C29.5 30.1046 28.6046 31 27.5 31H26V9L27.5 9Z" fill="#FAFAFB"/>
<path fill-rule="evenodd" clip-rule="evenodd" d="M25.8158 9H13.1842C12.254 9 11.5 9.89543 11.5 11V29C11.5 30.1046 12.254 31 13.1842 31H25.8158C26.746 31 27.5 30.1046 27.5 29V11C27.5 9.89543 26.746 9 25.8158 9ZM16.5273 16.1401C15.5041 16.7531 15.2292 17.6718 15.7748 18.6701C16.5938 20.1626 17.1305 20.9371 17.8465 21.6532C18.5625 22.3694 19.3368 22.9062 20.8282 23.7249C21.8273 24.2713 22.7459 23.9958 23.3606 22.9695C23.5788 22.6091 23.5422 22.3197 23.2416 22.0666C23.2172 22.0469 23.1436 21.9867 23.0202 21.8854L22.7963 21.7017C22.5609 21.5089 22.4261 21.4006 22.3549 21.3472C21.8327 20.942 21.5308 21.0106 20.8905 21.6604C20.6351 21.9203 20.2693 21.9187 20.0115 21.6608L17.839 19.4879C17.5813 19.2301 17.5794 18.8642 17.8386 18.6095C18.49 17.9673 18.557 17.6655 18.145 17.1341C18.1089 17.0858 17.8323 16.7442 17.7438 16.6363L17.6967 16.579L17.6318 16.4999C17.52 16.3635 17.456 16.2852 17.4435 16.2696C17.1813 15.9577 16.8923 15.919 16.5273 16.1401Z" fill="#FAFAFB"/>
</svg>
