<svg width="24" height="23" viewBox="0 0 24 23" fill="none" xmlns="http://www.w3.org/2000/svg">
<path d="M5.25 7.75C5.25 4.43629 7.93629 1.75 11.25 1.75C13.6922 1.75 15.7952 3.20919 16.7317 5.30642C16.854 5.58032 17.1278 5.755 17.4277 5.75054C17.4518 5.75018 17.4759 5.75 17.5 5.75C20.1234 5.75 22.25 7.87665 22.25 10.5C22.25 13.1234 20.1234 15.25 17.5 15.25C17.0858 15.25 16.75 15.5858 16.75 16C16.75 16.4142 17.0858 16.75 17.5 16.75C20.9518 16.75 23.75 13.9518 23.75 10.5C23.75 7.17958 21.1607 4.46392 17.8911 4.26204C16.6364 1.87776 14.134 0.25 11.25 0.25C7.22034 0.25 3.93294 3.42798 3.75738 7.41436C1.73647 7.96081 0.25 9.80635 0.25 12C0.25 14.6234 2.37665 16.75 5 16.75H6.5C6.91421 16.75 7.25 16.4142 7.25 16C7.25 15.5858 6.91421 15.25 6.5 15.25H5C3.20507 15.25 1.75 13.7949 1.75 12C1.75 10.3416 2.99278 8.97236 4.59745 8.77461C4.98497 8.72685 5.27102 8.38976 5.25509 7.99963C5.25171 7.91689 5.25 7.83367 5.25 7.75Z" fill="#616366"/>
<path d="M12 11.25C12.4142 11.25 12.75 11.5858 12.75 12V20.1893L14.4697 18.4697C14.7626 18.1768 15.2374 18.1768 15.5303 18.4697C15.8232 18.7626 15.8232 19.2374 15.5303 19.5303L12.5303 22.5303C12.4584 22.6022 12.3755 22.6565 12.2871 22.6931C12.1987 22.7298 12.1017 22.75 12 22.75C11.9871 22.75 11.9742 22.7497 11.9614 22.749C11.8738 22.7446 11.7901 22.7251 11.7129 22.6931C11.6245 22.6565 11.5416 22.6022 11.4697 22.5303L8.46967 19.5303C8.17678 19.2374 8.17678 18.7626 8.46967 18.4697C8.76256 18.1768 9.23744 18.1768 9.53033 18.4697L11.25 20.1893V12C11.25 11.5858 11.5858 11.25 12 11.25Z" fill="#616366"/>
</svg>
