<svg width="41" height="40" viewBox="0 0 41 40" fill="none" xmlns="http://www.w3.org/2000/svg">
<circle cx="20.5" cy="20" r="20" fill="#FAFAFB"/>
<mask id="path-2-inside-1_5098_64712" fill="white">
<path fill-rule="evenodd" clip-rule="evenodd" d="M10.5 14.5C10.5 13.3954 11.3954 12.5 12.5 12.5H28.5C29.6046 12.5 30.5 13.3954 30.5 14.5V25.5C30.5 26.6046 29.6046 27.5 28.5 27.5H12.5C11.3954 27.5 10.5 26.6046 10.5 25.5V14.5ZM26 20C26 23.0376 23.5376 25.5 20.5 25.5C17.4624 25.5 15 23.0376 15 20C15 16.9624 17.4624 14.5 20.5 14.5C23.5376 14.5 26 16.9624 26 20ZM28 16C28.5523 16 29 15.5523 29 15C29 14.4477 28.5523 14 28 14C27.4477 14 27 14.4477 27 15C27 15.5523 27.4477 16 28 16Z"/>
</mask>
<path fill-rule="evenodd" clip-rule="evenodd" d="M10.5 14.5C10.5 13.3954 11.3954 12.5 12.5 12.5H28.5C29.6046 12.5 30.5 13.3954 30.5 14.5V25.5C30.5 26.6046 29.6046 27.5 28.5 27.5H12.5C11.3954 27.5 10.5 26.6046 10.5 25.5V14.5ZM26 20C26 23.0376 23.5376 25.5 20.5 25.5C17.4624 25.5 15 23.0376 15 20C15 16.9624 17.4624 14.5 20.5 14.5C23.5376 14.5 26 16.9624 26 20ZM28 16C28.5523 16 29 15.5523 29 15C29 14.4477 28.5523 14 28 14C27.4477 14 27 14.4477 27 15C27 15.5523 27.4477 16 28 16Z" fill="#04101E"/>
<path d="M12.5 11.5C10.8431 11.5 9.5 12.8431 9.5 14.5H11.5C11.5 13.9477 11.9477 13.5 12.5 13.5V11.5ZM28.5 11.5H12.5V13.5H28.5V11.5ZM31.5 14.5C31.5 12.8431 30.1569 11.5 28.5 11.5V13.5C29.0523 13.5 29.5 13.9477 29.5 14.5H31.5ZM31.5 25.5V14.5H29.5V25.5H31.5ZM28.5 28.5C30.1569 28.5 31.5 27.1569 31.5 25.5H29.5C29.5 26.0523 29.0523 26.5 28.5 26.5V28.5ZM12.5 28.5H28.5V26.5H12.5V28.5ZM9.5 25.5C9.5 27.1569 10.8431 28.5 12.5 28.5V26.5C11.9477 26.5 11.5 26.0523 11.5 25.5H9.5ZM9.5 14.5V25.5H11.5V14.5H9.5ZM20.5 26.5C24.0899 26.5 27 23.5899 27 20H25C25 22.4853 22.9853 24.5 20.5 24.5V26.5ZM14 20C14 23.5899 16.9101 26.5 20.5 26.5V24.5C18.0147 24.5 16 22.4853 16 20H14ZM20.5 13.5C16.9101 13.5 14 16.4101 14 20H16C16 17.5147 18.0147 15.5 20.5 15.5V13.5ZM27 20C27 16.4101 24.0899 13.5 20.5 13.5V15.5C22.9853 15.5 25 17.5147 25 20H27ZM28 15V17C29.1046 17 30 16.1046 30 15H28ZM28 15H30C30 13.8954 29.1046 13 28 13V15ZM28 15V13C26.8954 13 26 13.8954 26 15H28ZM28 15H26C26 16.1046 26.8954 17 28 17V15Z" fill="#04101E" mask="url(#path-2-inside-1_5098_64712)"/>
<circle opacity="0.7" cx="20.5" cy="20" r="4" fill="#04101E"/>
</svg>
