<svg width="24" height="24" viewBox="0 0 24 24" fill="none" xmlns="http://www.w3.org/2000/svg">
<path fill-rule="evenodd" clip-rule="evenodd" d="M7.22678 3.22703C8.49265 1.96116 10.2095 1.25 11.9997 1.25C13.79 1.25 15.5068 1.96116 16.7727 3.22703C18.0386 4.4929 18.7497 6.20979 18.7497 8C18.7497 10.9571 19.4936 12.9344 20.2869 14.2092L20.2958 14.2235C20.6555 14.8016 20.9362 15.2528 21.1246 15.5795C21.2189 15.7431 21.301 15.8943 21.3602 16.0248C21.3898 16.09 21.4208 16.1653 21.4444 16.2446C21.4645 16.3119 21.4988 16.4441 21.4859 16.6019C21.4757 16.7273 21.4514 16.9183 21.3433 17.1129C21.2352 17.3075 21.0858 17.429 20.9848 17.5039C20.7858 17.6516 20.5508 17.6868 20.459 17.7004C20.3251 17.7202 20.1685 17.7307 20.0025 17.7371C19.6722 17.75 19.2121 17.75 18.6301 17.75H5.36941C4.78744 17.75 4.32732 17.75 3.99701 17.7371C3.83099 17.7307 3.67438 17.7202 3.54047 17.7004C3.44871 17.6868 3.21369 17.6516 3.01469 17.5039C2.91365 17.429 2.76426 17.3075 2.65617 17.1129C2.54809 16.9183 2.52382 16.7273 2.51357 16.6019C2.50066 16.4441 2.53503 16.3119 2.55505 16.2446C2.57867 16.1653 2.60965 16.09 2.63925 16.0248C2.69853 15.8943 2.78063 15.7431 2.87494 15.5795C3.06323 15.2528 3.3439 14.8017 3.70353 14.2238L3.71263 14.2092C4.50586 12.9344 5.24975 10.9571 5.24975 8C5.24975 6.20979 5.96091 4.4929 7.22678 3.22703ZM11.9997 2.75C10.6074 2.75 9.272 3.30312 8.28744 4.28769C7.30287 5.27226 6.74975 6.60761 6.74975 8C6.74975 11.2233 5.93457 13.4775 4.9862 15.0016C4.6492 15.5432 4.39777 15.9475 4.2241 16.2434C4.50893 16.2499 4.88935 16.25 5.3886 16.25H18.6109C19.1101 16.25 19.4906 16.2499 19.7754 16.2434C19.6017 15.9475 19.3503 15.5432 19.0133 15.0017C18.0649 13.4775 17.2497 11.2233 17.2497 8C17.2497 6.60761 16.6966 5.27225 15.7121 4.28769C14.7275 3.30312 13.3921 2.75 11.9997 2.75ZM8.79162 20.5037C9.06572 20.1931 9.53967 20.1636 9.85022 20.4377C10.4236 20.9438 11.175 21.25 11.9997 21.25C12.8245 21.25 13.5759 20.9438 14.1493 20.4377C14.4598 20.1636 14.9338 20.1931 15.2079 20.5037C15.482 20.8143 15.4524 21.2882 15.1419 21.5623C14.305 22.301 13.2039 22.75 11.9997 22.75C10.7956 22.75 9.69451 22.301 8.85762 21.5623C8.54707 21.2882 8.51752 20.8143 8.79162 20.5037Z" fill="#303233"/>
</svg>
