<svg width="20" height="22" viewBox="0 0 20 22" fill="none" xmlns="http://www.w3.org/2000/svg">
<path fill-rule="evenodd" clip-rule="evenodd" d="M5.22705 2.22703C6.49292 0.961159 8.20981 0.25 10 0.25C11.7902 0.25 13.5071 0.961159 14.773 2.22703C16.0389 3.4929 16.75 5.20979 16.75 7C16.75 9.95705 17.4939 11.9344 18.2871 13.2092L18.2961 13.2235C18.6558 13.8016 18.9365 14.2528 19.1248 14.5795C19.2191 14.7431 19.3012 14.8943 19.3605 15.0248C19.3901 15.09 19.4211 15.1653 19.4447 15.2446C19.4647 15.3119 19.4991 15.4441 19.4862 15.6019C19.4759 15.7273 19.4517 15.9183 19.3436 16.1129C19.2355 16.3075 19.0861 16.429 18.9851 16.5039C18.7861 16.6516 18.5511 16.6868 18.4593 16.7004C18.3254 16.7202 18.1688 16.7307 18.0028 16.7371C17.6724 16.75 17.2123 16.75 16.6304 16.75H3.36968C2.78771 16.75 2.32759 16.75 1.99728 16.7371C1.83126 16.7307 1.67466 16.7202 1.54074 16.7004C1.44898 16.6868 1.21397 16.6516 1.01497 16.5039C0.913924 16.429 0.764533 16.3075 0.656448 16.1129C0.548364 15.9183 0.524098 15.7273 0.513842 15.6019C0.500935 15.4441 0.535303 15.3119 0.55533 15.2446C0.578945 15.1653 0.609929 15.09 0.639527 15.0248C0.698805 14.8943 0.780904 14.7431 0.875213 14.5795C1.06351 14.2528 1.34417 13.8017 1.7038 13.2238L1.7129 13.2092C2.50613 11.9344 3.25002 9.95705 3.25002 7C3.25002 5.20979 3.96118 3.4929 5.22705 2.22703ZM10 1.75C8.60763 1.75 7.27228 2.30312 6.28771 3.28769C5.30314 4.27226 4.75002 5.60761 4.75002 7C4.75002 10.2233 3.93485 12.4775 2.98647 14.0016C2.64947 14.5432 2.39805 14.9475 2.22437 15.2434C2.50921 15.2499 2.88963 15.25 3.38888 15.25H16.6112C17.1104 15.25 17.4908 15.2499 17.7757 15.2434C17.602 14.9475 17.3506 14.5432 17.0136 14.0017C16.0652 12.4775 15.25 10.2233 15.25 7C15.25 5.60761 14.6969 4.27225 13.7123 3.28769C12.7278 2.30312 11.3924 1.75 10 1.75ZM6.79189 19.5037C7.06599 19.1931 7.53994 19.1636 7.8505 19.4377C8.42387 19.9438 9.17527 20.25 10 20.25C10.8248 20.25 11.5762 19.9438 12.1495 19.4377C12.4601 19.1636 12.9341 19.1931 13.2081 19.5037C13.4822 19.8143 13.4527 20.2882 13.1421 20.5623C12.3053 21.301 11.2042 21.75 10 21.75C8.79588 21.75 7.69479 21.301 6.8579 20.5623C6.54734 20.2882 6.51779 19.8143 6.79189 19.5037Z" fill="#303233"/>
</svg>
