<svg fill="none" height="48" viewBox="0 0 48 48" width="48" xmlns="http://www.w3.org/2000/svg" xmlns:xlink="http://www.w3.org/1999/xlink"><linearGradient id="a" gradientUnits="userSpaceOnUse" x1="24" x2="24" y1="6" y2="42"><stop offset="0" stop-color="#31d0fe"/><stop offset="1" stop-color="#05baf1"/></linearGradient><path clip-rule="evenodd" d="m11 6h26c1.6569 0 3 1.34315 3 3v30c0 1.6569-1.3431 3-3 3h-26c-1.65685 0-3-1.3431-3-3v-30c0-1.65685 1.34315-3 3-3zm24 18c0-4.2324-2.3903-7.9065-5.8947-9.746l.0955.2208c.5149 1.2396.7992 2.5992.7992 4.0252 0 3.7359-1.951 7.016-4.8909 8.877 1.0532.4025 2.1963.623 3.3909.623 2.463 0 4.707-.9373 6.395-2.4741.0692-.4987.105-1.0081.105-1.5259zm-.4353 3.0725c-1.7129 1.214-3.8055 1.9275-6.0647 1.9275-2.9369 0-5.5921-1.2057-7.4988-3.1499-.0008.0499-.0012.0998-.0012.1499 0 3.8711 2.3154 7.2014 5.6378 8.6817 3.8103-.9378 6.8394-3.861 7.9269-7.6092zm-9.5527 7.8809c-3.0067-1.8469-5.012-5.166-5.012-8.9534 0-1.391.2705-2.7188.7623-3.934-3.2595 1.1815-5.6885 4.0961-6.1738 7.6313 1.9284 3.1788 5.4219 5.3027 9.4115 5.3027.3414 0 .6792-.0156 1.012-.0466zm.2911-14.3735c-1.7161-2.4659-4.5711-4.0799-7.8031-4.0799-.5743 0-1.1367.051-1.6834.1493-1.7511 1.9481-2.8166 4.525-2.8166 7.3507 0 1.5134.3056 2.9555.8591 4.2674 1.2026-4.474 5.2872-7.7674 10.1409-7.7674.4412 0 .8761.0272 1.3031.0799zm2.3498-6.9588c-1.143-.4023-2.3724-.6211-3.6529-.6211-2.6579 0-5.0956.9427-6.9968 2.5115.1646-.0076.3303-.0115.4968-.0115 4.8869 0 8.994 3.3385 10.1644 7.8601.8482-1.4219 1.3356-3.0841 1.3356-4.8601 0-1.7839-.4917-3.453-1.3471-4.8789z" fill="url(#a)" fill-rule="evenodd"/></svg>