<svg width="16" height="8" viewBox="0 0 16 8" fill="none" xmlns="http://www.w3.org/2000/svg">
<path d="M1.85667 1.874C2.40331 1.31279 3.14186 1 3.90909 1H5.95455C6.23069 1 6.45455 0.776142 6.45455 0.5C6.45455 0.223858 6.23069 0 5.95455 0H3.90909C2.86803 0 1.87235 0.424713 1.14033 1.17625C0.408739 1.92735 0 2.94332 0 4C0 5.05668 0.408739 6.07265 1.14033 6.82374C1.5027 7.19578 1.93361 7.49162 2.40882 7.6937C2.88405 7.8958 3.39389 8 3.90909 8H5.95455C6.23069 8 6.45455 7.77614 6.45455 7.5C6.45455 7.22386 6.23069 7 5.95455 7H3.90909C3.52892 7 3.15214 6.92314 2.80016 6.77346C2.44815 6.62376 2.12743 6.40398 1.85667 6.126C1.3096 5.56434 1 4.79983 1 4C1 3.20017 1.3096 2.43566 1.85667 1.874Z" fill="#616366"/>
<path d="M10.0455 0C9.76931 0 9.54545 0.223858 9.54545 0.5C9.54545 0.776142 9.76931 1 10.0455 1H12.0909C12.4711 1 12.8479 1.07686 13.1998 1.22654C13.5519 1.37624 13.8726 1.59602 14.1433 1.874C14.4141 2.152 14.6296 2.48275 14.7768 2.84768C14.9241 3.21264 15 3.60423 15 4C15 4.39577 14.9241 4.78736 14.7768 5.15232C14.6296 5.51725 14.4141 5.848 14.1433 6.126C13.8726 6.40398 13.5519 6.62376 13.1998 6.77346C12.8479 6.92314 12.4711 7 12.0909 7H10.0455C9.76931 7 9.54545 7.22386 9.54545 7.5C9.54545 7.77614 9.76931 8 10.0455 8H12.0909C12.6061 8 13.1159 7.8958 13.5912 7.6937C14.0664 7.49162 14.4973 7.19578 14.8597 6.82374C15.222 6.45174 15.5088 6.01081 15.7042 5.52647C15.8996 5.04214 16 4.52349 16 4C16 3.47651 15.8996 2.95786 15.7042 2.47353C15.5088 1.98919 15.222 1.54826 14.8597 1.17625C14.4973 0.80422 14.0664 0.508385 13.5912 0.306299C13.1159 0.1042 12.6061 0 12.0909 0H10.0455Z" fill="#616366"/>
<path d="M5.27295 3.5C4.99681 3.5 4.77295 3.72386 4.77295 4C4.77295 4.27614 4.99681 4.5 5.27295 4.5H10.7275C11.0036 4.5 11.2275 4.27614 11.2275 4C11.2275 3.72386 11.0036 3.5 10.7275 3.5H5.27295Z" fill="#616366"/>
</svg>
