<svg fill="none" height="48" viewBox="0 0 48 48" width="48" xmlns="http://www.w3.org/2000/svg" xmlns:xlink="http://www.w3.org/1999/xlink"><linearGradient id="a" gradientUnits="userSpaceOnUse" x1="24" x2="24" y1="6" y2="42"><stop offset="0" stop-color="#69a3fb"/><stop offset="1" stop-color="#477ef7"/></linearGradient><path clip-rule="evenodd" d="m12 6h24c2.2091 0 4 1.79086 4 4v28c0 2.2091-1.7909 4-4 4h-24c-2.20914 0-4-1.7909-4-4v-28c0-2.20914 1.79086-4 4-4zm12.5 1h-1v5.3l-9.0833 5.45 9.5833 5.75 9.5833-5.75-9.0833-5.45zm9.5 22.5 5 3v1l-5.4167-3.25-9.0833 5.45v-11.5l9.5-5.7zm-19.5833.75-5.4167 3.25v-1l5-3v-11l9.5 5.7v11.5z" fill="url(#a)" fill-rule="evenodd"/></svg>