<svg width="25" height="24" viewBox="0 0 25 24" fill="none" xmlns="http://www.w3.org/2000/svg">
<path fill-rule="evenodd" clip-rule="evenodd" d="M14.3867 3C14.3867 2.58579 14.7225 2.25 15.1367 2.25H21.1367C21.5509 2.25 21.8867 2.58579 21.8867 3V9C21.8867 9.41421 21.5509 9.75 21.1367 9.75C20.7225 9.75 20.3867 9.41421 20.3867 9V4.81066L14.667 10.5303C14.3742 10.8232 13.8993 10.8232 13.6064 10.5303C13.3135 10.2374 13.3135 9.76256 13.6064 9.46967L19.3261 3.75H15.1367C14.7225 3.75 14.3867 3.41421 14.3867 3ZM10.667 13.4697C10.9599 13.7626 10.9599 14.2374 10.667 14.5303L4.94738 20.25H9.13672C9.55093 20.25 9.88672 20.5858 9.88672 21C9.88672 21.4142 9.55093 21.75 9.13672 21.75H3.13672C2.93781 21.75 2.74704 21.671 2.60639 21.5303C2.46574 21.3897 2.38672 21.1989 2.38672 21L2.38672 15C2.38672 14.5858 2.72251 14.25 3.13672 14.25C3.55093 14.25 3.88672 14.5858 3.88672 15L3.88672 19.1893L9.60639 13.4697C9.89928 13.1768 10.3742 13.1768 10.667 13.4697Z" fill="#FAFAFA"/>
</svg>
