<svg width="19" height="22" viewBox="0 0 19 22" fill="none" xmlns="http://www.w3.org/2000/svg">
<path fill-rule="evenodd" clip-rule="evenodd" d="M5.7679 0.25H12.2321C13.0449 0.249993 13.7006 0.249987 14.2315 0.293364C14.7781 0.338026 15.2582 0.432385 15.7025 0.658726C16.4081 1.01825 16.9818 1.59193 17.3413 2.29754C17.5676 2.74175 17.662 3.2219 17.7066 3.76853C17.75 4.29944 17.75 4.95505 17.75 5.76788V9.5C17.75 9.91421 17.4142 10.25 17 10.25C16.5858 10.25 16.25 9.91421 16.25 9.5V5.8C16.25 4.94755 16.2494 4.35331 16.2116 3.89068C16.1745 3.4368 16.1054 3.17604 16.0048 2.97852C15.7891 2.55516 15.4448 2.21095 15.0215 1.99524C14.824 1.8946 14.5632 1.82547 14.1093 1.78838C13.6467 1.75058 13.0525 1.75 12.2 1.75H5.8C4.94755 1.75 4.35331 1.75058 3.89068 1.78838C3.4368 1.82547 3.17604 1.8946 2.97852 1.99524C2.55516 2.21095 2.21095 2.55516 1.99524 2.97852C1.8946 3.17604 1.82547 3.4368 1.78838 3.89068C1.75058 4.35331 1.75 4.94755 1.75 5.8V16.2C1.75 17.0525 1.75058 17.6467 1.78838 18.1093C1.82547 18.5632 1.8946 18.824 1.99524 19.0215C2.21095 19.4448 2.55516 19.789 2.97852 20.0048C3.17604 20.1054 3.4368 20.1745 3.89068 20.2116C4.35331 20.2494 4.94755 20.25 5.8 20.25H9C9.41421 20.25 9.75 20.5858 9.75 21C9.75 21.4142 9.41421 21.75 9 21.75H5.76788C4.95505 21.75 4.29944 21.75 3.76853 21.7066C3.2219 21.662 2.74175 21.5676 2.29754 21.3413C1.59193 20.9817 1.01825 20.4081 0.658726 19.7025C0.432385 19.2582 0.338026 18.7781 0.293364 18.2315C0.249987 17.7006 0.249993 17.0449 0.25 16.2321V5.7679C0.249993 4.95506 0.249987 4.29944 0.293364 3.76853C0.338026 3.2219 0.432385 2.74175 0.658726 2.29754C1.01825 1.59193 1.59193 1.01825 2.29754 0.658726C2.74175 0.432385 3.2219 0.338026 3.76853 0.293364C4.29944 0.249987 4.95506 0.249993 5.7679 0.25ZM15 13.25C15.4142 13.25 15.75 13.5858 15.75 14V16.25H18C18.4142 16.25 18.75 16.5858 18.75 17C18.75 17.4142 18.4142 17.75 18 17.75H15.75V20C15.75 20.4142 15.4142 20.75 15 20.75C14.5858 20.75 14.25 20.4142 14.25 20V17.75H12C11.5858 17.75 11.25 17.4142 11.25 17C11.25 16.5858 11.5858 16.25 12 16.25H14.25V14C14.25 13.5858 14.5858 13.25 15 13.25Z" fill="#303233"/>
</svg>
