<svg width="22" height="20" viewBox="0 0 22 20" fill="none" xmlns="http://www.w3.org/2000/svg">
<path fill-rule="evenodd" clip-rule="evenodd" d="M1.47009 0.46967C1.76298 0.176777 2.23785 0.176777 2.53075 0.46967L6.18067 4.1196C6.23156 4.15861 6.27812 4.20475 6.31878 4.25771L16.7334 14.6723C16.7927 14.7159 16.8464 14.769 16.8922 14.8311L20.5307 18.4697C20.8236 18.7626 20.8236 19.2374 20.5307 19.5303C20.2379 19.8232 19.763 19.8232 19.4701 19.5303L16.1787 16.239C14.7304 17.1185 12.9944 17.75 11.0004 17.75C8.21604 17.75 5.93787 16.5199 4.23735 15.1006C2.5386 13.6828 1.37124 12.0403 0.786009 11.1137C0.778758 11.1022 0.771439 11.0906 0.764071 11.079C0.645376 10.8918 0.513958 10.6845 0.446665 10.3909C0.392762 10.1557 0.39278 9.84406 0.44671 9.60886C0.514044 9.3152 0.645856 9.10737 0.764901 8.91966C0.772332 8.90794 0.779713 8.89631 0.787026 8.88473C1.40675 7.90371 2.68761 6.10639 4.56997 4.63022L1.47009 1.53033C1.17719 1.23744 1.17719 0.762563 1.47009 0.46967ZM5.63931 5.69955C3.87372 7.04176 2.64953 8.74498 2.05518 9.68584C1.98111 9.8031 1.94911 9.85482 1.92781 9.89578C1.91566 9.91915 1.91246 9.92867 1.90963 9.94042C1.90963 9.94042 1.90887 9.94596 1.90832 9.95183C1.90711 9.96458 1.90625 9.98127 1.90625 9.99996C1.90625 10.0187 1.90711 10.0353 1.90831 10.0481C1.90886 10.054 1.90962 10.0595 1.90962 10.0595C1.9125 10.0715 1.91569 10.0809 1.92767 10.104C1.94878 10.1446 1.98049 10.1959 2.05426 10.3127C2.59443 11.168 3.66472 12.6689 5.1985 13.949C6.73052 15.2277 8.67979 16.25 11.0004 16.25C12.5264 16.25 13.8905 15.8085 15.0821 15.1424L13.0684 13.1286C12.4757 13.521 11.7644 13.75 11.0004 13.75C8.92935 13.75 7.25042 12.0711 7.25042 10C7.25042 9.23602 7.47942 8.52474 7.8718 7.93204L5.63931 5.69955ZM8.96955 9.0298C8.82895 9.32351 8.75041 9.65236 8.75041 10C8.75041 11.2426 9.75778 12.25 11.0004 12.25C11.3481 12.25 11.6769 12.1715 11.9706 12.0309L8.96955 9.0298ZM11.0004 3.75C10.6061 3.75 10.2235 3.77942 9.85264 3.83425C9.44288 3.89484 9.06159 3.61177 9.00101 3.20201C8.94043 2.79225 9.22349 2.41097 9.63325 2.35038C10.0752 2.28504 10.5311 2.25 11.0004 2.25C13.7848 2.25 16.063 3.48009 17.7635 4.89936C19.4622 6.31717 20.6296 7.95967 21.2148 8.88634C21.2221 8.89782 21.2294 8.90937 21.2368 8.92099C21.3555 9.10821 21.4869 9.3155 21.5542 9.60915C21.6081 9.84437 21.6081 10.156 21.5541 10.3912C21.4868 10.6849 21.3547 10.8931 21.2355 11.0811C21.228 11.0928 21.2206 11.1045 21.2132 11.1162C20.8995 11.6127 20.423 12.3078 19.7915 13.0619C19.5256 13.3795 19.0526 13.4214 18.735 13.1555C18.4174 12.8896 18.3755 12.4166 18.6415 12.099C19.2214 11.4064 19.6592 10.7676 19.9451 10.315C20.0194 10.1975 20.0515 10.1455 20.073 10.1043C20.0852 10.0808 20.0884 10.0712 20.0912 10.0596C20.0912 10.0596 20.092 10.0541 20.0925 10.0482C20.0937 10.0354 20.0946 10.0188 20.0946 10.0001C20.0946 9.98136 20.0937 9.96467 20.0925 9.95192C20.092 9.94603 20.0912 9.9405 20.0912 9.9405C20.0883 9.92853 20.0851 9.91909 20.0732 9.89604C20.0521 9.85541 20.0203 9.80412 19.9466 9.6873C19.4064 8.83199 18.3361 7.33109 16.8023 6.05097C15.2703 4.77233 13.321 3.75 11.0004 3.75Z" fill="#303233"/>
</svg>
