<svg width="20" height="22" viewBox="0 0 20 22" fill="none" xmlns="http://www.w3.org/2000/svg">
<path fill-rule="evenodd" clip-rule="evenodd" d="M8.31166 1.36303C9.30472 0.590658 10.6953 0.59066 11.6883 1.36303L18.6883 6.80748C19.3582 7.32848 19.75 8.12957 19.75 8.9782V19C19.75 19.7294 19.4603 20.4288 18.9445 20.9446C18.4288 21.4603 17.7293 21.75 17 21.75H13C12.5858 21.75 12.25 21.4142 12.25 21V15C12.25 14.3097 11.6904 13.75 11 13.75H9C8.30964 13.75 7.75 14.3097 7.75 15V21C7.75 21.4142 7.41421 21.75 7 21.75H3C2.27065 21.75 1.57118 21.4603 1.05546 20.9446C0.539731 20.4288 0.25 19.7294 0.25 19V8.9782C0.25 8.12957 0.6418 7.32848 1.31166 6.80748L8.31166 1.36303Z" fill="#DD1405"/>
</svg>
