<svg width="25" height="24" viewBox="0 0 25 24" fill="none" xmlns="http://www.w3.org/2000/svg">
<path d="M17.1588 6.34511C15.7098 4.89514 13.7104 4 11.5 4C7.08172 4 3.5 7.58172 3.5 12C3.5 15.806 6.15879 18.9934 9.72129 19.8018C10.2599 19.924 10.5974 20.4597 10.4752 20.9983C10.353 21.5369 9.81731 21.8744 9.27871 21.7522C4.82525 20.7416 1.5 16.7603 1.5 12C1.5 6.47715 5.97715 2 11.5 2C14.2624 2 16.7648 3.12139 18.5735 4.93138C19.2132 5.57146 19.8981 6.36248 20.5 7.09444V4C20.5 3.44772 20.9477 3 21.5 3C22.0523 3 22.5 3.44772 22.5 4V10C22.5 10.5523 22.0523 11 21.5 11H15.5C14.9477 11 14.5 10.5523 14.5 10C14.5 9.44772 14.9477 9 15.5 9H19.4692C18.777 8.13128 17.9165 7.10335 17.1588 6.34511Z" fill="white"/>
<path d="M18.4678 15.3461H22.0136V14H17.0669V18.684H18.5334C18.621 18.4286 18.7669 18.2243 18.9712 18.0711C19.1755 17.9179 19.4308 17.8413 19.7373 17.8413C20.1677 17.8413 20.4924 17.9617 20.7113 18.2025C20.9374 18.4359 21.0505 18.7788 21.0505 19.2312C21.0505 19.6762 20.9411 20.0337 20.7222 20.3037C20.5033 20.5736 20.1787 20.7086 19.7482 20.7086C19.3907 20.7086 19.0952 20.6211 18.8617 20.446C18.6356 20.2709 18.4897 20.0374 18.424 19.7456H16.9356C17.0013 20.4168 17.2822 20.9603 17.7783 21.3762C18.2744 21.7921 18.9384 22 19.7701 22C20.6529 22 21.3314 21.7446 21.8057 21.2339C22.2872 20.7232 22.528 20.0483 22.528 19.2093C22.528 18.757 22.4441 18.3338 22.2762 17.9398C22.1084 17.5385 21.8385 17.2102 21.4664 16.9549C21.0943 16.6995 20.6164 16.5718 20.0327 16.5718C19.7117 16.5718 19.4089 16.6338 19.1244 16.7579C18.8399 16.8746 18.621 17.0278 18.4678 17.2175V15.3461Z" fill="white"/>
<path d="M12.5 14.0219V15.4337H13.5616V22H15.1375V14.0219H12.5Z" fill="white"/>
</svg>
