<svg width="32" height="32" viewBox="0 0 32 32" fill="none" xmlns="http://www.w3.org/2000/svg">
<path fill-rule="evenodd" clip-rule="evenodd" d="M10.7415 24.6876L18.561 18.4321C18.8958 18.1642 19.1972 17.9232 19.4268 17.7032C19.6696 17.4706 19.9177 17.184 20.058 16.7991C20.2461 16.2831 20.2461 15.7173 20.058 15.2012C19.9177 14.8163 19.6696 14.5297 19.4268 14.2971C19.1972 14.0772 18.8958 13.8361 18.561 13.5683L10.7415 7.31268C10.2094 6.887 9.75622 6.52439 9.37588 6.27372C9.00218 6.02743 8.52876 5.76884 7.97641 5.77445C7.2842 5.78148 6.63085 6.09549 6.19294 6.63163C5.84351 7.05944 5.74969 7.59066 5.70857 8.03633C5.66671 8.48992 5.66673 9.07035 5.66675 9.75175L5.66675 22.2486C5.66673 22.93 5.66671 23.5104 5.70857 23.964C5.74969 24.4097 5.84351 24.9409 6.19294 25.3687C6.63085 25.9048 7.2842 26.2189 7.97641 26.2259C8.52876 26.2315 9.00217 25.9729 9.37588 25.7266C9.75623 25.4759 10.2095 25.1133 10.7415 24.6876Z" fill="#F3F4F4"/>
<path fill-rule="evenodd" clip-rule="evenodd" d="M25.3334 26.3335C25.8857 26.3335 26.3334 25.8858 26.3334 25.3335L26.3334 6.66683C26.3334 6.11455 25.8857 5.66683 25.3334 5.66683C24.7811 5.66683 24.3334 6.11455 24.3334 6.66683L24.3334 25.3335C24.3334 25.8858 24.7811 26.3335 25.3334 26.3335Z" fill="#F3F4F4"/>
</svg>
