<svg width="32" height="32" viewBox="0 0 32 32" fill="none" xmlns="http://www.w3.org/2000/svg">
<path fill-rule="evenodd" clip-rule="evenodd" d="M23.9714 5.77418C24.7003 5.76521 25.3916 6.09744 25.8399 6.67225C26.168 7.09285 26.2556 7.60714 26.2942 8.03843C26.3335 8.47772 26.3334 9.03889 26.3334 9.6976V22.3021C26.3334 22.9608 26.3335 23.522 26.2942 23.9612C26.2556 24.3925 26.168 24.9068 25.8399 25.3274C25.3916 25.9022 24.7003 26.2345 23.9714 26.2255C23.438 26.2189 22.9816 25.9661 22.6208 25.7268C22.2532 25.483 21.8151 25.1325 21.3007 24.721L13.4142 18.4118C13.0905 18.1528 12.7991 17.9197 12.5763 17.7075C12.3408 17.4832 12.099 17.2075 11.9568 16.8379C11.7492 16.2985 11.7492 15.7012 11.9568 15.1618C12.099 14.7922 12.3408 14.5165 12.5763 14.2922C12.7991 14.0799 13.0905 13.8469 13.4142 13.5879L21.3007 7.27872C21.815 6.86722 22.2532 6.51665 22.6208 6.27289C22.9816 6.03357 23.438 5.78075 23.9714 5.77418Z" fill="#F3F4F4"/>
<path fill-rule="evenodd" clip-rule="evenodd" d="M6.66675 5.6665C7.21903 5.6665 7.66675 6.11422 7.66675 6.6665V25.3332C7.66675 25.8855 7.21903 26.3332 6.66675 26.3332C6.11446 26.3332 5.66675 25.8855 5.66675 25.3332V6.6665C5.66675 6.11422 6.11446 5.6665 6.66675 5.6665Z" fill="#F3F4F4"/>
</svg>
