<svg fill="none" height="48" viewBox="0 0 48 48" width="48" xmlns="http://www.w3.org/2000/svg" xmlns:xlink="http://www.w3.org/1999/xlink"><linearGradient id="a" gradientUnits="userSpaceOnUse" x1="24" x2="24" y1="6" y2="42"><stop offset="0" stop-color="#29dd74"/><stop offset="1" stop-color="#09bf5b"/></linearGradient><path clip-rule="evenodd" d="m11 6h26c1.6569 0 3 1.34315 3 3v30c0 1.6569-1.3431 3-3 3h-26c-1.65685 0-3-1.3431-3-3v-30c0-1.65685 1.34315-3 3-3zm14 9c-.5523 0-1 .4477-1 1v18c0 .5523.4477 1 1 1h3c.5523 0 1-.4477 1-1v-18c0-.5523-.4477-1-1-1zm-7 12c0-.5523.4477-1 1-1h3c.5523 0 1 .4477 1 1v7c0 .5523-.4477 1-1 1h-3c-.5523 0-1-.4477-1-1zm-5 4c-.5523 0-1 .4477-1 1v2c0 .5523.4477 1 1 1h3c.5523 0 1-.4477 1-1v-2c0-.5523-.4477-1-1-1zm-.5 5c-.2761 0-.5.2239-.5.5s.2239.5.5.5h22c.2761 0 .5-.2239.5-.5s-.2239-.5-.5-.5zm17.5-14c0-.5523.4477-1 1-1h3c.5523 0 1 .4477 1 1v12c0 .5523-.4477 1-1 1h-3c-.5523 0-1-.4477-1-1z" fill="url(#a)" fill-rule="evenodd"/></svg>