<svg width="25" height="24" viewBox="0 0 25 24" fill="none" xmlns="http://www.w3.org/2000/svg">
<g clip-path="url(#clip0_3058_899)">
<path d="M8.2679 2.25H8.5C8.91421 2.25 9.25 2.58579 9.25 3C9.25 3.41421 8.91421 3.75 8.5 3.75H8.3C7.44755 3.75 6.85331 3.75058 6.39068 3.78838C5.93681 3.82547 5.67604 3.8946 5.47852 3.99524C5.05516 4.21095 4.71095 4.55516 4.49524 4.97852C4.3946 5.17604 4.32547 5.43681 4.28838 5.89068C4.25058 6.35331 4.25 6.94755 4.25 7.8V8C4.25 8.41421 3.91421 8.75 3.5 8.75C3.08579 8.75 2.75 8.41421 2.75 8V7.7679C2.74999 6.95506 2.74999 6.29944 2.79336 5.76853C2.83803 5.2219 2.93239 4.74175 3.15873 4.29754C3.51825 3.59193 4.09193 3.01825 4.79754 2.65873C5.24175 2.43239 5.7219 2.33803 6.26853 2.29336C6.79944 2.24999 7.45506 2.24999 8.2679 2.25Z" fill="#FAFAFA"/>
<path d="M18.6093 3.78838C18.1467 3.75058 17.5525 3.75 16.7 3.75H16.5C16.0858 3.75 15.75 3.41421 15.75 3C15.75 2.58579 16.0858 2.25 16.5 2.25H16.7321C17.5449 2.24999 18.2006 2.24999 18.7315 2.29336C19.2781 2.33803 19.7582 2.43239 20.2025 2.65873C20.9081 3.01825 21.4817 3.59193 21.8413 4.29754C22.0676 4.74175 22.162 5.2219 22.2066 5.76853C22.25 6.29944 22.25 6.95505 22.25 7.76788V8C22.25 8.41421 21.9142 8.75 21.5 8.75C21.0858 8.75 20.75 8.41421 20.75 8V7.8C20.75 6.94755 20.7494 6.35331 20.7116 5.89068C20.6745 5.43681 20.6054 5.17604 20.5048 4.97852C20.289 4.55516 19.9448 4.21095 19.5215 3.99524C19.324 3.8946 19.0632 3.82547 18.6093 3.78838Z" fill="#FAFAFA"/>
<path d="M3.5 15.25C3.91421 15.25 4.25 15.5858 4.25 16V16.2C4.25 17.0525 4.25058 17.6467 4.28838 18.1093C4.32547 18.5632 4.3946 18.824 4.49524 19.0215C4.71095 19.4448 5.05516 19.789 5.47852 20.0048C5.67604 20.1054 5.93681 20.1745 6.39068 20.2116C6.85331 20.2494 7.44755 20.25 8.3 20.25H8.5C8.91421 20.25 9.25 20.5858 9.25 21C9.25 21.4142 8.91421 21.75 8.5 21.75H8.26788C7.45505 21.75 6.79944 21.75 6.26853 21.7066C5.7219 21.662 5.24175 21.5676 4.79754 21.3413C4.09193 20.9817 3.51825 20.4081 3.15873 19.7025C2.93239 19.2582 2.83803 18.7781 2.79336 18.2315C2.74999 17.7006 2.74999 17.045 2.75 16.2321V16C2.75 15.5858 3.08579 15.25 3.5 15.25Z" fill="#FAFAFA"/>
<path fill-rule="evenodd" clip-rule="evenodd" d="M18.5 15.25C16.9812 15.25 15.75 16.4812 15.75 18C15.75 19.5188 16.9812 20.75 18.5 20.75C20.0188 20.75 21.25 19.5188 21.25 18C21.25 16.4812 20.0188 15.25 18.5 15.25ZM17.25 18C17.25 17.3096 17.8096 16.75 18.5 16.75C19.1904 16.75 19.75 17.3096 19.75 18C19.75 18.6904 19.1904 19.25 18.5 19.25C17.8096 19.25 17.25 18.6904 17.25 18Z" fill="#FAFAFA"/>
<path fill-rule="evenodd" clip-rule="evenodd" d="M15.8711 12.25H21.1289C21.5243 12.25 21.8654 12.25 22.1463 12.2729C22.4428 12.2972 22.7377 12.3506 23.0215 12.4952C23.4448 12.711 23.7891 13.0552 24.0048 13.4785C24.1494 13.7623 24.2028 14.0572 24.2271 14.3537C24.25 14.6347 24.25 14.9757 24.25 15.3711V20.6289C24.25 21.0243 24.25 21.3653 24.2271 21.6463C24.2028 21.9428 24.1494 22.2377 24.0048 22.5215C23.7891 22.9448 23.4448 23.2891 23.0215 23.5048C22.7377 23.6494 22.4428 23.7028 22.1463 23.7271C21.8653 23.75 21.5243 23.75 21.1289 23.75H15.8711C15.4757 23.75 15.1347 23.75 14.8537 23.7271C14.5572 23.7028 14.2623 23.6494 13.9785 23.5048C13.5552 23.2891 13.211 22.9448 12.9952 22.5215C12.8506 22.2377 12.7972 21.9428 12.7729 21.6463C12.75 21.3654 12.75 21.0243 12.75 20.629V15.3711C12.75 14.9758 12.75 14.6346 12.7729 14.3537C12.7972 14.0572 12.8506 13.7623 12.9952 13.4785C13.211 13.0552 13.5552 12.711 13.9785 12.4952C14.2623 12.3506 14.5572 12.2972 14.8537 12.2729C15.1346 12.25 15.4758 12.25 15.8711 12.25ZM14.9759 13.7679C14.7721 13.7846 14.6966 13.8129 14.6595 13.8317C14.5184 13.9037 14.4037 14.0184 14.3317 14.1595C14.3129 14.1966 14.2846 14.2721 14.2679 14.4759C14.2506 14.6884 14.25 14.9676 14.25 15.4V20.6C14.25 21.0324 14.2506 21.3116 14.2679 21.5241C14.2846 21.7279 14.3129 21.8034 14.3317 21.8405C14.4037 21.9816 14.5184 22.0964 14.6595 22.1683C14.6966 22.1871 14.7721 22.2154 14.9759 22.2321C15.1884 22.2494 15.4676 22.25 15.9 22.25H21.1C21.5324 22.25 21.8116 22.2494 22.0241 22.2321C22.2279 22.2154 22.3034 22.1872 22.3405 22.1683C22.4816 22.0964 22.5964 21.9816 22.6683 21.8405C22.6872 21.8034 22.7154 21.7279 22.7321 21.5241C22.7494 21.3116 22.75 21.0324 22.75 20.6V15.4C22.75 14.9676 22.7494 14.6884 22.7321 14.4759C22.7154 14.2721 22.6871 14.1966 22.6683 14.1595C22.5964 14.0184 22.4816 13.9037 22.3405 13.8317C22.3034 13.8129 22.2279 13.7846 22.0241 13.7679C21.8116 13.7506 21.5324 13.75 21.1 13.75H15.9C15.4676 13.75 15.1884 13.7506 14.9759 13.7679Z" fill="#FAFAFA"/>
</g>
<defs>
<clipPath id="clip0_3058_899">
<rect width="24" height="24" fill="white" transform="translate(0.5)"/>
</clipPath>
</defs>
</svg>
