<svg width="25" height="25" viewBox="0 0 25 25" fill="none" xmlns="http://www.w3.org/2000/svg">
<g clip-path="url(#clip0_3134_28796)">
<path d="M22.0752 15.26C22.0154 14.6718 21.5481 14.2046 20.96 14.1448L20.832 14.1379H4.83203C4.14168 14.1379 3.58203 14.6976 3.58203 15.3879V21.3879C3.58203 22.0783 4.14168 22.6379 4.83203 22.6379H20.832C21.4792 22.6379 22.0111 22.1461 22.0752 21.5159L22.082 21.3879V15.3879L22.0752 15.26ZM1.08203 10.3879V9.38794C1.08203 6.76459 3.20868 4.63794 5.83203 4.63794H7.02148L6.30176 3.91821C6.00886 3.62532 6.00886 3.15056 6.30176 2.85767C6.59465 2.56477 7.06941 2.56477 7.3623 2.85767L9.3623 4.85767C9.50296 4.99832 9.58203 5.18903 9.58203 5.38794C9.58203 5.58685 9.50296 5.77756 9.3623 5.91821L7.3623 7.91821C7.06941 8.21111 6.59465 8.21111 6.30176 7.91821C6.00886 7.62532 6.00886 7.15056 6.30176 6.85767L7.02148 6.13794H5.83203C4.03711 6.13794 2.58203 7.59301 2.58203 9.38794V10.3879C2.58203 10.8022 2.24624 11.1379 1.83203 11.1379C1.41782 11.1379 1.08203 10.8022 1.08203 10.3879ZM21.082 10.3879V4.38794C21.082 3.69758 20.5224 3.13794 19.832 3.13794H13.832C13.1417 3.13794 12.582 3.69758 12.582 4.38794V10.3879C12.582 10.8022 12.2462 11.1379 11.832 11.1379C11.4178 11.1379 11.082 10.8022 11.082 10.3879V4.38794C11.082 2.86916 12.3132 1.63794 13.832 1.63794H19.832C21.3508 1.63794 22.582 2.86916 22.582 4.38794V10.3879C22.582 10.8022 22.2462 11.1379 21.832 11.1379C21.4178 11.1379 21.082 10.8022 21.082 10.3879ZM23.582 21.3879C23.582 22.8118 22.4999 23.9824 21.1133 24.1233L20.832 24.1379H4.83203C3.31325 24.1379 2.08203 22.9067 2.08203 21.3879V15.3879C2.08203 13.8692 3.31325 12.6379 4.83203 12.6379H20.832C22.3508 12.6379 23.582 13.8692 23.582 15.3879V21.3879Z" fill="#F3F4F4"/>
</g>
<defs>
<clipPath id="clip0_3134_28796">
<rect width="24" height="24" fill="white" transform="translate(0.832031 0.387939)"/>
</clipPath>
</defs>
</svg>
