<svg width="22" height="21" viewBox="0 0 22 21" fill="none" xmlns="http://www.w3.org/2000/svg">
<path d="M2.73926 7.02686C2.39062 7.02686 2.1167 6.75293 2.1167 6.4043C2.1167 6.05566 2.39062 5.77344 2.73926 5.77344H18.2783C18.627 5.77344 18.9092 6.05566 18.9092 6.4043C18.9092 6.75293 18.627 7.02686 18.2783 7.02686H2.73926ZM2.73926 10.646C2.39062 10.646 2.1167 10.3721 2.1167 10.0234C2.1167 9.6665 2.39062 9.38428 2.73926 9.38428H18.2783C18.627 9.38428 18.9092 9.6665 18.9092 10.0234C18.9092 10.3721 18.627 10.646 18.2783 10.646H2.73926ZM2.73926 14.2734C2.39062 14.2734 2.1167 13.9912 2.1167 13.6343C2.1167 13.2856 2.39062 13.0117 2.73926 13.0117H18.2783C18.627 13.0117 18.9092 13.2856 18.9092 13.6343C18.9092 13.9912 18.627 14.2734 18.2783 14.2734H2.73926Z" fill="#F3F4F4"/>
</svg>
