<svg width="24" height="24" viewBox="0 0 24 24" fill="none" xmlns="http://www.w3.org/2000/svg">
<path fill-rule="evenodd" clip-rule="evenodd" d="M6.57514 3.23323C10.0728 1.92161 13.9272 1.92161 17.4249 3.23323L18.9656 3.811C20.0389 4.2135 20.75 5.23958 20.75 6.38591V11.9999C20.75 14.8672 19.1138 17.2552 17.3738 18.9929C15.6226 20.7419 13.6652 21.9345 12.8031 22.4189C12.3005 22.7012 11.6995 22.7012 11.1969 22.4189C10.3348 21.9345 8.37744 20.7419 6.62617 18.9929C4.88625 17.2552 3.25 14.8672 3.25 11.9999V6.38591C3.25 5.23958 3.96107 4.2135 5.03441 3.811L6.57514 3.23323ZM16.8982 4.63772C13.7401 3.45344 10.2599 3.45344 7.10183 4.63772L5.5611 5.21549C5.07322 5.39845 4.75 5.86485 4.75 6.38591V11.9999C4.75 14.2831 6.06125 16.3087 7.68615 17.9315C9.2997 19.543 11.1245 20.6576 11.9317 21.1112C11.9779 21.1372 12.0221 21.1372 12.0683 21.1112C12.8755 20.6576 14.7003 19.543 16.3139 17.9315C17.9387 16.3087 19.25 14.2831 19.25 11.9999V6.38591C19.25 5.86485 18.9268 5.39845 18.4389 5.21549L16.8982 4.63772Z" fill="#303233"/>
</svg>
