<svg fill="none" height="48" viewBox="0 0 48 48" width="48" xmlns="http://www.w3.org/2000/svg" xmlns:xlink="http://www.w3.org/1999/xlink"><linearGradient id="a" gradientUnits="userSpaceOnUse" x1="24" x2="24" y1="6" y2="42"><stop offset="0" stop-color="#fb6361"/><stop offset="1" stop-color="#f23433"/></linearGradient><g fill="url(#a)"><path d="m31.0153 28.6224c.9713.2428 1.5177-.1821 1.5784-.607.1214-.6071-.3643-.9106-.8499-1.032-1.2748-.2429-3.0353-.0607-3.8245.0607.9106.7284 1.9426 1.2748 3.096 1.5783z"/><path d="m22.9415 15.2065c-.1821 0-.3643.1214-.4857.3035-.3035.5463-.4856 2.2461.425 4.6743.4249-1.2141.6677-2.4889.7284-3.7637 0-.5464-.1214-1.2141-.6677-1.2141z"/><path d="m23.7306 23.8874c-.2428.7284-.9105 2.4282-1.3962 3.3995.8707-.2902 1.8931-.5371 2.575-.7017.4591-.1109.7638-.1845.7638-.2089-.4856-.4856-1.3962-1.5783-1.9426-2.4889z"/><path d="m15.1104 33.479c.7892 0 2.2461-1.4571 3.6424-3.7639-2.4282 1.0927-4.0066 2.2461-4.1887 3.096-.0607.2429 0 .4249.1821.5464.1214.0607.2428.1215.3642.1215z"/><path clip-rule="evenodd" d="m11 6h26c1.6569 0 3 1.34315 3 3v30c0 1.6569-1.3431 3-3 3h-26c-1.65685 0-3-1.3431-3-3v-30c0-1.65685 1.34315-3 3-3zm16.4265 20.1044c1.3345-.1681 5.207-.6556 6.6848.879.425.4856.607 1.1534.3035 1.7604-.182.5464-.7285 1.1534-2.1854 1.1534-1.0927 0-3.1567-.3035-5.5242-2.3675-2.0033.3642-4.0066.9713-5.2814 1.3962-1.5176 2.6104-3.703 5.7063-5.9491 5.7063-.5464 0-1.0927-.182-1.5177-.5462-.4249-.425-.607-.9713-.4856-1.5177.3035-1.8212 4.0066-3.5209 5.767-4.2494 1.5952-3.0195 2.228-4.8093 2.8518-6.5735.0409-.1157.0817-.2312.1228-.347-1.1534-2.6103-1.4569-5.1599-.7285-6.4348.3036-.4856.8499-.8498 1.457-.8498 1.6997 0 2.3068 1.639 2.3068 3.1567-.0607 1.7604-.425 3.3995-.9713 5.0385.012.0201.0248.0415.0384.0641.3947.6593 1.4081 2.3517 2.8755 3.7604.0657-.0077.1448-.0177.2356-.0291z" fill-rule="evenodd"/></g></svg>