<svg width="14" height="10" viewBox="0 0 14 10" fill="none" xmlns="http://www.w3.org/2000/svg">
<path d="M1.63184 9C1.63184 9.34512 1.35194 9.62491 1.00684 9.625H1C0.654822 9.625 0.375 9.34518 0.375 9C0.375 8.65482 0.654822 8.375 1 8.375H1.00684C1.35194 8.37509 1.63184 8.65488 1.63184 9ZM13.625 9C13.625 9.34518 13.3452 9.625 13 9.625H3.66699C3.32181 9.625 3.04199 9.34518 3.04199 9C3.04199 8.65482 3.32181 8.375 3.66699 8.375H13C13.3452 8.375 13.625 8.65482 13.625 9ZM1.63184 5C1.63184 5.34512 1.35194 5.62491 1.00684 5.625H1C0.654822 5.625 0.375 5.34518 0.375 5C0.375 4.65482 0.654822 4.375 1 4.375H1.00684C1.35194 4.37509 1.63184 4.65488 1.63184 5ZM13.625 5C13.625 5.34518 13.3452 5.625 13 5.625H3.66699C3.32181 5.625 3.04199 5.34518 3.04199 5C3.04199 4.65482 3.32181 4.375 3.66699 4.375H13C13.3452 4.375 13.625 4.65482 13.625 5ZM1.63184 1C1.63184 1.34512 1.35194 1.62491 1.00684 1.625H1C0.654822 1.625 0.375 1.34518 0.375 1C0.375 0.654822 0.654822 0.375 1 0.375H1.00684C1.35194 0.375091 1.63184 0.654878 1.63184 1ZM13.625 1C13.625 1.34518 13.3452 1.625 13 1.625H3.66699C3.32181 1.625 3.04199 1.34518 3.04199 1C3.04199 0.654822 3.32181 0.375 3.66699 0.375H13C13.3452 0.375 13.625 0.654822 13.625 1Z" fill="#616366"/>
</svg>
