<svg width="120" height="120" viewBox="0 0 120 120" fill="none" xmlns="http://www.w3.org/2000/svg">
<path fill-rule="evenodd" clip-rule="evenodd" d="M61.9284 27H58.0716H58.0716C54.8202 27 52.1978 27 50.0741 27.1735C47.8876 27.3521 45.967 27.7295 44.1902 28.6349C42.1395 29.6798 40.3674 31.1769 39 33H81C79.6327 31.1769 77.8606 29.6798 75.8099 28.6349C74.033 27.7295 72.1124 27.3521 69.9259 27.1735C67.8023 27 65.1798 27 61.9285 27H61.9284ZM49.0716 35H70.9284H70.9285C74.1798 35 76.8023 35 78.9259 35.1735C81.1124 35.3521 83.033 35.7296 84.8099 36.6349C86.8606 37.6798 88.6327 39.1769 90 41H30C31.3674 39.1769 33.1395 37.6798 35.1902 36.6349C36.967 35.7296 38.8876 35.3521 41.0741 35.1735C43.1978 35 45.8202 35 49.0716 35H49.0716ZM81.759 43.0909H38.241H38.241H38.2409C36.5636 43.0909 35.1167 43.0908 33.9249 43.1882C32.667 43.291 31.4158 43.5179 30.2119 44.1313C28.4158 45.0465 26.9556 46.5068 26.0404 48.3029C25.427 49.5068 25.2 50.7579 25.0973 52.0159C24.9999 53.2077 24.9999 54.6546 25 56.3319V80.759C24.9999 82.4363 24.9999 83.8833 25.0973 85.0751C25.2 86.333 25.427 87.5842 26.0404 88.7881C26.9556 90.5842 28.4158 92.0445 30.2119 92.9596C31.4158 93.5731 32.667 93.8 33.9249 93.9027C35.1167 94.0001 36.5635 94.0001 38.2407 94H38.2411H81.7589H81.7593C83.4365 94.0001 84.8833 94.0001 86.0751 93.9027C87.333 93.8 88.5841 93.5731 89.7881 92.9596C91.5842 92.0445 93.0444 90.5842 93.9596 88.7881C94.573 87.5842 94.8 86.333 94.9027 85.0751C95.0001 83.8833 95.0001 82.4364 95 80.7591V56.3319C95.0001 54.6546 95.0001 53.2077 94.9027 52.0159C94.8 50.7579 94.573 49.5068 93.9596 48.3029C93.0444 46.5068 91.5842 45.0465 89.7881 44.1313C88.5841 43.5179 87.333 43.291 86.0751 43.1882C84.8833 43.0908 83.4364 43.0909 81.7591 43.0909H81.759H81.759ZM35 47C31.6863 47 29 49.6863 29 53V84C29 87.3137 31.6863 90 35 90H85C88.3137 90 91 87.3137 91 84V53C91 49.6863 88.3137 47 85 47H35ZM68.3029 67.1426L55.6971 59.264C54.7609 58.6789 54 59.0988 54 60.2033V76.2033C54 77.3051 54.7598 77.7284 55.6971 77.1426L68.3029 69.264C69.239 68.6789 69.2402 67.7284 68.3029 67.1426Z" fill="#999999"/>
</svg>
