<svg fill="none" height="48" viewBox="0 0 48 48" width="48" xmlns="http://www.w3.org/2000/svg" xmlns:xlink="http://www.w3.org/1999/xlink"><linearGradient id="a" gradientUnits="userSpaceOnUse" x1="24" x2="24" y1="6" y2="42"><stop offset="0" stop-color="#29dd74"/><stop offset="1" stop-color="#09bf5b"/></linearGradient><path clip-rule="evenodd" d="m11 6h26c1.6569 0 3 1.34315 3 3v30c0 1.6569-1.3431 3-3 3h-26c-1.65685 0-3-1.3431-3-3v-30c0-1.65685 1.34315-3 3-3zm15.5418 24h3.4582l-3.991-6.0502 3.8826-5.9498h-3.2505l-2.0587 3.5649c-.1987.463-.3341.8117-.4063 1.046h-.0361c-.1144-.3905-.2438-.7281-.3883-1.0126l-1.851-3.5983h-3.5486l3.7743 6-4.1264 6h3.4763l2.2393-3.8745c.1565-.3738.2558-.6527.2979-.8368h.0362c.0903.3905.1775.6583.2618.8034z" fill="url(#a)" fill-rule="evenodd"/></svg>