<svg width="25" height="24" viewBox="0 0 25 24" fill="none" xmlns="http://www.w3.org/2000/svg">
<path fill-rule="evenodd" clip-rule="evenodd" d="M7.2679 4.25H12.7321C13.5449 4.24999 14.2006 4.24999 14.7315 4.29336C15.2781 4.33803 15.7582 4.43239 16.2025 4.65873C16.9081 5.01825 17.4817 5.59193 17.8413 6.29754C18.0676 6.74176 18.162 7.2219 18.2066 7.76853C18.25 8.29944 18.25 8.95505 18.25 9.76788V10.1893L20.6258 7.81354C20.8211 7.61817 21.0018 7.43743 21.1578 7.30688C21.3005 7.18739 21.5575 6.98807 21.9019 6.96096C22.3008 6.92957 22.6906 7.09103 22.9505 7.3953C23.1749 7.65804 23.2157 7.98068 23.2321 8.16609C23.25 8.36866 23.25 8.62426 23.25 8.90054V15.0995C23.25 15.3757 23.25 15.6313 23.2321 15.8339C23.2157 16.0193 23.1749 16.342 22.9505 16.6047C22.6906 16.909 22.3008 17.0704 21.9019 17.039C21.5575 17.0119 21.3005 16.8126 21.1578 16.6931C21.0019 16.5626 20.8212 16.3819 20.6258 16.1865L18.25 13.8107V14.2321C18.25 15.045 18.25 15.7006 18.2066 16.2315C18.162 16.7781 18.0676 17.2582 17.8413 17.7025C17.4817 18.4081 16.9081 18.9818 16.2025 19.3413C15.7582 19.5676 15.2781 19.662 14.7315 19.7066C14.2006 19.75 13.545 19.75 12.7321 19.75H7.26788C6.45505 19.75 5.79944 19.75 5.26853 19.7066C4.7219 19.662 4.24175 19.5676 3.79754 19.3413C3.09193 18.9818 2.51825 18.4081 2.15873 17.7025C1.93239 17.2582 1.83803 16.7781 1.79336 16.2315C1.74999 15.7006 1.74999 15.0449 1.75 14.2321V9.7679C1.74999 8.95506 1.74999 8.29944 1.79336 7.76853C1.83803 7.2219 1.93239 6.74176 2.15873 6.29754C2.51825 5.59193 3.09193 5.01825 3.79754 4.65873C4.24175 4.43239 4.7219 4.33803 5.26853 4.29336C5.79944 4.24999 6.45506 4.24999 7.2679 4.25ZM16.75 9.8C16.75 8.94755 16.7494 8.35331 16.7116 7.89068C16.6745 7.43681 16.6054 7.17604 16.5048 6.97852C16.289 6.55516 15.9448 6.21095 15.5215 5.99524C15.324 5.8946 15.0632 5.82547 14.6093 5.78838C14.1467 5.75058 13.5525 5.75 12.7 5.75H7.3C6.44755 5.75 5.85331 5.75058 5.39068 5.78838C4.9368 5.82547 4.67604 5.8946 4.47852 5.99524C4.05516 6.21095 3.71095 6.55516 3.49524 6.97852C3.3946 7.17604 3.32547 7.43681 3.28838 7.89068C3.25058 8.35331 3.25 8.94755 3.25 9.8V14.2C3.25 15.0525 3.25058 15.6467 3.28838 16.1093C3.32547 16.5632 3.3946 16.824 3.49524 17.0215C3.71095 17.4448 4.05516 17.7891 4.47852 18.0048C4.67604 18.1054 4.9368 18.1745 5.39068 18.2116C5.85331 18.2494 6.44755 18.25 7.3 18.25H12.7C13.5525 18.25 14.1467 18.2494 14.6093 18.2116C15.0632 18.1745 15.324 18.1054 15.5215 18.0048C15.9448 17.7891 16.289 17.4448 16.5048 17.0215C16.6054 16.824 16.6745 16.5632 16.7116 16.1093C16.7494 15.6467 16.75 15.0525 16.75 14.2V9.8ZM18.5607 12L21.6646 15.104C21.6947 15.134 21.7231 15.1624 21.7499 15.1892C21.75 15.1512 21.75 15.1111 21.75 15.0686V8.93137C21.75 8.88891 21.75 8.84878 21.7499 8.81081C21.7231 8.83763 21.6947 8.86599 21.6646 8.89602L18.5607 12Z" fill="#F3F4F4"/>
</svg>
