<svg width="14" height="14" viewBox="0 0 14 14" fill="none" xmlns="http://www.w3.org/2000/svg">
<path d="M8.55116 5.23849C8.46397 5.0964 8.3117 5.00712 8.14513 5.00041C7.97855 4.9937 7.81959 5.07044 7.72126 5.20506L6.14174 7.36724L5.04568 6.56347C4.93006 6.47868 4.78361 6.4476 4.64352 6.47814C4.50344 6.50867 4.3832 6.59787 4.31335 6.72308L2.06335 10.7564C1.97696 10.9113 1.97905 11.1003 2.06884 11.2532C2.15863 11.4061 2.32268 11.5 2.5 11.5H11.5C11.681 11.5 11.8479 11.4022 11.9363 11.2442C12.0247 11.0862 12.0208 10.8928 11.9262 10.7385L8.55116 5.23849Z" fill="#616366"/>
<path fill-rule="evenodd" clip-rule="evenodd" d="M2.25 0C1.00736 0 0 1.00736 0 2.25V11.75C0 12.9926 1.00736 14 2.25 14H11.75C12.9926 14 14 12.9926 14 11.75V2.25C14 1.00736 12.9926 0 11.75 0H2.25ZM1 2.25C1 1.55964 1.55964 1 2.25 1H11.75C12.4404 1 13 1.55964 13 2.25V11.75C13 12.4404 12.4404 13 11.75 13H2.25C1.55964 13 1 12.4404 1 11.75V2.25Z" fill="#616366"/>
</svg>
