<svg width="28" height="28" viewBox="0 0 28 28" fill="none" xmlns="http://www.w3.org/2000/svg">
<path fill-rule="evenodd" clip-rule="evenodd" d="M18.7409 10.1596L21.4377 12.5627C21.5422 12.6557 21.7027 12.645 21.7938 12.5388L22.4397 11.7858C22.5298 11.6808 22.5175 11.5225 22.4122 11.4327L18.1622 7.80975C18.0687 7.73008 17.9313 7.73008 17.8378 7.80975L13.5878 11.4327C13.4825 11.5225 13.4702 11.6808 13.5603 11.7858L14.2063 12.5388C14.2974 12.645 14.4579 12.6557 14.5623 12.5627L17.2591 10.1596V21C17.2591 21.1381 17.3711 21.25 17.5091 21.25H18.4909C18.629 21.25 18.7409 21.1381 18.7409 21V10.1596Z" fill="#F3F4F4"/>
<path fill-rule="evenodd" clip-rule="evenodd" d="M10.4909 18.398L12.104 17.124L12.75 17.877L10 20L7.25 17.877L7.89599 17.124L9.50912 18.398V12H10.4909V18.398Z" fill="#A9ABAD"/>
</svg>
