<svg width="20" height="22" viewBox="0 0 20 22" fill="none" xmlns="http://www.w3.org/2000/svg">
<path d="M7.75 9C8.16421 9 8.5 9.33579 8.5 9.75V15.75C8.5 16.1642 8.16421 16.5 7.75 16.5C7.33579 16.5 7 16.1642 7 15.75V9.75C7 9.33579 7.33579 9 7.75 9Z" fill="#616366"/>
<path d="M12.5 9.75C12.5 9.33579 12.1642 9 11.75 9C11.3358 9 11 9.33579 11 9.75V15.75C11 16.1642 11.3358 16.5 11.75 16.5C12.1642 16.5 12.5 16.1642 12.5 15.75V9.75Z" fill="#616366"/>
<path fill-rule="evenodd" clip-rule="evenodd" d="M5 4V2.75C5 2.02065 5.28973 1.32118 5.80546 0.805456C6.32118 0.289731 7.02065 0 7.75 0H11.75C12.4793 0 13.1788 0.289731 13.6945 0.805456C14.2103 1.32118 14.5 2.02065 14.5 2.75V4H18.75C19.1642 4 19.5 4.33579 19.5 4.75C19.5 5.16421 19.1642 5.5 18.75 5.5H17.5V18.75C17.5 19.4793 17.2103 20.1788 16.6945 20.6945C16.1788 21.2103 15.4793 21.5 14.75 21.5H4.75C4.02065 21.5 3.32118 21.2103 2.80546 20.6945C2.28973 20.1788 2 19.4793 2 18.75V5.5H0.75C0.335786 5.5 0 5.16421 0 4.75C0 4.33579 0.335786 4 0.75 4H5ZM6.86612 1.86612C7.10054 1.6317 7.41848 1.5 7.75 1.5H11.75C12.0815 1.5 12.3995 1.6317 12.6339 1.86612C12.8683 2.10054 13 2.41848 13 2.75V4H6.5V2.75C6.5 2.41848 6.6317 2.10054 6.86612 1.86612ZM3.5 5.5V18.75C3.5 19.0815 3.6317 19.3995 3.86612 19.6339C4.10054 19.8683 4.41848 20 4.75 20H14.75C15.0815 20 15.3995 19.8683 15.6339 19.6339C15.8683 19.3995 16 19.0815 16 18.75V5.5H3.5Z" fill="#616366"/>
</svg>
