<svg width="28" height="34" viewBox="0 0 28 34" fill="none" xmlns="http://www.w3.org/2000/svg">
<path d="M8 17.375C7.37868 17.375 6.875 17.8787 6.875 18.5C6.875 19.1213 7.37868 19.625 8 19.625H20C20.6213 19.625 21.125 19.1213 21.125 18.5C21.125 17.8787 20.6213 17.375 20 17.375H8Z" fill="#303233"/>
<path d="M6.875 24.5C6.875 23.8787 7.37868 23.375 8 23.375H20C20.6213 23.375 21.125 23.8787 21.125 24.5C21.125 25.1213 20.6213 25.625 20 25.625H8C7.37868 25.625 6.875 25.1213 6.875 24.5Z" fill="#303233"/>
<path d="M8 11.375C7.37868 11.375 6.875 11.8787 6.875 12.5C6.875 13.1213 7.37868 13.625 8 13.625H12.5C13.1213 13.625 13.625 13.1213 13.625 12.5C13.625 11.8787 13.1213 11.375 12.5 11.375H8Z" fill="#303233"/>
<path fill-rule="evenodd" clip-rule="evenodd" d="M18.8482 0.875H9.15184C7.93259 0.874989 6.94916 0.874981 6.1528 0.940046C5.33284 1.00704 4.61263 1.14858 3.9463 1.48809C2.88789 2.02738 2.02738 2.88789 1.48809 3.9463C1.14858 4.61263 1.00704 5.33284 0.940046 6.1528C0.874981 6.94916 0.874989 7.93258 0.875 9.15183V24.8482C0.874989 26.0674 0.874981 27.0508 0.940046 27.8472C1.00704 28.6672 1.14858 29.3874 1.48809 30.0537C2.02738 31.1121 2.88789 31.9726 3.9463 32.5119C4.61263 32.8514 5.33284 32.993 6.1528 33.06C6.94916 33.125 7.93257 33.125 9.15182 33.125H18.8482C20.0674 33.125 21.0508 33.125 21.8472 33.06C22.6672 32.993 23.3874 32.8514 24.0537 32.5119C25.1121 31.9726 25.9726 31.1121 26.5119 30.0537C26.8514 29.3874 26.993 28.6672 27.06 27.8472C27.125 27.0508 27.125 26.0674 27.125 24.8482V9.15182C27.125 7.93257 27.125 6.94916 27.06 6.1528C26.993 5.33284 26.8514 4.61263 26.5119 3.9463C25.9726 2.88789 25.1121 2.02738 24.0537 1.48809C23.3874 1.14858 22.6672 1.00704 21.8472 0.940046C21.0508 0.874981 20.0674 0.874989 18.8482 0.875ZM4.96778 3.49285C5.26406 3.34189 5.65521 3.2382 6.33602 3.18257C7.02997 3.12588 7.92132 3.125 9.2 3.125H18.8C20.0787 3.125 20.97 3.12588 21.664 3.18257C22.3448 3.2382 22.7359 3.34189 23.0322 3.49285C23.6673 3.81643 24.1836 4.33274 24.5071 4.96778C24.6581 5.26406 24.7618 5.65521 24.8174 6.33602C24.8741 7.02997 24.875 7.92132 24.875 9.2V24.8C24.875 26.0787 24.8741 26.97 24.8174 27.664C24.7618 28.3448 24.6581 28.7359 24.5071 29.0322C24.1836 29.6673 23.6673 30.1836 23.0322 30.5071C22.7359 30.6581 22.3448 30.7618 21.664 30.8174C20.97 30.8741 20.0787 30.875 18.8 30.875H9.2C7.92132 30.875 7.02997 30.8741 6.33602 30.8174C5.65521 30.7618 5.26406 30.6581 4.96778 30.5071C4.33274 30.1836 3.81643 29.6673 3.49285 29.0322C3.34189 28.7359 3.2382 28.3448 3.18257 27.664C3.12588 26.97 3.125 26.0787 3.125 24.8V9.2C3.125 7.92132 3.12588 7.02997 3.18257 6.33602C3.2382 5.65521 3.34189 5.26406 3.49285 4.96778C3.81643 4.33274 4.33274 3.81643 4.96778 3.49285Z" fill="#303233"/>
</svg>
