<svg width="25" height="24" viewBox="0 0 25 24" fill="none" xmlns="http://www.w3.org/2000/svg">
<path fill-rule="evenodd" clip-rule="evenodd" d="M1.96967 1.46967C2.26256 1.17678 2.73744 1.17678 3.03033 1.46967L23.0303 21.4697C23.3232 21.7626 23.3232 22.2374 23.0303 22.5303C22.7374 22.8232 22.2626 22.8232 21.9697 22.5303L17.5795 18.1402C16.9023 19.1129 15.7761 19.75 14.5 19.75H5.5C3.42893 19.75 1.75 18.0711 1.75 16V8C1.75 6.46189 2.67602 5.14006 4.00096 4.56162L1.96967 2.53033C1.67678 2.23744 1.67678 1.76256 1.96967 1.46967ZM5.2081 5.76876C4.10336 5.91187 3.25 6.85628 3.25 8V16C3.25 17.2426 4.25736 18.25 5.5 18.25H14.5C15.3623 18.25 16.1126 17.7645 16.4902 17.0509L5.2081 5.76876ZM14.6093 5.78838C14.1467 5.75058 13.5525 5.75 12.7 5.75H10C9.58579 5.75 9.25 5.41421 9.25 5C9.25 4.58579 9.58579 4.25 10 4.25H12.7321C13.5449 4.24999 14.2006 4.24999 14.7315 4.29336C15.2781 4.33803 15.7582 4.43238 16.2025 4.65873C16.9081 5.01825 17.4817 5.59193 17.8413 6.29754C18.0676 6.74175 18.162 7.2219 18.2066 7.76853C18.25 8.29944 18.25 8.95505 18.25 9.76788V10.1893L20.6258 7.81355C20.8211 7.61818 21.0018 7.43743 21.1578 7.30688C21.3005 7.18739 21.5575 6.98807 21.9019 6.96096C22.3008 6.92957 22.6906 7.09103 22.9505 7.3953C23.1749 7.65804 23.2157 7.98068 23.2321 8.16609C23.25 8.36866 23.25 8.62426 23.25 8.90054V15.0995C23.25 15.3757 23.25 15.6313 23.2321 15.8339C23.2157 16.0193 23.1749 16.342 22.9505 16.6047C22.6906 16.909 22.3008 17.0704 21.9019 17.039C21.5575 17.0119 21.3005 16.8126 21.1578 16.6931C21.0019 16.5626 20.8212 16.3818 20.6258 16.1865L16.9697 12.5303C16.829 12.3897 16.75 12.1989 16.75 12V9.8C16.75 8.94755 16.7494 8.35331 16.7116 7.89068C16.6745 7.4368 16.6054 7.17604 16.5048 6.97852C16.289 6.55516 15.9448 6.21095 15.5215 5.99523C15.324 5.8946 15.0632 5.82546 14.6093 5.78838ZM18.5607 12L21.6646 15.104C21.6947 15.134 21.7231 15.1624 21.7499 15.1892C21.75 15.1512 21.75 15.1111 21.75 15.0686V8.93137C21.75 8.88891 21.75 8.84878 21.7499 8.81081C21.7231 8.83763 21.6947 8.86599 21.6646 8.89602L18.5607 12Z" fill="#303233"/>
</svg>
