<svg width="24" height="19" viewBox="0 0 24 19" fill="none" xmlns="http://www.w3.org/2000/svg">
<path fill-rule="evenodd" clip-rule="evenodd" d="M4 5C4 2.23858 6.23858 0 9 0C11.7614 0 14 2.23858 14 5C14 7.76142 11.7614 10 9 10C6.23858 10 4 7.76142 4 5ZM9 2C7.34315 2 6 3.34315 6 5C6 6.65685 7.34315 8 9 8C10.6569 8 12 6.65685 12 5C12 3.34315 10.6569 2 9 2Z" fill="#1C1C1E"/>
<path d="M9.00016 13C5.73981 13 2.99776 15.2299 2.22063 18.2493C2.08297 18.7841 1.53779 19.1061 1.00294 18.9684C0.468083 18.8308 0.146096 18.2856 0.283758 17.7507C1.2828 13.8692 4.80515 11 9.00016 11C13.1952 11 16.7175 13.8692 17.7166 17.7507C17.8542 18.2856 17.5322 18.8308 16.9974 18.9684C16.4625 19.1061 15.9173 18.7841 15.7797 18.2493C15.0026 15.2299 12.2605 13 9.00016 13Z" fill="#1C1C1E"/>
<path d="M20.7071 12.7071L23.7071 9.70711C24.0976 9.31658 24.0976 8.68342 23.7071 8.29289L20.7071 5.29289C20.3166 4.90237 19.6834 4.90237 19.2929 5.29289C18.9024 5.68342 18.9024 6.31658 19.2929 6.70711L20.5858 8H17C16.4477 8 16 8.44772 16 9C16 9.55228 16.4477 10 17 10H20.5858L19.2929 11.2929C18.9024 11.6834 18.9024 12.3166 19.2929 12.7071C19.6834 13.0976 20.3166 13.0976 20.7071 12.7071Z" fill="#1C1C1E"/>
</svg>
