<svg width="25" height="25" viewBox="0 0 25 25" fill="none" xmlns="http://www.w3.org/2000/svg">
<g clip-path="url(#clip0_3125_16929)">
<path d="M11.2188 4.38794C11.2188 3.69758 10.6591 3.13794 9.96875 3.13794H3.96875C3.27839 3.13794 2.71875 3.69758 2.71875 4.38794V20.3879C2.71875 21.0783 3.27839 21.6379 3.96875 21.6379H9.96875C10.6591 21.6379 11.2188 21.0783 11.2188 20.3879V4.38794ZM22.2188 19.3879V13.3879C22.2188 12.6976 21.6591 12.1379 20.9688 12.1379H14.9688C14.5545 12.1379 14.2188 11.8022 14.2188 11.3879C14.2188 10.9737 14.5545 10.6379 14.9688 10.6379H20.9688C22.4875 10.6379 23.7188 11.8692 23.7188 13.3879V19.3879C23.7188 20.9067 22.4875 22.1379 20.9688 22.1379H14.9688C14.5545 22.1379 14.2188 21.8022 14.2188 21.3879C14.2188 20.9737 14.5545 20.6379 14.9688 20.6379H20.9688C21.6591 20.6379 22.2188 20.0783 22.2188 19.3879ZM19.2188 5.38794C19.2188 3.59301 17.7637 2.13794 15.9688 2.13794H14.9688C14.5545 2.13794 14.2188 1.80215 14.2188 1.38794C14.2188 0.973726 14.5545 0.637939 14.9688 0.637939H15.9688C18.5921 0.637939 20.7188 2.76459 20.7188 5.38794V6.57739L21.4385 5.85767C21.7314 5.56477 22.2061 5.56477 22.499 5.85767C22.7919 6.15056 22.7919 6.62532 22.499 6.91821L20.499 8.91821C20.2061 9.21111 19.7314 9.21111 19.4385 8.91821L17.4385 6.91821C17.1456 6.62532 17.1456 6.15056 17.4385 5.85767C17.7314 5.56477 18.2061 5.56477 18.499 5.85767L19.2188 6.57739V5.38794ZM12.7188 20.3879C12.7188 21.9067 11.4875 23.1379 9.96875 23.1379H3.96875C2.44997 23.1379 1.21875 21.9067 1.21875 20.3879V4.38794C1.21875 2.86916 2.44997 1.63794 3.96875 1.63794H9.96875C11.4875 1.63794 12.7188 2.86916 12.7188 4.38794V20.3879Z" fill="#F3F4F4"/>
</g>
<defs>
<clipPath id="clip0_3125_16929">
<rect width="24" height="24" fill="white" transform="translate(0.96875 0.387939)"/>
</clipPath>
</defs>
</svg>
