<svg width="22" height="22" viewBox="0 0 22 22" fill="none" xmlns="http://www.w3.org/2000/svg">
<path d="M6.46967 10.4697C6.76256 10.1768 7.23744 10.1768 7.53033 10.4697L10.25 13.1893V7C10.25 6.58579 10.5858 6.25 11 6.25C11.4142 6.25 11.75 6.58579 11.75 7V13.1893L14.4697 10.4697C14.7626 10.1768 15.2374 10.1768 15.5303 10.4697C15.8232 10.7626 15.8232 11.2374 15.5303 11.5303L11.5303 15.5303C11.3839 15.6768 11.1919 15.75 11 15.75C10.8983 15.75 10.8013 15.7298 10.7129 15.6931C10.6245 15.6565 10.5416 15.6022 10.4697 15.5303L6.46967 11.5303C6.17678 11.2374 6.17678 10.7626 6.46967 10.4697Z" fill="#303233"/>
<path fill-rule="evenodd" clip-rule="evenodd" d="M0.25 11C0.25 5.06294 5.06294 0.25 11 0.25C16.9371 0.25 21.75 5.06294 21.75 11C21.75 16.9371 16.9371 21.75 11 21.75C5.06294 21.75 0.25 16.9371 0.25 11ZM11 1.75C5.89137 1.75 1.75 5.89137 1.75 11C1.75 16.1086 5.89137 20.25 11 20.25C16.1086 20.25 20.25 16.1086 20.25 11C20.25 5.89137 16.1086 1.75 11 1.75Z" fill="#303233"/>
</svg>
