<svg width="22" height="23" viewBox="0 0 22 23" fill="none" xmlns="http://www.w3.org/2000/svg">
<path d="M0.25 3C0.25 1.48122 1.48122 0.25 3 0.25H9.17157C9.6357 0.25 10.0808 0.434375 10.409 0.762563L11.2374 1.59099C11.6594 2.01295 12.2317 2.25 12.8284 2.25H19C20.5188 2.25 21.75 3.48122 21.75 5V17C21.75 18.5188 20.5188 19.75 19 19.75H16C15.5858 19.75 15.25 19.4142 15.25 19C15.25 18.5858 15.5858 18.25 16 18.25H19C19.6904 18.25 20.25 17.6904 20.25 17V5C20.25 4.30964 19.6904 3.75 19 3.75H3C2.30964 3.75 1.75 4.30964 1.75 5V17C1.75 17.6904 2.30964 18.25 3 18.25H6C6.41421 18.25 6.75 18.5858 6.75 19C6.75 19.4142 6.41421 19.75 6 19.75H3C1.48122 19.75 0.25 18.5188 0.25 17V3Z" fill="#303233"/>
<path d="M11.5303 11.4697C11.2374 11.1768 10.7626 11.1768 10.4697 11.4697L7.46967 14.4697C7.17678 14.7626 7.17678 15.2374 7.46967 15.5303C7.76256 15.8232 8.23744 15.8232 8.53033 15.5303L10.25 13.8107V22C10.25 22.4142 10.5858 22.75 11 22.75C11.4142 22.75 11.75 22.4142 11.75 22V13.8107L13.4697 15.5303C13.7626 15.8232 14.2374 15.8232 14.5303 15.5303C14.8232 15.2374 14.8232 14.7626 14.5303 14.4697L11.5303 11.4697Z" fill="#303233"/>
</svg>
