<svg width="25" height="24" viewBox="0 0 25 24" fill="none" xmlns="http://www.w3.org/2000/svg">
<path d="M13 7.5C13.8284 7.5 14.5 6.82843 14.5 6C14.5 5.17157 13.8284 4.5 13 4.5C12.1716 4.5 11.5 5.17157 11.5 6C11.5 6.82843 12.1716 7.5 13 7.5Z" fill="#FAFAFA"/>
<path d="M13 13.5C13.8284 13.5 14.5 12.8284 14.5 12C14.5 11.1716 13.8284 10.5 13 10.5C12.1716 10.5 11.5 11.1716 11.5 12C11.5 12.8284 12.1716 13.5 13 13.5Z" fill="#FAFAFA"/>
<path d="M14.5 18C14.5 18.8284 13.8284 19.5 13 19.5C12.1716 19.5 11.5 18.8284 11.5 18C11.5 17.1716 12.1716 16.5 13 16.5C13.8284 16.5 14.5 17.1716 14.5 18Z" fill="#FAFAFA"/>
</svg>
