<svg width="22" height="22" viewBox="0 0 22 22" fill="none" xmlns="http://www.w3.org/2000/svg">
<path d="M12.4697 9.46973C12.7626 9.17686 13.2374 9.1769 13.5303 9.46973C13.8232 9.76262 13.8232 10.2374 13.5303 10.5303L8.03028 16.0303C7.75567 16.3048 7.32093 16.3223 7.02637 16.082L6.96973 16.0303L4.46973 13.5303L4.41797 13.4736C4.17774 13.1791 4.1952 12.7443 4.46973 12.4697C4.74431 12.1952 5.17906 12.1777 5.47364 12.418L5.53028 12.4697L7.5 14.4395L12.4697 9.46973Z" fill="#303233"/>
<path fill-rule="evenodd" clip-rule="evenodd" d="M17.7998 0.250004C18.3475 0.250004 18.8037 0.248979 19.1748 0.279301C19.5545 0.310333 19.9109 0.378097 20.2481 0.549809C20.7655 0.813459 21.1865 1.23451 21.4502 1.75196C21.6219 2.0891 21.6897 2.44547 21.7207 2.8252C21.751 3.19633 21.75 3.65253 21.75 4.2002V13.7998C21.75 14.3475 21.751 14.8037 21.7207 15.1748C21.6897 15.5545 21.6219 15.9109 21.4502 16.2481C21.1865 16.7655 20.7655 17.1865 20.2481 17.4502L20.1211 17.5098C19.8217 17.6382 19.5072 17.6935 19.1748 17.7207C18.8037 17.751 18.3475 17.75 17.7998 17.75H17.75V17.7998C17.75 18.3475 17.751 18.8037 17.7207 19.1748C17.6897 19.5545 17.6219 19.9109 17.4502 20.2481C17.1865 20.7655 16.7655 21.1865 16.2481 21.4502L16.1211 21.5098C15.8217 21.6382 15.5072 21.6935 15.1748 21.7207C14.8037 21.751 14.3475 21.75 13.7998 21.75H4.2002C3.65252 21.75 3.19633 21.751 2.8252 21.7207C2.44547 21.6897 2.0891 21.6219 1.75196 21.4502L1.5625 21.3438C1.13169 21.0795 0.780518 20.7008 0.549809 20.2481L0.490238 20.1211C0.36184 19.8217 0.306464 19.5072 0.279301 19.1748C0.248979 18.8037 0.250004 18.3475 0.250004 17.7998V8.2002C0.250004 7.65253 0.248979 7.19633 0.279301 6.8252C0.306464 6.49281 0.361839 6.1783 0.490238 5.87891L0.549809 5.75196C0.813461 5.23451 1.23451 4.81346 1.75196 4.54981C2.0891 4.3781 2.44547 4.31033 2.8252 4.2793C3.19633 4.24898 3.65252 4.25 4.2002 4.25H4.25V4.2002C4.25 3.65253 4.24898 3.19633 4.2793 2.8252C4.30646 2.49281 4.36184 2.1783 4.49024 1.87891L4.54981 1.75196C4.81346 1.23451 5.23451 0.813459 5.75196 0.549809C6.0891 0.378098 6.44547 0.310333 6.8252 0.279301C7.19633 0.248979 7.65252 0.250004 8.2002 0.250004H17.7998ZM4.2002 5.75C3.62777 5.75 3.24315 5.75024 2.94727 5.77442C2.66027 5.79788 2.52316 5.84059 2.43262 5.88672C2.19751 6.00655 2.00655 6.19751 1.88672 6.43262L1.85254 6.51075C1.8202 6.601 1.79201 6.73203 1.77442 6.94727C1.75024 7.24315 1.75 7.62778 1.75 8.2002V17.7998C1.75 18.3722 1.75024 18.7569 1.77442 19.0527C1.79201 19.268 1.82021 19.399 1.85254 19.4893L1.88672 19.5674C1.99161 19.7732 2.15085 19.9453 2.34668 20.0654L2.43262 20.1133C2.52316 20.1594 2.66027 20.2021 2.94727 20.2256C3.24315 20.2498 3.62777 20.25 4.2002 20.25H13.7998C14.3722 20.25 14.7569 20.2498 15.0527 20.2256C15.268 20.208 15.399 20.1798 15.4893 20.1475L15.5674 20.1133C15.8025 19.9935 15.9935 19.8025 16.1133 19.5674C16.1594 19.4768 16.2021 19.3397 16.2256 19.0527C16.2498 18.7569 16.25 18.3722 16.25 17.7998V8.2002C16.25 7.62778 16.2498 7.24315 16.2256 6.94727C16.2021 6.66028 16.1594 6.52316 16.1133 6.43262C15.9935 6.19751 15.8025 6.00655 15.5674 5.88672C15.4768 5.84059 15.3397 5.79788 15.0527 5.77442C14.7569 5.75024 14.3722 5.75 13.7998 5.75H4.2002ZM8.2002 1.75C7.62777 1.75 7.24315 1.75024 6.94727 1.77442C6.66027 1.79788 6.52316 1.84059 6.43262 1.88672C6.19751 2.00655 6.00655 2.19751 5.88672 2.43262L5.85254 2.51075C5.8202 2.60099 5.79201 2.73203 5.77442 2.94727C5.75024 3.24315 5.75 3.62778 5.75 4.2002V4.25H13.7998C14.3475 4.25 14.8037 4.24898 15.1748 4.2793C15.5545 4.31033 15.9109 4.3781 16.2481 4.54981C16.7655 4.81346 17.1865 5.23451 17.4502 5.75196C17.6219 6.0891 17.6897 6.44547 17.7207 6.8252C17.751 7.19633 17.75 7.65253 17.75 8.2002V16.25H17.7998C18.3722 16.25 18.7569 16.2498 19.0527 16.2256C19.268 16.208 19.399 16.1798 19.4893 16.1475L19.5674 16.1133C19.8025 15.9935 19.9935 15.8025 20.1133 15.5674C20.1594 15.4768 20.2021 15.3397 20.2256 15.0527C20.2498 14.7569 20.25 14.3722 20.25 13.7998V4.2002C20.25 3.62778 20.2498 3.24315 20.2256 2.94727C20.2021 2.66028 20.1594 2.52316 20.1133 2.43262C19.9935 2.19751 19.8025 2.00655 19.5674 1.88672C19.4768 1.84059 19.3397 1.79788 19.0527 1.77442C18.7569 1.75024 18.3722 1.75 17.7998 1.75H8.2002Z" fill="#303233"/>
</svg>
