<svg width="23" height="22" viewBox="0 0 23 22" fill="none" xmlns="http://www.w3.org/2000/svg">
<path d="M12.0303 0.46967C11.9584 0.397762 11.8755 0.343509 11.7871 0.306909C11.6987 0.270239 11.6017 0.25 11.5 0.25C11.3081 0.25 11.1161 0.323223 10.9697 0.46967L7.96967 3.46967C7.67678 3.76256 7.67678 4.23744 7.96967 4.53033C8.26256 4.82322 8.73744 4.82322 9.03033 4.53033L10.75 2.81066V7C10.75 7.41421 11.0858 7.75 11.5 7.75C11.9142 7.75 12.25 7.41421 12.25 7V2.81066L13.9697 4.53033C14.2626 4.82322 14.7374 4.82322 15.0303 4.53033C15.3232 4.23744 15.3232 3.76256 15.0303 3.46967L12.0303 0.46967Z" fill="#616366"/>
<path d="M5.03033 8.53033C5.32322 8.23744 5.32322 7.76256 5.03033 7.46967C4.73744 7.17678 4.26256 7.17678 3.96967 7.46967L0.96967 10.4697C0.897762 10.5416 0.843509 10.6245 0.806909 10.7129C0.770239 10.8013 0.75 10.8983 0.75 11C0.75 11.1919 0.823223 11.3839 0.96967 11.5303L3.96967 14.5303C4.26256 14.8232 4.73744 14.8232 5.03033 14.5303C5.32322 14.2374 5.32322 13.7626 5.03033 13.4697L3.31066 11.75H7.5C7.91421 11.75 8.25 11.4142 8.25 11C8.25 10.5858 7.91421 10.25 7.5 10.25H3.31066L5.03033 8.53033Z" fill="#616366"/>
<path d="M7.96967 17.4697C8.26256 17.1768 8.73744 17.1768 9.03033 17.4697L10.75 19.1893V15C10.75 14.5858 11.0858 14.25 11.5 14.25C11.9142 14.25 12.25 14.5858 12.25 15V19.1893L13.9697 17.4697C14.2626 17.1768 14.7374 17.1768 15.0303 17.4697C15.3232 17.7626 15.3232 18.2374 15.0303 18.5303L12.0303 21.5303C11.8839 21.6768 11.6919 21.75 11.5 21.75C11.3983 21.75 11.3013 21.7298 11.2129 21.6931C11.1245 21.6565 11.0416 21.6022 10.9697 21.5303L7.96967 18.5303C7.67678 18.2374 7.67678 17.7626 7.96967 17.4697Z" fill="#616366"/>
<path d="M19.0303 7.46967C18.7374 7.17678 18.2626 7.17678 17.9697 7.46967C17.6768 7.76256 17.6768 8.23744 17.9697 8.53033L19.6893 10.25H15.5C15.0858 10.25 14.75 10.5858 14.75 11C14.75 11.4142 15.0858 11.75 15.5 11.75H19.6893L17.9697 13.4697C17.6768 13.7626 17.6768 14.2374 17.9697 14.5303C18.2626 14.8232 18.7374 14.8232 19.0303 14.5303L22.0303 11.5303C22.1768 11.3839 22.25 11.1919 22.25 11C22.25 10.8983 22.2298 10.8013 22.1931 10.7129C22.1565 10.6245 22.1022 10.5416 22.0303 10.4697L19.0303 7.46967Z" fill="#616366"/>
</svg>
