<svg width="24" height="24" viewBox="0 0 24 24" fill="none" xmlns="http://www.w3.org/2000/svg">
<path fill-rule="evenodd" clip-rule="evenodd" d="M6.48736 2.99927C10.0416 1.66642 13.9584 1.66642 17.5126 2.99927L19.0534 3.57704C20.2243 4.01613 21 5.13549 21 6.38603V12C21 14.9647 19.3096 17.413 17.5505 19.1699C15.7763 20.9418 13.7968 22.1474 12.9255 22.637C12.3469 22.962 11.6531 22.962 11.0745 22.637C10.2032 22.1474 8.22373 20.9418 6.44951 19.1699C4.69041 17.413 3 14.9647 3 12V6.38603C3 5.13549 3.77572 4.01613 4.94663 3.57704L6.48736 2.99927ZM16.8104 4.87192C13.7089 3.70887 10.2911 3.70887 7.18961 4.87192L5.64888 5.4497C5.25857 5.59606 5 5.96918 5 6.38603V12C5 14.1858 6.25709 16.1511 7.86281 17.7547C9.41841 19.3083 11.1769 20.3962 12 20.8628C12.8231 20.3962 14.5816 19.3083 16.1372 17.7547C17.7429 16.1511 19 14.1858 19 12V6.38603C19 5.96918 18.7414 5.59606 18.3511 5.4497L16.8104 4.87192Z" fill="#1C1C1E"/>
</svg>
