<svg width="18" height="21" viewBox="0 0 18 21" fill="none" xmlns="http://www.w3.org/2000/svg">
<path fill-rule="evenodd" clip-rule="evenodd" d="M3.48736 0.999266C7.04161 -0.333577 10.9584 -0.333577 14.5126 0.999266L16.0534 1.57704C17.2243 2.01613 18 3.13549 18 4.38603V10C18 12.9647 16.3096 15.413 14.5505 17.1699C12.7763 18.9418 10.7968 20.1474 9.92554 20.637C9.34694 20.962 8.65306 20.962 8.07446 20.637C7.20318 20.1474 5.22373 18.9418 3.44951 17.1699C1.69041 15.413 0 12.9647 0 10V4.38603C0 3.13549 0.775718 2.01613 1.94663 1.57704L3.48736 0.999266ZM13.8104 2.87192C10.7089 1.70887 7.29109 1.70887 4.18961 2.87192L2.64888 3.4497C2.25857 3.59606 2 3.96918 2 4.38603V10C2 12.1858 3.25709 14.1511 4.86281 15.7547C6.41841 17.3083 8.17687 18.3962 9 18.8628C9.82312 18.3962 11.5816 17.3083 13.1372 15.7547C14.7429 14.1511 16 12.1858 16 10V4.38603C16 3.96918 15.7414 3.59606 15.3511 3.4497L13.8104 2.87192Z" fill="white"/>
</svg>
