<svg width="16" height="16" viewBox="0 0 16 16" fill="none" xmlns="http://www.w3.org/2000/svg">
<g clip-path="url(#clip0_5312_1786)">
<path d="M4.97945 7.64649C5.17472 7.45122 5.4913 7.45122 5.68656 7.64649L7.49967 9.4596V5.33337C7.49967 5.05723 7.72353 4.83337 7.99967 4.83337C8.27582 4.83337 8.49967 5.05723 8.49967 5.33337V9.4596L10.3128 7.64649C10.508 7.45122 10.8246 7.45122 11.0199 7.64649C11.2152 7.84175 11.2152 8.15833 11.0199 8.35359L8.35323 11.0203C8.2556 11.1179 8.12764 11.1667 7.99967 11.1667C7.93188 11.1667 7.86724 11.1532 7.80828 11.1288C7.74931 11.1044 7.69406 11.0682 7.64612 11.0203L4.97945 8.35359C4.78419 8.15833 4.78419 7.84175 4.97945 7.64649Z" fill="#303233"/>
<path fill-rule="evenodd" clip-rule="evenodd" d="M0.833008 8.00004C0.833008 4.042 4.04163 0.833374 7.99967 0.833374C11.9577 0.833374 15.1663 4.042 15.1663 8.00004C15.1663 11.9581 11.9577 15.1667 7.99967 15.1667C4.04163 15.1667 0.833008 11.9581 0.833008 8.00004ZM7.99967 1.83337C4.59392 1.83337 1.83301 4.59428 1.83301 8.00004C1.83301 11.4058 4.59392 14.1667 7.99967 14.1667C11.4054 14.1667 14.1663 11.4058 14.1663 8.00004C14.1663 4.59428 11.4054 1.83337 7.99967 1.83337Z" fill="#303233"/>
</g>
<defs>
<clipPath id="clip0_5312_1786">
<rect width="16" height="16" fill="white"/>
</clipPath>
</defs>
</svg>
