<svg width="22" height="20" viewBox="0 0 22 20" fill="none" xmlns="http://www.w3.org/2000/svg">
<path fill-rule="evenodd" clip-rule="evenodd" d="M11 5.25C8.37665 5.25 6.25 7.37665 6.25 10C6.25 12.6234 8.37665 14.75 11 14.75C13.6234 14.75 15.75 12.6234 15.75 10C15.75 7.37665 13.6234 5.25 11 5.25ZM7.75 10C7.75 8.20507 9.20507 6.75 11 6.75C12.7949 6.75 14.25 8.20507 14.25 10C14.25 11.7949 12.7949 13.25 11 13.25C9.20507 13.25 7.75 11.7949 7.75 10Z" fill="#303233"/>
<path fill-rule="evenodd" clip-rule="evenodd" d="M16.2321 0.25H5.7679C4.95506 0.249993 4.29944 0.249987 3.76853 0.293364C3.2219 0.338026 2.74175 0.432385 2.29754 0.658726C1.59193 1.01825 1.01825 1.59193 0.658726 2.29754C0.432385 2.74175 0.338026 3.2219 0.293364 3.76853C0.249987 4.29944 0.249993 4.95505 0.25 5.76789V14.2321C0.249993 15.0449 0.249987 15.7006 0.293364 16.2315C0.338026 16.7781 0.432385 17.2582 0.658726 17.7025C1.01825 18.4081 1.59193 18.9817 2.29754 19.3413C2.74175 19.5676 3.2219 19.662 3.76853 19.7066C4.29944 19.75 4.95505 19.75 5.76788 19.75H16.2321C17.045 19.75 17.7006 19.75 18.2315 19.7066C18.7781 19.662 19.2582 19.5676 19.7025 19.3413C20.4081 18.9817 20.9817 18.4081 21.3413 17.7025C21.5676 17.2582 21.662 16.7781 21.7066 16.2315C21.75 15.7006 21.75 15.045 21.75 14.2321V5.76788C21.75 4.95505 21.75 4.29944 21.7066 3.76853C21.662 3.2219 21.5676 2.74175 21.3413 2.29754C20.9817 1.59193 20.4081 1.01825 19.7025 0.658726C19.2582 0.432385 18.7781 0.338026 18.2315 0.293364C17.7006 0.249987 17.0449 0.249993 16.2321 0.25ZM2.97852 1.99524C3.17604 1.8946 3.43681 1.82547 3.89068 1.78838C4.35331 1.75058 4.94755 1.75 5.8 1.75H16.2C17.0525 1.75 17.6467 1.75058 18.1093 1.78838C18.5632 1.82547 18.824 1.8946 19.0215 1.99524C19.4448 2.21095 19.789 2.55516 20.0048 2.97852C20.1054 3.17604 20.1745 3.43681 20.2116 3.89068C20.2494 4.35331 20.25 4.94755 20.25 5.8V14.2C20.25 15.0525 20.2494 15.6467 20.2116 16.1093C20.1745 16.5632 20.1054 16.824 20.0048 17.0215C19.789 17.4448 19.4448 17.789 19.0215 18.0048C18.824 18.1054 18.5632 18.1745 18.1093 18.2116C17.6467 18.2494 17.0525 18.25 16.2 18.25H5.8C4.94755 18.25 4.35331 18.2494 3.89068 18.2116C3.43681 18.1745 3.17604 18.1054 2.97852 18.0048C2.55516 17.789 2.21095 17.4448 1.99524 17.0215C1.8946 16.824 1.82547 16.5632 1.78838 16.1093C1.75058 15.6467 1.75 15.0525 1.75 14.2V5.8C1.75 4.94755 1.75058 4.35331 1.78838 3.89068C1.82547 3.43681 1.8946 3.17604 1.99524 2.97852C2.21095 2.55516 2.55516 2.21095 2.97852 1.99524Z" fill="#303233"/>
</svg>
