<svg width="13" height="13" viewBox="0 0 13 13" fill="none" xmlns="http://www.w3.org/2000/svg">
<path fill-rule="evenodd" clip-rule="evenodd" d="M3.6786 1.31229e-07H9.3214C9.8633 -4.87556e-06 10.3004 -8.86992e-06 10.6543 0.0289092C11.0187 0.0586839 11.3388 0.12159 11.635 0.272484C12.1054 0.512167 12.4878 0.894619 12.7275 1.36502C12.8784 1.66117 12.9413 1.98126 12.9711 2.34569C13 2.69963 13 3.1367 13 3.67858V9.32142C13 9.8633 13 10.3004 12.9711 10.6543C12.9413 11.0187 12.8784 11.3388 12.7275 11.635C12.4878 12.1054 12.1054 12.4878 11.635 12.7275C11.3388 12.8784 11.0187 12.9413 10.6543 12.9711C10.3004 13 9.8633 13 9.32142 13H3.67858C3.1367 13 2.69963 13 2.34569 12.9711C1.98126 12.9413 1.66117 12.8784 1.36502 12.7275C0.894619 12.4878 0.512167 12.1054 0.272484 11.635C0.12159 11.3388 0.0586839 11.0187 0.0289092 10.6543C-8.86992e-06 10.3004 -4.87556e-06 9.8633 1.3123e-07 9.3214V3.6786C-4.87556e-06 3.1367 -8.86992e-06 2.69963 0.0289092 2.34569C0.0586839 1.98126 0.12159 1.66117 0.272484 1.36502C0.512167 0.894619 0.894619 0.512167 1.36502 0.272484C1.66117 0.12159 1.98126 0.0586839 2.34569 0.0289092C2.69963 -8.86992e-06 3.1367 -4.87556e-06 3.6786 1.31229e-07ZM2.42712 1.02559C2.12454 1.05031 1.95069 1.0964 1.81901 1.16349C1.53677 1.3073 1.3073 1.53677 1.16349 1.81901C1.0964 1.95069 1.05031 2.12454 1.02559 2.42712C1.00039 2.73554 1 3.1317 1 3.7V9.3C1 9.8683 1.00039 10.2645 1.02559 10.5729C1.05031 10.8755 1.0964 11.0493 1.16349 11.181C1.3073 11.4632 1.53677 11.6927 1.81901 11.8365C1.95069 11.9036 2.12454 11.9497 2.42712 11.9744C2.73554 11.9996 3.1317 12 3.7 12H9.3C9.8683 12 10.2645 11.9996 10.5729 11.9744C10.8755 11.9497 11.0493 11.9036 11.181 11.8365C11.4632 11.6927 11.6927 11.4632 11.8365 11.181C11.9036 11.0493 11.9497 10.8755 11.9744 10.5729C11.9996 10.2645 12 9.8683 12 9.3V3.7C12 3.1317 11.9996 2.73554 11.9744 2.42712C11.9497 2.12454 11.9036 1.95069 11.8365 1.81901C11.6927 1.53677 11.4632 1.3073 11.181 1.16349C11.0493 1.0964 10.8755 1.05031 10.5729 1.02559C10.2645 1.00039 9.8683 1 9.3 1H3.7C3.1317 1 2.73554 1.00039 2.42712 1.02559Z" fill="#616366"/>
</svg>
