<svg width="41" height="40" viewBox="0 0 41 40" fill="none" xmlns="http://www.w3.org/2000/svg">
<circle cx="20.5" cy="20" r="20" fill="#04101E"/>
<path opacity="0.7" fill-rule="evenodd" clip-rule="evenodd" d="M28.5 21C30.4328 21 32 19.4328 32 17.5C32 15.5672 30.4328 14 28.5 14C26.5672 14 25 15.5672 25 17.5C25 19.4328 26.5672 21 28.5 21ZM33.9816 25.5619C34.0883 26.0435 33.7165 26.5 33.2433 26.5H23.7567C23.2835 26.5 22.9117 26.0435 23.0184 25.5619C23.5945 22.9486 25.8274 21 28.5004 21C31.1726 21 33.4055 22.9486 33.9816 25.5619Z" fill="#FAFAFB"/>
<path opacity="0.7" d="M20.2196 22.0001H23.2499C23.5261 22.0001 23.7499 21.7763 23.7499 21.5001C23.7499 21.224 23.5261 21.0001 23.2499 21.0001H18.2499C17.7314 21.0001 17.5557 21.6922 18.0115 21.9396L20.0589 23.0507C20.3016 23.1824 20.6051 23.0924 20.7368 22.8497C20.8686 22.607 20.7786 22.3035 20.5359 22.1718L20.2196 22.0001Z" fill="#FAFAFB"/>
<path d="M20.9995 17.9999H17.9692C17.693 17.9999 17.4692 18.2237 17.4692 18.4999C17.4692 18.776 17.693 18.9999 17.9692 18.9999H22.9692C23.4877 18.9999 23.6634 18.3078 23.2077 18.0604L21.1602 16.9493C20.9175 16.8176 20.614 16.9076 20.4823 17.1503C20.3506 17.393 20.4405 17.6965 20.6832 17.8282L20.9995 17.9999Z" fill="#FAFAFB"/>
<path fill-rule="evenodd" clip-rule="evenodd" d="M12.5 21C14.4328 21 16 19.4328 16 17.5C16 15.5672 14.4328 14 12.5 14C10.5672 14 9 15.5672 9 17.5C9 19.4328 10.5672 21 12.5 21ZM17.9816 25.5619C18.0883 26.0435 17.7165 26.5 17.2433 26.5H7.75668C7.28351 26.5 6.91174 26.0435 7.01839 25.5619C7.59445 22.9486 9.82735 21 12.5004 21C15.1726 21 17.4055 22.9486 17.9816 25.5619Z" fill="#FAFAFB"/>
</svg>
