<svg width="25" height="24" viewBox="0 0 25 24" fill="none" xmlns="http://www.w3.org/2000/svg">
<path d="M8.01493 9.66265C7.68015 9.41874 7.60649 8.94962 7.8504 8.61483C8.89462 7.18157 10.5885 6.24765 12.5005 6.24765C15.2785 6.24765 17.5965 8.2178 18.1333 10.8371C18.428 10.5869 18.8703 10.6009 19.1484 10.8791C19.4413 11.172 19.4413 11.6469 19.1484 11.9397L17.972 13.1162C17.8313 13.2569 17.6405 13.3359 17.4416 13.3359C17.2427 13.3359 17.052 13.2569 16.9113 13.1162L15.7348 11.9397C15.4419 11.6469 15.4419 11.172 15.7348 10.8791C15.9563 10.6576 16.2819 10.6036 16.5542 10.7171C16.0109 8.9957 14.4014 7.74765 12.5005 7.74765C11.0882 7.74765 9.8368 8.43569 9.06276 9.49811C8.81884 9.8329 8.34972 9.90656 8.01493 9.66265Z" fill="#797C80"/>
<path d="M5.85248 13.1162C5.55959 12.8233 5.55959 12.3484 5.85248 12.0556L7.02895 10.8791C7.16961 10.7384 7.36037 10.6594 7.55928 10.6594C7.75819 10.6594 7.94896 10.7384 8.08961 10.8791L9.26608 12.0556C9.55898 12.3484 9.55898 12.8233 9.26608 13.1162C9.04458 13.3377 8.71901 13.3917 8.44677 13.2782C8.99004 14.9996 10.5995 16.2477 12.5005 16.2477C13.9127 16.2477 15.1641 15.5596 15.9382 14.4972C16.1821 14.1624 16.6512 14.0887 16.986 14.3326C17.3208 14.5766 17.3944 15.0457 17.1505 15.3805C16.1063 16.8137 14.4124 17.7477 12.5005 17.7477C9.72238 17.7477 7.40445 15.7775 6.86763 13.1582C6.57295 13.4084 6.13065 13.3944 5.85248 13.1162Z" fill="#797C80"/>
<path fill-rule="evenodd" clip-rule="evenodd" d="M17.7321 2.25H7.2679C6.45507 2.24999 5.79944 2.24999 5.26853 2.29336C4.7219 2.33803 4.24176 2.43239 3.79754 2.65873C3.09193 3.01825 2.51825 3.59193 2.15873 4.29754C1.93239 4.74176 1.83803 5.2219 1.79336 5.76853C1.74999 6.29944 1.74999 6.95505 1.75 7.76788V16.2321C1.74999 17.0449 1.74999 17.7006 1.79336 18.2315C1.83803 18.7781 1.93239 19.2582 2.15873 19.7025C2.51825 20.4081 3.09193 20.9817 3.79754 21.3413C4.24176 21.5676 4.7219 21.662 5.26853 21.7066C5.79944 21.75 6.45505 21.75 7.26788 21.75H17.7321C18.545 21.75 19.2006 21.75 19.7315 21.7066C20.2781 21.662 20.7582 21.5676 21.2025 21.3413C21.9081 20.9817 22.4817 20.4081 22.8413 19.7025C23.0676 19.2582 23.162 18.7781 23.2066 18.2315C23.25 17.7006 23.25 17.045 23.25 16.2321V7.76788C23.25 6.95505 23.25 6.29944 23.2066 5.76853C23.162 5.2219 23.0676 4.74176 22.8413 4.29754C22.4817 3.59193 21.9081 3.01825 21.2025 2.65873C20.7582 2.43239 20.2781 2.33803 19.7315 2.29336C19.2006 2.24999 18.5449 2.24999 17.7321 2.25ZM4.47852 3.99524C4.67604 3.8946 4.93681 3.82547 5.39068 3.78838C5.85331 3.75058 6.44755 3.75 7.3 3.75H17.7C18.5525 3.75 19.1467 3.75058 19.6093 3.78838C20.0632 3.82547 20.324 3.8946 20.5215 3.99524C20.9448 4.21095 21.289 4.55516 21.5048 4.97852C21.6054 5.17604 21.6745 5.43681 21.7116 5.89068C21.7494 6.35331 21.75 6.94755 21.75 7.8V16.2C21.75 17.0525 21.7494 17.6467 21.7116 18.1093C21.6745 18.5632 21.6054 18.824 21.5048 19.0215C21.289 19.4448 20.9448 19.789 20.5215 20.0048C20.324 20.1054 20.0632 20.1745 19.6093 20.2116C19.1467 20.2494 18.5525 20.25 17.7 20.25H7.3C6.44755 20.25 5.85331 20.2494 5.39068 20.2116C4.93681 20.1745 4.67604 20.1054 4.47852 20.0048C4.05516 19.789 3.71095 19.4448 3.49524 19.0215C3.3946 18.824 3.32547 18.5632 3.28838 18.1093C3.25058 17.6467 3.25 17.0525 3.25 16.2V7.8C3.25 6.94755 3.25058 6.35331 3.28838 5.89068C3.32547 5.43681 3.3946 5.17604 3.49524 4.97852C3.71095 4.55516 4.05516 4.21095 4.47852 3.99524Z" fill="#797C80"/>
</svg>
