<svg width="20" height="20" viewBox="0 0 20 20" fill="none" xmlns="http://www.w3.org/2000/svg">
<path d="M8 16C12.4183 16 16 12.4183 16 8C16 3.58172 12.4183 0 8 0C3.58172 0 0 3.58172 0 8C0 9.06413 0.207766 10.0797 0.584944 11.0085C0.657132 11.1862 0.693226 11.2751 0.709329 11.3469C0.725081 11.4172 0.730841 11.4692 0.73085 11.5412C0.73086 11.6148 0.717494 11.695 0.690763 11.8554L0.163668 15.018C0.108471 15.3492 0.0808731 15.5148 0.132231 15.6345C0.177182 15.7393 0.260696 15.8228 0.365497 15.8678C0.485238 15.9191 0.650829 15.8915 0.98201 15.8363L4.14458 15.3092C4.30497 15.2825 4.38516 15.2691 4.45878 15.2691C4.5308 15.2692 4.58281 15.2749 4.65308 15.2907C4.72493 15.3068 4.8138 15.3429 4.99155 15.4151C5.92027 15.7922 6.93587 16 8 16Z" fill="#DD1405"/>
<path d="M8.7832 16.9664C13.1288 16.5917 16.5915 13.129 16.9662 8.78339C18.7781 9.81594 19.9998 11.7653 19.9998 14C19.9998 14.7981 19.844 15.5598 19.5611 16.2563C19.507 16.3896 19.4799 16.4563 19.4678 16.5102C19.456 16.5629 19.4517 16.6019 19.4517 16.6559C19.4517 16.7111 19.4617 16.7713 19.4817 16.8915L19.8771 19.2635C19.9185 19.5119 19.9392 19.6361 19.9006 19.7259C19.8669 19.8045 19.8043 19.8671 19.7257 19.9008C19.6359 19.9393 19.5117 19.9186 19.2633 19.8772L16.8914 19.4819C16.7711 19.4619 16.7109 19.4519 16.6557 19.4519C16.6017 19.4519 16.5627 19.4562 16.51 19.468C16.4561 19.4801 16.3895 19.5071 16.2562 19.5613C15.5596 19.8442 14.7979 20 13.9998 20C11.7651 20 9.81576 18.7783 8.7832 16.9664Z" fill="#DD1405"/>
</svg>
