<svg width="22" height="22" viewBox="0 0 22 22" fill="none" xmlns="http://www.w3.org/2000/svg">
<path d="M2.11612 2.11612C2.35054 1.8817 2.66848 1.75 3 1.75H12C12.3315 1.75 12.6495 1.8817 12.8839 2.11612C13.1183 2.35054 13.25 2.66848 13.25 3V5C13.25 5.41421 13.5858 5.75 14 5.75C14.4142 5.75 14.75 5.41421 14.75 5V3C14.75 2.27065 14.4603 1.57118 13.9445 1.05546C13.4288 0.539731 12.7293 0.25 12 0.25H3C2.27065 0.25 1.57118 0.539731 1.05546 1.05546C0.539731 1.57118 0.25 2.27065 0.25 3V12C0.25 12.7293 0.539731 13.4288 1.05546 13.9445C1.57118 14.4603 2.27065 14.75 3 14.75H5C5.41421 14.75 5.75 14.4142 5.75 14C5.75 13.5858 5.41421 13.25 5 13.25H3C2.66848 13.25 2.35054 13.1183 2.11612 12.8839C1.8817 12.6495 1.75 12.3315 1.75 12V3C1.75 2.66848 1.8817 2.35054 2.11612 2.11612Z" fill="#303233"/>
<path fill-rule="evenodd" clip-rule="evenodd" d="M10 7.25C8.48122 7.25 7.25 8.48122 7.25 10V19C7.25 20.5188 8.48122 21.75 10 21.75H19C20.5188 21.75 21.75 20.5188 21.75 19V10C21.75 8.48122 20.5188 7.25 19 7.25H10ZM8.75 10C8.75 9.30964 9.30964 8.75 10 8.75H19C19.6904 8.75 20.25 9.30964 20.25 10V19C20.25 19.6904 19.6904 20.25 19 20.25H10C9.30964 20.25 8.75 19.6904 8.75 19V10Z" fill="#303233"/>
</svg>
