<svg width="20" height="20" viewBox="0 0 20 20" fill="none" xmlns="http://www.w3.org/2000/svg">
<path fill-rule="evenodd" clip-rule="evenodd" d="M4.25 7C4.25 5.48122 5.48122 4.25 7 4.25C8.51878 4.25 9.75 5.48122 9.75 7C9.75 8.51878 8.51878 9.75 7 9.75C5.48122 9.75 4.25 8.51878 4.25 7ZM7 5.75C6.30964 5.75 5.75 6.30964 5.75 7C5.75 7.69036 6.30964 8.25 7 8.25C7.69036 8.25 8.25 7.69036 8.25 7C8.25 6.30964 7.69036 5.75 7 5.75Z" fill="#616366"/>
<path fill-rule="evenodd" clip-rule="evenodd" d="M0.25 4C0.25 1.92893 1.92893 0.25 4 0.25H16C18.0711 0.25 19.75 1.92893 19.75 4V16C19.75 18.0711 18.0711 19.75 16 19.75H4C1.92893 19.75 0.25 18.0711 0.25 16V4ZM18.25 11.1893V4C18.25 2.75736 17.2426 1.75 16 1.75H4C2.75736 1.75 1.75 2.75736 1.75 4V16C1.75 16.8633 2.23622 17.6131 2.94975 17.9904C2.95623 17.9834 2.96287 17.9765 2.96967 17.9697L12.7626 8.17678C13.446 7.49336 14.554 7.49336 15.2374 8.17678L18.25 11.1893ZM4.81066 18.25L13.8232 9.23744C13.9209 9.13981 14.0791 9.13981 14.1768 9.23744L18.25 13.3107V16C18.25 17.2426 17.2426 18.25 16 18.25H4.81066Z" fill="#616366"/>
</svg>
