<svg fill="none" height="48" viewBox="0 0 48 48" width="48" xmlns="http://www.w3.org/2000/svg" xmlns:xlink="http://www.w3.org/1999/xlink"><linearGradient id="a" gradientUnits="userSpaceOnUse" x1="24" x2="24" y1="6" y2="42"><stop offset="0" stop-color="#29dd74"/><stop offset="1" stop-color="#09bf5b"/></linearGradient><path d="m37 6c1.6569 0 3 1.34315 3 3v30c0 1.6569-1.3431 3-3 3h-26c-1.65685 0-3-1.3431-3-3v-30c0-1.65685 1.34315-3 3-3zm-23.2969 15.293c-.39.391-.39 1.024 0 1.414l.086.086c.391.3907 1.0241.3909 1.414 0l1.793-1.793v9c0 .552.448 1 1 1 .5517-.0004 1-.4482 1-1v-9l1.793 1.793c.391.3907 1.0241.3909 1.414 0l.086-.086c.3905-.3899.3905-1.0231 0-1.414l-4.293-4.293zm16.293-4.293c-.552 0-1 .448-1 1v9l-1.793-1.793c-.3899-.3909-1.023-.3907-1.414 0l-.086.086c-.39.39-.39 1.023 0 1.414l4.293 4.293 4.293-4.293c.3905-.3909.3905-1.0241 0-1.414l-.086-.086c-.3899-.3909-1.023-.3907-1.414 0l-1.793 1.793v-9c0-.5518-.4483-.9996-1-1z" fill="url(#a)"/></svg>