<svg width="22" height="20" viewBox="0 0 22 20" fill="none" xmlns="http://www.w3.org/2000/svg">
<path fill-rule="evenodd" clip-rule="evenodd" d="M0.25 3C0.25 1.48122 1.48122 0.25 3 0.25H9.17157C9.6357 0.25 10.0808 0.434375 10.409 0.762563L11.2374 1.59099C11.6594 2.01295 12.2317 2.25 12.8284 2.25H19C20.5188 2.25 21.75 3.48122 21.75 5V17C21.75 18.5188 20.5188 19.75 19 19.75H3C1.48122 19.75 0.25 18.5188 0.25 17V3ZM3 3.75C2.30964 3.75 1.75 4.30964 1.75 5V17C1.75 17.6904 2.30964 18.25 3 18.25H19C19.6904 18.25 20.25 17.6904 20.25 17V5C20.25 4.30964 19.6904 3.75 19 3.75H3Z" fill="#616366"/>
</svg>
