<svg fill="none" height="48" viewBox="0 0 48 48" width="48" xmlns="http://www.w3.org/2000/svg" xmlns:xlink="http://www.w3.org/1999/xlink"><linearGradient id="a" gradientUnits="userSpaceOnUse" x1="24" x2="24" y1="6" y2="42"><stop offset="0" stop-color="#69a3fb"/><stop offset="1" stop-color="#477ef7"/></linearGradient><g fill="url(#a)"><path d="m18.2885 19.5053v4.4c.0857 0 .2571.0286.4286.0572.1714.0286.3429.0571.4286.0571h.6857c.5143 0 1.0285-.0571 1.4857-.2285.4-.1143.8-.3429 1.0857-.6858.2857-.4.4571-.8571.4-1.3714 0-.4-.1143-.8-.2857-1.1428-.2286-.3429-.5714-.6286-.9143-.7429-.5143-.1714-1.0286-.2857-1.5429-.2857h-.9142c-.22.044-.5753-.0136-.7533-.0425-.0533-.0086-.0907-.0147-.1039-.0147z"/><path clip-rule="evenodd" d="m11 6h26c1.6569 0 3 1.34315 3 3v30c0 1.6569-1.3431 3-3 3h-26c-1.65685 0-3-1.3431-3-3v-30c0-1.65685 1.34315-3 3-3zm4.5457 24.6482v-13.4857c0-.1143.0571-.1714.1142-.1714h2.9715c.2 0 .4285.0285.6571.0571s.4572.0571.6572.0571c.9142 0 1.8285.1143 2.6857.4.6857.2286 1.2571.5715 1.7714 1.0858.4.4.7429.9142.9714 1.4857.1715.5714.2857 1.1428.2857 1.7143.0572.9714-.2285 1.9428-.8 2.8-.5142.7428-1.2571 1.3142-2.1142 1.6-.9715.3428-1.9429.5142-2.9715.5142h-.6285c-.0443 0-.1486-.0171-.2764-.0381-.202-.0332-.4629-.0761-.6379-.0761v4.1714c0 .1143-.0572.1714-.1715.1714h-2.4c-.0153-.0306-.0306-.0571-.0448-.0818-.0388-.0672-.0694-.1202-.0694-.2039zm11.9428-10.2286h2.2857c.1143 0 .2286.1143.2858.2286.0153.0306.0306.0572.0448.0818.0388.0672.0694.1203.0694.2039.0572.1143.0572.2857.0572.4v.4572c.4-.4572.8571-.8572 1.4286-1.1429.5714-.3429 1.2-.5143 1.8285-.4571.1142 0 .1715.0571.1715.1142v2.6286c0 .1143-.0573.1714-.2285.1714-.4573-.0571-.8573 0-1.2573.1143-.4.0572-.7428.1715-1.0857.3429-.2857.1143-.6285.2857-.8571.5143v6.6857c0 .1143-.0572.1714-.1714.1714h-2.4c-.1143 0-.1715-.0571-.2286-.1714v-8.2857c0-.3429 0-.6857-.0572-1.0286 0-.1428-.0143-.2857-.0285-.4285-.0143-.1429-.0286-.2858-.0286-.4286 0-.0243 0-.0383.0044-.0507.0059-.0168.0199-.0308.0527-.0636 0-.0572.0572-.0572.1143-.0572z" fill-rule="evenodd"/></g></svg>