<svg width="28" height="28" viewBox="0 0 28 28" fill="none" xmlns="http://www.w3.org/2000/svg">
<path fill-rule="evenodd" clip-rule="evenodd" d="M14.0001 3.2085C14.6286 3.2085 15.1084 3.70356 15.1084 4.27794V12.7039C15.1084 13.1871 15.5002 13.5789 15.9834 13.5789C16.4667 13.5789 16.8584 13.1871 16.8584 12.7039V5.57424C16.8584 4.99985 17.3382 4.50479 17.9667 4.50479C18.5953 4.50479 19.0751 4.99985 19.0751 5.57424V16.5928C19.0751 17.076 19.4668 17.4678 19.9501 17.4678C20.4333 17.4678 20.8251 17.076 20.8251 16.5928V13.352C20.8251 12.7776 21.3049 12.2826 21.9334 12.2826C22.5619 12.2826 23.0417 12.7776 23.0417 13.352V15.9446C23.0417 20.8145 19.0101 24.7918 14.0001 24.7918C8.99009 24.7918 4.95842 20.8145 4.95842 15.9446V9.46313C4.95842 8.88874 5.43822 8.39368 6.06675 8.39368C6.69528 8.39368 7.17508 8.88874 7.17508 9.46313V12.7039C7.17508 13.1871 7.56683 13.5789 8.05008 13.5789C8.53333 13.5789 8.92508 13.1871 8.92508 12.7039V5.57424C8.92508 4.99985 9.40488 4.50479 10.0334 4.50479C10.6619 4.50479 11.1417 4.99985 11.1417 5.57424V12.7039C11.1417 13.1871 11.5335 13.5789 12.0167 13.5789C12.5 13.5789 12.8917 13.1871 12.8917 12.7039V4.27794C12.8917 3.70356 13.3716 3.2085 14.0001 3.2085ZM11.4022 3.09908C11.857 2.12522 12.8574 1.4585 14.0001 1.4585C15.1428 1.4585 16.1432 2.12522 16.598 3.09908C17.006 2.87922 17.4731 2.75479 17.9667 2.75479C19.5289 2.75479 20.8251 4.00085 20.8251 5.57424V10.753C21.167 10.6109 21.5418 10.5326 21.9334 10.5326C23.4956 10.5326 24.7917 11.7786 24.7917 13.352V15.9446C24.7917 21.8135 19.9437 26.5418 14.0001 26.5418C8.05643 26.5418 3.20842 21.8135 3.20842 15.9446V9.46313C3.20842 7.88974 4.50455 6.64368 6.06675 6.64368C6.45832 6.64368 6.83317 6.72197 7.17508 6.86407V5.57424C7.17508 4.00085 8.47122 2.75479 10.0334 2.75479C10.5271 2.75479 10.9942 2.87922 11.4022 3.09908Z" fill="#F3F4F4"/>
</svg>
