<svg width="16" height="12" viewBox="0 0 16 12" fill="none" xmlns="http://www.w3.org/2000/svg">
<path d="M12.75 11.25C12.75 11.6642 12.4142 12 12 12C11.5858 12 11.25 11.6642 11.25 11.25L11.25 2.56066L9.28033 4.53033C8.98744 4.82322 8.51256 4.82322 8.21967 4.53033C7.92678 4.23744 7.92678 3.76256 8.21967 3.46967L11.4697 0.21967C11.7624 -0.0730961 12.2371 -0.073242 12.53 0.219344L15.784 3.46934C16.0771 3.76206 16.0774 4.23693 15.7847 4.53C15.4919 4.82308 15.0171 4.82337 14.724 4.53066L12.75 2.55909L12.75 11.25Z" fill="#F3F4F4"/>
<path d="M4.75 0.75C4.75 0.335787 4.41421 1.54901e-07 4 1.54901e-07C3.58579 1.54901e-07 3.25 0.335787 3.25 0.75L3.25 9.43934L1.28033 7.46967C0.987437 7.17678 0.512563 7.17678 0.21967 7.46967C-0.0732233 7.76256 -0.0732233 8.23744 0.21967 8.53033L3.46967 11.7803C3.76244 12.0731 4.23706 12.0732 4.53 11.7807L7.784 8.53066C8.07708 8.23794 8.07737 7.76307 7.78466 7.47C7.49194 7.17692 7.01707 7.17663 6.724 7.46934L4.75 9.44091L4.75 0.75Z" fill="#F3F4F4"/>
</svg>
