<svg fill="none" height="48" viewBox="0 0 48 48" width="48" xmlns="http://www.w3.org/2000/svg" xmlns:xlink="http://www.w3.org/1999/xlink"><linearGradient id="a" gradientUnits="userSpaceOnUse" x1="24" x2="24" y1="6" y2="42"><stop offset="0" stop-color="#69a3fb"/><stop offset="1" stop-color="#477ef7"/></linearGradient><path clip-rule="evenodd" d="m11 6h26c1.6569 0 3 1.34315 3 3v30c0 1.6569-1.3431 3-3 3h-26c-1.65685 0-3-1.3431-3-3v-30c0-1.65685 1.34315-3 3-3zm14.5 23.2822c0-1.2379.8255-2.3239 2.0182-2.6552l1.7494-.486c.4329-.1202.7324-.5143.7324-.9635v-5.8586c0-.3224-.3007-.5606-.6145-.4867l-3.6355.8554v.0024l-3.9814.9472c-.4506.1072-.7686.5097-.7686.9728v7.6548c0 1.8038-1.2073 3.3845-2.9475 3.8591l-.2319.0632c-1.1687.3188-2.3206-.5611-2.3206-1.7725 0-1.2379.8255-2.3239 2.0182-2.6552l1.7494-.486c.4329-.1202.7324-.5143.7324-.9635v-9.3447c0-.9559.6764-1.7781 1.6143-1.9624l4.1357-.8128v-.0024l3.4693-.6608c.9244-.1761 1.7807.5325 1.7807 1.4735v11.1321c0 1.8038-1.2073 3.3844-2.9475 3.8591l-.2319.0632c-1.1687.3187-2.3206-.5611-2.3206-1.7725z" fill="url(#a)" fill-rule="evenodd"/></svg>