<svg width="24" height="24" viewBox="0 0 24 24" fill="none" xmlns="http://www.w3.org/2000/svg">
<path fill-rule="evenodd" clip-rule="evenodd" d="M4.87594 2.91928C4.16764 2.4612 3.25 2.97823 3.25 3.80645V8.19345C3.25 9.02168 4.16764 9.5387 4.87594 9.08063L8.26761 6.88713C8.9108 6.47115 8.9108 5.52875 8.26761 5.11278L4.87594 2.91928ZM4.75 7.37571V4.6242L6.87725 5.99995L4.75 7.37571Z" fill="#FAFAFB"/>
<path d="M11.25 5.99997C11.25 5.58576 11.5858 5.24997 12 5.24997H20C20.4142 5.24997 20.75 5.58576 20.75 5.99997C20.75 6.41418 20.4142 6.74997 20 6.74997H12C11.5858 6.74997 11.25 6.41418 11.25 5.99997Z" fill="#FAFAFB"/>
<path d="M4 11.25C3.58579 11.25 3.25 11.5858 3.25 12C3.25 12.4142 3.58579 12.75 4 12.75L20 12.75C20.4142 12.75 20.75 12.4142 20.75 12C20.75 11.5858 20.4142 11.25 20 11.25L4 11.25Z" fill="#FAFAFB"/>
<path d="M4 17.25C3.58579 17.25 3.25 17.5858 3.25 18C3.25 18.4142 3.58579 18.75 4 18.75H20C20.4142 18.75 20.75 18.4142 20.75 18C20.75 17.5858 20.4142 17.25 20 17.25H4Z" fill="#FAFAFB"/>
</svg>
