<svg width="25" height="25" viewBox="0 0 25 25" fill="none" xmlns="http://www.w3.org/2000/svg">
<path fill-rule="evenodd" clip-rule="evenodd" d="M18.6 2.72656H18.5695H6.96953H6.9391H6.93908C6.40493 2.72655 5.95909 2.72654 5.59486 2.7563C5.21498 2.78734 4.85832 2.85445 4.52106 3.0263C4.00361 3.28995 3.58291 3.71064 3.31926 4.22809C3.14742 4.56535 3.08031 4.92201 3.04927 5.30189C3.01951 5.66612 3.01952 6.11197 3.01953 6.64611V6.67656V18.2766V18.307C3.01952 18.8412 3.01951 19.287 3.04927 19.6512C3.08031 20.0311 3.14742 20.3878 3.31926 20.725C3.58291 21.2425 4.00361 21.6632 4.52106 21.9268C4.85832 22.0987 5.21498 22.1658 5.59486 22.1968C5.95909 22.2266 6.40493 22.2266 6.93908 22.2266H6.96953H10.7695C11.1837 22.2266 11.5195 21.8908 11.5195 21.4766C11.5195 21.0624 11.1837 20.7266 10.7695 20.7266H6.96953C6.3971 20.7266 6.01289 20.726 5.71701 20.7018C5.42988 20.6783 5.2926 20.6365 5.20204 20.5903C4.96684 20.4705 4.77562 20.2793 4.65577 20.0441C4.60963 19.9535 4.56775 19.8162 4.54429 19.5291C4.52012 19.2332 4.51953 18.849 4.51953 18.2766V6.67656C4.51953 6.10414 4.52012 5.71992 4.54429 5.42404C4.56775 5.13692 4.60963 4.99964 4.65577 4.90908C4.77562 4.67387 4.96684 4.48265 5.20204 4.36281C5.2926 4.31666 5.42988 4.27478 5.71701 4.25132C6.01289 4.22715 6.3971 4.22656 6.96953 4.22656H18.5695C19.142 4.22656 19.5262 4.22715 19.8221 4.25132C20.1092 4.27478 20.2465 4.31666 20.337 4.36281C20.5722 4.48265 20.7634 4.67387 20.8833 4.90908C20.9294 4.99964 20.9713 5.13692 20.9948 5.42404C21.0189 5.71992 21.0195 6.10414 21.0195 6.67656V10.4766C21.0195 10.8908 21.3553 11.2266 21.7695 11.2266C22.1837 11.2266 22.5195 10.8908 22.5195 10.4766V6.67656V6.64613C22.5195 6.11198 22.5196 5.66613 22.4898 5.30189C22.4588 4.92201 22.3916 4.56535 22.2198 4.22809C21.9562 3.71064 21.5355 3.28995 21.018 3.0263C20.6807 2.85445 20.3241 2.78734 19.9442 2.7563C19.58 2.72654 19.1341 2.72655 18.6 2.72656H18.6ZM12.7695 6.72656C12.3553 6.72656 12.0195 7.06235 12.0195 7.47656V10.6659L8.29986 6.94624C8.00697 6.65334 7.5321 6.65334 7.2392 6.94624C6.94631 7.23913 6.94631 7.714 7.2392 8.0069L10.9589 11.7266H7.76953C7.35532 11.7266 7.01953 12.0624 7.01953 12.4766C7.01953 12.8908 7.35532 13.2266 7.76953 13.2266H12.7695C12.9684 13.2266 13.1592 13.1475 13.2999 13.0069C13.4405 12.8662 13.5195 12.6755 13.5195 12.4766V7.47656C13.5195 7.06235 13.1837 6.72656 12.7695 6.72656ZM18.5695 13.7266H18.6C19.1341 13.7266 19.58 13.7265 19.9442 13.7563C20.3241 13.7873 20.6807 13.8545 21.018 14.0263C21.5355 14.2899 21.9562 14.7106 22.2198 15.2281C22.3916 15.5654 22.4588 15.922 22.4898 16.3019C22.5196 16.6661 22.5195 17.112 22.5195 17.6461V17.6766V18.2766V18.307C22.5195 18.8412 22.5196 19.287 22.4898 19.6512C22.4588 20.0311 22.3916 20.3878 22.2198 20.725C21.9562 21.2425 21.5355 21.6632 21.018 21.9268C20.6807 22.0987 20.3241 22.1658 19.9442 22.1968C19.58 22.2266 19.1341 22.2266 18.6 22.2266H18.5695H17.9695H17.9391C17.4049 22.2266 16.9591 22.2266 16.5949 22.1968C16.215 22.1658 15.8583 22.0987 15.5211 21.9268C15.0036 21.6632 14.5829 21.2425 14.3193 20.725C14.1474 20.3878 14.0803 20.0311 14.0493 19.6512C14.0195 19.287 14.0195 18.8412 14.0195 18.307V18.2766V17.6766V17.6461C14.0195 17.112 14.0195 16.6661 14.0493 16.3019C14.0803 15.922 14.1474 15.5654 14.3193 15.2281C14.5829 14.7106 15.0036 14.2899 15.5211 14.0263C15.8583 13.8545 16.215 13.7873 16.5949 13.7563C16.9591 13.7265 17.4049 13.7266 17.9391 13.7266H17.9695H18.5695ZM20.337 15.3628C20.2465 15.3167 20.1092 15.2748 19.8221 15.2513C19.5262 15.2271 19.142 15.2266 18.5695 15.2266H17.9695C17.3971 15.2266 17.0129 15.2271 16.717 15.2513C16.4299 15.2748 16.2926 15.3167 16.202 15.3628C15.9668 15.4826 15.7756 15.6739 15.6558 15.9091C15.6096 15.9996 15.5677 16.1369 15.5443 16.424C15.5201 16.7199 15.5195 17.1041 15.5195 17.6766V18.2766C15.5195 18.849 15.5201 19.2332 15.5443 19.5291C15.5677 19.8162 15.6096 19.9535 15.6558 20.0441C15.7756 20.2793 15.9668 20.4705 16.202 20.5903C16.2926 20.6365 16.4299 20.6783 16.717 20.7018C17.0129 20.726 17.3971 20.7266 17.9695 20.7266H18.5695C19.142 20.7266 19.5262 20.726 19.8221 20.7018C20.1092 20.6783 20.2465 20.6365 20.337 20.5903C20.5722 20.4705 20.7634 20.2793 20.8833 20.0441C20.9294 19.9535 20.9713 19.8162 20.9948 19.5291C21.0189 19.2332 21.0195 18.849 21.0195 18.2766V17.6766C21.0195 17.1041 21.0189 16.7199 20.9948 16.424C20.9713 16.1369 20.9294 15.9996 20.8833 15.9091C20.7634 15.6739 20.5722 15.4826 20.337 15.3628Z" fill="#F3F4F4"/>
</svg>
