<svg fill="none" height="48" viewBox="0 0 48 48" width="48" xmlns="http://www.w3.org/2000/svg" xmlns:xlink="http://www.w3.org/1999/xlink"><linearGradient id="a" gradientUnits="userSpaceOnUse" x1="24" x2="24" y1="6" y2="42"><stop offset="0" stop-color="#fd853a"/><stop offset="1" stop-color="#fb6514"/></linearGradient><g fill="url(#a)"><path d="m19.4522 25.2304h3.5785c-.0422-.1406-.1357-.3732-.2328-.6147-.0976-.2426-.1988-.4944-.2553-.671-.054-.1681-.1174-.3199-.1828-.4763-.0716-.1712-.1455-.3481-.2118-.5581l-.3806-1.2051c-.127-.4018-.2432-.7894-.3488-1.163-.1057-.3733-.2009-.7151-.2854-1.0253h-.0212c-.1189.571-.2672 1.1356-.4442 1.6914-.1976.6343-.3984 1.2827-.6024 1.9452-.0836.2709-.1685.5734-.253.8747-.1222.4356-.2438.8691-.3602 1.2022z"/><path clip-rule="evenodd" d="m11 6h26c1.6569 0 3 1.34315 3 3v30c0 1.6569-1.3431 3-3 3h-26c-1.65685 0-3-1.3431-3-3v-30c0-1.65685 1.34315-3 3-3zm19.6231 13.4258c-.2156.0086-.4307-.0283-.6311-.1085-.2004-.0801-.3816-.2017-.5318-.3567-.1498-.1617-.2662-.3514-.3424-.5582-.0762-.2069-.1108-.4267-.1018-.647-.0077-.218.0308-.4353.1128-.6375s.2058-.3848.3632-.5359c.1558-.1496.3397-.2667.5411-.3448.2014-.078.4162-.1153.6321-.1097.2199-.0121.4398.0221.6455.1004.2058.0783.3928.199.549.3541.146.1574.2594.3421.3338.5435s.1083.4154.0998.6299c.0088.2211-.0269.4418-.105.6488-.0781.2071-.1971.3963-.3498.5564-.1595.1573-.3498.2798-.559.3599-.2092.08-.4327.1159-.6564.1053zm-1.3689 11.2966v-9.6666c0-.127.056-.1903.1693-.1903h2.4024c.1127 0 .1691.0634.1691.1903v9.6666c0 .1412-.0564.2117-.1691.2115h-2.3814c-.127 0-.1904-.0705-.1903-.2115zm-5.6521-3.242h-4.8839l-.9978 3.2621c-.0135.0562-.0462.106-.0925.1407-.0463.0348-.1033.0523-.1611.0496h-2.4738c-.1409 0-.1903-.0776-.1481-.2326l4.2163-12.177c.0424-.1269.0847-.2713.1267-.4335.0581-.2367.0866-.4796.0848-.7232-.0029-.0201-.001-.0406.0054-.0599.0064-.0192.0172-.0367.0316-.0511.0143-.0144.0318-.0252.0511-.0316.0192-.0064.0397-.0083.0598-.0055h3.3616c.0985 0 .1551.0355.1691.1058l4.8121 13.3971c.0421.1411-.0002.2116-.1269.2115h-2.7487c-.0472.0052-.0947-.007-.1336-.0342-.0389-.0273-.0666-.0677-.0779-.1139z" fill-rule="evenodd"/></g></svg>