<svg width="12" height="12" viewBox="0 0 12 12" fill="none" xmlns="http://www.w3.org/2000/svg">
<path fill-rule="evenodd" clip-rule="evenodd" d="M6 0C9.31371 0 12 2.68629 12 6C12 9.31371 9.31371 12 6 12C2.68629 12 0 9.31371 0 6C0 2.68629 2.68629 0 6 0ZM6 7.5C5.58579 7.5 5.25 7.83579 5.25 8.25C5.25 8.66421 5.58579 9 6 9C6.41421 9 6.75 8.66421 6.75 8.25C6.75 7.83579 6.41421 7.5 6 7.5ZM6.25 3H5.75C5.47386 3 5.25 3.22386 5.25 3.5V6.25C5.25 6.52614 5.47386 6.75 5.75 6.75H6.25C6.52614 6.75 6.75 6.52614 6.75 6.25V3.5C6.75 3.22386 6.52614 3 6.25 3Z" fill="#F7A308"/>
</svg>
