<svg fill="none" height="48" viewBox="0 0 48 48" width="48" xmlns="http://www.w3.org/2000/svg" xmlns:xlink="http://www.w3.org/1999/xlink"><linearGradient id="a" gradientUnits="userSpaceOnUse" x1="24" x2="24" y1="6" y2="42"><stop offset="0" stop-color="#fb6361"/><stop offset="1" stop-color="#f23433"/></linearGradient><g fill="url(#a)"><path d="m18.5 20c-.2761 0-.5.2239-.5.5v2c0 .2761.2239.5.5.5h2c.2761 0 .5-.2239.5-.5v-2c0-.2761-.2239-.5-.5-.5z"/><path clip-rule="evenodd" d="m11 6h26c1.6569 0 3 1.34315 3 3v30c0 1.6569-1.3431 3-3 3h-26c-1.65685 0-3-1.3431-3-3v-30c0-1.65685 1.34315-3 3-3zm9 1h-1v12h-.5c-.8284 0-1.5.6716-1.5 1.5v.5h-8v1h8v.5c0 .8284.6716 1.5 1.5 1.5h.5v17h1v-17h.5c.8284 0 1.5-.6716 1.5-1.5v-.5h17v-1h-17v-.5c0-.8284-.6716-1.5-1.5-1.5h-.5z" fill-rule="evenodd"/></g></svg>