<svg width="24" height="24" viewBox="0 0 24 24" fill="none" xmlns="http://www.w3.org/2000/svg">
<path d="M12 0.25C18.4893 0.250029 23.75 5.51067 23.75 12C23.75 12.2943 23.7381 12.5861 23.7168 12.875C23.2854 12.3573 22.7878 11.8974 22.2363 11.5078C21.9795 6.07552 17.4959 1.75003 12 1.75C6.33908 1.75 1.75 6.33908 1.75 12C1.75 17.4956 6.07499 21.979 11.5068 22.2363C11.8965 22.788 12.3572 23.2853 12.875 23.7168C12.5861 23.7381 12.2943 23.75 12 23.75C5.51065 23.75 0.25 18.4893 0.25 12C0.25 5.51065 5.51065 0.25 12 0.25ZM8 7C8.41419 7.00003 8.75 7.3358 8.75 7.75V14.1895L10.4697 12.4697C10.7626 12.1769 11.2374 12.1768 11.5303 12.4697C11.6884 12.6279 11.7578 12.8389 11.7451 13.0459C11.533 13.3157 11.3382 13.5994 11.1631 13.8965L8.53027 16.5303C8.23739 16.8232 7.76262 16.8231 7.46973 16.5303L4.46973 13.5303C4.17683 13.2374 4.17683 12.7626 4.46973 12.4697C4.76262 12.1769 5.23739 12.1768 5.53027 12.4697L7.25 14.1895V7.75C7.25 7.33579 7.58579 7 8 7ZM16 7.25C16.1017 7.25001 16.1987 7.26999 16.2871 7.30664C16.3756 7.34324 16.4584 7.39782 16.5303 7.46973L19.3076 10.2471C18.9458 10.1752 18.5744 10.1286 18.1963 10.1094L17.7998 10.0996C17.5551 10.0996 17.3131 10.1124 17.0742 10.1348L16.75 9.81055V10.1729C16.2317 10.2436 15.7301 10.3657 15.25 10.5342V9.81055L13.8965 11.1631C13.5994 11.3382 13.3157 11.533 13.0459 11.7451C12.8389 11.7578 12.6279 11.6884 12.4697 11.5303C12.1768 11.2374 12.1768 10.7626 12.4697 10.4697L15.4697 7.46973C15.5416 7.39783 15.6244 7.34324 15.7129 7.30664C15.8013 7.27 15.8984 7.25 16 7.25Z" fill="#F3F4F4"/>
<path fill-rule="evenodd" clip-rule="evenodd" d="M17.8001 11.6C14.3759 11.6 11.6001 14.3758 11.6001 17.8C11.6001 21.2241 14.3759 24 17.8001 24C21.2243 24 24.0001 21.2241 24.0001 17.8C24.0001 14.3758 21.2243 11.6 17.8001 11.6ZM17.05 15.7999C17.05 15.3857 16.7143 15.0499 16.3 15.0499C15.8858 15.0499 15.55 15.3857 15.55 15.7999V19.7999C15.55 20.2141 15.8858 20.5499 16.3 20.5499C16.7143 20.5499 17.05 20.2141 17.05 19.7999V15.7999ZM20.05 15.7999C20.05 15.3857 19.7143 15.0499 19.3 15.0499C18.8858 15.0499 18.55 15.3857 18.55 15.7999V19.7999C18.55 20.2141 18.8858 20.5499 19.3 20.5499C19.7143 20.5499 20.05 20.2141 20.05 19.7999V15.7999Z" fill="#A9ABAD"/>
</svg>
