<svg width="37" height="37" viewBox="0 0 37 37" fill="none" xmlns="http://www.w3.org/2000/svg">
<circle cx="18.5" cy="18.5" r="18.5" fill="#04101E"/>
<path d="M18.5 9C13.2533 9 9 13.2533 9 18.5C9 23.7467 13.2533 28 18.5 28C20.1754 28 21.7495 27.5663 23.1162 26.805C24.3737 27.5485 26.0286 28 27.8417 28L27.8284 27.9725C26.8023 27.4478 26.1 26.3809 26.1 25.15C26.1 24.9335 26.1217 24.7221 26.1631 24.5179C26.1252 24.438 26.0857 24.356 26.0456 24.2727C26.1875 24.0875 26.3227 23.8969 26.4509 23.7012C26.5256 23.5548 26.6119 23.4154 26.7081 23.2837C27.5298 21.8793 28 20.2445 28 18.5C28 13.2533 23.7467 9 18.5 9Z" fill="#FAFAFB"/>
</svg>
