<svg width="22" height="22" viewBox="0 0 22 22" fill="none" xmlns="http://www.w3.org/2000/svg">
<path fill-rule="evenodd" clip-rule="evenodd" d="M9 0.25C4.16751 0.25 0.25 4.16751 0.25 9C0.25 10.1625 0.477104 11.2738 0.890064 12.2907C0.927682 12.3833 0.950306 12.4392 0.966045 12.4811C0.973712 12.5015 0.977377 12.5125 0.978745 12.5167L0.980372 12.525L0.980539 12.526L0.980594 12.527L0.980839 12.5378C0.980557 12.5411 0.979743 12.5495 0.977629 12.5651C0.972834 12.6004 0.965061 12.6476 0.950967 12.7321L0.419968 15.9181C0.39578 16.063 0.370099 16.2169 0.360119 16.3491C0.349332 16.492 0.346906 16.7062 0.442958 16.9301C0.563762 17.2118 0.788205 17.4362 1.06986 17.557C1.2938 17.6531 1.508 17.6507 1.65091 17.6399C1.78314 17.6299 1.93702 17.6042 2.08195 17.58L5.26788 17.049C5.35244 17.0349 5.39956 17.0272 5.43494 17.0224C5.44352 17.0212 5.44992 17.0204 5.45449 17.0199C5.45823 17.0195 5.46075 17.0193 5.46224 17.0192L5.47301 17.0194C5.47469 17.0195 5.47479 17.0195 5.47402 17.0194C5.47325 17.0194 5.47335 17.0193 5.47502 17.0196L5.4833 17.0213C5.48753 17.0226 5.49853 17.0263 5.51893 17.034C5.56084 17.0497 5.61671 17.0723 5.70934 17.1099C6.67725 17.503 7.73079 17.7277 8.83259 17.7484C9.88511 20.1065 12.2504 21.75 14.9995 21.75C15.896 21.75 16.7534 21.5748 17.5381 21.2562C17.6001 21.231 17.6379 21.2157 17.6655 21.2051L17.6924 21.2093L17.7678 21.2217L20.16 21.6204C20.2659 21.6381 20.3893 21.6587 20.4972 21.6669C20.6157 21.6758 20.8121 21.6797 21.0211 21.5901C21.2765 21.4805 21.4801 21.277 21.5896 21.0215C21.6793 20.8125 21.6754 20.6162 21.6664 20.4977C21.6583 20.3897 21.6377 20.2664 21.62 20.1604L21.2213 17.7683L21.2088 17.6929L21.2046 17.666C21.2152 17.6383 21.2305 17.6005 21.2557 17.5386C21.5744 16.7539 21.7495 15.8965 21.7495 15C21.7495 12.251 20.1063 9.88588 17.7484 8.83326C17.6596 4.07772 13.7768 0.25 9 0.25ZM17.6295 10.4553C17.0157 14.122 14.1215 17.0161 10.4546 17.6296C11.363 19.1963 13.0582 20.25 14.9995 20.25C15.6993 20.25 16.3652 20.1135 16.9737 19.8664L17.0039 19.8541C17.1021 19.8139 17.2277 19.7626 17.3457 19.7362C17.4522 19.7123 17.5462 19.7019 17.6554 19.7019C17.7759 19.7018 17.8973 19.7224 17.9884 19.7378L18.0144 19.7421L20.0871 20.0876L19.7417 18.0149L19.7373 17.9889C19.7219 17.8978 19.7014 17.7764 19.7014 17.6558C19.7014 17.5467 19.7118 17.4527 19.7357 17.3462C19.7622 17.2281 19.8135 17.1026 19.8536 17.0043L19.866 16.9741C20.1131 16.3657 20.2495 15.6997 20.2495 15C20.2495 13.0588 19.196 11.3637 17.6295 10.4553ZM1.75 9C1.75 4.99594 4.99594 1.75 9 1.75C13.0041 1.75 16.25 4.99594 16.25 9C16.25 13.0041 13.0041 16.25 9 16.25C8.03425 16.25 7.11438 16.0616 6.27376 15.7202L6.23475 15.7043C6.09907 15.649 5.95252 15.5892 5.81712 15.5588C5.69304 15.531 5.58605 15.5192 5.45888 15.5191C5.32048 15.5191 5.1798 15.5428 5.0546 15.5639L5.02128 15.5694L1.91241 16.0876L2.43056 12.9787L2.43615 12.9454C2.45721 12.8202 2.48087 12.6795 2.48085 12.5411C2.48083 12.414 2.46898 12.307 2.44117 12.1829C2.41082 12.0475 2.35105 11.9009 2.29571 11.7652L2.27982 11.7262C1.93843 10.8856 1.75 9.96575 1.75 9Z" fill="#616366"/>
</svg>
