<svg width="20" height="18" viewBox="0 0 20 18" fill="none" xmlns="http://www.w3.org/2000/svg">
<path d="M9.75 4C10.1642 4 10.5 4.33579 10.5 4.75V8H13.75C14.1642 8 14.5 8.33579 14.5 8.75C14.5 9.16421 14.1642 9.5 13.75 9.5H10.5V12.75C10.5 13.1642 10.1642 13.5 9.75 13.5C9.33579 13.5 9 13.1642 9 12.75V9.5H5.75C5.33579 9.5 5 9.16421 5 8.75C5 8.33579 5.33579 8 5.75 8H9V4.75C9 4.33579 9.33579 4 9.75 4Z" fill="#616366"/>
<path fill-rule="evenodd" clip-rule="evenodd" d="M19.5 8.74998C19.5 3.94299 15.157 0 9.75002 0C4.34303 0 4.02861e-05 3.94299 4.02861e-05 8.74998C4.02861e-05 10.08 0.33104 11.341 0.923038 12.472C1.13304 12.873 1.22804 13.34 1.06904 13.763L0.0480402 16.487C-0.0479596 16.742 0.00204027 17.028 0.17904 17.236C0.35504 17.443 0.630039 17.539 0.897038 17.485L4.99203 16.666C5.27303 16.61 5.56203 16.657 5.82803 16.762C7.07503 17.253 8.40702 17.504 9.75102 17.5C15.158 17.499 19.5 13.556 19.5 8.74998ZM18 8.74998C18 12.78 14.283 16 9.75002 16H9.74702C8.59202 16.004 7.44902 15.788 6.37803 15.366C5.84303 15.156 5.26103 15.083 4.69803 15.195L1.92604 15.75L2.47304 14.29C2.78203 13.467 2.66003 12.554 2.25204 11.776C1.77004 10.856 1.50004 9.83098 1.50004 8.74998C1.50004 4.71999 5.21703 1.5 9.75002 1.5C14.283 1.5 18 4.71999 18 8.74998Z" fill="#616366"/>
</svg>
