<svg fill="none" height="48" viewBox="0 0 48 48" width="48" xmlns="http://www.w3.org/2000/svg" xmlns:xlink="http://www.w3.org/1999/xlink"><linearGradient id="a" gradientUnits="userSpaceOnUse" x1="24" x2="24" y1="8" y2="40"><stop offset="0" stop-color="#fdc121"/><stop offset="1" stop-color="#f7a308"/></linearGradient><path clip-rule="evenodd" d="m8 8c-1.10457 0-2 .89543-2 2v27c0 1.6569 1.34315 3 3 3h30c1.6569 0 3-1.3431 3-3v-23c0-1.6569-1.3431-3-3-3h-11.3431c-1.0609 0-2.0783-.4214-2.8285-1.17157l-.6568-.65686c-.7502-.75014-1.7676-1.17157-2.8285-1.17157zm16 10c4.9911 0 9 3.605 9 8 0 4.394-4.008 7.999-8.9991 8-1.2406.0036-2.4701-.2259-3.6212-.6748-.2455-.096-.5123-.139-.7717-.0878l-3.78.7488c-.2464.0494-.5003-.0384-.6627-.2276-.1634-.1902-.2096-.4517-.121-.6848l.9425-2.4905c.1468-.3868.0591-.8137-.1348-1.1804-.5464-1.034-.852-2.1869-.852-3.4029 0-4.395 4.009-8 9-8z" fill="url(#a)" fill-rule="evenodd"/></svg>