<svg width="183" height="206" viewBox="0 0 183 206" fill="none" xmlns="http://www.w3.org/2000/svg">
<path fill-rule="evenodd" clip-rule="evenodd" d="M17.125 0H165.542C175 0 182.667 7.66713 182.667 17.125V188.375C182.667 197.833 175 205.5 165.542 205.5H17.125C7.66713 205.5 0 197.833 0 188.375V17.125C0 7.66712 7.66713 0 17.125 0ZM99.8958 132.903C99.8958 125.836 104.608 119.637 111.417 117.746L121.403 114.972C123.873 114.285 125.583 112.036 125.583 109.472V76.0287C125.583 74.1882 123.867 72.8288 122.075 73.2504L101.323 78.1333V78.1471L78.5956 83.5538C76.0236 84.1657 74.2083 86.4635 74.2083 89.1072V132.803C74.2083 143.1 67.3168 152.123 57.3829 154.832L56.0593 155.193C49.3878 157.013 42.8125 151.99 42.8125 145.075C42.8125 138.009 47.5245 131.809 54.3332 129.918L64.3195 127.144C66.7901 126.458 68.5 124.208 68.5 121.644V68.3014C68.5 62.845 72.3611 58.1512 77.7152 57.099L101.323 52.4596V52.4458L121.127 48.6736C126.403 47.6686 131.292 51.7136 131.292 57.0849V120.631C131.292 130.928 124.4 139.95 114.466 142.66L113.143 143.021C106.471 144.84 99.8958 139.818 99.8958 132.903Z" fill="url(#paint0_linear_1423_5052)"/>
<defs>
<linearGradient id="paint0_linear_1423_5052" x1="91.3333" y1="0" x2="91.3333" y2="205.5" gradientUnits="userSpaceOnUse">
<stop stop-color="#69A3FB"/>
<stop offset="1" stop-color="#477EF7"/>
</linearGradient>
</defs>
</svg>
