<svg width="22" height="22" viewBox="0 0 22 22" fill="none" xmlns="http://www.w3.org/2000/svg">
<path d="M15.6027 14.6676C15.7617 14.6676 15.89 14.5392 15.89 14.3742V7.62586C15.89 7.46082 15.7617 7.33246 15.6027 7.33246H14.7531C14.6003 7.33246 14.4536 7.39358 14.3435 7.50361L11.1039 10.7861C11.0488 10.8411 10.951 10.8411 10.896 10.7861L7.65635 7.50361C7.54632 7.39358 7.39962 7.33246 7.24681 7.33246H6.39716C6.23823 7.33246 6.10986 7.46082 6.10986 7.62586V14.3742C6.10986 14.5392 6.23823 14.6676 6.39716 14.6676H7.6319C7.79083 14.6676 7.91919 14.5392 7.91919 14.3742V10.5416C7.91919 10.5049 7.96198 10.4927 7.98032 10.511L10.5904 13.1516C10.8166 13.3839 11.1833 13.3839 11.4095 13.1516L14.0196 10.511C14.0379 10.4927 14.0807 10.5049 14.0807 10.5416V14.3742C14.0807 14.5392 14.2091 14.6676 14.368 14.6676H15.6027Z" fill="#F3F4F4"/>
<path fill-rule="evenodd" clip-rule="evenodd" d="M11 0C4.92772 0 0 4.92772 0 11C0 17.0723 4.92772 22 11 22C17.0723 22 22 17.0723 22 11C22 4.92772 17.0723 0 11 0ZM2 11C2 6.03228 6.03228 2 11 2C15.9677 2 20 6.03228 20 11C20 15.9677 15.9677 20 11 20C6.03228 20 2 15.9677 2 11Z" fill="#F3F4F4"/>
</svg>
