<svg width="41" height="40" viewBox="0 0 41 40" fill="none" xmlns="http://www.w3.org/2000/svg">
<circle cx="20.5" cy="20" r="20" fill="#FAFAFB"/>
<path fill-rule="evenodd" clip-rule="evenodd" d="M11.5 23C13.1569 23 14.5 21.6569 14.5 20C14.5 18.3431 13.1569 17 11.5 17C9.84315 17 8.5 18.3431 8.5 20C8.5 21.6569 9.84315 23 11.5 23ZM23.5 20C23.5 21.6569 22.1569 23 20.5 23C18.8431 23 17.5 21.6569 17.5 20C17.5 18.3431 18.8431 17 20.5 17C22.1569 17 23.5 18.3431 23.5 20ZM32.5 20C32.5 21.6569 31.1569 23 29.5 23C27.8431 23 26.5 21.6569 26.5 20C26.5 18.3431 27.8431 17 29.5 17C31.1569 17 32.5 18.3431 32.5 20Z" fill="#303233"/>
</svg>
