<svg width="22" height="20" viewBox="0 0 22 20" fill="none" xmlns="http://www.w3.org/2000/svg">
<path d="M9.99986 11C11.1044 11 11.9999 10.1046 11.9999 9C11.9999 7.89543 11.1044 7 9.99986 7C8.8953 7 7.99986 7.89543 7.99986 9C7.99986 10.1046 8.8953 11 9.99986 11Z" fill="#303233"/>
<path d="M13.4027 15C13.7033 15 13.9383 14.735 13.8592 14.4449C13.3963 12.7477 11.8438 11.5 9.99986 11.5C8.15592 11.5 6.60337 12.7477 6.14048 14.4449C6.06138 14.735 6.2963 15 6.59702 15H13.4027Z" fill="#303233"/>
<path d="M11.8805 10.6472C12.2662 10.2073 12.4999 9.63095 12.4999 9C12.4999 8.36905 12.2662 7.79269 11.8805 7.35278C11.7633 7.21912 11.8221 7 11.9999 7C13.1044 7 13.9999 7.89543 13.9999 9C13.9999 10.1046 13.1044 11 11.9999 11C11.8221 11 11.7633 10.7809 11.8805 10.6472Z" fill="#303233"/>
<path d="M14.9157 15C14.6629 15 14.4527 14.8104 14.3994 14.5633C14.1562 13.4365 13.5251 12.5023 12.661 11.8699C12.5204 11.7669 12.5912 11.5396 12.7623 11.5726C14.2611 11.8618 15.4618 12.9877 15.8592 14.4449C15.9384 14.735 15.7034 15 15.4027 15H14.9157Z" fill="#303233"/>
<path fill-rule="evenodd" clip-rule="evenodd" d="M3 0.25C1.48122 0.25 0.25 1.48122 0.25 3V17C0.25 18.5188 1.48122 19.75 3 19.75H19C20.5188 19.75 21.75 18.5188 21.75 17V5C21.75 3.48122 20.5188 2.25 19 2.25H12.8284C12.2317 2.25 11.6594 2.01295 11.2374 1.59099L10.409 0.762563C10.0808 0.434375 9.6357 0.25 9.17157 0.25H3ZM1.75 5C1.75 4.30964 2.30964 3.75 3 3.75H19C19.6904 3.75 20.25 4.30964 20.25 5V17C20.25 17.6904 19.6904 18.25 19 18.25H3C2.30964 18.25 1.75 17.6904 1.75 17V5Z" fill="#303233"/>
</svg>
