<svg width="25" height="24" viewBox="0 0 25 24" fill="none" xmlns="http://www.w3.org/2000/svg">
<path fill-rule="evenodd" clip-rule="evenodd" d="M11.3564 1.46967C11.6493 1.17678 12.1242 1.17678 12.417 1.46967L15.417 4.46967C15.7099 4.76256 15.7099 5.23744 15.417 5.53033L12.417 8.53033C12.1242 8.82322 11.6493 8.82322 11.3564 8.53033C11.0635 8.23744 11.0635 7.76256 11.3564 7.46967L13.0761 5.75H9.88672C6.43494 5.75 3.63672 8.54822 3.63672 12C3.63672 14.4921 5.09524 16.645 7.20854 17.6489C7.58268 17.8267 7.7419 18.274 7.56416 18.6482C7.38643 19.0223 6.93904 19.1815 6.5649 19.0038C3.94831 17.7608 2.13672 15.0927 2.13672 12C2.13672 7.71979 5.60651 4.25 9.88672 4.25H13.0761L11.3564 2.53033C11.0635 2.23744 11.0635 1.76256 11.3564 1.46967ZM18.2093 5.35181C18.387 4.97767 18.8344 4.81845 19.2085 4.99619C21.8251 6.23919 23.6367 8.90729 23.6367 12C23.6367 16.2802 20.1669 19.75 15.8867 19.75H12.6974L14.417 21.4697C14.7099 21.7626 14.7099 22.2374 14.417 22.5303C14.1242 22.8232 13.6493 22.8232 13.3564 22.5303L10.3564 19.5303C10.0635 19.2374 10.0635 18.7626 10.3564 18.4697L13.3564 15.4697C13.6493 15.1768 14.1242 15.1768 14.417 15.4697C14.7099 15.7626 14.7099 16.2374 14.417 16.5303L12.6974 18.25H15.8867C19.3385 18.25 22.1367 15.4518 22.1367 12C22.1367 9.50792 20.6782 7.355 18.5649 6.35108C18.1908 6.17334 18.0315 5.72596 18.2093 5.35181Z" fill="#FAFAFA"/>
</svg>
