<svg fill="none" height="48" viewBox="0 0 48 48" width="48" xmlns="http://www.w3.org/2000/svg" xmlns:xlink="http://www.w3.org/1999/xlink"><linearGradient id="a" gradientUnits="userSpaceOnUse" x1="24" x2="24" y1="6" y2="42"><stop offset="0" stop-color="#fb6361"/><stop offset="1" stop-color="#f23433"/></linearGradient><g fill="url(#a)"><path d="m22.7029 23.8159v-3.7406h1.0628c1.4393 0 2.159.6165 2.159 1.8494 0 1.2608-.7197 1.8912-2.159 1.8912z"/><path clip-rule="evenodd" d="m11 6h26c1.6569 0 3 1.34315 3 3v30c0 1.6569-1.3431 3-3 3h-26c-1.65685 0-3-1.3431-3-3v-30c0-1.65685 1.34315-3 3-3zm11.7029 24v-4.1339h1.2887c1.4505 0 2.6095-.3724 3.477-1.1171.8675-.7448 1.3013-1.7197 1.3013-2.9247 0-2.5496-1.5119-3.8243-4.5356-3.8243h-4.2343v12z" fill-rule="evenodd"/></g></svg>