<svg width="10" height="16" viewBox="0 0 10 16" fill="none" xmlns="http://www.w3.org/2000/svg">
<path d="M9.49561 8.00684C9.49561 8.17285 9.4624 8.33057 9.396 8.47998C9.33512 8.62386 9.23551 8.76221 9.09717 8.89502L2.71387 15.1455C2.49805 15.3558 2.23519 15.4609 1.92529 15.4609C1.72607 15.4609 1.54069 15.4111 1.36914 15.3115C1.19759 15.2119 1.05924 15.0791 0.954102 14.9131C0.854492 14.7471 0.804688 14.5589 0.804688 14.3486C0.804688 14.0443 0.920898 13.7731 1.15332 13.5352L6.83936 8.00684L1.15332 2.47852C0.920898 2.24609 0.804688 1.97493 0.804688 1.66504C0.804688 1.46029 0.854492 1.2749 0.954102 1.10889C1.05924 0.937337 1.19759 0.801758 1.36914 0.702148C1.54069 0.602539 1.72607 0.552734 1.92529 0.552734C2.23519 0.552734 2.49805 0.657878 2.71387 0.868164L9.09717 7.11865C9.22998 7.25146 9.32959 7.38981 9.396 7.53369C9.4624 7.67757 9.49561 7.83529 9.49561 8.00684Z" fill="#616366"/>
</svg>
