<svg width="24" height="22" viewBox="0 0 24 22" fill="none" xmlns="http://www.w3.org/2000/svg">
<path fill-rule="evenodd" clip-rule="evenodd" d="M8.7679 0.25H15.2321C16.0449 0.249993 16.7006 0.249988 17.2315 0.293364C17.7781 0.338026 18.2582 0.432386 18.7025 0.658726C19.4081 1.01825 19.9817 1.59193 20.3413 2.29754C20.5676 2.74176 20.662 3.2219 20.7066 3.76853C20.75 4.29944 20.75 4.95505 20.75 5.76788V10.25H23C23.4142 10.25 23.75 10.5858 23.75 11C23.75 11.4142 23.4142 11.75 23 11.75H1C0.585786 11.75 0.25 11.4142 0.25 11C0.25 10.5858 0.585786 10.25 1 10.25H3.25V5.76789C3.24999 4.95505 3.24999 4.29944 3.29336 3.76853C3.33803 3.2219 3.43239 2.74176 3.65873 2.29754C4.01825 1.59193 4.59193 1.01825 5.29754 0.658726C5.74175 0.432386 6.2219 0.338026 6.76853 0.293364C7.29944 0.249988 7.95507 0.249993 8.7679 0.25ZM4.75 10.25H19.25V5.8C19.25 4.94755 19.2494 4.35331 19.2116 3.89068C19.1745 3.43681 19.1054 3.17604 19.0048 2.97852C18.789 2.55516 18.4448 2.21095 18.0215 1.99524C17.824 1.8946 17.5632 1.82547 17.1093 1.78838C16.6467 1.75058 16.0525 1.75 15.2 1.75H8.8C7.94755 1.75 7.35331 1.75058 6.89068 1.78838C6.4368 1.82547 6.17604 1.8946 5.97852 1.99524C5.55516 2.21095 5.21095 2.55516 4.99524 2.97852C4.8946 3.17604 4.82547 3.43681 4.78838 3.89068C4.75058 4.35331 4.75 4.94755 4.75 5.8V10.25Z" fill="#303233"/>
<path d="M20 18.25C20.4142 18.25 20.75 18.5858 20.75 19C20.75 20.5188 19.5188 21.75 18 21.75C17.5858 21.75 17.25 21.4142 17.25 21C17.25 20.5858 17.5858 20.25 18 20.25C18.6904 20.25 19.25 19.6904 19.25 19C19.25 18.5858 19.5858 18.25 20 18.25Z" fill="#303233"/>
<path d="M4 18.25C4.41421 18.25 4.75 18.5858 4.75 19C4.75 19.6904 5.30964 20.25 6 20.25C6.41421 20.25 6.75 20.5858 6.75 21C6.75 21.4142 6.41421 21.75 6 21.75C4.48122 21.75 3.25 20.5188 3.25 19C3.25 18.5858 3.58579 18.25 4 18.25Z" fill="#303233"/>
<path d="M4.75 14C4.75 13.5858 4.41421 13.25 4 13.25C3.58579 13.25 3.25 13.5858 3.25 14V15C3.25 15.4142 3.58579 15.75 4 15.75C4.41421 15.75 4.75 15.4142 4.75 15V14Z" fill="#303233"/>
<path d="M20 13.25C20.4142 13.25 20.75 13.5858 20.75 14V15C20.75 15.4142 20.4142 15.75 20 15.75C19.5858 15.75 19.25 15.4142 19.25 15V14C19.25 13.5858 19.5858 13.25 20 13.25Z" fill="#303233"/>
<path d="M10 20.25C9.58579 20.25 9.25 20.5858 9.25 21C9.25 21.4142 9.58579 21.75 10 21.75H14C14.4142 21.75 14.75 21.4142 14.75 21C14.75 20.5858 14.4142 20.25 14 20.25H10Z" fill="#303233"/>
</svg>
