<svg width="41" height="40" viewBox="0 0 41 40" fill="none" xmlns="http://www.w3.org/2000/svg">
<circle cx="20.5" cy="20" r="20" fill="#04101E"/>
<path opacity="0.7" fill-rule="evenodd" clip-rule="evenodd" d="M26 21.5C27.9328 21.5 29.5 19.9328 29.5 18C29.5 16.0672 27.9328 14.5 26 14.5C24.0672 14.5 22.5 16.0672 22.5 18C22.5 19.9328 24.0672 21.5 26 21.5ZM31.4816 26.0619C31.5883 26.5435 31.2165 27 30.7433 27H21.2567C20.7835 27 20.4117 26.5435 20.5184 26.0619C21.0945 23.4486 23.3274 21.5 26.0004 21.5C28.6726 21.5 30.9055 23.4486 31.4816 26.0619Z" fill="#FAFAFB"/>
<path fill-rule="evenodd" clip-rule="evenodd" d="M17.5 21C20.2608 21 22.5 18.7608 22.5 16C22.5 13.2392 20.2608 11 17.5 11C14.7392 11 12.5 13.2392 12.5 16C12.5 18.7608 14.7392 21 17.5 21ZM9.50503 28.1016C9.45193 28.5784 9.82603 29 10.3096 29H24.6904C25.174 29 25.5481 28.5784 25.495 28.1016C25.0452 24.1064 21.6381 21 17.5004 21C13.3619 21 9.95476 24.1064 9.50503 28.1016Z" fill="#FAFAFB"/>
</svg>
