<svg width="22" height="22" viewBox="0 0 22 22" fill="none" xmlns="http://www.w3.org/2000/svg">
<path d="M1.53033 0.46967C1.23744 0.176777 0.762563 0.176777 0.46967 0.46967C0.176777 0.762563 0.176777 1.23744 0.46967 1.53033L4.41155 5.47221C2.00849 6.16148 0.25 8.37538 0.25 11C0.25 14.1756 2.82436 16.75 6 16.75H8C8.41421 16.75 8.75 16.4142 8.75 16C8.75 15.5858 8.41421 15.25 8 15.25H6C3.65279 15.25 1.75 13.3472 1.75 11C1.75 8.75372 3.49266 6.91447 5.69978 6.76044L9.18934 10.25H6C5.58579 10.25 5.25 10.5858 5.25 11C5.25 11.4142 5.58579 11.75 6 11.75H10.6893L20.4697 21.5303C20.7626 21.8232 21.2374 21.8232 21.5303 21.5303C21.8232 21.2374 21.8232 20.7626 21.5303 20.4697L1.53033 0.46967Z" fill="#303233"/>
<path d="M14 5.25C13.5858 5.25 13.25 5.58579 13.25 6C13.25 6.41421 13.5858 6.75 14 6.75H16C18.3472 6.75 20.25 8.65279 20.25 11C20.25 12.1756 19.7736 13.2386 19.0016 14.0088C18.7084 14.3013 18.7078 14.7762 19.0003 15.0695C19.2929 15.3627 19.7678 15.3633 20.061 15.0707C21.1036 14.0306 21.75 12.5901 21.75 11C21.75 7.82436 19.1756 5.25 16 5.25H14Z" fill="#303233"/>
<path d="M15.99 10.25C15.5758 10.25 15.24 10.5858 15.24 11C15.24 11.4142 15.5758 11.75 15.99 11.75H16C16.4142 11.75 16.75 11.4142 16.75 11C16.75 10.5858 16.4142 10.25 16 10.25H15.99Z" fill="#303233"/>
</svg>
