<svg fill="none" height="48" viewBox="0 0 48 48" width="48" xmlns="http://www.w3.org/2000/svg" xmlns:xlink="http://www.w3.org/1999/xlink"><linearGradient id="a" gradientUnits="userSpaceOnUse" x1="24" x2="24" y1="6" y2="42"><stop offset="0" stop-color="#fdc121"/><stop offset="1" stop-color="#f7a308"/></linearGradient><path clip-rule="evenodd" d="m11 6h26c1.6569 0 3 1.34315 3 3v30c0 1.6569-1.3431 3-3 3h-26c-1.65685 0-3-1.3431-3-3v-30c0-1.65685 1.34315-3 3-3zm5.1949 23.6388 13.1836-13.1836 1.728 1.7165-13.1894 13.1893c-.0556.0557-.1177.1046-.1848.1457l-3.4563 2.1169c-.224.1373-.481-.1197-.3437-.3437l2.1169-3.4563c.0411-.0671.09-.1291.1457-.1848zm17.2218-13.7773-1.6772 1.6772-1.7223-1.7222 1.6772-1.6773c.4756-.4755 1.2467-.4755 1.7223 0 .4755.4756.4755 1.2467 0 1.7223zm-19.9167 19.1385c-.2761 0-.5.2239-.5.5s.2239.5.5.5h25c.2761 0 .5-.2239.5-.5s-.2239-.5-.5-.5z" fill="url(#a)" fill-rule="evenodd"/></svg>