<svg fill="none" height="48" viewBox="0 0 48 48" width="48" xmlns="http://www.w3.org/2000/svg" xmlns:xlink="http://www.w3.org/1999/xlink"><linearGradient id="a" gradientUnits="userSpaceOnUse" x1="24" x2="24" y1="6" y2="42"><stop offset="0" stop-color="#888d95"/><stop offset="1" stop-color="#6e747d"/></linearGradient><g fill="url(#a)"><path d="m22.6042 19.036 2.9848 7.1118h-6.0475z"/><path d="m33.5 31c.8284 0 1.5-.6716 1.5-1.5s-.6716-1.5-1.5-1.5-1.5.6716-1.5 1.5.6716 1.5 1.5 1.5z"/><path clip-rule="evenodd" d="m11 6h26c1.6569 0 3 1.34315 3 3v30c0 1.6569-1.3431 3-3 3h-26c-1.65685 0-3-1.3431-3-3v-30c0-1.65685 1.34315-3 3-3zm8.1391 21.1081h6.8133l1.0642 2.5307c.3461.8219.5191 1.4232.5191 1.8039 0 .2855-.1233.5277-.3699.7267-.2465.199-.7202.3158-1.421.3504v.4802h6.943v-.4802c-.7181-.0432-1.2783-.2401-1.6806-.5905s-.85-1.1139-1.3432-2.2905l-6.1254-14.6388h-.4542l-6.1904 14.4831c-.5364 1.2718-1.0252 2.1153-1.4665 2.5306-.2163.2076-.6921.3763-1.4275.5061v.4802h5.5415v-.4802c-.8479-.0605-1.3995-.1925-1.6547-.3958s-.3828-.4391-.3828-.7073c0-.3374.147-.8478.4412-1.5313zm17.8609 6.8919h-26v1h26zm-3.5-2c1.3807 0 2.5-1.1193 2.5-2.5s-1.1193-2.5-2.5-2.5-2.5 1.1193-2.5 2.5 1.1193 2.5 2.5 2.5z" fill-rule="evenodd"/></g></svg>