<svg width="22" height="14" viewBox="0 0 22 14" fill="none" xmlns="http://www.w3.org/2000/svg">
<path fill-rule="evenodd" clip-rule="evenodd" d="M15.2826 1.8122C15.0437 1.75485 14.7812 1.75003 14.0118 1.75003H5.8C4.94755 1.75003 4.35331 1.75062 3.89068 1.78841C3.4368 1.8255 3.17604 1.89463 2.97852 1.99527C2.55516 2.21098 2.21095 2.55519 1.99524 2.97855C1.8946 3.17607 1.82547 3.43684 1.78838 3.89071C1.75058 4.35334 1.75 4.94758 1.75 5.80003V8.20003C1.75 9.05249 1.75058 9.64672 1.78838 10.1094C1.82547 10.5632 1.8946 10.824 1.99524 11.0215C2.21095 11.4449 2.55516 11.7891 2.97852 12.0048C3.17604 12.1054 3.4368 12.1746 3.89068 12.2117C4.35331 12.2494 4.94755 12.25 5.8 12.25H14.0118C14.7812 12.25 15.0437 12.2452 15.2826 12.1879C15.5122 12.1327 15.7317 12.0418 15.933 11.9185C16.1424 11.7901 16.3315 11.6079 16.8756 11.0638L19.2069 8.73244C19.6117 8.32768 19.883 8.05558 20.0751 7.82927C20.2615 7.60966 20.329 7.48297 20.3604 7.3863C20.442 7.13525 20.442 6.86481 20.3604 6.61376C20.329 6.5171 20.2615 6.39041 20.0751 6.17079C19.883 5.94448 19.6117 5.67239 19.2069 5.26762L16.8756 2.93625C16.3315 2.39215 16.1424 2.20995 15.933 2.08159C15.7317 1.95823 15.5122 1.86732 15.2826 1.8122ZM14.0972 0.250016C14.7488 0.249827 15.1998 0.249697 15.6328 0.353645C16.0154 0.445508 16.3812 0.597024 16.7167 0.802631C17.0964 1.03529 17.4152 1.3543 17.8758 1.81516C17.8957 1.83504 17.9158 1.85518 17.9362 1.87559L20.2891 4.22851C20.6668 4.60619 20.9821 4.92144 21.2186 5.20003C21.4653 5.49059 21.67 5.79024 21.787 6.15024C21.9664 6.70255 21.9664 7.29751 21.787 7.84983C21.67 8.20982 21.4653 8.50947 21.2186 8.80004C20.9821 9.07862 20.6668 9.39387 20.2891 9.77156L17.9362 12.1245C17.9158 12.1449 17.8957 12.165 17.8758 12.1849C17.4152 12.6458 17.0964 12.9648 16.7167 13.1974C16.3812 13.403 16.0154 13.5546 15.6328 13.6464C15.1998 13.7504 14.7488 13.7502 14.0972 13.75C14.0691 13.75 14.0406 13.75 14.0118 13.75H5.76788C4.95505 13.75 4.29944 13.75 3.76853 13.7067C3.2219 13.662 2.74175 13.5676 2.29754 13.3413C1.59193 12.9818 1.01825 12.4081 0.658726 11.7025C0.432385 11.2583 0.338026 10.7781 0.293364 10.2315C0.249987 9.70059 0.249993 9.04498 0.25 8.23214V5.76793C0.249993 4.95509 0.249987 4.29947 0.293364 3.76856C0.338026 3.22193 0.432385 2.74179 0.658726 2.29757C1.01825 1.59196 1.59193 1.01828 2.29754 0.658758C2.74175 0.432417 3.2219 0.338058 3.76853 0.293396C4.29944 0.250018 4.95506 0.250025 5.7679 0.250032L14.0118 0.250032C14.0406 0.250032 14.0691 0.250024 14.0972 0.250016Z" fill="#303233"/>
</svg>
