<svg width="25" height="24" viewBox="0 0 25 24" fill="none" xmlns="http://www.w3.org/2000/svg">
<path d="M6.84119 6.34511C8.29015 4.89514 10.2896 4 12.5 4C16.9183 4 20.5 7.58172 20.5 12C20.5 15.806 17.8412 18.9934 14.2787 19.8018C13.7401 19.924 13.4026 20.4597 13.5248 20.9983C13.647 21.5369 14.1827 21.8744 14.7213 21.7522C19.1747 20.7416 22.5 16.7603 22.5 12C22.5 6.47715 18.0228 2 12.5 2C9.7376 2 7.23522 3.12139 5.42649 4.93138C4.78685 5.57146 4.10188 6.36248 3.5 7.09444V4C3.5 3.44772 3.05228 3 2.5 3C1.94772 3 1.5 3.44772 1.5 4V10C1.5 10.5523 1.94772 11 2.5 11H8.5C9.05228 11 9.5 10.5523 9.5 10C9.5 9.44772 9.05228 9 8.5 9H4.53079C5.22302 8.13128 6.08346 7.10335 6.84119 6.34511Z" fill="white"/>
<path d="M7.46777 15.3461H11.0136V14H6.06695V18.684H7.53343C7.62098 18.4286 7.7669 18.2243 7.97119 18.0711C8.17547 17.9179 8.43083 17.8413 8.73726 17.8413C9.16772 17.8413 9.49239 17.9617 9.71127 18.2025C9.93744 18.4359 10.0505 18.7788 10.0505 19.2312C10.0505 19.6762 9.94109 20.0337 9.72221 20.3037C9.50333 20.5736 9.17867 20.7086 8.74821 20.7086C8.3907 20.7086 8.09522 20.6211 7.86175 20.446C7.63557 20.2709 7.48966 20.0374 7.42399 19.7456H5.93562C6.00128 20.4168 6.28218 20.9603 6.7783 21.3762C7.27442 21.7921 7.93836 22 8.77009 22C9.6529 22 10.3314 21.7446 10.8057 21.2339C11.2872 20.7232 11.528 20.0483 11.528 19.2093C11.528 18.757 11.4441 18.3338 11.2762 17.9398C11.1084 17.5385 10.8385 17.2102 10.4664 16.9549C10.0943 16.6995 9.61642 16.5718 9.03275 16.5718C8.71173 16.5718 8.40894 16.6338 8.1244 16.7579C7.83986 16.8746 7.62098 17.0278 7.46777 17.2175V15.3461Z" fill="white"/>
<path d="M1.5 14.0219V15.4337H2.56156V22H4.13748V14.0219H1.5Z" fill="white"/>
</svg>
