<svg width="32" height="32" viewBox="0 0 32 32" fill="none" xmlns="http://www.w3.org/2000/svg">
<path d="M8.21905 8.22452C10.211 6.23123 12.9607 5 15.9999 5C22.0751 5 26.9999 9.92487 26.9999 16C26.9999 21.2337 23.3438 25.6159 18.4453 26.7274C17.9067 26.8496 17.5692 27.3853 17.6914 27.9239C17.8136 28.4625 18.3493 28.8001 18.8879 28.6779C24.6773 27.3642 28.9999 22.1881 28.9999 16C28.9999 8.8203 23.1796 3 15.9999 3C12.4087 3 9.15604 4.45748 6.80435 6.81079C5.74528 7.8706 4.58692 9.24993 3.66659 10.3993V5.33333C3.66659 4.78105 3.21887 4.33333 2.66659 4.33333C2.1143 4.33333 1.66659 4.78105 1.66659 5.33333V13.3333C1.66659 13.8856 2.1143 14.3333 2.66659 14.3333H10.6666C11.2189 14.3333 11.6666 13.8856 11.6666 13.3333C11.6666 12.781 11.2189 12.3333 10.6666 12.3333H4.68634C4.80417 12.1828 4.92825 12.0254 5.05752 11.8628C5.99166 10.6876 7.17449 9.2698 8.21905 8.22452Z" fill="#F3F4F4"/>
<path d="M8.62349 20.0712H13.5118V18.612H7.09135V24.7552H8.66727C8.81319 24.3466 9.04666 24.0256 9.36768 23.7921C9.69843 23.5489 10.1021 23.4273 10.5788 23.4273C11.2598 23.4273 11.7753 23.617 12.1255 23.9964C12.4758 24.3661 12.6509 24.9011 12.6509 25.6015C12.6509 26.2922 12.4758 26.8467 12.1255 27.265C11.7851 27.6833 11.2695 27.8924 10.5788 27.8924C10.0243 27.8924 9.56224 27.7611 9.19258 27.4985C8.82292 27.2261 8.58458 26.8613 8.47757 26.4041H6.85788C6.98434 27.2698 7.36859 27.9654 8.01063 28.4907C8.65268 29.016 9.50387 29.2787 10.5642 29.2787C11.3619 29.2787 12.0331 29.1182 12.5779 28.7971C13.1324 28.4761 13.5458 28.0384 13.8182 27.4839C14.1003 26.9196 14.2414 26.2776 14.2414 25.5577C14.2414 24.9643 14.1295 24.4001 13.9058 23.8651C13.6917 23.33 13.3269 22.8874 12.8114 22.5372C12.3055 22.187 11.644 22.0119 10.8269 22.0119C10.3697 22.0119 9.93676 22.1043 9.52819 22.2892C9.12934 22.474 8.82778 22.7026 8.62349 22.975V20.0712Z" fill="#F3F4F4"/>
<path d="M1.33325 18.6412V20.1587H2.6903V29.2787H4.36836V18.6412H1.33325Z" fill="#F3F4F4"/>
</svg>
