<svg width="28" height="28" viewBox="0 0 28 28" fill="none" xmlns="http://www.w3.org/2000/svg">
<path fill-rule="evenodd" clip-rule="evenodd" d="M6.5623 15.4373C6.45785 15.3443 6.29734 15.355 6.20624 15.4612L5.56025 16.2142C5.47015 16.3192 5.4825 16.4775 5.58781 16.5673L9.83781 20.1903C9.93126 20.2699 10.0687 20.2699 10.1622 20.1903L14.4122 16.5673C14.5175 16.4775 14.5298 16.3192 14.4397 16.2142L13.7937 15.4612C13.7026 15.355 13.5421 15.3443 13.4377 15.4373L10.7409 17.8404V7C10.7409 6.86193 10.6289 6.75 10.4909 6.75H9.50912C9.37105 6.75 9.25912 6.86193 9.25912 7V17.8404L6.5623 15.4373Z" fill="#F3F4F4"/>
<path fill-rule="evenodd" clip-rule="evenodd" d="M17.5091 9.602L15.896 10.876L15.25 10.123L18 8L20.75 10.123L20.104 10.876L18.4909 9.602V16H17.5091V9.602Z" fill="#A9ABAD"/>
</svg>
