<svg fill="none" height="48" viewBox="0 0 48 48" width="48" xmlns="http://www.w3.org/2000/svg" xmlns:xlink="http://www.w3.org/1999/xlink"><linearGradient id="a" gradientUnits="userSpaceOnUse" x1="24" x2="24" y1="6" y2="42"><stop offset="0" stop-color="#fd6f90"/><stop offset="1" stop-color="#f63d6b"/></linearGradient><g fill="url(#a)"><path d="m28.6213 28.5941v-5.772c-.1527-.0303-.3071-.0514-.4623-.0634-.144-.0145-.2886-.0216-.4333-.0212-.5131-.0051-1.0201.1108-1.4799.3383-.4928.2348-.9035.6124-1.1788 1.0837-.2753.4714-.4024 1.0147-.3648 1.5592-.0103.4609.065.9197.2221 1.3531.1279.3492.3298.6666.5919.9304.2512.2425.5552.4233.8881.5284.3517.1139.7193.1711 1.089.1693.197 0 .3806-.007.5497-.0212.1947-.0122.3882-.0405.5783-.0846z"/><path clip-rule="evenodd" d="m11 6h26c1.6569 0 3 1.34315 3 3v30c0 1.6569-1.3431 3-3 3h-26c-1.65685 0-3-1.3431-3-3v-30c0-1.65685 1.34315-3 3-3zm16.2182 25.2159c-.9732.0147-1.9374-.1875-2.8226-.5921-.8246-.3816-1.5138-1.0046-1.9766-1.7865-.5086-.9128-.7573-1.9476-.719-2.9918-.0079-.9704.2401-1.9257.719-2.7697.4932-.8598 1.2187-1.5632 2.0932-2.0297 1.0233-.533 2.166-.795 3.3192-.7611.0703 0 .1619.0035.2749.0106.0361.0023.0859.005.1422.008.1193.0064.2672.0143.3728.0237v-4.0027c0-.0984.0422-.1479.127-.1479h2.4514c.0172-.0024.0348-.0008.0513.0047s.0314.0148.0437.0271.0216.0273.0271.0438c.0055.0164.0071.034.0046.0512v12.3329c0 .2398.0106.5006.0318.7824.0212.2821.0388.5357.0527.761.0027.0439-.008.0877-.0307.1254-.0226.0378-.0562.0678-.0962.0861-.6532.2859-1.336.4986-2.036.6343-.6696.1236-1.3489.1873-2.0298.1903zm-7.851-13.7484v13.25c0 .1411-.0634.2116-.1903.2115h-2.4191c-.1133 0-.1691-.0703-.1691-.2115v-13.25c0-.1128.0631-.1693.1903-.1693h2.4191c.023-.0032.0464-.0011.0684.0062.022.0074.042.0198.0584.0362s.0288.0364.0361.0584c.0074.0221.0095.0455.0062.0685z" fill-rule="evenodd"/></g></svg>