<svg width="16" height="17" viewBox="0 0 16 17" fill="none" xmlns="http://www.w3.org/2000/svg">
<path fill-rule="evenodd" clip-rule="evenodd" d="M15.7803 0.71967C15.4874 0.426777 15.0126 0.426777 14.7197 0.71967L8 7.43934L1.28033 0.71967L1.22337 0.668185C0.928788 0.427921 0.494257 0.445083 0.21967 0.71967C-0.0732233 1.01256 -0.0732233 1.48744 0.21967 1.78033L6.93934 8.5L0.21967 15.2197L0.168185 15.2766C-0.0720792 15.5712 -0.0549175 16.0057 0.21967 16.2803C0.512563 16.5732 0.987437 16.5732 1.28033 16.2803L8 9.56066L14.7197 16.2803L14.7766 16.3318C15.0712 16.5721 15.5057 16.5549 15.7803 16.2803C16.0732 15.9874 16.0732 15.5126 15.7803 15.2197L9.06066 8.5L15.7803 1.78033L15.8318 1.72337C16.0721 1.42879 16.0549 0.994257 15.7803 0.71967Z" fill="#D1D1D1"/>
</svg>
