<svg width="14" height="14" viewBox="0 0 14 14" fill="none" xmlns="http://www.w3.org/2000/svg">
<path fill-rule="evenodd" clip-rule="evenodd" d="M3.9096 4.14795e-07H2.0904C1.8224 -8.40805e-06 1.59118 -1.60187e-05 1.40085 0.0157899C1.19991 0.0324773 1.00017 0.0693356 0.80854 0.168881C0.534575 0.311194 0.311194 0.534575 0.168881 0.80854C0.0693356 1.00017 0.0324773 1.19991 0.0157899 1.40085C-1.60187e-05 1.59118 -8.40805e-06 1.82238 4.14795e-07 2.09038V3.9096C-8.40805e-06 4.17761 -1.60187e-05 4.40882 0.0157899 4.59915C0.0324773 4.80009 0.0693356 4.99983 0.168881 5.19146C0.311194 5.46543 0.534575 5.68881 0.80854 5.83112C1.00017 5.93067 1.19991 5.96753 1.40085 5.98421C1.59118 6.00002 1.82238 6.00001 2.09039 6H3.90961C4.17762 6.00001 4.40882 6.00002 4.59915 5.98421C4.80009 5.96753 4.99983 5.93067 5.19146 5.83112C5.46543 5.68881 5.68881 5.46543 5.83112 5.19146C5.93067 4.99983 5.96753 4.80009 5.98421 4.59915C6.00002 4.40882 6.00001 4.17762 6 3.90961V2.09039C6.00001 1.82238 6.00002 1.59118 5.98421 1.40085C5.96753 1.19991 5.93067 1.00017 5.83112 0.80854C5.68881 0.534575 5.46543 0.311194 5.19146 0.168881C4.99983 0.0693356 4.80009 0.0324773 4.59915 0.0157899C4.40882 -1.60187e-05 4.17761 -8.40805e-06 3.9096 4.14795e-07ZM1.26951 1.05629C1.29462 1.04325 1.34563 1.02382 1.48361 1.01236C1.62758 1.0004 1.81686 1 2.11 1H3.89C4.18314 1 4.37242 1.0004 4.51639 1.01236C4.65438 1.02382 4.70538 1.04325 4.73049 1.05629C4.82181 1.10373 4.89627 1.17819 4.94371 1.26951C4.95675 1.29462 4.97618 1.34563 4.98764 1.48361C4.9996 1.62758 5 1.81686 5 2.11V3.89C5 4.18314 4.9996 4.37242 4.98764 4.51639C4.97618 4.65438 4.95675 4.70538 4.94371 4.73049C4.89627 4.82181 4.82181 4.89627 4.73049 4.94371C4.70538 4.95675 4.65438 4.97618 4.51639 4.98764C4.37242 4.9996 4.18314 5 3.89 5H2.11C1.81686 5 1.62758 4.9996 1.48361 4.98764C1.34563 4.97618 1.29462 4.95675 1.26951 4.94371C1.17819 4.89627 1.10373 4.82181 1.05629 4.73049C1.04325 4.70538 1.02382 4.65438 1.01236 4.51639C1.0004 4.37242 1 4.18314 1 3.89V2.11C1 1.81686 1.0004 1.62758 1.01236 1.48361C1.02382 1.34563 1.04325 1.29462 1.05629 1.26951C1.10373 1.17819 1.17819 1.10373 1.26951 1.05629Z" fill="#616366"/>
<path fill-rule="evenodd" clip-rule="evenodd" d="M11.9096 4.14795e-07H10.0904C9.8224 -8.40805e-06 9.59118 -1.60187e-05 9.40085 0.0157899C9.19991 0.0324773 9.00017 0.0693356 8.80854 0.168881C8.53457 0.311194 8.31119 0.534575 8.16888 0.80854C8.06933 1.00017 8.03248 1.19991 8.01579 1.40085C7.99998 1.59117 7.99999 1.82235 8 2.09034V3.9096C7.99999 4.17759 7.99998 4.40883 8.01579 4.59915C8.03248 4.80009 8.06933 4.99983 8.16888 5.19146C8.31119 5.46543 8.53457 5.68881 8.80854 5.83112C9.00017 5.93067 9.19991 5.96753 9.40085 5.98421C9.59118 6.00002 9.82238 6.00001 10.0904 6H11.9096C12.1776 6.00001 12.4088 6.00002 12.5992 5.98421C12.8001 5.96753 12.9998 5.93067 13.1915 5.83112C13.4654 5.68881 13.6888 5.46543 13.8311 5.19146C13.9307 4.99983 13.9675 4.80009 13.9842 4.59915C14 4.40883 14 4.17765 14 3.90967V2.09039C14 1.82241 14 1.59117 13.9842 1.40085C13.9675 1.19991 13.9307 1.00017 13.8311 0.80854C13.6888 0.534575 13.4654 0.311194 13.1915 0.168881C12.9998 0.0693356 12.8001 0.0324773 12.5992 0.0157899C12.4088 -1.60187e-05 12.1776 -8.40805e-06 11.9096 4.14795e-07ZM9.26951 1.05629C9.29462 1.04325 9.34562 1.02382 9.48361 1.01236C9.62758 1.0004 9.81686 1 10.11 1H11.89C12.1831 1 12.3724 1.0004 12.5164 1.01236C12.6544 1.02382 12.7054 1.04325 12.7305 1.05629C12.8218 1.10373 12.8963 1.17819 12.9437 1.26951C12.9567 1.29462 12.9762 1.34563 12.9876 1.48361C12.9996 1.62758 13 1.81686 13 2.11V3.89C13 4.18314 12.9996 4.37242 12.9876 4.51639C12.9762 4.65438 12.9567 4.70538 12.9437 4.73049C12.8963 4.82181 12.8218 4.89627 12.7305 4.94371C12.7054 4.95675 12.6544 4.97618 12.5164 4.98764C12.3724 4.9996 12.1831 5 11.89 5H10.11C9.81686 5 9.62758 4.9996 9.48361 4.98764C9.34562 4.97618 9.29462 4.95675 9.26951 4.94371C9.17819 4.89627 9.10373 4.82181 9.05629 4.73049C9.04325 4.70538 9.02382 4.65438 9.01236 4.51639C9.0004 4.37242 9 4.18314 9 3.89V2.11C9 1.81686 9.0004 1.62758 9.01236 1.48361C9.02382 1.34563 9.04325 1.29462 9.05629 1.26951C9.10373 1.17819 9.17819 1.10373 9.26951 1.05629Z" fill="#616366"/>
<path fill-rule="evenodd" clip-rule="evenodd" d="M2.0904 8H3.9096C4.17759 7.99999 4.40883 7.99998 4.59915 8.01579C4.80009 8.03248 4.99983 8.06933 5.19146 8.16888C5.46543 8.31119 5.68881 8.53457 5.83112 8.80854C5.93067 9.00017 5.96753 9.19991 5.98421 9.40085C6.00002 9.59118 6.00001 9.82238 6 10.0904V11.9096C6.00001 12.1776 6.00002 12.4088 5.98421 12.5992C5.96753 12.8001 5.93067 12.9998 5.83112 13.1915C5.68881 13.4654 5.46543 13.6888 5.19146 13.8311C4.99983 13.9307 4.80009 13.9675 4.59915 13.9842C4.40883 14 4.17764 14 3.90965 14H2.09039C1.8224 14 1.59117 14 1.40085 13.9842C1.19991 13.9675 1.00017 13.9307 0.80854 13.8311C0.534575 13.6888 0.311194 13.4654 0.168881 13.1915C0.0693356 12.9998 0.0324773 12.8001 0.0157899 12.5992C-1.60187e-05 12.4088 -8.40805e-06 12.1776 4.14795e-07 11.9096V10.0904C-8.40805e-06 9.8224 -1.60187e-05 9.59118 0.0157899 9.40085C0.0324773 9.19991 0.0693356 9.00017 0.168881 8.80854C0.311194 8.53457 0.534575 8.31119 0.80854 8.16888C1.00017 8.06933 1.19991 8.03248 1.40085 8.01579C1.59117 7.99998 1.82241 7.99999 2.0904 8ZM1.48361 9.01236C1.34563 9.02382 1.29462 9.04325 1.26951 9.05629C1.17819 9.10373 1.10373 9.17819 1.05629 9.26951C1.04325 9.29462 1.02382 9.34562 1.01236 9.48361C1.0004 9.62758 1 9.81686 1 10.11V11.89C1 12.1831 1.0004 12.3724 1.01236 12.5164C1.02382 12.6544 1.04325 12.7054 1.05629 12.7305C1.10373 12.8218 1.17819 12.8963 1.26951 12.9437C1.29462 12.9567 1.34563 12.9762 1.48361 12.9876C1.62758 12.9996 1.81686 13 2.11 13H3.89C4.18314 13 4.37242 12.9996 4.51639 12.9876C4.65438 12.9762 4.70538 12.9567 4.73049 12.9437C4.82181 12.8963 4.89627 12.8218 4.94371 12.7305C4.95675 12.7054 4.97618 12.6544 4.98764 12.5164C4.9996 12.3724 5 12.1831 5 11.89V10.11C5 9.81686 4.9996 9.62758 4.98764 9.48361C4.97618 9.34562 4.95675 9.29462 4.94371 9.26951C4.89627 9.17819 4.82181 9.10373 4.73049 9.05629C4.70538 9.04325 4.65438 9.02382 4.51639 9.01236C4.37242 9.0004 4.18314 9 3.89 9H2.11C1.81686 9 1.62758 9.0004 1.48361 9.01236Z" fill="#616366"/>
<path fill-rule="evenodd" clip-rule="evenodd" d="M11.9096 8H10.0904C9.8224 7.99999 9.59118 7.99998 9.40085 8.01579C9.19991 8.03248 9.00017 8.06933 8.80854 8.16888C8.53457 8.31119 8.31119 8.53457 8.16888 8.80854C8.06933 9.00017 8.03248 9.19991 8.01579 9.40085C7.99998 9.59118 7.99999 9.82237 8 10.0904V11.9096C7.99999 12.1776 7.99998 12.4088 8.01579 12.5992C8.03248 12.8001 8.06933 12.9998 8.16888 13.1915C8.31119 13.4654 8.53457 13.6888 8.80854 13.8311C9.00017 13.9307 9.19991 13.9675 9.40085 13.9842C9.59118 14 9.82237 14 10.0904 14H11.9096C12.1776 14 12.4088 14 12.5992 13.9842C12.8001 13.9675 12.9998 13.9307 13.1915 13.8311C13.4654 13.6888 13.6888 13.4654 13.8311 13.1915C13.9307 12.9998 13.9675 12.8001 13.9842 12.5992C14 12.4088 14 12.1776 14 11.9096V10.0904C14 9.82239 14 9.59118 13.9842 9.40085C13.9675 9.19991 13.9307 9.00017 13.8311 8.80854C13.6888 8.53457 13.4654 8.31119 13.1915 8.16888C12.9998 8.06933 12.8001 8.03248 12.5992 8.01579C12.4088 7.99998 12.1776 7.99999 11.9096 8ZM9.26951 9.05629C9.29462 9.04325 9.34562 9.02382 9.48361 9.01236C9.62758 9.0004 9.81686 9 10.11 9H11.89C12.1831 9 12.3724 9.0004 12.5164 9.01236C12.6544 9.02382 12.7054 9.04325 12.7305 9.05629C12.8218 9.10373 12.8963 9.17819 12.9437 9.26951C12.9567 9.29462 12.9762 9.34562 12.9876 9.48361C12.9996 9.62758 13 9.81686 13 10.11V11.89C13 12.1831 12.9996 12.3724 12.9876 12.5164C12.9762 12.6544 12.9567 12.7054 12.9437 12.7305C12.8963 12.8218 12.8218 12.8963 12.7305 12.9437C12.7054 12.9567 12.6544 12.9762 12.5164 12.9876C12.3724 12.9996 12.1831 13 11.89 13H10.11C9.81686 13 9.62758 12.9996 9.48361 12.9876C9.34562 12.9762 9.29462 12.9567 9.26951 12.9437C9.17819 12.8963 9.10373 12.8218 9.05629 12.7305C9.04325 12.7054 9.02382 12.6544 9.01236 12.5164C9.0004 12.3724 9 12.1831 9 11.89V10.11C9 9.81686 9.0004 9.62758 9.01236 9.48361C9.02382 9.34562 9.04325 9.29462 9.05629 9.26951C9.10373 9.17819 9.17819 9.10373 9.26951 9.05629Z" fill="#616366"/>
</svg>
