<svg fill="none" height="48" viewBox="0 0 48 48" width="48" xmlns="http://www.w3.org/2000/svg" xmlns:xlink="http://www.w3.org/1999/xlink"><linearGradient id="a" gradientUnits="userSpaceOnUse" x1="24" x2="24" y1="6" y2="42"><stop offset="0" stop-color="#ed73cc"/><stop offset="1" stop-color="#e248c2"/></linearGradient><g fill="url(#a)"><path d="m32.165 28.7576v-5.7721c-.1336-.0305-.2691-.0516-.4057-.0633-.144-.0145-.2888-.0216-.4336-.0212-.513-.0051-1.02.1108-1.4799.3383-.4927.2349-.9033.6125-1.1786 1.0838-.2752.4713-.4024 1.0145-.3649 1.559-.0102.4609.0651.9197.2221 1.3531.1277.3494.3297.6668.5921.9304.251.2426.5549.4235.8878.5285.3516.1139.7191.171 1.0887.1692.1976 0 .3809-.0071.55-.0212.1762-.012.351-.0403.522-.0845z"/><path clip-rule="evenodd" d="m11 6h26c1.6569 0 3 1.34315 3 3v30c0 1.6569-1.3431 3-3 3h-26c-1.65685 0-3-1.3431-3-3v-30c0-1.65685 1.34315-3 3-3zm19.8185 25.3794c-.9732.0148-1.9374-.1875-2.8226-.5921-.8247-.3817-1.5141-1.0046-1.9771-1.7865-.5086-.9128-.7572-1.9476-.7188-2.9918-.008-.9704.24-1.9257.7188-2.7697.4933-.8597 1.2187-1.5631 2.0932-2.0297 1.0233-.533 2.1661-.795 3.3194-.7611.0706 0 .1622.0035.2749.0106.0353.0022.0831.0048.1368.0078.1179.0064.2645.0143.3711.0238v-3.7406c-.0122-.0888.0112-.1788.0649-.2506.0538-.0717.1337-.1193.2223-.1325h2.0464c.1012.0003.1982.0407.27.1123.0715.0716.112.1687.1122.2699v12.0507c0 .2398.0105.5006.0315.7823.0213.2821.039.5358.053.761.0028.0439-.008.0876-.0307.1253-.0225.0378-.056.0678-.0958.0862-.6547.286-1.3387.4987-2.04.6344-.6695.1235-1.3487.1872-2.0295.1903zm-5.8539-13.8835-3.9325 6.3296 4.2076 6.8523c.0268.0483.0344.1049.0212.1586-.0145.0495-.0636.0813-.1481.0951h-3.0023c-.0862.0088-.1732-.0063-.2515-.0436s-.1448-.0954-.1924-.1678c-.1514-.2948-.3026-.5769-.4538-.8589-.1308-.2439-.2615-.4877-.3922-.7394-.2818-.5424-.5813-1.0957-.8984-1.6598-.317-.5634-.6306-1.1343-.9409-1.7124h-.0212c-.282.5639-.5745 1.1277-.8772 1.6914-.3036.5639-.6031 1.1241-.8987 1.6808-.2072.3898-.4178.7579-.6319 1.1322-.0918.1606-.1843.3223-.2774.4873-.0229.0588-.0639.1089-.117.1431s-.1157.0507-.1788.0471h-2.8967c-.0119.0013-.024 0-.0353-.0037-.0114-.0037-.0219-.0097-.0308-.0176-.0089-.008-.0161-.0177-.0211-.0286-.0049-.0109-.0076-.0227-.0077-.0346-.0082-.0516.003-.1043.0315-.148l4.0807-6.662-3.975-6.5623c-.0424-.0561-.0491-.102-.0212-.1374.0157-.018.0353-.0322.0573-.0414s.0459-.0131.0697-.0115h2.9813c.065-.0035.13.0073.1903.0318.0504.0287.0937.0684.1267.1162.1645.3655.3408.6633.5289.9811.1021.1725.2077.3509.3168.5491.31.564.6236 1.1208.9408 1.6703.3173.5497.6098 1.1065.8775 1.6704h.0212c.2818-.5779.5672-1.1417.856-1.6914.2891-.5498.5851-1.1031.8882-1.6598.139-.2554.2757-.4762.4103-.6934.1587-.2563.3144-.5076.4672-.8051.016-.0522.0451-.0995.0845-.1374.0522-.0265.1109-.0376.1691-.0318h2.7698c.0267-.0066.0549-.0038.0798.0077.0249.0116.0452.0313.0575.0559s.0158.0526.01.0795-.0205.051-.0418.0684z" fill-rule="evenodd"/></g></svg>