<svg width="24" height="24" viewBox="0 0 24 24" fill="none" xmlns="http://www.w3.org/2000/svg">
<path d="M12.75 8.00003C12.75 7.58582 12.4142 7.25003 12 7.25003C11.5858 7.25003 11.25 7.58582 11.25 8.00003V15C11.25 15.4142 11.5858 15.75 12 15.75C12.4142 15.75 12.75 15.4142 12.75 15V8.00003Z" fill="#303233"/>
<path fill-rule="evenodd" clip-rule="evenodd" d="M17.4249 3.23335C13.9272 1.92173 10.0728 1.92173 6.57514 3.23335L5.03441 3.81112C3.96107 4.21362 3.25 5.23971 3.25 6.38603V12C3.25 14.8673 4.88625 17.2553 6.62617 18.993C8.37744 20.742 10.3348 21.9346 11.1969 22.419C11.6995 22.7014 12.3005 22.7014 12.8031 22.419C13.6652 21.9346 15.6226 20.742 17.3738 18.993C19.1138 17.2553 20.75 14.8673 20.75 12V6.38603C20.75 5.23971 20.0389 4.21362 18.9656 3.81112L17.4249 3.23335ZM7.10183 4.63784C10.2599 3.45356 13.7401 3.45356 16.8982 4.63784L18.4389 5.21562C18.9268 5.39857 19.25 5.86497 19.25 6.38603V12C19.25 14.2832 17.9387 16.3088 16.3139 17.9316C14.7003 19.5431 12.8755 20.6578 12.0683 21.1113C12.0221 21.1373 11.9779 21.1373 11.9317 21.1113C11.1245 20.6578 9.2997 19.5431 7.68615 17.9316C6.06125 16.3088 4.75 14.2832 4.75 12V6.38603C4.75 5.86497 5.07322 5.39857 5.5611 5.21562L7.10183 4.63784Z" fill="#303233"/>
</svg>
