<svg fill="none" height="48" viewBox="0 0 48 48" width="48" xmlns="http://www.w3.org/2000/svg" xmlns:xlink="http://www.w3.org/1999/xlink"><linearGradient id="a" gradientUnits="userSpaceOnUse" x1="24" x2="24" y1="6" y2="42"><stop offset="0" stop-color="#69a3fb"/><stop offset="1" stop-color="#477ef7"/></linearGradient><path clip-rule="evenodd" d="m11 6h26c1.6569 0 3 1.34315 3 3v30c0 1.6569-1.3431 3-3 3h-26c-1.65685 0-3-1.3431-3-3v-30c0-1.65685 1.34315-3 3-3zm5 9h-.0384c-.5289 0-.9663.4118-.9982.9397l-.4228 7c-.0348.575.4221 1.0603.9981 1.0603h16.9226c.576 0 1.0329-.4853.9981-1.0603l-.4228-7c-.0319-.5279-.4693-.9397-.9982-.9397h-15.0384v-1c0-.5523.4477-1 1-1h2c0 .5523.4477 1 1 1h2c.5523 0 1-.4477 1-1s-.4477-1-1-1h-5c-1.1046 0-2 .8954-2 2zm-2 10c0 .5523.4477 1 1 1h18c.5523 0 1-.4477 1-1zm8.9935 2h2.0032v7.0163c0 .4906.3533.8986.8192.9837h2.6841c.2761 0 .5.2239.5.5s-.2239.5-.5.5h-9c-.2761 0-.5-.2239-.5-.5s.2239-.5.5-.5h2.6743c.466-.0851.8192-.4931.8192-.9837z" fill="url(#a)" fill-rule="evenodd" opacity=".8"/></svg>