<svg width="57" height="57" viewBox="0 0 57 57" fill="none" xmlns="http://www.w3.org/2000/svg">
<circle cx="28.5352" cy="28.5889" r="27" stroke="#F4F4F5" stroke-width="2"/>
<path fill-rule="evenodd" clip-rule="evenodd" d="M22.5352 24.5889C22.5352 21.2752 25.2214 18.5889 28.5352 18.5889C31.8489 18.5889 34.5352 21.2752 34.5352 24.5889V26.7392C34.8178 26.8011 35.089 26.8913 35.3511 27.0248C36.1038 27.4083 36.7157 28.0203 37.0992 28.7729C37.3465 29.2582 37.445 29.7749 37.491 30.337C37.5352 30.8782 37.5352 31.5426 37.5352 32.3475V32.8302C37.5352 33.6351 37.5352 34.2995 37.491 34.8407C37.445 35.4028 37.3465 35.9195 37.0992 36.4048C36.7157 37.1575 36.1038 37.7694 35.3511 38.1529C34.8658 38.4002 34.3491 38.4987 33.787 38.5447C33.2458 38.5889 32.5814 38.5889 31.7765 38.5889H25.2938C24.4889 38.5889 23.8245 38.5889 23.2833 38.5447C22.7212 38.4987 22.2045 38.4002 21.7192 38.1529C20.9665 37.7694 20.3546 37.1575 19.9711 36.4048C19.7238 35.9195 19.6253 35.4028 19.5794 34.8407C19.5351 34.2995 19.5351 33.6351 19.5352 32.8302V32.3476C19.5351 31.5426 19.5351 30.8782 19.5794 30.337C19.6253 29.7749 19.7238 29.2582 19.9711 28.7729C20.3546 28.0203 20.9665 27.4083 21.7192 27.0248C21.9813 26.8913 22.2525 26.8011 22.5352 26.7392V24.5889ZM24.5352 26.5905C24.7729 26.5889 25.0256 26.5889 25.2939 26.5889H31.7765C32.0448 26.5889 32.2974 26.5889 32.5352 26.5905V24.5889C32.5352 22.3797 30.7443 20.5889 28.5352 20.5889C26.326 20.5889 24.5352 22.3797 24.5352 24.5889V26.5905Z" fill="#FAFAFB"/>
</svg>
