<svg width="37" height="37" viewBox="0 0 37 37" fill="none" xmlns="http://www.w3.org/2000/svg">
<circle cx="18.5" cy="18.5" r="18.5" fill="#04101E"/>
<path fill-rule="evenodd" clip-rule="evenodd" d="M10 11.5C8.34315 11.5 7 12.8431 7 14.5V22.5C7 24.1569 8.34315 25.5 10 25.5H20C21.6569 25.5 23 24.1569 23 22.5V14.5C23 12.8431 21.6569 11.5 20 11.5H10ZM24.4647 16.7055C24.1753 16.8889 24 17.2076 24 17.5501V19.9416C24 20.2886 24.1799 20.6109 24.4754 20.7929L28.4754 23.2579C29.1416 23.6684 30 23.1891 30 22.4065V15.0151C30 14.2268 29.1305 13.7485 28.4647 14.1704L24.4647 16.7055Z" fill="#FAFAFB"/>
</svg>
