<svg width="25" height="24" viewBox="0 0 25 24" fill="none" xmlns="http://www.w3.org/2000/svg">
<path d="M12.5 2.25C12.9142 2.25 13.25 2.58579 13.25 3V13.1893L16.9697 9.46967C17.2626 9.17678 17.7374 9.17678 18.0303 9.46967C18.3232 9.76256 18.3232 10.2374 18.0303 10.5303L13.0303 15.5303C12.9584 15.6022 12.8755 15.6565 12.7871 15.6931C12.6987 15.7298 12.6017 15.75 12.5 15.75C12.3983 15.75 12.3013 15.7298 12.2129 15.6931C12.1245 15.6565 12.0416 15.6022 11.9697 15.5303L6.96967 10.5303C6.67678 10.2374 6.67678 9.76256 6.96967 9.46967C7.26256 9.17678 7.73744 9.17678 8.03033 9.46967L11.75 13.1893V3C11.75 2.58579 12.0858 2.25 12.5 2.25Z" fill="#FAFAFA"/>
<path d="M4.25 15C4.25 14.5858 3.91421 14.25 3.5 14.25C3.08579 14.25 2.75 14.5858 2.75 15V16.2321C2.74999 17.0449 2.74999 17.7006 2.79336 18.2315C2.83803 18.7781 2.93239 19.2582 3.15873 19.7025C3.51825 20.4081 4.09193 20.9817 4.79754 21.3413C5.24175 21.5676 5.7219 21.662 6.26853 21.7066C6.79944 21.75 7.45506 21.75 8.2679 21.75H16.7321C17.5449 21.75 18.2006 21.75 18.7315 21.7066C19.2781 21.662 19.7582 21.5676 20.2025 21.3413C20.9081 20.9817 21.4817 20.4081 21.8413 19.7025C22.0676 19.2582 22.162 18.7781 22.2066 18.2315C22.25 17.7006 22.25 17.045 22.25 16.2321V15C22.25 14.5858 21.9142 14.25 21.5 14.25C21.0858 14.25 20.75 14.5858 20.75 15V16.2C20.75 17.0525 20.7494 17.6467 20.7116 18.1093C20.6745 18.5632 20.6054 18.824 20.5048 19.0215C20.289 19.4448 19.9448 19.789 19.5215 20.0048C19.324 20.1054 19.0632 20.1745 18.6093 20.2116C18.1467 20.2494 17.5525 20.25 16.7 20.25H8.3C7.44755 20.25 6.85331 20.2494 6.39068 20.2116C5.93681 20.1745 5.67604 20.1054 5.47852 20.0048C5.05516 19.789 4.71095 19.4448 4.49524 19.0215C4.3946 18.824 4.32547 18.5632 4.28838 18.1093C4.25058 17.6467 4.25 17.0525 4.25 16.2V15Z" fill="#FAFAFA"/>
</svg>
