<svg width="25" height="25" viewBox="0 0 25 25" fill="none" xmlns="http://www.w3.org/2000/svg">
<path d="M22.1788 2.87397C22.4717 3.16686 22.4717 3.64173 22.1788 3.93463L16.4591 9.6543H20.6484C21.0627 9.6543 21.3984 9.99008 21.3984 10.4043C21.3984 10.8185 21.0627 11.1543 20.6484 11.1543H14.6484C14.5467 11.1543 14.4498 11.1341 14.3614 11.0974C14.2749 11.0616 14.1938 11.009 14.123 10.9395L14.1132 10.9297C14.0437 10.859 13.9911 10.7778 13.9553 10.6914C13.9187 10.603 13.8984 10.506 13.8984 10.4043V4.4043C13.8984 3.99008 14.2342 3.6543 14.6484 3.6543C15.0627 3.6543 15.3984 3.99008 15.3984 4.4043V8.59364L21.1181 2.87397C21.411 2.58107 21.8859 2.58107 22.1788 2.87397Z" fill="#F3F4F4"/>
<path d="M10.6484 13.6543H4.64844C4.23422 13.6543 3.89844 13.9901 3.89844 14.4043C3.89844 14.8185 4.23422 15.1543 4.64844 15.1543H8.83778L3.11811 20.874C2.82521 21.1669 2.82521 21.6417 3.11811 21.9346C3.411 22.2275 3.88587 22.2275 4.17877 21.9346L9.89844 16.215V20.4043C9.89844 20.8185 10.2342 21.1543 10.6484 21.1543C11.0627 21.1543 11.3984 20.8185 11.3984 20.4043V14.4043C11.3984 14.1997 11.3165 14.0142 11.1836 13.8789C11.1804 13.8756 11.1771 13.8723 11.1738 13.8691C11.1031 13.7996 11.022 13.747 10.9355 13.7112C10.8471 13.6745 10.7501 13.6543 10.6484 13.6543Z" fill="#F3F4F4"/>
</svg>
