<svg width="20" height="20" viewBox="0 0 20 20" fill="none" xmlns="http://www.w3.org/2000/svg">
<path fill-rule="evenodd" clip-rule="evenodd" d="M4.25 7C4.25 5.48122 5.48122 4.25 7 4.25C8.51878 4.25 9.75 5.48122 9.75 7C9.75 8.51878 8.51878 9.75 7 9.75C5.48122 9.75 4.25 8.51878 4.25 7Z" fill="#DD1405"/>
<path fill-rule="evenodd" clip-rule="evenodd" d="M0.25 4C0.25 1.92893 1.92893 0.25 4 0.25H16C18.0711 0.25 19.75 1.92893 19.75 4V16C19.75 18.0711 18.0711 19.75 16 19.75H4C1.92893 19.75 0.25 18.0711 0.25 16V4ZM18.25 11.1893V4C18.25 2.75736 17.2426 1.75 16 1.75H4C2.75736 1.75 1.75 2.75736 1.75 4V16C1.75 16.8633 2.23621 17.6131 2.94973 17.9903C2.95622 17.9834 2.96287 17.9764 2.96967 17.9696L12.7626 8.17675C13.446 7.49333 14.554 7.49333 15.2374 8.17675L18.25 11.1893Z" fill="#DD1405"/>
</svg>
