<svg width="15" height="13" viewBox="0 0 15 13" fill="none" xmlns="http://www.w3.org/2000/svg">
<path fill-rule="evenodd" clip-rule="evenodd" d="M3.69823 1.28024e-07H11.3018C11.8528 -4.84962e-06 12.2972 -8.86433e-06 12.6569 0.0298623C13.0273 0.0606231 13.3524 0.125628 13.6524 0.281467C14.109 0.518656 14.4813 0.890957 14.7185 1.34756C14.8744 1.64757 14.9394 1.97267 14.9701 2.34308C15 2.70277 15 3.14719 15 3.6982V9.30175C15 9.85276 15 10.2972 14.9701 10.6569C14.9394 11.0273 14.8744 11.3524 14.7185 11.6524C14.4813 12.109 14.109 12.4813 13.6524 12.7185C13.3524 12.8744 13.0273 12.9394 12.6569 12.9701C12.2972 13 11.8528 13 11.3018 13H3.69825C3.14724 13 2.70277 13 2.34308 12.9701C1.97267 12.9394 1.64757 12.8744 1.34756 12.7185C0.890957 12.4813 0.518656 12.109 0.281467 11.6524C0.125628 11.3524 0.0606231 11.0273 0.0298623 10.6569C-8.86433e-06 10.2972 -4.84962e-06 9.85279 1.28026e-07 9.30178V3.69823C-4.84962e-06 3.14722 -8.86433e-06 2.70278 0.0298623 2.34308C0.0606231 1.97267 0.125628 1.64757 0.281467 1.34756C0.518656 0.890957 0.890957 0.518656 1.34756 0.281467C1.64757 0.125628 1.97267 0.0606231 2.34308 0.0298623C2.70278 -8.86433e-06 3.14722 -4.84962e-06 3.69823 1.28024e-07ZM2.42584 1.02643C2.11839 1.05196 1.94201 1.09955 1.80854 1.16888C1.53457 1.31119 1.31119 1.53457 1.16888 1.80854C1.09955 1.94201 1.05196 2.11839 1.02643 2.42584C1.0004 2.73928 1 3.14212 1 3.72V4H4.5V1H3.72C3.14212 1 2.73928 1.0004 2.42584 1.02643ZM1 5H4.5V8H1V5ZM5.5 5V8H9.5V5H5.5ZM10.5 5V8H14V5H10.5ZM9.5 9H5.5V12H9.5V9ZM10.5 12V9H14V9.28C14 9.85788 13.9996 10.2607 13.9736 10.5742C13.948 10.8816 13.9005 11.058 13.8311 11.1915C13.6888 11.4654 13.4654 11.6888 13.1915 11.8311C13.058 11.9005 12.8816 11.948 12.5742 11.9736C12.2607 11.9996 11.8579 12 11.28 12H10.5ZM10.5 4V1H11.28C11.8579 1 12.2607 1.0004 12.5742 1.02643C12.8816 1.05196 13.058 1.09955 13.1915 1.16888C13.4654 1.31119 13.6888 1.53457 13.8311 1.80854C13.9005 1.94201 13.948 2.11839 13.9736 2.42584C13.9996 2.73928 14 3.14212 14 3.72V4H10.5ZM9.5 1V4H5.5V1H9.5ZM1 9H4.5V12H3.72C3.14212 12 2.73928 11.9996 2.42584 11.9736C2.11839 11.948 1.94201 11.9005 1.80854 11.8311C1.53457 11.6888 1.31119 11.4654 1.16888 11.1915C1.09955 11.058 1.05196 10.8816 1.02643 10.5742C1.0004 10.2607 1 9.85788 1 9.28V9Z" fill="#616366"/>
</svg>
