<svg width="24" height="24" viewBox="0 0 24 24" fill="none" xmlns="http://www.w3.org/2000/svg">
<path d="M12 0.25C18.4893 0.250031 23.75 5.51067 23.75 12C23.75 13.6164 23.4225 15.156 22.832 16.5576L21.8447 14.8486C22.1061 13.9439 22.25 12.9889 22.25 12C22.25 6.3391 17.6609 1.75003 12 1.75C6.33908 1.75 1.75 6.33908 1.75 12C1.75 16.5384 4.70041 20.3852 8.78711 21.7334C8.72678 22.2985 8.81458 22.8583 9.02148 23.3672C3.9747 22.0484 0.25 17.4601 0.25 12C0.25 5.51065 5.51065 0.25 12 0.25ZM8 7C8.41419 7.00003 8.75 7.33581 8.75 7.75V14.1895L10.4697 12.4697C10.7626 12.1769 11.2374 12.1768 11.5303 12.4697C11.8231 12.7626 11.8231 13.2374 11.5303 13.5303L8.53027 16.5303C8.23739 16.8232 7.76262 16.8231 7.46973 16.5303L4.46973 13.5303C4.17683 13.2374 4.17683 12.7626 4.46973 12.4697C4.76262 12.1769 5.23739 12.1768 5.53027 12.4697L7.25 14.1895V7.75C7.25 7.33579 7.58579 7 8 7ZM16 7.25C16.1017 7.25001 16.1987 7.26999 16.2871 7.30664C16.3756 7.34324 16.4584 7.39782 16.5303 7.46973L19.5303 10.4697C19.7443 10.6838 19.8 10.9944 19.7012 11.2607C19.008 10.4611 18.0195 10.0747 17.041 10.1016L16.75 9.81055V10.123C16.2221 10.1821 15.7056 10.361 15.25 10.6631V9.81055L13.5303 11.5303C13.2374 11.8232 12.7626 11.8231 12.4697 11.5303C12.1768 11.2374 12.1768 10.7626 12.4697 10.4697L15.4697 7.46973C15.5416 7.39783 15.6244 7.34324 15.7129 7.30664C15.8013 7.27 15.8984 7.25 16 7.25Z" fill="#F3F4F4"/>
<path d="M15.4851 12.5541C16.2193 11.2823 18.0545 11.2823 18.7888 12.5541L23.7458 21.1381C24.48 22.4098 23.5619 23.9993 22.0935 23.9994H12.1804C10.712 23.9992 9.79478 22.4098 10.529 21.1381L15.4851 12.5541ZM16.9382 20.0502C16.524 20.0502 16.1882 20.3859 16.1882 20.8002C16.1884 21.2142 16.5241 21.5502 16.9382 21.5502C17.3521 21.55 17.688 21.2141 17.6882 20.8002C17.6882 20.3861 17.3522 20.0503 16.9382 20.0502ZM16.9382 15.3002C16.524 15.3002 16.1882 15.6359 16.1882 16.0502V18.5502C16.1883 18.9643 16.5241 19.3002 16.9382 19.3002C17.3522 19.3 17.688 18.9641 17.6882 18.5502V16.0502C17.6882 15.6361 17.3522 15.3003 16.9382 15.3002Z" fill="#F7A308"/>
</svg>
