<svg width="25" height="24" viewBox="0 0 25 24" fill="none" xmlns="http://www.w3.org/2000/svg">
<path d="M11.9697 1.46967C12.0416 1.39776 12.1245 1.34351 12.2129 1.30691C12.3013 1.27024 12.3983 1.25 12.5 1.25C12.6919 1.25 12.8839 1.32322 13.0303 1.46967L17.0303 5.46967C17.3232 5.76256 17.3232 6.23744 17.0303 6.53033C16.7374 6.82322 16.2626 6.82322 15.9697 6.53033L13.25 3.81066V15C13.25 15.4142 12.9142 15.75 12.5 15.75C12.0858 15.75 11.75 15.4142 11.75 15V3.81066L9.03033 6.53033C8.73744 6.82322 8.26256 6.82322 7.96967 6.53033C7.67678 6.23744 7.67678 5.76256 7.96967 5.46967L11.9697 1.46967Z" fill="#FAFAFA"/>
<path d="M5.25 12C5.25 11.3096 5.80964 10.75 6.5 10.75H7C7.41421 10.75 7.75 10.4142 7.75 10C7.75 9.58579 7.41421 9.25 7 9.25H6.5C4.98122 9.25 3.75 10.4812 3.75 12V20C3.75 21.5188 4.98122 22.75 6.5 22.75H18.5C20.0188 22.75 21.25 21.5188 21.25 20V12C21.25 10.4812 20.0188 9.25 18.5 9.25H18C17.5858 9.25 17.25 9.58579 17.25 10C17.25 10.4142 17.5858 10.75 18 10.75H18.5C19.1904 10.75 19.75 11.3096 19.75 12V20C19.75 20.6904 19.1904 21.25 18.5 21.25H6.5C5.80964 21.25 5.25 20.6904 5.25 20V12Z" fill="#FAFAFA"/>
</svg>
