<svg width="37" height="37" viewBox="0 0 37 37" fill="none" xmlns="http://www.w3.org/2000/svg">
<circle cx="18.5" cy="18.5" r="18.5" fill="#04101E"/>
<path fill-rule="evenodd" clip-rule="evenodd" d="M15.5563 21.6939C13.5412 19.6788 11.8343 17.3578 10.4365 14.7336C9.59821 13.1597 9.88696 11.2228 11.1479 9.96181L11.6611 9.44865C12.4908 8.61894 13.836 8.61894 14.6657 9.44864C14.7748 9.55771 14.8716 9.67834 14.9546 9.80838L16.686 12.5227C17.1201 13.2032 17.0228 14.094 16.452 14.6648L15.2193 15.8975C15.1229 15.9939 15.1041 16.1434 15.1736 16.2607C15.8961 17.4798 16.7411 18.5727 17.7093 19.5409C18.6775 20.5091 19.7704 21.3541 20.9895 22.0766C21.1068 22.1461 21.2563 22.1273 21.3527 22.0309L22.5854 20.7982C23.1562 20.2274 24.047 20.1301 24.7275 20.5642L27.4418 22.2956C28.4311 22.9266 28.7215 24.2401 28.0904 25.2294C28.0075 25.3594 27.9106 25.4801 27.8016 25.5891L27.2884 26.1023C26.0274 27.3632 24.0905 27.652 22.5166 26.8137C19.8924 25.4159 17.5714 23.709 15.5563 21.6939Z" fill="#FAFAFB"/>
</svg>
