<svg width="37" height="37" viewBox="0 0 37 37" fill="none" xmlns="http://www.w3.org/2000/svg">
<circle cx="18.5" cy="18.5" r="18.5" fill="#FAFAFB"/>
<path fill-rule="evenodd" clip-rule="evenodd" d="M15.5562 21.6939C13.5411 19.6788 11.8342 17.3578 10.4365 14.7336C9.59814 13.1597 9.8869 11.2228 11.1479 9.96181L11.661 9.44865C12.4907 8.61894 13.8359 8.61894 14.6656 9.44864C14.7747 9.55771 14.8716 9.67834 14.9545 9.80838L16.6859 12.5227C17.12 13.2032 17.0227 14.094 16.452 14.6648L15.2193 15.8975C15.1229 15.9939 15.104 16.1434 15.1736 16.2607C15.896 17.4798 16.741 18.5727 17.7092 19.5409C18.6775 20.5091 19.7703 21.3541 20.9894 22.0766C21.1067 22.1461 21.2562 22.1273 21.3527 22.0309L22.5853 20.7982C23.1561 20.2274 24.0469 20.1301 24.7275 20.5642L27.4418 22.2956C28.431 22.9266 28.7214 24.2401 28.0904 25.2294C28.0074 25.3594 27.9106 25.4801 27.8015 25.5891L27.2883 26.1023C26.0274 27.3632 24.0905 27.652 22.5165 26.8137C19.8924 25.4159 17.5713 23.709 15.5562 21.6939Z" fill="#04101E"/>
</svg>
