<svg fill="none" height="48" viewBox="0 0 48 48" width="48" xmlns="http://www.w3.org/2000/svg" xmlns:xlink="http://www.w3.org/1999/xlink"><linearGradient id="a" gradientUnits="userSpaceOnUse" x1="24" x2="24" y1="6" y2="42"><stop offset="0" stop-color="#ed73cc"/><stop offset="1" stop-color="#e248c2"/></linearGradient><g fill="url(#a)"><path d="m17.0178 25.2856h3.3407c-.0379-.1257-.0785-.3105-.1219-.508-.0539-.245-.112-.5095-.1745-.7047-.1127-.3521-.2325-.7292-.3593-1.1312-.1267-.4016-.2536-.8033-.3806-1.205-.1267-.4018-.2429-.7895-.3488-1.163-.1055-.3733-.2005-.7151-.2851-1.0254h-.0213c-.119.5711-.2673 1.1356-.4442 1.6915-.1975.6343-.3984 1.2827-.6026 1.9451-.0878.2849-.175.609-.2616.9306-.1148.4265-.2284.8489-.3408 1.1701z"/><path d="m28.8814 24.7023h2.7695c.3384 0 .5886-.0035.7506-.0105.103.0001.2058-.0106.3066-.0318v-.1268c.0121-.253-.0027-.5065-.0444-.7564-.114-.3606-.3434-.6739-.6528-.8916s-.6817-.3278-1.0598-.3134c-.3558-.0215-.7102.061-1.0199.2375-.3097.1764-.5615.4392-.7245.7562-.1587.3627-.2681.7451-.3253 1.1368z"/><path clip-rule="evenodd" d="m11 6h26c1.6569 0 3 1.34315 3 3v30c0 1.6569-1.3431 3-3 3h-26c-1.65685 0-3-1.3431-3-3v-30c0-1.65685 1.34315-3 3-3zm10.1408 21.5356h-4.8842l-.9936 3.2205c-.0136.0563-.0464.1061-.0927.1408-.0464.0347-.1034.0522-.1612.0494h-2.4738c-.1409 0-.1902-.0775-.1478-.2325l4.2287-12.0083c.0422-.1268.0844-.2713.1267-.4334.0554-.2821.0837-.5688.0846-.8563-.0029-.0201-.001-.0407.0055-.0599.0064-.0193.0172-.0368.0316-.0511.0144-.0144.0319-.0252.0512-.0316.0192-.0064.0397-.0083.0598-.0054h3.3616c.0982 0 .1549.0354.1691.1057l4.7994 13.3614c.0421.1411-.0002.2116-.127.2114h-2.7483c-.0472.0054-.0947-.0068-.1337-.034-.0389-.0272-.0666-.0678-.0778-.114zm11.9177-1.1535h-4.1652c.0605.4284.2068.8403.43 1.211.2363.3525.5707.6282.9618.793.5394.2419 1.1242.3659 1.7153.3638.3959.0097.7917-.0214 1.1811-.0927.425-.076.84-.2001 1.237-.37.0703-.0562.1055-.021.1058.1056v2.0086c.0035.0548-.0075.1095-.0318.1587-.0242.0384-.0567.071-.0952.0951-.4378.2071-.8995.3597-1.3745.4545-.567.0801-1.1407.1027-1.7123.0673-.8623.0266-1.7202-.1321-2.5159-.4653-.6394-.2816-1.2042-.7088-1.6493-1.2474-.4156-.5075-.7247-1.0936-.909-1.7232-.1825-.6214-.275-1.2657-.2748-1.9133-.002-.7072.1087-1.4102.3278-2.0826.2107-.656.5443-1.2658.983-1.7972.4325-.5251.9734-.9506 1.5856-1.2473.6886-.3177 1.4409-.4733 2.199-.4547.7383-.0101 1.4706.1345 2.1499.4244.5427.2458 1.0177.6194 1.3847 1.0888.3463.447.611.9516.782 1.4905.1668.5195.2523 1.0614.254 1.6069 0 .3101-.0107.592-.0317.8457-.0178.1511-.045.3009-.0815.4486-.0053.0466-.0278.0896-.0628.1208-.0352.0312-.0805.0484-.1275.0484-.0842 0-.229.0106-.433.0317-.1349.0139-.3385.015-.5483.0162-.1086.0005-.2189.0011-.3222.0035-.3035.0072-.6242.0108-.962.0106z" fill-rule="evenodd"/></g></svg>