<svg width="29" height="28" viewBox="0 0 29 28" fill="none" xmlns="http://www.w3.org/2000/svg">
<path fill-rule="evenodd" clip-rule="evenodd" d="M22.2803 6.21967C21.9874 5.92678 21.5126 5.92678 21.2197 6.21967L14.5 12.9393L7.78033 6.21967L7.72337 6.16818C7.42879 5.92792 6.99426 5.94508 6.71967 6.21967C6.42678 6.51256 6.42678 6.98744 6.71967 7.28033L13.4393 14L6.71967 20.7197L6.66818 20.7766C6.42792 21.0712 6.44508 21.5057 6.71967 21.7803C7.01256 22.0732 7.48744 22.0732 7.78033 21.7803L14.5 15.0607L21.2197 21.7803L21.2766 21.8318C21.5712 22.0721 22.0057 22.0549 22.2803 21.7803C22.5732 21.4874 22.5732 21.0126 22.2803 20.7197L15.5607 14L22.2803 7.28033L22.3318 7.22337C22.5721 6.92879 22.5549 6.49426 22.2803 6.21967Z" fill="#FD6F90"/>
</svg>
