<svg width="24" height="24" viewBox="0 0 24 24" fill="none" xmlns="http://www.w3.org/2000/svg">
<path d="M18.8824 4C20.0519 4 21 4.98129 21 6.19178V17.8082C21 19.0187 20.0519 20 18.8824 20H5.11765C3.9481 20 3 19.0187 3 17.8082V6.19178C3 4.98129 3.9481 4 5.11765 4H18.8824ZM10.3659 7.50685C10.1722 7.50685 9.98577 7.59553 9.84446 7.75483L5.35711 14.9081C5.24604 15.0341 5.16895 15.1973 5.13582 15.3765C5.10269 15.5558 5.11505 15.743 5.1713 15.9137C5.22754 16.0844 5.32508 16.2309 5.4513 16.3342C5.57752 16.4375 5.7266 16.4929 5.87926 16.4932H18.1149C18.2666 16.4946 18.4152 16.4416 18.5417 16.3407C18.6682 16.2399 18.7667 16.0959 18.8246 15.9271C18.8826 15.7585 18.8973 15.5728 18.8669 15.394C18.8365 15.2151 18.7624 15.0513 18.654 14.9235L16.0931 11.0978C15.9507 10.927 15.7578 10.8311 15.5568 10.8311C15.3557 10.8311 15.1628 10.927 15.0204 11.0978L14.4982 11.726C14.3591 11.8948 14.1708 11.9917 13.9733 11.9965C13.7757 12.0013 13.5844 11.9135 13.4397 11.7517L10.8873 7.75483C10.746 7.59553 10.5595 7.50685 10.3659 7.50685Z" fill="#515151"/>
</svg>
