<svg width="28" height="28" viewBox="0 0 28 28" fill="none" xmlns="http://www.w3.org/2000/svg">
<path d="M10.8251 3.27974C11.1893 3.24998 11.6352 3.24999 12.1693 3.25H15.8302C16.3643 3.24999 16.8102 3.24998 17.1744 3.27974C17.5543 3.31078 17.9109 3.37789 18.2482 3.54973C18.7651 3.81312 19.1855 4.23325 19.4492 4.74999H8.55026C8.81396 4.23325 9.23433 3.81312 9.75127 3.54973C10.0885 3.37789 10.4452 3.31078 10.8251 3.27974Z" fill="#A9ABAD"/>
<path d="M9.16955 6.24999C8.63541 6.24998 8.18956 6.24997 7.82533 6.27973C7.44545 6.31077 7.08879 6.37788 6.75153 6.54972C6.23459 6.81312 5.81421 7.23324 5.55051 7.74999H22.4495C22.1858 7.23324 21.7654 6.81312 21.2485 6.54972C20.9112 6.37788 20.5546 6.31077 20.1747 6.27973C19.8104 6.24997 19.3646 6.24998 18.8305 6.24999H9.16955Z" fill="#A9ABAD"/>
<path d="M14.75 14C14.75 13.5858 14.4142 13.25 14 13.25C13.5858 13.25 13.25 13.5858 13.25 14V16.25H11C10.5858 16.25 10.25 16.5858 10.25 17C10.25 17.4142 10.5858 17.75 11 17.75H13.25V20C13.25 20.4142 13.5858 20.75 14 20.75C14.4142 20.75 14.75 20.4142 14.75 20V17.75H17C17.4142 17.75 17.75 17.4142 17.75 17C17.75 16.5858 17.4142 16.25 17 16.25H14.75V14Z" fill="#A9ABAD"/>
<path fill-rule="evenodd" clip-rule="evenodd" d="M7.16957 9.24999H20.8304C21.3646 9.24998 21.8104 9.24997 22.1747 9.27973C22.5546 9.31077 22.9112 9.37788 23.2485 9.54972C23.7659 9.81338 24.1866 10.2341 24.4503 10.7515C24.6221 11.0888 24.6892 11.4454 24.7203 11.8253C24.75 12.1896 24.75 12.6354 24.75 13.1695V20.8304C24.75 21.3646 24.75 21.8104 24.7203 22.1747C24.6892 22.5545 24.6221 22.9112 24.4503 23.2485C24.1866 23.7659 23.7659 24.1866 23.2485 24.4503C22.9112 24.6221 22.5546 24.6892 22.1747 24.7203C21.8105 24.75 21.3646 24.75 20.8305 24.75H7.16955C6.63544 24.75 6.18954 24.75 5.82533 24.7203C5.44545 24.6892 5.08879 24.6221 4.75153 24.4503C4.23408 24.1866 3.81339 23.7659 3.54973 23.2485C3.37789 22.9112 3.31078 22.5545 3.27974 22.1747C3.24998 21.8104 3.24999 21.3646 3.25 20.8304V13.1696C3.24999 12.6354 3.24998 12.1896 3.27974 11.8253C3.31078 11.4454 3.37789 11.0888 3.54973 10.7515C3.81339 10.2341 4.23408 9.81338 4.75153 9.54972C5.08879 9.37788 5.44545 9.31077 5.82533 9.27973C6.18956 9.24997 6.63541 9.24998 7.16957 9.24999ZM5.94748 10.7747C5.66036 10.7982 5.52307 10.8401 5.43251 10.8862C5.19731 11.0061 5.00608 11.1973 4.88624 11.4325C4.8401 11.5231 4.79822 11.6603 4.77476 11.9475C4.75058 12.2433 4.75 12.6276 4.75 13.2V20.8C4.75 21.3724 4.75058 21.7566 4.77476 22.0525C4.79822 22.3396 4.8401 22.4769 4.88624 22.5675C5.00608 22.8027 5.19731 22.9939 5.43251 23.1137C5.52307 23.1599 5.66036 23.2018 5.94748 23.2252C6.24336 23.2494 6.62757 23.25 7.2 23.25H20.8C21.3724 23.25 21.7566 23.2494 22.0525 23.2252C22.3396 23.2018 22.4769 23.1599 22.5675 23.1137C22.8027 22.9939 22.9939 22.8027 23.1138 22.5675C23.1599 22.4769 23.2018 22.3396 23.2252 22.0525C23.2494 21.7566 23.25 21.3724 23.25 20.8V13.2C23.25 12.6276 23.2494 12.2433 23.2252 11.9475C23.2018 11.6603 23.1599 11.5231 23.1138 11.4325C22.9939 11.1973 22.8027 11.0061 22.5675 10.8862C22.4769 10.8401 22.3396 10.7982 22.0525 10.7747C21.7566 10.7506 21.3724 10.75 20.8 10.75H7.2C6.62757 10.75 6.24336 10.7506 5.94748 10.7747Z" fill="#A9ABAD"/>
</svg>
