<svg fill="none" height="48" viewBox="0 0 48 48" width="48" xmlns="http://www.w3.org/2000/svg" xmlns:xlink="http://www.w3.org/1999/xlink"><linearGradient id="a" gradientUnits="userSpaceOnUse" x1="24" x2="24" y1="6" y2="42"><stop offset="0" stop-color="#69a3fb"/><stop offset="1" stop-color="#477ef7"/></linearGradient><path clip-rule="evenodd" d="m11 6h26c1.6569 0 3 1.34315 3 3v30c0 1.6569-1.3431 3-3 3h-26c-1.65685 0-3-1.3431-3-3v-30c0-1.65685 1.34315-3 3-3zm18 14c0-.5523-.4477-1-1-1v-2c1.6569 0 3 1.3431 3 3v2c0 .5523.4477 1 1 1v2c-.5523 0-1 .4477-1 1v2c0 1.6569-1.3431 3-3 3v-2c.5523 0 1-.4477 1-1v-2c0-.7684.2889-1.4692.7639-2-.475-.5308-.7639-1.2316-.7639-2zm-9-1c-.5523 0-1 .4477-1 1v2c0 .7684-.2889 1.4692-.7639 2 .475.5308.7639 1.2316.7639 2v2c0 .5523.4477 1 1 1v2c-1.6569 0-3-1.3431-3-3v-2c0-.5523-.4477-1-1-1v-2c.5523 0 1-.4477 1-1v-2c0-1.6569 1.3431-3 3-3z" fill="url(#a)" fill-rule="evenodd"/></svg>