<svg fill="none" height="48" viewBox="0 0 48 48" width="48" xmlns="http://www.w3.org/2000/svg" xmlns:xlink="http://www.w3.org/1999/xlink"><linearGradient id="a" gradientUnits="userSpaceOnUse" x1="24" x2="24" y1="6" y2="42"><stop offset="0" stop-color="#31d0fe"/><stop offset="1" stop-color="#05baf1"/></linearGradient><path clip-rule="evenodd" d="m11 6h26c1.6569 0 3 1.34315 3 3v30c0 1.6569-1.3431 3-3 3h-26c-1.65685 0-3-1.3431-3-3v-30c0-1.65685 1.34315-3 3-3zm3 14c0-2.2091 1.7909-4 4-4s4 1.7909 4 4-1.7909 4-4 4-4-1.7909-4-4zm13.8787.7071c1.1716-1.1716 3.0711-1.1716 4.2426 0l5 5c.5627.5626.8787 1.3257.8787 2.1213v11.1716c0 .5523-.4477 1-1 1h-26c-.4044 0-.7691-.2436-.9239-.6173-.15473-.3737-.0692-.8038.2168-1.0898z" fill="url(#a)" fill-rule="evenodd"/></svg>