<svg fill="none" height="48" viewBox="0 0 48 48" width="48" xmlns="http://www.w3.org/2000/svg" xmlns:xlink="http://www.w3.org/1999/xlink"><linearGradient id="a" gradientUnits="userSpaceOnUse" x1="22" x2="22" y1="6" y2="42"><stop offset="0" stop-color="#69a3fb"/><stop offset="1" stop-color="#477ef7"/></linearGradient><g fill="url(#a)"><path clip-rule="evenodd" d="m11 6h26c1.6569 0 3 1.34315 3 3v30c0 1.6569-1.3431 3-3 3h-26c-1.65685 0-3-1.3431-3-3v-18.0985c.0308.0027.06161.0055.09244.0084 3.65166.3459 6.83306 1.47 9.06676 4.0031.116.1199.2193.114.3369-.0061 2.8098-3.2551 7.1156-4.54 11.7438-4.1037.2571.0247.5131.0569.7651.0966.0324.0044.0713.0101.1114.016.0689.0102.1416.0209.1917.026.1532.0182.2369-.1044.2369-.2346-.0003-.0905-.0395-.1656-.1272-.209-.0558-.0304-.113-.0588-.1696-.0869-.0325-.0162-.0648-.0323-.0967-.0486-1.4308-.6884-3.0061-1.1421-4.68-1.3009-2.9565-.2792-5.7842.3997-8.172 1.7829-1.6344-.9276-3.4886-1.5322-5.4818-1.721-1.3072-.1239-2.58839-.0597-3.8177.1698v-10.2935c0-1.65685 1.34315-3 3-3zm20.8892 6.7877c-.0294-.016-.0594-.0309-.0892-.0457-.0121-.0061-.0242-.0121-.0361-.0181-.0049-.0025-.0098-.005-.0147-.0075-.7522-.3619-1.5805-.6004-2.4605-.6839-1.5544-.1468-3.0411.2101-4.2965.9373-.8592-.4876-1.8341-.8055-2.882-.9047-1.4449-.137-2.8292.1629-4.0269.7896-.0082.0039-.0167.0089-.0251.0138l-.0099.0058c-.0286.0221-.0483.0573-.0483.097 0 .0686.0549.1244.1237.1244.0037 0 .0073-.0004.0108-.0008.0033-.0004.0064-.0008.0095-.0008.0029-.0013.0059-.0013.0084-.0013.6434-.1196 1.3153-.1536 1.9992-.0887 1.9199.1819 3.5925.7729 4.7669 2.1047.0609.063.1153.0599.1771-.0033 1.4773-1.7113 3.7411-2.3869 6.1743-2.1575.1352.013.2698.0299.4023.0508.017.0023.0375.0053.0586.0085.0362.0053.0744.0109.1007.0136.0806.0096.1246-.0549.1246-.1234-.0002-.0475-.0208-.087-.0669-.1098z" fill-rule="evenodd"/><path d="m8 19.2935c-1.35506.2531-2.64709.7072-3.84149 1.3322-.01567.0074-.03177.0168-.04778.0262l-.01887.011c-.05433.042-.09186.109-.09186.1846 0 .1305.10446.2366.23525.2366.00708 0 .01394-.0008.02058-.0016.00621-.0007.01224-.0015.01806-.0015.0056-.0025.01121-.0025.01597-.0025 1.19483-.222 2.44119-.2889 3.71014-.177z"/></g></svg>