<svg width="10" height="10" viewBox="0 0 10 10" fill="none" xmlns="http://www.w3.org/2000/svg">
<path fill-rule="evenodd" clip-rule="evenodd" d="M5 0C5.41421 0 5.75 0.335786 5.75 0.75L5.75 9.25C5.75 9.66421 5.41421 10 5 10C4.58579 10 4.25 9.66421 4.25 9.25L4.25 0.75C4.25 0.335786 4.58579 0 5 0Z" fill="#F3F4F4"/>
<path fill-rule="evenodd" clip-rule="evenodd" d="M0.21967 4.46967C0.512563 4.17678 0.987437 4.17678 1.28033 4.46967L5 8.18934L8.71967 4.46967C9.01256 4.17678 9.48744 4.17678 9.78033 4.46967C10.0732 4.76256 10.0732 5.23744 9.78033 5.53033L5.53033 9.78033C5.23744 10.0732 4.76256 10.0732 4.46967 9.78033L0.21967 5.53033C-0.0732233 5.23744 -0.0732233 4.76256 0.21967 4.46967Z" fill="#F3F4F4"/>
</svg>
