<svg fill="none" height="48" viewBox="0 0 48 48" width="48" xmlns="http://www.w3.org/2000/svg" xmlns:xlink="http://www.w3.org/1999/xlink"><linearGradient id="a" gradientUnits="userSpaceOnUse" x1="24" x2="24" y1="6" y2="42"><stop offset="0" stop-color="#fdc121"/><stop offset="1" stop-color="#f7a308"/></linearGradient><g fill="url(#a)"><path d="m21.5 24c.8284 0 1.5-.6716 1.5-1.5s-.6716-1.5-1.5-1.5-1.5.6716-1.5 1.5.6716 1.5 1.5 1.5z"/><path clip-rule="evenodd" d="m11 6h26c1.6569 0 3 1.34315 3 3v30c0 1.6569-1.3431 3-3 3h-26c-1.65685 0-3-1.3431-3-3v-30c0-1.65685 1.34315-3 3-3zm15.4646 12.2425c3.6685-2.348 7.9424-3.8332 12.5353-4.1695v1.0028c-5.8112.4421-11.0884 2.7945-15.2051 6.4307.132.3045.2052.6405.2052.9935 0 1.3807-1.1193 2.5-2.5 2.5-.3068 0-.6006-.0553-.8722-.1564-3.5232 4.4367-5.6278 10.0508-5.6278 16.1564h-1c0-5.3515 1.5569-10.3394 4.2425-14.5354l-4.2764 4.2764c.0221.0826.0339.1694.0339.259 0 .5523-.4477 1-1 1s-1-.4477-1-1 .4477-1 1-1c.0896 0 .1764.0118.259.0339l6.1552-6.1552c-.2618-.3952-.4142-.8692-.4142-1.3787 0-1.3807 1.1193-2.5 2.5-2.5.5095 0 .9835.1524 1.3787.4142l6.1552-6.1552c-.0221-.0826-.0339-.1694-.0339-.259 0-.5523.4477-1 1-1s1 .4477 1 1-.4477 1-1 1c-.0896 0-.1764-.0118-.259-.0339z" fill-rule="evenodd"/></g></svg>