<svg width="49" height="16" viewBox="0 0 49 16" fill="none" xmlns="http://www.w3.org/2000/svg">
<path d="M7.90494 1.44928e-06C6.34129 1.73576e-06 4.81276 0.463733 3.51269 1.33255C2.21263 2.20137 1.19944 3.43624 0.601275 4.88095C0.00311036 6.32567 -0.153158 7.91534 0.152244 9.44887C0.457646 10.9824 1.211 12.3909 2.317 13.4963C3.42301 14.6016 4.83198 15.3541 6.3657 15.6586C7.89943 15.963 9.48899 15.8058 10.9333 15.2068C12.3777 14.6077 13.612 13.5938 14.48 12.2932C15.348 10.9926 15.8108 9.4638 15.8099 7.90015C15.8099 6.86229 15.6054 5.83459 15.2081 4.87579C14.8107 3.91698 14.2284 3.04587 13.4943 2.31221C12.7602 1.57855 11.8887 0.996728 10.9297 0.59999C9.97062 0.203251 8.94281 -0.000627179 7.90494 1.44928e-06ZM12.0105 10.6994C12.0105 10.7641 11.9848 10.8262 11.9391 10.872C11.8933 10.9177 11.8312 10.9435 11.7665 10.9435H10.7329C10.6682 10.9435 10.6061 10.9177 10.5604 10.872C10.5146 10.8262 10.4889 10.7641 10.4889 10.6994V7.51734C10.4866 7.51222 10.483 7.50786 10.4783 7.5048C10.4736 7.50174 10.4682 7.5001 10.4626 7.5001C10.457 7.5001 10.4515 7.50174 10.4468 7.5048C10.4422 7.50786 10.4385 7.51222 10.4362 7.51734L8.24947 9.70891C8.20483 9.75522 8.15132 9.79206 8.09212 9.81722C8.03292 9.84238 7.96926 9.85534 7.90494 9.85534C7.84062 9.85534 7.77696 9.84238 7.71776 9.81722C7.65857 9.79206 7.60505 9.75522 7.56041 9.70891L5.37364 7.52213C5.37141 7.517 5.36772 7.51265 5.36305 7.50959C5.35837 7.50653 5.35291 7.50489 5.34732 7.50489C5.34173 7.50489 5.33627 7.50653 5.33159 7.50959C5.32692 7.51265 5.32324 7.517 5.32101 7.52213V10.7042C5.32164 10.736 5.31592 10.7676 5.30418 10.7972C5.29244 10.8268 5.27492 10.8538 5.25264 10.8765C5.23036 10.8992 5.20377 10.9173 5.17443 10.9296C5.14509 10.9419 5.11358 10.9482 5.08175 10.9482H4.04817C3.98345 10.9482 3.92138 10.9225 3.87561 10.8768C3.82985 10.831 3.80413 10.7689 3.80413 10.7042V5.10567C3.80413 5.04095 3.82985 4.97887 3.87561 4.93311C3.92138 4.88734 3.98345 4.86163 4.04817 4.86163H4.75636C4.82048 4.86125 4.88402 4.87377 4.9432 4.89843C5.00238 4.92309 5.05601 4.95939 5.10089 5.00518L7.81881 7.72311C7.82997 7.73468 7.84335 7.74389 7.85815 7.75018C7.87294 7.75647 7.88886 7.75972 7.90494 7.75972C7.92102 7.75972 7.93694 7.75647 7.95174 7.75018C7.96653 7.74389 7.97991 7.73468 7.99107 7.72311L10.7138 5.00518C10.7587 4.95939 10.8123 4.92309 10.8715 4.89843C10.9306 4.87377 10.9942 4.86125 11.0583 4.86163H11.7665C11.8312 4.86163 11.8933 4.88734 11.9391 4.93311C11.9848 4.97887 12.0105 5.04095 12.0105 5.10567V10.6994Z" fill="#DD1405"/>
<path d="M34.0598 5.97657V5.1344C34.0598 5.07094 34.0346 5.01008 33.9897 4.96521C33.9448 4.92034 33.884 4.89514 33.8205 4.89514H29.1934C29.1303 4.89637 29.0701 4.92197 29.0255 4.96657C28.9809 5.01118 28.9553 5.07132 28.9541 5.1344V10.6659C28.9541 10.7294 28.9793 10.7902 29.0242 10.8351C29.069 10.88 29.1299 10.9052 29.1934 10.9052H33.8205C33.884 10.9052 33.9448 10.88 33.9897 10.8351C34.0346 10.7902 34.0598 10.7294 34.0598 10.6659V9.82377C34.0598 9.76031 34.0346 9.69945 33.9897 9.65458C33.9448 9.60972 33.884 9.58451 33.8205 9.58451H30.5188C30.5109 9.58518 30.5029 9.58418 30.4954 9.58159C30.4878 9.579 30.4809 9.57488 30.4751 9.56948C30.4692 9.56408 30.4646 9.55752 30.4614 9.55023C30.4582 9.54293 30.4566 9.53505 30.4566 9.52709V8.57007C30.4566 8.55357 30.4632 8.53775 30.4748 8.52609C30.4865 8.51442 30.5023 8.50787 30.5188 8.50787H33.8205C33.884 8.50787 33.9448 8.48266 33.9897 8.43779C34.0346 8.39292 34.0598 8.33207 34.0598 8.26862V7.54607C34.0598 7.48261 34.0346 7.42176 33.9897 7.37689C33.9448 7.33202 33.884 7.30681 33.8205 7.30681H30.5188C30.5109 7.30748 30.5029 7.30649 30.4954 7.3039C30.4878 7.30131 30.4809 7.29719 30.4751 7.29179C30.4692 7.28639 30.4646 7.27983 30.4614 7.27253C30.4582 7.26524 30.4566 7.25736 30.4566 7.2494V6.29238C30.4566 6.27588 30.4632 6.26006 30.4748 6.2484C30.4865 6.23673 30.5023 6.23017 30.5188 6.23017H33.8205C33.8532 6.23023 33.8855 6.2236 33.9155 6.21069C33.9455 6.19778 33.9726 6.17886 33.995 6.1551C34.0174 6.13134 34.0347 6.10325 34.0458 6.07254C34.057 6.04184 34.0617 6.00917 34.0598 5.97657Z" fill="#F3F4F4"/>
<path d="M46.913 10.9004H47.9657C47.9962 10.9005 48.0261 10.8928 48.0527 10.878C48.0793 10.8631 48.1016 10.8417 48.1174 10.8157C48.1333 10.7897 48.1422 10.7601 48.1433 10.7297C48.1444 10.6992 48.1376 10.6691 48.1236 10.642L45.4679 5.1679C45.4291 5.08647 45.3681 5.01767 45.2919 4.96941C45.2157 4.92115 45.1274 4.89541 45.0373 4.89515H44.4391C44.3481 4.8945 44.2588 4.91981 44.1817 4.96812C44.1046 5.01643 44.0428 5.08573 44.0037 5.1679L41.348 10.6659C41.3352 10.6935 41.3295 10.7238 41.3314 10.7541C41.3334 10.7844 41.3428 10.8137 41.359 10.8394C41.3752 10.8651 41.3975 10.8863 41.424 10.9012C41.4505 10.916 41.4803 10.924 41.5107 10.9243H42.5586C42.6263 10.9249 42.6927 10.9064 42.7503 10.8708C42.8079 10.8353 42.8542 10.7841 42.884 10.7234L43.3912 9.67065C43.4021 9.65083 43.418 9.63422 43.4373 9.62246C43.4566 9.61071 43.4786 9.60422 43.5012 9.60366H45.9751C45.997 9.60457 46.0183 9.61124 46.0368 9.623C46.0552 9.63477 46.0703 9.65121 46.0804 9.67065L46.5924 10.7234C46.6246 10.7793 46.6715 10.8254 46.728 10.8566C46.7845 10.8878 46.8485 10.9029 46.913 10.9004ZM43.9941 8.41218L44.6831 6.97666C44.6884 6.96664 44.6963 6.95825 44.706 6.9524C44.7157 6.94655 44.7269 6.94346 44.7382 6.94346C44.7495 6.94346 44.7606 6.94655 44.7703 6.9524C44.78 6.95825 44.7879 6.96664 44.7932 6.97666L45.4823 8.41218C45.4874 8.42112 45.4901 8.4313 45.49 8.44164C45.4899 8.45197 45.487 8.46209 45.4816 8.47091C45.4762 8.47973 45.4685 8.48693 45.4594 8.49176C45.4502 8.49658 45.44 8.49884 45.4296 8.49831H44.0467C44.0364 8.49884 44.0261 8.49658 44.017 8.49176C44.0078 8.48693 44.0002 8.47973 43.9948 8.47091C43.9894 8.46209 43.9865 8.45197 43.9864 8.44164C43.9862 8.4313 43.9889 8.42112 43.9941 8.41218Z" fill="#F3F4F4"/>
<path d="M26.4658 5.0387L23.7766 7.72312C23.7658 7.73456 23.7529 7.74368 23.7385 7.74992C23.7241 7.75615 23.7085 7.75937 23.6928 7.75937C23.6771 7.75937 23.6616 7.75615 23.6472 7.74992C23.6328 7.74368 23.6199 7.73456 23.6091 7.72312L20.9199 5.0387C20.8756 4.99348 20.8227 4.95751 20.7644 4.93287C20.7061 4.90823 20.6435 4.8954 20.5802 4.89514H19.8672C19.8041 4.89637 19.744 4.92197 19.6994 4.96657C19.6548 5.01118 19.6292 5.07132 19.6279 5.1344V10.6659C19.6279 10.7294 19.6531 10.7902 19.698 10.8351C19.7429 10.88 19.8037 10.9052 19.8672 10.9052H20.8912C20.9546 10.9052 21.0155 10.88 21.0604 10.8351C21.1052 10.7902 21.1304 10.7294 21.1304 10.6659V7.52693C21.131 7.52112 21.1332 7.51556 21.1366 7.51081C21.14 7.50606 21.1446 7.50229 21.1499 7.49987C21.1552 7.49745 21.1611 7.49647 21.1669 7.49702C21.1727 7.49757 21.1783 7.49963 21.1831 7.503L23.3459 9.66586C23.3904 9.71071 23.4433 9.7463 23.5016 9.7706C23.56 9.79489 23.6225 9.8074 23.6857 9.8074C23.7488 9.8074 23.8114 9.79489 23.8697 9.7706C23.928 9.7463 23.9809 9.71071 24.0254 9.66586L26.1835 7.503C26.1883 7.49963 26.1938 7.49757 26.1996 7.49702C26.2055 7.49647 26.2113 7.49745 26.2167 7.49987C26.222 7.50229 26.2266 7.50606 26.23 7.51081C26.2334 7.51556 26.2355 7.52112 26.2361 7.52693V10.6659C26.2361 10.7294 26.2613 10.7902 26.3062 10.8351C26.3511 10.88 26.4119 10.9052 26.4754 10.9052H27.5233C27.5867 10.9052 27.6476 10.88 27.6925 10.8351C27.7373 10.7902 27.7625 10.7294 27.7625 10.6659V5.1344C27.7613 5.07132 27.7357 5.01118 27.6911 4.96657C27.6465 4.92197 27.5864 4.89637 27.5233 4.89514H26.8055C26.7422 4.8954 26.6796 4.90823 26.6213 4.93287C26.563 4.95751 26.5101 4.99348 26.4658 5.0387Z" fill="#F3F4F4"/>
<path d="M40.7591 7.35946H38.3665C38.3031 7.35946 38.2422 7.38467 38.1974 7.42954C38.1525 7.47441 38.1273 7.53526 38.1273 7.59871V8.20163C38.1273 8.26509 38.1525 8.32594 38.1974 8.37081C38.2422 8.41568 38.3031 8.44089 38.3665 8.44089H39.7303C39.7399 8.44116 39.7494 8.44368 39.7579 8.44825C39.7664 8.45281 39.7738 8.4593 39.7793 8.46719C39.7849 8.47509 39.7886 8.48417 39.79 8.49372C39.7915 8.50327 39.7907 8.51304 39.7877 8.52223C39.6568 8.8729 39.4184 9.17321 39.1065 9.38025C38.7947 9.58729 38.4254 9.69046 38.0514 9.67503C37.6774 9.65959 37.3178 9.52634 37.0241 9.29432C36.7304 9.06229 36.5175 8.74336 36.416 8.3831C36.3144 8.02284 36.3292 7.63968 36.4585 7.28839C36.5877 6.93709 36.8247 6.63563 37.1355 6.42708C37.4463 6.21853 37.8151 6.11357 38.1892 6.12719C38.5632 6.14082 38.9234 6.27233 39.2183 6.50293C39.2622 6.54261 39.3194 6.56457 39.3786 6.56457C39.4378 6.56457 39.4949 6.54261 39.5389 6.50293L40.1801 5.86174C40.2041 5.83894 40.2233 5.81147 40.2363 5.78103C40.2494 5.7506 40.2562 5.71781 40.2562 5.68468C40.2562 5.65155 40.2494 5.61877 40.2363 5.58833C40.2233 5.5579 40.2041 5.53044 40.1801 5.50764C39.6046 5.01593 38.8698 4.75058 38.1129 4.76117C37.4905 4.76684 36.8837 4.95658 36.3689 5.30651C35.8541 5.65643 35.4544 6.15087 35.2202 6.72755C34.9859 7.30422 34.9275 7.93734 35.0524 8.54713C35.1773 9.15692 35.4799 9.7161 35.922 10.1542C36.3641 10.5924 36.926 10.8899 37.5369 11.0092C38.1478 11.1286 38.7804 11.0645 39.3549 10.825C39.9294 10.5855 40.4202 10.1813 40.7655 9.66342C41.1107 9.14549 41.295 8.53697 41.295 7.91453C41.2969 7.84272 41.2845 7.77126 41.2585 7.7043C41.2325 7.63735 41.1934 7.57625 41.1435 7.52458C41.0936 7.4729 41.0339 7.43168 40.9679 7.40333C40.9019 7.37498 40.8309 7.36007 40.7591 7.35946Z" fill="#F3F4F4"/>
<path d="M12.0101 10.6994C12.0101 10.7641 11.9844 10.8262 11.9386 10.8719C11.8929 10.9177 11.8308 10.9434 11.7661 10.9434H10.7325C10.6678 10.9434 10.6057 10.9177 10.5599 10.8719C10.5142 10.8262 10.4885 10.7641 10.4885 10.6994V7.5173C10.4862 7.51217 10.4825 7.50781 10.4779 7.50475C10.4732 7.50169 10.4677 7.50006 10.4621 7.50006C10.4566 7.50006 10.4511 7.50169 10.4464 7.50475C10.4417 7.50781 10.4381 7.51217 10.4358 7.5173L8.24905 9.70886C8.20441 9.75517 8.1509 9.79201 8.0917 9.81717C8.0325 9.84233 7.96884 9.8553 7.90452 9.8553C7.8402 9.8553 7.77654 9.84233 7.71734 9.81717C7.65815 9.79201 7.60463 9.75517 7.55999 9.70886L5.37322 7.52208C5.37099 7.51696 5.3673 7.5126 5.36263 7.50954C5.35795 7.50648 5.35249 7.50485 5.3469 7.50485C5.34131 7.50485 5.33585 7.50648 5.33117 7.50954C5.3265 7.5126 5.32282 7.51696 5.32059 7.52208V10.7042C5.32122 10.736 5.3155 10.7676 5.30376 10.7972C5.29202 10.8268 5.2745 10.8537 5.25222 10.8764C5.22994 10.8992 5.20335 10.9172 5.17401 10.9295C5.14466 10.9419 5.11316 10.9482 5.08133 10.9482H4.04775C3.98303 10.9482 3.92096 10.9225 3.87519 10.8767C3.82943 10.831 3.80371 10.7689 3.80371 10.7042V5.10562C3.80371 5.0409 3.82943 4.97883 3.87519 4.93306C3.92096 4.8873 3.98303 4.86158 4.04775 4.86158H4.75594C4.82006 4.86121 4.8836 4.87372 4.94278 4.89838C5.00196 4.92304 5.05559 4.95934 5.10047 5.00513L7.81839 7.72306C7.82955 7.73464 7.84293 7.74384 7.85773 7.75013C7.87252 7.75642 7.88844 7.75967 7.90452 7.75967C7.9206 7.75967 7.93652 7.75642 7.95132 7.75013C7.96611 7.74384 7.97949 7.73464 7.99065 7.72306L10.7134 5.00513C10.7582 4.95934 10.8119 4.92304 10.871 4.89838C10.9302 4.87372 10.9938 4.86121 11.0579 4.86158H11.7661C11.8308 4.86158 11.8929 4.8873 11.9386 4.93306C11.9844 4.97883 12.0101 5.0409 12.0101 5.10562V10.6994Z" fill="white"/>
</svg>
