<svg width="22" height="16" viewBox="0 0 22 16" fill="none" xmlns="http://www.w3.org/2000/svg">
<path fill-rule="evenodd" clip-rule="evenodd" d="M5.19849 4.05097C3.6647 5.33109 2.59442 6.83199 2.05425 7.6873C1.98048 7.8041 1.94878 7.85538 1.92767 7.896C1.91569 7.91906 1.9125 7.92849 1.90963 7.94046C1.90937 7.94223 1.90887 7.946 1.90831 7.95189C1.90711 7.96463 1.90625 7.98131 1.90625 8C1.90625 8.01869 1.90711 8.03537 1.90831 8.04811C1.90887 8.054 1.90937 8.05777 1.90963 8.05954C1.9125 8.07151 1.91569 8.08094 1.92767 8.104C1.94878 8.14462 1.98048 8.1959 2.05425 8.3127C2.59442 9.16801 3.6647 10.6689 5.19849 11.949C6.73051 13.2277 8.67978 14.25 11.0004 14.25C13.321 14.25 15.2703 13.2277 16.8023 11.949C18.3361 10.6689 19.4064 9.16801 19.9466 8.3127C20.0203 8.1959 20.052 8.14462 20.0731 8.104C20.0851 8.08094 20.0883 8.0715 20.0912 8.05953C20.0914 8.05776 20.0919 8.05399 20.0925 8.04811C20.0937 8.03537 20.0946 8.01869 20.0946 8C20.0946 7.98131 20.0937 7.96463 20.0925 7.95189C20.0919 7.94601 20.0914 7.94224 20.0912 7.94047C20.0883 7.9285 20.0851 7.91906 20.0731 7.896C20.052 7.85538 20.0203 7.8041 19.9466 7.6873C19.4064 6.83199 18.3361 5.33109 16.8023 4.05097C15.2703 2.77233 13.321 1.75 11.0004 1.75C8.67978 1.75 6.73051 2.77233 5.19849 4.05097ZM4.23734 2.89936C5.93786 1.48009 8.21602 0.25 11.0004 0.25C13.7848 0.25 16.0629 1.48009 17.7635 2.89936C19.4622 4.31717 20.6296 5.95967 21.2148 6.88634C21.2221 6.89782 21.2294 6.90936 21.2367 6.92098C21.3554 7.10817 21.4868 7.31542 21.5541 7.60902C21.608 7.84422 21.608 8.15578 21.5541 8.39098C21.4868 8.68458 21.3554 8.89184 21.2367 9.07902C21.2294 9.09064 21.2221 9.10218 21.2148 9.11366C20.6296 10.0403 19.4622 11.6828 17.7635 13.1006C16.0629 14.5199 13.7848 15.75 11.0004 15.75C8.21602 15.75 5.93786 14.5199 4.23734 13.1006C2.53859 11.6828 1.37123 10.0403 0.785997 9.11366C0.778747 9.10218 0.771429 9.09064 0.764062 9.07902C0.645381 8.89183 0.513977 8.68458 0.446682 8.39098C0.392773 8.15578 0.392773 7.84422 0.446682 7.60902C0.513978 7.31542 0.645382 7.10817 0.764064 6.92098C0.77143 6.90936 0.778747 6.89782 0.785997 6.88634C1.37123 5.95967 2.53859 4.31717 4.23734 2.89936ZM11.0004 5.75C9.75776 5.75 8.7504 6.75736 8.7504 8C8.7504 9.24264 9.75776 10.25 11.0004 10.25C12.243 10.25 13.2504 9.24264 13.2504 8C13.2504 6.75736 12.243 5.75 11.0004 5.75ZM7.2504 8C7.2504 5.92893 8.92934 4.25 11.0004 4.25C13.0715 4.25 14.7504 5.92893 14.7504 8C14.7504 10.0711 13.0715 11.75 11.0004 11.75C8.92934 11.75 7.2504 10.0711 7.2504 8Z" fill="#303233"/>
</svg>
